<?xml version="1.0" encoding="UTF-8" standalone="no"?>
<!-- Created with Inkscape (http://www.inkscape.org/) -->
<svg xmlns:inkscape="http://www.inkscape.org/namespaces/inkscape" xmlns:rdf="http://www.w3.org/1999/02/22-rdf-syntax-ns#" xmlns="http://www.w3.org/2000/svg" xmlns:sodipodi="http://sodipodi.sourceforge.net/DTD/sodipodi-0.dtd" xmlns:cc="http://creativecommons.org/ns#" xmlns:xlink="http://www.w3.org/1999/xlink" xmlns:dc="http://purl.org/dc/elements/1.1/" xmlns:svg="http://www.w3.org/2000/svg" xmlns:ns1="http://sozi.baierouge.fr" id="svg2" sodipodi:docname="blowtorch.wmf" inkscape:export-filename="C:\Documents and Settings\Guillou\Bureau\blowtorch.png" viewBox="0 0 744.09 1052.4" inkscape:export-xdpi="300" version="1.1" inkscape:export-ydpi="300" inkscape:version="0.48.0 r9654">
  <defs id="defs4">
    <linearGradient id="linearGradient3785" y2="766.44" gradientUnits="userSpaceOnUse" x2="426.61" gradientTransform="matrix(.44960 0 0 .44960 190.36 1183.3)" y1="766.44" x1="49.253" inkscape:collect="always">
      <stop id="stop3781" style="stop-color:#cccccc" offset="0"/>
      <stop id="stop3783" style="stop-color:#666666" offset="1"/>
    </linearGradient>
  </defs>
  <sodipodi:namedview id="base" bordercolor="#666666" inkscape:pageshadow="2" inkscape:window-y="-4" fit-margin-left="0" pagecolor="#ffffff" fit-margin-top="0" inkscape:window-maximized="1" inkscape:zoom="0.49497475" inkscape:window-x="-4" inkscape:window-height="1145" showgrid="false" borderopacity="1.0" inkscape:current-layer="layer1" inkscape:cx="768.12065" inkscape:cy="1119.0718" fit-margin-right="0" fit-margin-bottom="0" inkscape:window-width="1920" inkscape:pageopacity="0.0" inkscape:document-units="px"/>
  <g id="layer1" inkscape:label="Calque 1" inkscape:groupmode="layer" transform="translate(51.629 -1150)">
    <path id="path2998" sodipodi:nodetypes="ccccccccccccccccccccccccccccccccccccccsccccccccccccccccc" style="color:#000000;fill:#000000" inkscape:connector-curvature="0" d="m268.49 1344.5c-1.505-7.3574 2.9691-15.883 11.127-15.778 4.141-2.2485 5.252-21.458 0.22708-23.617-5.0097 0.1151-3.4375 7.7263-7.0396 10.673-4.5468 8.5709-18.86 13.858-24.922 3.9484-4.993-5.697-4.4084-15.945-3.6829-21.831 1.6861-4.0074 2.3577-12.676 5.2157-18.223 5.5764-4.491 11.008-11.467 20.048-10.384 7.6453 0.6062 8.6061 10.34 9.2303 16.274-2.9632 5.8821 4.6546 11.362 3.6485 3.0756 0.18208-15.983-0.46267-32.065 0.45416-47.974 6.7546-8.6298 17.078-14.121 27.023-18.444 30.802-12.35 65.097-8.2656 96.965-2.725 6.789-0.2187 10.933 8.0577 14.306-1.3572 12.757-15.886 36.824-14.884 53.137-5.2282 7.6895 3.5814 14.203 9.1615 21.774 12.927 8.4517-4.1177 26.347 3.0951 14.105 11.371-9.5187 1.7897-20.388 1.9947-27.705-5.3369-11.271-7.4837-24.178-14.581-38.149-13.738-8.4526 1.9189-18.666 8.0233-17.712 17.712 8.0672 12.852 25.188 13.338 38.604 15.432 10.867 0.9733 22.888 1.8307 32.219-4.9537 14.65-8.3304 29.702-18.856 47.414-17.644 8.4603 2.3355 3.4958 14.436-4.4689 12.389-18.148 0.875-31.289 15.24-47.687 21.119-17.25 4.9425-35.772 1.6419-52.683-3.1791-8.6998-2.4641-16.421-7.4829-22.197-14.439 3.1368 12.976-4.9971 20.19-17.696 16.479-23.596-0.3751-47.189-2.0527-70.797-1.0639-5.6303 8.5267-8.756 18.594-7.9086 28.933 0.12985 12.515 0.72662 25.169 0.5152 37.762 6.117 1.6592 14.563 0.607 18.394 6.3583 2.3434 8.9417-10.893 24.025 3.4358 22.231l-5.1246 4.2286c-8.2753 2.7496-23.374 0.2324-9.9807-8.1474 5.6915-17.409-16.888-11.721-27.048-12.672-6.3989 1.679-26.537-1.8706-19.71 8.6662 13.028-0.9704 25.177 4.6439 37.536 7.7209 7.6623 3.4335 2.0542 7.5388-6.8143 6.7752-36.504-3.1431-42.561-11.098-44.052-17.339zm29.521-18.049c18.338 5.1987 10.728-17.095 11.493-27.916-1.4525-17.575 0.0819-38.666 14.678-50.712 26.96-0.938 53.933 0.8279 80.898 0.8515-1.1494-6.4692 4.1681-18.568-5.6693-18.34-30.277-4.5382-63.612-8.0347-91.8 6.4177-3.5259 2.3435-7.5363 4.2841-10.934 6.5919-3.8223 8.6268-0.9484 23.064-1.8424 33.984-0.008 16.45-0.002 32.899-0.004 49.349 1.0632-0.027 2.1375 0.1019 3.1792-0.2271zm-38.724-13.897c8.7189-6.921 7.7501-22.529 5.5377-30.838-5.3287-1.4878-4.3262 7.1188-6.5535 10.446-2.0724 6.5746-4.1345 14.737-0.28419 20.868z"/>
    <path id="path3768" style="color:#000000;fill:#ff7f7e" inkscape:connector-curvature="0" d="m488.03 1268.9c-0.0594-0.058-1.6919-0.2208-3.6278-0.361-3.3125-0.2399-5.3536-0.4721-11.168-1.2704-1.3341-0.1831-2.7903-0.333-3.2359-0.333-0.44565 0-0.81026-0.1022-0.81026-0.2271 0-0.1281-0.64341-0.2271-1.476-0.2271-0.83263 0-1.476-0.099-1.476-0.227 0-0.1249-0.51094-0.2271-1.1354-0.2271-0.62448 0-1.1354-0.1022-1.1354-0.2271 0-0.1262-0.60556-0.2271-1.3625-0.2271-0.75695 0-1.3625-0.1009-1.3625-0.2271 0-0.1249-0.51094-0.2271-1.1354-0.2271-0.62448 0-1.1354-0.1021-1.1354-0.227s-0.40876-0.2271-0.90834-0.2271-0.90833-0.1022-0.90833-0.2271-0.30656-0.2271-0.68125-0.2271-0.68125-0.1022-0.68125-0.2271-0.30656-0.227-0.68125-0.227c-0.37468 0-0.68125-0.1022-0.68125-0.2271s-0.25547-0.2271-0.56771-0.2271-0.5677-0.1022-0.5677-0.2271-0.40876-0.2271-0.90834-0.2271-0.90833-0.1022-0.90833-0.2271 0.50491-0.227 1.122-0.227c0.61711 0 1.1852 0.1021 1.2624 0.227s0.74744 0.2271 1.4894 0.2271c0.748 0 1.3491 0.1012 1.3491 0.2271 0 0.131 0.71462 0.2271 1.6897 0.2271 0.92934 0 1.7529 0.1022 1.8301 0.2271s0.84963 0.2271 1.7165 0.2271c0.8994 0 1.5762 0.098 1.5762 0.227 0 0.1298 0.68125 0.2271 1.5896 0.2271 0.90833 0 1.5896 0.097 1.5896 0.2271 0 0.1393 1.0976 0.2271 2.8385 0.2271 1.741 0 2.8385 0.088 2.8385 0.2271 0 0.1362 0.90833 0.227 2.2708 0.227s2.2708-0.091 2.2708-0.227c0-0.1398 1.1354-0.2271 2.9521-0.2271s2.9521-0.087 2.9521-0.2271c0-0.1259 0.60108-0.2271 1.3491-0.2271 0.74201 0 1.4122-0.1022 1.4894-0.2271s0.69031-0.227 1.3625-0.227c0.67218 0 1.2853-0.1022 1.3625-0.2271s0.49196-0.2271 0.92173-0.2271c0.42976 0 0.78139-0.1022 0.78139-0.2271s0.30053-0.2271 0.66785-0.2271c0.36731 0 0.731-0.1022 0.80819-0.2271 0.0772-0.1249 0.49197-0.227 0.92173-0.227s0.78139-0.1022 0.78139-0.2271 0.30656-0.2271 0.68125-0.2271 0.68125-0.1022 0.68125-0.2271 0.25547-0.2271 0.56771-0.2271 0.5677-0.1022 0.5677-0.2271 0.25548-0.227 0.56771-0.227c0.31224 0 0.56771-0.1022 0.56771-0.2271s0.20437-0.2271 0.45417-0.2271c0.24979 0 0.45416-0.1022 0.45416-0.2271s0.25547-0.2271 0.56771-0.2271 0.56771-0.1022 0.56771-0.2271 0.20437-0.227 0.45416-0.227c0.2498 0 0.45417-0.1022 0.45417-0.2271s0.20438-0.2271 0.45417-0.2271 0.45416-0.1022 0.45416-0.2271 0.18182-0.2271 0.40404-0.2271 0.55134-0.2044 0.73138-0.4541c0.18004-0.2498 0.50916-0.4542 0.73138-0.4542s0.40403-0.085 0.40403-0.1887c0-0.1038 0.28102-0.333 0.62448-0.5094 0.34347-0.1764 0.77776-0.4839 0.96511-0.6833 0.18734-0.1995 0.62164-0.432 0.9651-0.5168 0.34347-0.085 0.62448-0.2545 0.62448-0.377s0.20438-0.2227 0.45417-0.2227 0.45416-0.1022 0.45416-0.2271 0.16453-0.2271 0.36561-0.2271c0.44363 0 2.8364-1.2532 3.4173-1.7899 0.56747-0.5242 2.3091-1.6708 3.1431-2.0693 0.37469-0.179 0.93672-0.4947 1.249-0.7016 0.31223-0.2069 1.3341-0.7816 2.2708-1.2771 3.3241-1.7583 3.7477-1.9984 3.8226-2.1668 0.0416-0.094 0.27156-0.1703 0.51094-0.1703 0.23939 0 0.43525-0.1022 0.43525-0.2271s0.20437-0.2271 0.45416-0.2271 0.45417-0.077 0.45417-0.1715c0-0.1618 0.24128-0.2656 2.3276-1.0017 0.46836-0.1652 0.85156-0.3776 0.85156-0.4719 0-0.094 0.30656-0.1715 0.68125-0.1715s0.68125-0.1022 0.68125-0.2271 0.20438-0.2271 0.45417-0.2271 0.45416-0.1022 0.45416-0.2271 0.30657-0.227 0.68125-0.227c0.37469 0 0.68125-0.1022 0.68125-0.2271s0.30656-0.2271 0.68125-0.2271 0.68125-0.1022 0.68125-0.2271 0.25547-0.2271 0.56771-0.2271 0.56771-0.1022 0.56771-0.2271 0.24944-0.227 0.5543-0.227c0.30487 0 0.61746-0.1022 0.69465-0.2271 0.0772-0.1249 1.0029-0.2271 2.0572-0.2271 1.1265 0 1.9168-0.094 1.9168-0.2271 0-0.1382 1.0219-0.2271 2.6115-0.2271s2.6114-0.089 2.6114-0.2271c0-0.1249 0.40875-0.227 0.90833-0.227 0.49959 0 0.90834-0.1022 0.90834-0.2271s0.284-0.2271 0.63112-0.2271c0.37061 0 0.76623-0.1875 0.95846-0.4542 0.18004-0.2498 0.46271-0.4541 0.62816-0.4541 0.33257 0 1.4156-1.0018 1.4156-1.3094 0-0.107 0.20863-0.4185 0.46363-0.6922 0.40707-0.437 0.46362-0.795 0.46362-2.935 0-1.488-0.0921-2.4681-0.23654-2.5162-0.1301-0.043-0.23655-0.2236-0.23655-0.4005 0-0.177-0.10218-0.3217-0.22708-0.3217s-0.22708-0.158-0.22708-0.351c0-0.4041-0.99114-1.4657-1.3684-1.4657-0.13949 0-0.39638-0.1428-0.57086-0.3172-0.17448-0.1745-0.87929-0.4941-1.5662-0.7101-1.7389-0.547-5.8654-0.3302-11.141 0.5852-0.74937 0.13-1.7968 0.293-2.3276 0.3621-0.53081 0.069-0.9651 0.2176-0.9651 0.3299 0 0.1124-0.22267 0.2043-0.49482 0.2043s-0.80863 0.096-1.1922 0.2145c-0.38356 0.118-1.4888 0.4501-2.4561 0.738-0.96732 0.2879-1.7593 0.6001-1.7599 0.6938-0.00045 0.094-0.20551 0.1703-0.4553 0.1703s-0.45416 0.1022-0.45416 0.2271-0.20438 0.2271-0.45417 0.2271-0.45417 0.1022-0.45417 0.2271-0.1562 0.2271-0.3471 0.2271c-0.19091 0-0.9544 0.3065-1.6966 0.6812-0.74225 0.3747-1.5568 0.6813-1.8102 0.6813-0.25335 0-0.46064 0.1021-0.46064 0.227s-0.15328 0.2271-0.34062 0.2271c-0.18735 0-0.34063 0.1022-0.34063 0.2271s-0.25547 0.2271-0.56771 0.2271-0.5677 0.1022-0.5677 0.2271-0.20438 0.2271-0.45417 0.2271-0.45416 0.1021-0.45416 0.227-0.20438 0.2271-0.45417 0.2271-0.45417 0.1022-0.45417 0.2271-0.15328 0.2271-0.34062 0.2271c-0.18735 0-0.34063 0.1022-0.34063 0.2271s-0.20438 0.2271-0.45416 0.2271c-0.24979 0-0.45417 0.1021-0.45417 0.227s-0.20438 0.2271-0.45417 0.2271-0.45416 0.1022-0.45416 0.2271-0.15328 0.2271-0.34063 0.2271c-0.18734 0-0.34062 0.1022-0.34062 0.2271s-0.20438 0.2271-0.45417 0.2271-0.45417 0.1021-0.45417 0.227-0.20437 0.2271-0.45416 0.2271-0.45417 0.1022-0.45417 0.2271-0.20438 0.2271-0.45417 0.2271c-0.24978 0-0.45416 0.1022-0.45416 0.2271s-0.20438 0.2271-0.45417 0.2271-0.45417 0.1021-0.45417 0.227-0.20437 0.2271-0.45416 0.2271-0.45417 0.1022-0.45417 0.2271-0.18181 0.2271-0.40403 0.2271-0.55134 0.2044-0.73138 0.4542c-0.18004 0.2497-0.4866 0.4541-0.68125 0.4541s-0.50121 0.2044-0.68125 0.4542-0.50916 0.4542-0.73138 0.4542-0.40404 0.1021-0.40404 0.227-0.18181 0.2271-0.40403 0.2271-0.55134 0.2044-0.73138 0.4542-0.4866 0.4542-0.68125 0.4542-0.50121 0.2043-0.68125 0.4541-0.50916 0.4542-0.73138 0.4542-0.40404 0.1022-0.40404 0.2271-0.23273 0.227-0.51718 0.227c-0.49103 0-1.1463 0.3625-2.044 1.1305-0.73621 0.6298-3.0373 1.8841-4.5919 2.5029-0.24979 0.099-0.81182 0.3371-1.249 0.5281-0.43714 0.191-1.2546 0.4933-1.8167 0.6717-0.96272 0.3055-1.5614 0.4723-3.7469 1.0441-2.2972 0.601-4.9114 0.7533-10.673 0.6219-9.3523-0.2132-16.194-0.91-21.573-2.197-2.3831-0.5702-4.1302-0.882-6.9895-1.2473-0.72181-0.092-1.3665-0.2553-1.4327-0.3623-0.0662-0.1071-0.33693-0.1946-0.6017-0.1946-0.49729 0-2.0162-0.4714-2.2168-0.6879-0.0625-0.067-0.87994-0.371-1.8167-0.6746-0.93672-0.3037-1.7544-0.6229-1.8172-0.7094-0.0627-0.086-0.49703-0.2291-0.9651-0.3169-0.46807-0.088-0.85104-0.2505-0.85104-0.3615s-0.20438-0.2018-0.45417-0.2018-0.45417-0.1022-0.45417-0.2271-0.20437-0.2271-0.45416-0.2271-0.45417-0.1022-0.45417-0.2271-0.18181-0.227-0.40403-0.227-0.55134-0.2044-0.73138-0.4542-0.50228-0.4542-0.71608-0.4542-0.4536-0.2044-0.53288-0.4541c-0.0793-0.2498-0.26798-0.4542-0.41934-0.4542-0.15135 0-0.42249-0.2044-0.60253-0.4542s-0.41191-0.4541-0.51526-0.4541c-0.25079 0-3.3452-3.1462-3.3452-3.4012 0-0.1099-0.14003-0.3398-0.31118-0.5109-0.17115-0.1712-0.48848-0.6541-0.70519-1.0731-0.59306-1.1469-0.30492-4.1619 0.52593-5.5033 0.33362-0.5386 0.75927-1.2851 0.9459-1.659 0.18663-0.3738 1.4732-1.8045 2.8591-3.1791 2.7868-2.7644 3.1334-3.0672 3.5108-3.0672 0.1425 0 0.54547-0.3065 0.89548-0.6812s0.79976-0.6813 0.99944-0.6813 0.36306-0.1022 0.36306-0.2271 0.20437-0.227 0.45416-0.227c0.2498 0 0.45417-0.1022 0.45417-0.2271s0.30656-0.2271 0.68125-0.2271 0.68125-0.1022 0.68125-0.2271 0.30656-0.2271 0.68125-0.2271 0.68125-0.1022 0.68125-0.2271 0.30656-0.227 0.68125-0.227c0.37468 0 0.68125-0.1022 0.68125-0.2271s0.40875-0.2271 0.90833-0.2271 0.90833-0.1022 0.90833-0.2271c0-0.1432 1.5517-0.2271 4.201-0.2271 2.388 0 4.201 0.09 4.201 0.2077 0 0.1143 0.63867 0.2631 1.4193 0.3308 2.4433 0.2118 3.5766 0.4082 3.5766 0.6198 0 0.1123 0.30656 0.2042 0.68125 0.2042 0.37468 0 0.68125 0.1022 0.68125 0.2271s0.20437 0.2271 0.45417 0.2271c0.24979 0 0.45416 0.1022 0.45416 0.2271s0.30656 0.2271 0.68125 0.2271 0.68125 0.1021 0.68125 0.227 0.30656 0.2271 0.68125 0.2271 0.68125 0.1022 0.68125 0.2271 0.20437 0.2271 0.45417 0.2271c0.24979 0 0.45416 0.1022 0.45416 0.2271s0.20438 0.227 0.45417 0.227 0.45417 0.1022 0.45417 0.2271 0.30656 0.2271 0.68124 0.2271c0.37469 0 0.68125 0.077 0.68125 0.1717 0 0.094 0.33211 0.3153 0.73802 0.491 0.40592 0.1757 1.6066 0.7239 2.6682 1.2183s2.5575 1.1907 3.3242 1.5474c1.6501 0.7677 5.1591 2.8853 5.2672 3.1787 0.0416 0.113 0.27156 0.2054 0.51094 0.2054s0.43524 0.09 0.43524 0.1995c0 0.1098 0.30656 0.3266 0.68125 0.4818s0.68125 0.3595 0.68125 0.4541c0 0.095 0.30656 0.299 0.68125 0.4542s0.68125 0.3596 0.68125 0.4542c0 0.095 0.30656 0.2989 0.68125 0.4541s0.68125 0.3596 0.68125 0.4542c0 0.095 0.30656 0.299 0.68125 0.4542s0.68125 0.3564 0.68125 0.4472c0 0.091 0.40875 0.3494 0.90833 0.5746 0.49958 0.2253 0.90833 0.4894 0.90833 0.5869 0 0.098 0.20766 0.2432 0.46147 0.3238 0.2538 0.08 0.709 0.394 1.0116 0.6965 0.30255 0.3026 0.65692 0.5501 0.78749 0.5501 0.13058 0 0.23741 0.1022 0.23741 0.2271s0.15328 0.2271 0.34063 0.2271c0.18734 0 0.34062 0.1022 0.34062 0.2271s0.25547 0.2271 0.56771 0.2271 0.5677 0.1021 0.5677 0.227 0.25547 0.2271 0.56771 0.2271 0.56771 0.1022 0.56771 0.2271 0.40875 0.2271 0.90833 0.2271c0.49959 0 0.90833 0.1054 0.90833 0.2342 0 0.1579 1.9804 0.1976 6.0745 0.1219 7.856-0.1453 11.411-0.3313 11.411-0.5969 0-0.1174 0.25547-0.2134 0.56771-0.2134s0.5677-0.1022 0.5677-0.2271 0.15328-0.227 0.34063-0.227c0.18734 0 0.34062-0.1022 0.34062-0.2271s0.15328-0.2271 0.34063-0.2271c0.18734 0 0.34062-0.087 0.34062-0.1923 0-0.17 0.27671-0.5498 1.1488-1.5768 0.13687-0.1612 0.40845-0.922 0.60352-1.6906 0.2793-1.1006 0.30315-1.6173 0.11223-2.4319-0.13334-0.569-0.3028-1.3155-0.37658-1.6591-0.20225-0.9417-2.5478-3.1868-3.6855-3.5276-0.98217-0.2943-4.9035-0.4287-5.6606-0.194-0.23671 0.073-1.3501 0.251-2.4741 0.3947-4.754 0.608-6.5325 0.3727-8.8562-1.1717-0.87427-0.5811-1.8195-1.1292-2.1005-1.2179-0.28101-0.089-0.51093-0.2566-0.51093-0.3731s-0.18182-0.2118-0.40404-0.2118-0.55133-0.2044-0.73138-0.4542c-0.18004-0.2497-0.50916-0.4541-0.73138-0.4541s-0.40403-0.1022-0.40403-0.2271-0.15328-0.2271-0.34062-0.2271c-0.18735 0-0.34063-0.1022-0.34063-0.2271s-0.13072-0.227-0.29049-0.227-0.4378-0.2044-0.61784-0.4542c-0.18005-0.2498-0.48661-0.4542-0.68125-0.4542-0.19465 0-0.50121-0.2044-0.68125-0.4541-0.18005-0.2498-0.50916-0.4542-0.73138-0.4542s-0.40404-0.1022-0.40404-0.2271-0.18182-0.2271-0.40404-0.2271c-0.22221 0-0.55133-0.2044-0.73137-0.4541-0.18005-0.2498-0.50917-0.4542-0.73138-0.4542-0.22222 0-0.40404-0.1022-0.40404-0.2271s-0.18182-0.2271-0.40404-0.2271-0.55133-0.2044-0.73138-0.4541c-0.18004-0.2498-0.50916-0.4542-0.73138-0.4542-0.22221 0-0.40403-0.1022-0.40403-0.2271s-0.20438-0.2271-0.45417-0.2271-0.45416-0.1022-0.45416-0.2271-0.13402-0.227-0.29781-0.227-0.51718-0.2044-0.7853-0.4542-0.64504-0.4542-0.8376-0.4542c-0.19257 0-0.35013-0.1022-0.35013-0.2271s-0.15328-0.227-0.34062-0.227-0.34063-0.1022-0.34063-0.2271-0.20437-0.2271-0.45416-0.2271-0.45417-0.1022-0.45417-0.2271-0.20437-0.2271-0.45416-0.2271c-0.2498 0-0.45417-0.1022-0.45417-0.2271s-0.20437-0.227-0.45417-0.227c-0.24979 0-0.45416-0.1022-0.45416-0.2271s-0.17883-0.2294-0.3974-0.2322c-0.21857 0-0.65286-0.2048-0.9651-0.4491-0.31224-0.2442-0.67974-0.4463-0.81667-0.4491-0.13694 0-0.54568-0.1472-0.90834-0.3209-0.36265-0.1737-1.0681-0.4931-1.5677-0.7097-0.49958-0.2167-1.6747-0.7546-2.6114-1.1955-0.93672-0.4409-2.0608-0.8832-2.4979-0.983-1.0332-0.2358-2.8558-0.6842-5.5068-1.3546-1.5871-0.4014-7.4649-1.161-9.1401-1.1812-2.9604-0.036-7.3314 0.357-8.5307 0.7666-0.69524 0.2374-1.4872 0.4316-1.7599 0.4316-0.27271 0-0.49582 0.1022-0.49582 0.2271s-0.21333 0.2271-0.47406 0.2271c-0.5961 0-4.8359 1.4119-4.9381 1.6444-0.0416 0.095-0.16389 0.1722-0.27169 0.1722s-0.80624 0.3577-1.5521 0.7948c-0.74585 0.4372-1.4156 0.7948-1.4882 0.7948-0.0727 0-0.13143-0.2299-0.13061-0.5109 0.002-0.6812 0.60837-1.564 2.1625-3.1483 1.0819-1.1029 1.537-1.39 2.8456-1.795 1.4681-0.4544 1.9208-0.4765 7.8684-0.3835 3.4708 0.054 7.8434 0.2628 9.7169 0.4634 1.8734 0.2006 4.0777 0.3678 4.8983 0.3716 0.82064 0 2.4494 0.2115 3.6194 0.4615s3.5131 0.5583 5.2069 0.685c3.4961 0.2616 3.9683 0.3308 6.4858 0.9497 2.9172 0.7173 3.49 0.837 6.2849 1.3133 1.4584 0.2485 3.0934 0.5942 3.6333 0.7682 0.53997 0.1741 1.646 0.4438 2.4578 0.5994 0.81182 0.1556 2.6566 0.5758 4.0996 0.9338 1.443 0.3579 3.1035 0.7165 3.6901 0.7969 0.58661 0.08 1.0666 0.2345 1.0666 0.3424 0 0.108 0.45985 0.1963 1.0219 0.1963 0.56203 0 1.0219 0.1021 1.0219 0.227s0.35766 0.2271 0.79479 0.2271c0.43714 0 0.79479 0.1022 0.79479 0.2271s0.35766 0.2271 0.7948 0.2271c0.43713 0 0.79479 0.1022 0.79479 0.2271s0.25547 0.2271 0.56771 0.2271 0.5677 0.1021 0.5677 0.227 0.30656 0.2271 0.68125 0.2271 0.68125 0.1022 0.68125 0.2271 0.30656 0.2271 0.68125 0.2271 0.68125 0.1022 0.68125 0.2271 0.30656 0.2271 0.68125 0.2271 0.68125 0.1021 0.68125 0.227 0.30656 0.2271 0.68125 0.2271c0.37468 0 0.68125 0.1022 0.68125 0.2271s0.30656 0.2271 0.68125 0.2271c0.37468 0 0.68125 0.1022 0.68125 0.2271s0.30656 0.2271 0.68124 0.2271c0.37469 0 0.68125 0.1021 0.68125 0.227s0.40876 0.2271 0.90834 0.2271 0.90833 0.1022 0.90833 0.2271 0.20438 0.2271 0.45417 0.2271 0.45416 0.1022 0.45416 0.2271 0.25547 0.2271 0.56771 0.2271 0.56771 0.1021 0.56771 0.227 0.30656 0.2271 0.68125 0.2271c0.37468 0 0.68125 0.1022 0.68125 0.2271s0.35765 0.2271 0.79479 0.2271 0.79479 0.1022 0.79479 0.2271 0.30656 0.2271 0.68125 0.2271 0.68125 0.1021 0.68125 0.227 0.25547 0.2271 0.56771 0.2271 0.56771 0.1022 0.56771 0.2271 0.30656 0.2271 0.68125 0.2271c0.37468 0 0.68125 0.1022 0.68125 0.2271s0.40875 0.2271 0.90833 0.2271 0.90833 0.1021 0.90833 0.227 0.20438 0.2271 0.45417 0.2271 0.45416 0.1022 0.45416 0.2271 0.30657 0.2271 0.68125 0.2271c0.37469 0 0.68125 0.1022 0.68125 0.2271s0.30656 0.227 0.68125 0.227 0.68125 0.1022 0.68125 0.2271 0.30656 0.2271 0.68125 0.2271 0.68125 0.091 0.68125 0.2028c0 0.5703 4.9134 1.0781 13.171 1.361 3.7349 0.128 6.793 0.3486 8.0615 0.5814 3.301 0.6059 9.9343 1.9428 10.673 2.1511 0.37469 0.1056 1.933 0.4304 3.463 0.7216 2.6681 0.5078 2.783 0.553 2.8131 1.1052 0.0278 0.5103 0.0224 1.5041-0.0187 3.4466-0.009 0.4256-0.16104 0.6382-0.52362 0.7321-0.48277 0.125-1.2372 0.6722-2.3763 1.7237-0.27655 0.2552-0.56322 0.4641-0.63705 0.4641-0.0738 0-0.74045 0.6387-1.4814 1.4193-0.74093 0.7806-1.7466 1.8406-2.2349 2.3556-0.48827 0.5151-1.0143 1.1728-1.1689 1.4618-0.27427 0.5124-0.49202 0.808-1.0713 1.4539-0.15612 0.1741-0.28385 0.4361-0.28385 0.5823 0 0.1461-0.30656 0.5521-0.68125 0.9021s-0.68125 0.7553-0.68125 0.9006c0 0.1454-0.51093 0.762-1.1354 1.3702-0.62448 0.6083-1.1354 1.2249-1.1354 1.3702s-0.30656 0.5506-0.68125 0.9006c-0.37469 0.3501-0.68125 0.7015-0.68125 0.7811 0 0.1561-3.3212 3.4203-5.2736 5.1831-1.3658 1.2331-2.6049 2.1479-3.1852 2.3515-0.21857 0.077-0.3974 0.2297-0.3974 0.34s-0.20438 0.2006-0.45417 0.2006-0.45416 0.1022-0.45416 0.2271-0.20438 0.2271-0.45417 0.2271-0.45417 0.1021-0.45417 0.227-0.15328 0.2271-0.34062 0.2271c-0.18735 0-0.34063 0.1022-0.34063 0.2271s-0.25547 0.2271-0.56771 0.2271-0.5677 0.1022-0.5677 0.2271-0.20438 0.2271-0.45417 0.2271-0.45416 0.1021-0.45416 0.227-0.25547 0.2271-0.56771 0.2271-0.56771 0.1022-0.56771 0.2271-0.25547 0.2271-0.56771 0.2271-0.56771 0.1022-0.56771 0.2271-0.20437 0.2271-0.45416 0.2271-0.45417 0.1021-0.45417 0.227-0.20437 0.2271-0.45416 0.2271c-0.2498 0-0.45417 0.1022-0.45417 0.2271s-0.20437 0.2271-0.45417 0.2271c-0.24979 0-0.45416 0.1022-0.45416 0.2271s-0.30657 0.2271-0.68125 0.2271c-0.37469 0-0.68125 0.1021-0.68125 0.227s-0.20438 0.2271-0.45417 0.2271-0.45416 0.1022-0.45416 0.2271-0.30657 0.2271-0.68125 0.2271c-0.37469 0-0.68125 0.1022-0.68125 0.2271s-0.30657 0.2271-0.68125 0.2271c-0.37469 0-0.68125 0.1021-0.68125 0.227s-0.30657 0.2271-0.68125 0.2271c-0.37469 0-0.68125 0.1022-0.68125 0.2271s-0.30657 0.2271-0.68125 0.2271c-0.37469 0-0.68125 0.1022-0.68125 0.2271s-0.30657 0.2271-0.68125 0.2271c-0.37469 0-0.68125 0.1021-0.68125 0.227s-0.35766 0.2271-0.79479 0.2271c-0.43714 0-0.79479 0.1022-0.79479 0.2271s-0.30657 0.2271-0.68125 0.2271c-0.37469 0-0.68125 0.1022-0.68125 0.2271s-0.30657 0.227-0.68125 0.227c-0.37469 0-0.68125 0.1022-0.68125 0.2271s-0.40875 0.2271-0.90834 0.2271c-0.49957 0-0.90833 0.1022-0.90833 0.2271s-0.30656 0.2271-0.68125 0.2271c-0.37468 0-0.68125 0.1022-0.68125 0.2271s-0.45984 0.227-1.0219 0.227c-0.56203 0-1.0219 0.089-1.0219 0.1982 0 0.109-0.48539 0.2594-1.0786 0.3341-0.59325 0.075-1.7429 0.3012-2.5547 0.5031-3.2075 0.7979-8.1628 1.2819-14.198 1.3867-3.2503 0.056-5.9583 0.055-6.0177 0zm-16.344-30.577c0-0.1249 0.35766-0.227 0.79479-0.227 0.43714 0 0.79479-0.1022 0.79479-0.2271s0.35766-0.2271 0.79479-0.2271c0.43714 0 0.7948-0.1022 0.7948-0.2271s0.284-0.2271 0.63112-0.2271c0.37061 0 0.76623-0.1874 0.95846-0.4541 0.18004-0.2498 0.41427-0.4542 0.52051-0.4542 0.10625 0 0.33916-0.146 0.51758-0.3244 0.36679-0.3668 0.44577-1.9464 0.0973-1.9464-0.12489 0-0.22708-0.1065-0.22708-0.2367 0-0.5696-1.2183-1.7165-4.22-3.9725-3.9174-2.9443-3.6755-2.8967-14.126-2.7789-5.3214 0.06-8.9506 0.1943-9.5856 0.3549-0.56203 0.1421-2.2409 0.4243-3.7308 0.6272-3.6337 0.4948-7.8646 1.9002-8.9311 2.9666-0.17287 0.1729-0.39839 0.3144-0.50116 0.3144-0.10276 0-0.49292 0.281-0.86701 0.6244-0.37409 0.3435-0.90536 0.7778-1.1806 0.9651-0.27525 0.1874-0.71092 0.5195-0.96818 0.7381-0.25725 0.2185-0.55428 0.3974-0.66007 0.3974-0.10578 0-0.19234 0.1021-0.19234 0.227s0.30657 0.2271 0.68125 0.2271c0.37469 0 0.68125 0.1022 0.68125 0.2271s0.30656 0.2271 0.68125 0.2271 0.68125 0.1022 0.68125 0.2271 0.30656 0.2271 0.68125 0.2271 0.68125 0.1021 0.68125 0.227 0.40875 0.2271 0.90833 0.2271c0.49959 0 0.90834 0.1022 0.90834 0.2271s0.51094 0.2271 1.1354 0.2271c0.62448 0 1.1354 0.1022 1.1354 0.2271s0.40875 0.2271 0.90833 0.2271 0.90833 0.1021 0.90833 0.227 0.20438 0.2271 0.45417 0.2271 0.45417 0.1022 0.45417 0.2271 0.51094 0.2271 1.1354 0.2271c0.62448 0 1.1354 0.1022 1.1354 0.2271 0 0.1345 0.83263 0.2271 2.0437 0.2271s2.0438 0.092 2.0438 0.227c0 0.1483 3.8226 0.2271 11.014 0.2271 7.191 0 11.014-0.079 11.014-0.2271z"/>
    <path id="path3770" style="color:#000000;fill:#fbffc2" inkscape:connector-curvature="0" d="m450.99 1238.5c-0.0611-0.061-1.2788-0.2136-2.7061-0.339-1.4273-0.1253-3.0038-0.2861-3.5034-0.3572-0.87269-0.1242-1.1276-0.2028-2.3844-0.7349-0.56742-0.2402-1.0322-0.3549-2.9521-0.7285-2.2224-0.4324-2.7975-0.5973-6.774-1.9416-0.32588-0.1102 4.0337-3.4882 5.3922-4.1781 2.664-1.3531 8.8519-2.5855 14.967-2.9808 4.6946-0.3036 15.013-0.1664 16.203 0.2154 1.019 0.327 2.5833 1.3756 5.3566 3.5909 2.1689 1.7325 3.2324 3.0562 3.2324 4.0228 0 0.6366-1.6386 2.1795-2.3148 2.1795-0.22901 0-0.59382 0.09-0.81069 0.1992-0.688 0.3476-1.9375 0.6814-3.4599 0.9244-1.4539 0.232-20.024 0.3493-20.246 0.1279z"/>
    <path id="path3777" sodipodi:nodetypes="cscsssssc" style="stroke:#000000;stroke-width:11.24;fill:#ffcc00" inkscape:connector-curvature="0" d="m257.28 1626.6s79.452-8.6236 106.31 1.5219c26.857 10.145 34.69 43.118 34.69 43.118s20.702 154.58 17.345 309.29c-3.3571 154.72-5.0304 158.64-13.429 166.38-44.09 40.67-178.55 17.567-188 14.711-35.25-10.653-43.083-57.829-44.202-232.33-0.71577-111.62 6.5103-268.71 22.94-281.9 34.131-27.393 64.345-20.798 64.345-20.798z"/>
    <path id="path3773" sodipodi:nodetypes="cscssscczc" style="stroke:#000000;stroke-width:11.24;fill:url(#linearGradient3785)" inkscape:connector-curvature="0" d="m287.49 1346.2s-47.272 9.6343-57.549 24.407-5.1383 249.34-5.1383 249.34 36.354 41.106 93.517 32.757c21.215-3.0989 43.105-1.7896 51.541-29.138 14.294-46.341-17.334-88.058-18.142-115.12-1.2846-43.033 22.48-68.468 22.48-68.468l-5.7806-33.399s14.751-27.427 4.496-46.245-77.075-5.1383-85.424-14.13z"/>
    <path id="path3775" sodipodi:nodetypes="cscssscc" style="stroke:#000000;stroke-width:6.744;fill:#ff0000" inkscape:connector-curvature="0" d="m376.3 1380.6c-2.248 0.6423-23.122-1.6057-26.334 12.525-3.2114 14.13-2.8903 43.997-2.8903 43.997 8.9153 42.794 4.5296 24.362 33.72 27.94 9.5681 1.1725 16.699-22.48 17.021-27.618 0.32114-5.1383-3.5326-37.253-5.4594-41.106-1.9269-3.8537-10.919-17.021-10.919-17.021z"/>
  </g>
  <metadata>
    <rdf:RDF>
      <cc:Work>
        <dc:format>image/svg+xml</dc:format>
        <dc:type rdf:resource="http://purl.org/dc/dcmitype/StillImage"/>
        <cc:license rdf:resource="http://creativecommons.org/licenses/publicdomain/"/>
        <dc:publisher>
          <cc:Agent rdf:about="http://openclipart.org/">
            <dc:title>Openclipart</dc:title>
          </cc:Agent>
        </dc:publisher>
        <dc:title>Blowtorch</dc:title>
        <dc:date>2011-09-01T11:02:00</dc:date>
        <dc:description/>
        <dc:source>https://openclipart.org/detail/158821/blowtorch-by-yves_guillou</dc:source>
        <dc:creator>
          <cc:Agent>
            <dc:title>yves_guillou</dc:title>
          </cc:Agent>
        </dc:creator>
        <dc:subject>
          <rdf:Bag>
            <rdf:li>blowtorch</rdf:li>
            <rdf:li>flame</rdf:li>
            <rdf:li>tool</rdf:li>
          </rdf:Bag>
        </dc:subject>
      </cc:Work>
      <cc:License rdf:about="http://creativecommons.org/licenses/publicdomain/">
        <cc:permits rdf:resource="http://creativecommons.org/ns#Reproduction"/>
        <cc:permits rdf:resource="http://creativecommons.org/ns#Distribution"/>
        <cc:permits rdf:resource="http://creativecommons.org/ns#DerivativeWorks"/>
      </cc:License>
    </rdf:RDF>
  </metadata>
</svg>