<?xml version="1.0" encoding="UTF-8" standalone="no"?>
<!-- Created with Inkscape (http://www.inkscape.org/) -->
<svg xmlns:svg="http://www.w3.org/2000/svg" xmlns="http://www.w3.org/2000/svg" version="1.0" width="1572.92" height="218.03" id="svg2265">
  <defs id="defs2267"/>
  <g id="layer1">
    <path d="M 1220.7158,211.49305 C 1216.9937,207.77102 1215.3382,201.41655 1216.0575,193.61322 C 1216.7154,186.47664 1218.5182,182.41893 1222.3809,179.38052 C 1224.5956,177.63842 1226.1964,177.30287 1231.1509,177.54223 C 1236.4579,177.79862 1237.2493,178.09931 1237.5148,179.9603 C 1237.8,181.95908 1237.5881,182.02419 1233.9544,181.05431 C 1226.412,179.04113 1222.0786,182.18012 1220.9678,190.4613 L 1220.4042,194.66377 L 1222.7804,192.9994 C 1226.4404,190.4358 1233.2851,190.81762 1236.2164,193.74891 C 1240.8962,198.42876 1240.6671,206.53334 1235.715,211.48549 C 1233.3987,213.80181 1231.9946,214.33503 1228.2116,214.33503 C 1224.4315,214.33503 1223.0242,213.80146 1220.7158,211.49305 z M 1232.639,208.70017 C 1238.7757,200.89864 1230.0852,189.87763 1223.0261,196.50934 C 1220.3408,199.03203 1220.0251,203.10683 1222.1906,207.29434 C 1224.6677,212.0846 1229.4687,212.73057 1232.639,208.70017 z M 1459.264,211.08503 C 1460.8254,205.97257 1462.7862,202.15949 1468.5955,192.93843 C 1471.9594,187.59904 1474.7116,183.02897 1474.7116,182.78273 C 1474.7116,182.5365 1470.6616,182.33503 1465.7116,182.33503 C 1456.7783,182.33503 1456.7116,182.31651 1456.7116,179.83503 L 1456.7116,177.33503 L 1468.2116,177.33503 C 1479.6733,177.33503 1479.7116,177.343 1479.7116,179.72714 C 1479.7116,181.0428 1477.253,186.03529 1474.2481,190.82156 C 1469.0613,199.08315 1464.7116,208.68479 1464.7116,211.87254 C 1464.7116,212.838 1463.6691,213.33503 1461.6442,213.33503 C 1458.9263,213.33503 1458.6551,213.0787 1459.264,211.08503 z M 760.71157,206.33503 L 760.71157,201.33503 L 752.71157,201.33503 C 745.71985,201.33503 744.71157,201.11158 744.71157,199.56215 C 744.71157,196.58529 760.55005,175.33503 762.76879,175.33503 C 764.57475,175.33503 764.71157,176.10969 764.71157,186.33503 L 764.71157,197.33503 L 767.21157,197.33503 C 769.0449,197.33503 769.71157,197.86836 769.71157,199.33503 C 769.71157,200.8017 769.0449,201.33503 767.21157,201.33503 C 764.87824,201.33503 764.71157,201.66836 764.71157,206.33503 C 764.71157,210.66836 764.4449,211.33503 762.71157,211.33503 C 760.97824,211.33503 760.71157,210.66836 760.71157,206.33503 z M 760.71157,189.83503 C 760.71157,185.71003 760.52607,182.33503 760.29935,182.33503 C 759.91378,182.33503 751.93568,193.33329 750.32514,196.08503 C 749.77624,197.02286 750.98182,197.33503 755.15255,197.33503 L 760.71157,197.33503 L 760.71157,189.83503 z M 984.71156,207.49499 C 984.71156,205.60852 985.13816,205.47979 989.62766,206.0115 C 993.99056,206.52822 994.83456,206.30297 997.12766,204.00984 C 999.64116,201.49638 1000.3551,198.17547 999.09036,194.87983 C 998.19906,192.55711 993.39336,190.33503 989.26126,190.33503 L 985.71156,190.33503 L 985.71156,181.83503 L 985.71156,173.33503 L 994.78486,173.33503 C 1002.8866,173.33503 1003.8225,173.52243 1003.5246,175.08503 C 1003.2531,176.50873 1001.9343,176.89016 996.45126,177.13072 L 989.71156,177.42641 L 989.71156,182.38072 C 989.71156,187.30276 989.73276,187.33505 992.96156,187.33877 C 1003.0614,187.35038 1008.3399,199.63837 1001.1476,206.39516 C 999.10106,208.3177 997.27806,208.85065 991.66286,209.16794 C 985.17776,209.53438 984.71156,209.42219 984.71156,207.49499 z M 268.71157,206.2394 C 268.71157,203.51597 271.72716,199.16716 278.396,192.27339 C 284.63215,185.82691 286.27051,180.71512 283.1911,177.31241 C 281.23049,175.14596 276.48506,174.71025 272.27667,176.31028 C 270.08775,177.1425 269.71157,177.0102 269.71157,175.4081 C 269.71157,173.39027 274.12579,171.33503 278.45966,171.33503 C 282.47233,171.33503 287.43825,174.26096 288.73373,177.38853 C 290.87768,182.56449 289.27541,186.37968 281.69936,194.13814 C 277.85608,198.07397 274.71157,201.97838 274.71157,202.81461 C 274.71157,204.04002 276.1668,204.33503 282.21157,204.33503 C 289.0449,204.33503 289.71157,204.51281 289.71157,206.33503 C 289.71157,208.20805 289.0449,208.33503 279.21157,208.33503 C 269.21852,208.33503 268.71157,208.23385 268.71157,206.2394 z M 495.37824,206.66836 C 495.01157,206.3017 494.71157,205.12855 494.71157,204.06137 C 494.71157,202.61134 495.15377,202.29933 496.46157,202.82657 C 501.06452,204.68228 505.228,204.51251 507.96157,202.35767 C 513.56178,197.94308 509.79104,189.33503 502.25702,189.33503 C 499.37824,189.33503 498.71157,188.95896 498.71157,187.33503 C 498.71157,185.71598 499.37824,185.33503 502.21157,185.33503 C 506.34933,185.33503 509.71157,182.45311 509.71157,178.90646 C 509.71157,174.01586 504.49787,171.94498 498.20689,174.33681 C 495.80944,175.24832 495.60082,175.13568 495.89179,173.08681 C 496.18243,171.04024 496.8267,170.80808 502.96134,170.53935 C 509.03495,170.27328 509.96157,170.49412 512.21134,172.74389 C 516.06534,176.59789 515.06963,182.44101 510.03871,185.49359 L 507.51783,187.02317 L 511.05663,189.11111 C 513.70806,190.6755 514.76406,192.09793 515.26792,194.78371 C 516.14152,199.44041 514.22444,204.01845 510.62038,205.88219 C 507.80056,207.34037 496.62659,207.91671 495.37824,206.66836 z M 46.711572,202.33503 C 46.711572,200.71598 47.378239,200.33503 50.211572,200.33503 L 53.711572,200.33503 L 53.711572,186.33503 C 53.711572,178.63503 53.596101,172.33503 53.45497,172.33503 C 53.313839,172.33503 51.738839,172.75362 49.95497,173.26522 C 47.150469,174.06954 46.711572,173.95088 46.711572,172.38829 C 46.711572,171.01418 48.149269,170.21901 52.711572,169.06976 L 58.711572,167.55836 L 58.711572,183.94669 L 58.711572,200.33503 L 62.211571,200.33503 C 65.044901,200.33503 65.711571,200.71598 65.711571,202.33503 C 65.711571,204.19468 65.044901,204.33503 56.211572,204.33503 C 47.378239,204.33503 46.711572,204.19468 46.711572,202.33503 z M 1320.8044,153.11866 C 1320.0693,148.20759 1319.6963,138.11729 1319.8881,128.33503 L 1320.2116,111.83503 L 1322.9616,111.51861 L 1325.7116,111.20219 L 1325.7116,130.21939 C 1325.7116,147.59766 1324.6478,158.59541 1322.7712,160.61866 C 1322.3714,161.04965 1321.4864,157.67465 1320.8044,153.11866 z M 1194.9146,153.31344 C 1194.253,149.4549 1193.7116,139.07412 1193.7116,130.24504 C 1193.7116,116.90951 1193.9806,113.92319 1195.3006,112.60316 C 1196.7526,111.15115 1196.7526,110.93749 1195.3006,110.1249 C 1193.9237,109.35433 1193.7116,106.29835 1193.7116,87.226315 C 1193.7116,74.525525 1194.0902,65.450985 1194.6068,65.770255 C 1195.0992,66.074555 1195.7458,65.688355 1196.0437,64.912035 C 1196.3416,64.135715 1195.9154,63.243445 1195.0965,62.929235 C 1194.2777,62.615015 1193.8676,62.778445 1194.1853,63.292405 C 1195.431,65.308015 1186.3354,66.324105 1166.9991,66.329445 C 1149.1334,66.334375 1146.1557,66.571085 1141.3522,68.368295 C 1138.3633,69.486605 1134.8589,71.442495 1133.5647,72.714715 C 1132.2705,73.986945 1129.5241,76.493585 1127.4616,78.285025 L 1123.7116,81.542205 L 1123.7312,64.188615 L 1123.7507,46.835015 L 1127.3245,51.097585 C 1129.2901,53.441995 1132.9938,56.591995 1135.555,58.097585 L 1140.2116,60.835015 L 1166.2116,61.335015 C 1180.5116,61.610015 1192.3521,61.769485 1192.5239,61.689395 C 1192.6956,61.609305 1191.902,57.610205 1190.7601,52.802505 C 1188.9288,45.091765 1186.7395,39.212615 1183.8829,34.335015 C 1183.3998,33.510015 1182.1511,31.056035 1181.108,28.881715 C 1180.065,26.707395 1178.1591,23.669895 1176.8727,22.131715 L 1174.5338,19.335015 L 1195.7452,19.335015 C 1219.2823,19.335015 1217.5866,18.690075 1212.0808,25.548205 C 1208.3153,30.238675 1202.8894,42.866215 1201.2693,50.709505 C 1199.9939,56.884195 1199.7116,66.403685 1199.7116,103.24365 C 1199.7116,145.32346 1199.1048,157.09605 1196.8078,159.582 C 1196.4282,159.99283 1195.5763,157.17198 1194.9146,153.31344 z M 829.9146,146.31344 C 829.11462,141.64832 828.70853,125.81918 828.70251,99.066465 C 828.69373,60.072015 828.61865,58.505275 826.2607,48.110775 C 824.12757,38.707345 821.94712,32.567225 818.88291,27.335015 C 818.39976,26.510015 817.15105,24.056035 816.10801,21.881715 C 815.06497,19.707395 813.15907,16.669895 811.87268,15.131715 L 809.53378,12.335015 L 830.74512,12.335015 C 854.28229,12.335015 852.5866,11.690075 847.08082,18.548205 C 843.31526,23.238675 837.88932,35.866215 836.26925,43.709505 C 834.99383,49.884195 834.71157,59.403685 834.71157,96.243645 C 834.71157,138.32346 834.1048,150.09605 831.80782,152.582 C 831.42821,152.99283 830.57627,150.17198 829.9146,146.31344 z M 709.90476,145.25609 C 708.52411,137.20474 708.29664,119.13185 709.60188,121.19179 C 710.21477,122.15905 710.66197,122.2243 711.15963,121.41907 C 711.59925,120.70774 709.7019,119.32453 706.03463,117.68283 C 665.4071,99.495465 663.55683,98.911675 649.39401,99.811885 C 643.99435,100.1551 638.41944,100.8758 637.00532,101.41345 C 635.5912,101.95109 634.25501,102.21181 634.03602,101.99281 C 633.68978,101.64657 643.96403,78.468835 646.87414,73.031255 C 647.82143,71.261225 648.28873,71.720945 651.33202,77.416875 C 655.38656,85.005505 660.816,90.770515 667.96366,95.076465 C 677.63482,100.90264 677.0234,101.53947 676.44927,86.238175 C 676.04613,75.493805 675.42984,71.231645 673.3425,64.752255 C 671.91038,60.306735 669.83255,55.849485 668.7251,54.847265 C 667.61766,53.845045 666.71157,52.480475 666.71157,51.814885 C 666.71157,51.149305 665.73164,49.358955 664.53395,47.836345 C 661.02143,43.370895 663.19648,42.666605 680.68163,42.607645 C 688.9481,42.579765 695.71157,42.789985 695.71157,43.074785 C 695.71157,43.359595 694.08626,45.391635 692.09978,47.590445 C 683.76465,56.816425 680.34153,70.025095 680.91132,90.762925 L 681.21157,101.69084 L 694.96157,107.95404 L 708.71157,114.21724 L 708.70251,86.026125 C 708.69412,59.916825 708.51676,57.056165 706.30075,47.288005 C 703.8091,36.304865 701.58348,29.987015 699.28473,27.371615 C 698.54191,26.526485 697.62397,24.375475 697.24485,22.591585 C 696.39548,18.594975 697.70092,17.954245 676.32901,32.857345 C 662.70258,42.359355 658.79494,45.652515 654.24254,51.470675 C 651.2005,55.358525 648.71157,59.293355 648.71157,60.214745 C 648.71157,61.136135 647.97309,62.944335 647.07051,64.232955 C 646.16792,65.521565 644.89735,68.377975 644.24702,70.580515 L 643.0646,74.585135 L 637.70049,66.222975 C 634.75023,61.623775 630.83705,55.896575 629.00454,53.495845 C 622.84911,45.431805 622.5567,45.835015 634.56018,45.835015 C 644.49246,45.835015 645.67263,45.616645 652.04081,42.600475 C 658.05931,39.749925 687.84111,20.302935 691.64473,16.739815 C 692.88439,15.578535 692.82971,15.123045 691.23974,13.366145 C 689.41436,11.349125 689.4381,11.335015 694.65586,11.335015 C 698.86475,11.335015 701.03436,10.655995 705.56084,7.9220652 C 708.66874,6.0449452 712.33657,4.1953552 713.71157,3.8118552 C 715.9186,3.1963052 715.71744,3.6255552 711.99499,7.4748052 L 707.7784,11.835015 L 719.91849,11.523505 C 733.41231,11.177245 732.68598,10.566285 727.08082,17.548205 C 723.33659,22.212105 717.89297,34.848585 716.29465,42.586505 C 715.10816,48.330705 714.74483,57.541555 714.68462,83.403595 L 714.60685,116.80249 L 721.40921,119.9198 C 727.5565,122.73691 733.51947,127.33503 731.02549,127.33503 C 729.5902,127.33503 721.80326,124.82371 717.70823,123.04016 L 714.20488,121.51431 L 714.57511,129.6668 C 714.93381,137.56548 713.27218,150.87052 711.81453,151.7714 C 711.42042,152.01497 710.56102,149.08308 709.90476,145.25609 z M 699.71157,18.276005 C 699.71157,17.693545 699.26157,17.495095 698.71157,17.835015 C 698.16157,18.174935 697.71157,18.651495 697.71157,18.894035 C 697.71157,19.136575 698.16157,19.335015 698.71157,19.335015 C 699.26157,19.335015 699.71157,18.858465 699.71157,18.276005 z M 1162.0745,151.17216 C 1161.5999,150.43674 1160.9866,139.26003 1160.7116,126.33503 C 1160.216,103.04095 1160.1869,102.78465 1157.3881,97.085025 C 1155.8351,93.922525 1154.2429,91.335025 1153.8498,91.335025 C 1153.4567,91.335025 1151.4424,89.310025 1149.3736,86.835025 L 1145.6121,82.335015 L 1162.9118,82.354595 L 1180.2116,82.374165 L 1175.949,85.947965 C 1173.6046,87.913565 1170.4546,91.617255 1168.949,94.178395 L 1166.2116,98.835025 L 1165.7116,124.53742 C 1165.2241,149.59496 1164.4963,154.9251 1162.0745,151.17216 z M 1056.3208,143.19885 C 1056.0111,140.24875 1055.5455,122.51989 1055.2863,103.80138 C 1054.8462,72.031075 1054.3506,64.682985 1052.8155,67.166855 C 1052.4419,67.771435 1040.6615,68.419795 1023.0021,68.807715 C 992.04256,69.487795 984.94516,70.487105 977.38956,75.229915 C 975.64166,76.327095 972.81336,77.945345 971.10446,78.826035 C 969.39556,79.706725 966.69556,81.866785 965.10446,83.626155 C 963.51336,85.385535 962.60476,86.509065 963.08536,86.122875 C 963.56596,85.736685 965.59096,86.245985 967.58536,87.254665 C 974.53546,90.769665 980.99356,91.335025 1014.1957,91.335025 C 1035.4338,91.335025 1047.5504,91.714685 1049.3965,92.438005 C 1052.0282,93.469135 1052.0789,93.592215 1050.1738,94.327305 C 1049.0529,94.759775 1033.6927,95.405255 1016.0399,95.761695 C 981.80456,96.452975 974.99456,97.367325 967.38956,102.29369 C 965.64166,103.42593 962.97406,104.89708 961.46157,105.56291 C 958.59162,106.82631 957.5264,109.0038 960.29873,107.93996 C 962.32666,107.16177 978.59766,115.50834 981.80766,118.97344 L 984.21156,121.5683 L 980.71156,120.84751 C 978.78656,120.45107 973.10586,117.92358 968.08776,115.23087 C 963.06976,112.53816 958.68223,110.33503 958.3378,110.33503 C 957.99337,110.33503 957.71157,115.93074 957.71157,122.76993 C 957.71157,129.9166 957.21837,136.40202 956.55186,138.01993 L 955.39214,140.83503 L 954.67017,137.83503 C 954.27309,136.18503 953.89001,130.11003 953.81888,124.33503 C 953.6018,106.7092 954.02888,107.56988 942.85086,102.23156 C 936.35831,99.130895 932.97173,97.988315 932.47688,98.731555 C 932.0728,99.338465 931.72841,107.48503 931.71157,116.83503 C 931.68296,132.71703 930.95179,137.90805 929.01594,135.97312 C 928.57354,135.53092 928.1207,123.80616 928.00965,109.91809 C 927.82744,87.132355 927.60572,84.127135 925.73869,79.137045 C 924.60072,76.095555 922.77909,72.801105 921.69061,71.816055 C 920.60214,70.830995 919.71157,69.561295 919.71157,68.994485 C 919.71157,68.427675 918.7348,66.924195 917.54096,65.653415 C 916.34712,64.382635 915.61953,63.093725 915.92408,62.789175 C 916.22864,62.484625 922.82257,62.549485 930.57726,62.933325 L 944.67671,63.631205 L 941.23745,67.438045 C 936.17024,73.046845 933.50637,78.978375 932.98851,85.805605 L 932.53117,91.835025 L 942.62137,97.152815 L 952.71157,102.47061 L 952.76712,98.152815 C 953.12859,70.054685 952.71661,60.911195 950.76928,53.813135 C 948.22203,44.528305 945.56883,38.335015 944.13848,38.335015 C 943.53278,38.335015 938.72773,39.628865 933.4606,41.210245 C 921.6095,44.768355 913.05579,49.860615 905.0618,58.116875 C 901.67943,61.610205 898.70127,64.100885 898.44368,63.651705 C 898.18608,63.202525 897.42122,60.360015 896.74399,57.335015 C 896.06676,54.310015 894.6509,48.954035 893.59764,45.432825 C 892.54438,41.911615 891.90394,38.809315 892.17445,38.538805 C 892.44495,38.268305 895.03896,38.777875 897.93892,39.671185 C 906.20576,42.217705 910.7155,42.601935 917.71598,41.356195 C 923.6718,40.296345 940.12249,35.739655 942.01164,34.626515 C 942.45168,34.367235 941.66238,32.648245 940.25765,30.806545 C 938.85291,28.964835 938.09359,27.216945 938.57028,26.922345 C 939.04696,26.627735 945.68625,26.487565 953.32427,26.610855 C 962.14696,26.753265 969.43386,26.341425 973.30516,25.481575 C 980.64576,23.851145 985.01166,24.369465 980.00726,26.277245 C 970.32516,29.968295 968.32366,31.625545 964.16346,39.396465 C 959.50586,48.096365 957.69434,57.249145 957.70496,72.028315 C 957.711,80.423925 957.9068,81.358545 959.96157,82.799775 L 962.21156,84.377935 L 962.71156,67.379565 L 963.21156,50.381185 L 967.71156,53.957755 C 973.69096,58.710135 980.04926,61.839635 986.51076,63.210645 C 989.77156,63.902515 1003.5233,64.335015 1022.2608,64.335015 C 1051.0525,64.335015 1052.7116,64.235755 1052.7116,62.513155 C 1052.7116,59.620255 1049.5732,51.061415 1047.5549,48.450155 C 1046.5411,47.138485 1045.7116,45.518505 1045.7116,44.850195 C 1045.7116,44.181895 1044.3729,41.787125 1042.7368,39.528505 C 1041.1007,37.269875 1040.0882,35.223565 1040.4868,34.981145 C 1041.4241,34.411185 1071.9572,34.502095 1073.0117,35.077995 C 1073.4517,35.318315 1072.7273,36.936965 1071.4019,38.674985 C 1068.0727,43.040625 1062.9879,53.322785 1061.5903,58.515645 C 1060.848,61.273555 1060.2079,77.910315 1059.8197,104.53678 C 1059.3872,134.19291 1058.8754,146.5742 1058.0478,147.40061 C 1057.163,148.28408 1056.7489,147.27674 1056.3208,143.19885 z M 677.35342,138.58503 C 677.01251,136.52253 676.72863,128.59939 676.72258,120.97804 C 676.71286,108.75039 676.89756,107.19242 678.29336,107.72804 C 679.16334,108.06189 680.06334,108.33503 680.29336,108.33503 C 680.95697,108.33503 680.77842,138.99724 680.10458,140.75324 C 679.09137,143.39363 678.00697,142.53901 677.35342,138.58503 z M 1431.1969,138.19904 C 1430.7528,136.89883 1430.2436,119.63503 1430.0655,99.835025 C 1429.7623,66.124115 1429.0072,55.277285 1426.5942,49.973455 C 1425.6422,47.881035 1425.2107,47.841725 1406.5385,48.146925 C 1385.8564,48.484965 1379.5933,49.771475 1374.5647,54.714715 C 1373.2705,55.986945 1370.5241,58.493585 1368.4616,60.285025 L 1364.7116,63.542205 L 1364.7312,46.188615 L 1364.7507,28.835015 L 1368.3245,33.097585 C 1370.2901,35.441995 1373.9938,38.591995 1376.555,40.097585 C 1381.1436,42.795075 1381.5217,42.842315 1402.4632,43.335015 C 1426.0233,43.889335 1425.6068,44.017875 1421.2116,37.549835 C 1419.8366,35.526335 1418.7116,33.455185 1418.7116,32.947275 C 1418.7116,32.439365 1417.5866,30.548845 1416.2116,28.746135 C 1414.8366,26.943415 1413.7116,25.175755 1413.7116,24.817995 C 1413.7116,24.460235 1419.1122,24.317705 1425.713,24.501265 C 1432.3137,24.684835 1437.7137,24.497515 1437.713,24.085015 C 1437.7122,23.672515 1446.0366,23.335015 1456.2116,23.335015 C 1466.3866,23.335015 1474.7116,23.613115 1474.7116,23.953005 C 1474.7116,24.292895 1473.3582,26.112375 1471.7041,27.996295 C 1470.05,29.880215 1467.3441,34.101135 1465.6908,37.376125 C 1460.2823,48.090405 1459.7122,53.546325 1459.706,94.650405 C 1459.7003,132.55404 1458.8776,143.13864 1456.3883,137.33503 C 1455.7225,135.78276 1455.0898,119.86082 1454.7192,95.335025 C 1454.1277,56.181265 1454.0996,55.766835 1451.5143,48.056985 C 1450.0799,43.779065 1447.7374,38.746595 1446.3089,36.873705 C 1444.8804,35.000825 1443.7116,33.014995 1443.7116,32.460755 C 1443.7116,31.906515 1443.3036,31.200875 1442.8049,30.892655 C 1442.3062,30.584435 1442.1184,31.174435 1442.3875,32.203755 C 1442.6567,33.233075 1441.7248,36.348775 1440.3167,39.127545 C 1435.6655,48.306265 1435.4242,50.744135 1434.8032,94.835025 C 1434.4115,122.64158 1433.8387,137.46495 1433.108,138.69904 C 1432.0678,140.4561 1431.9582,140.42742 1431.1969,138.19904 z M 1518.2435,138.19904 C 1517.825,136.89883 1517.1966,126.88854 1516.8471,115.95393 L 1516.2116,96.072825 L 1505.3824,96.260905 C 1491.6018,96.500255 1484.5528,98.620275 1473.8458,105.74573 L 1465.7116,111.15897 L 1465.7116,94.246995 C 1465.7116,84.945405 1465.9088,77.335015 1466.1499,77.335015 C 1466.3909,77.335015 1468.0419,78.662825 1469.8187,80.285695 C 1474.3473,84.421925 1483.2514,88.916715 1489.5108,90.226325 C 1492.4254,90.836105 1499.7379,91.335025 1505.7608,91.335025 L 1516.7116,91.335025 L 1516.6979,76.585015 C 1516.6904,68.472515 1516.4359,60.910345 1516.1323,59.780175 C 1515.6169,57.861065 1514.9738,57.749415 1506.396,58.089925 C 1493.8907,58.586345 1485.7442,61.158395 1475.8754,67.726025 L 1467.7116,73.158955 L 1467.7116,56.246985 C 1467.7116,46.945405 1467.9088,39.335015 1468.1499,39.335015 C 1468.3909,39.335015 1470.0419,40.662825 1471.8187,42.285695 C 1476.3473,46.421925 1485.2514,50.916715 1491.5108,52.226315 C 1494.4254,52.836105 1500.6718,53.335015 1505.3917,53.335015 L 1513.9733,53.335015 L 1513.385,49.709805 C 1513.0614,47.715935 1511.9464,44.453435 1510.9071,42.459805 C 1506.6009,34.199515 1503.4472,28.742485 1502.1207,27.256275 C 1501.3457,26.387975 1500.7116,25.375475 1500.7116,25.006275 C 1500.7116,24.637085 1508.8116,24.335015 1518.7116,24.335015 C 1528.6116,24.335015 1536.7116,24.613115 1536.7116,24.953005 C 1536.7116,25.292895 1535.2971,27.182025 1533.5682,29.151065 C 1530.0553,33.152075 1524.2136,45.102035 1523.3348,50.085015 L 1522.7616,53.335015 L 1541.1715,53.335015 C 1559.5234,53.335015 1567.8329,54.481095 1563.2116,56.374865 C 1562.1116,56.825635 1552.7741,57.226075 1542.4616,57.264735 C 1528.0985,57.318575 1523.708,57.042565 1523.6963,56.085015 C 1523.6861,55.251685 1523.3578,55.335015 1522.7116,56.335015 C 1522.1784,57.160015 1521.7353,65.372515 1521.7269,74.585015 L 1521.7116,91.335025 L 1539.6465,91.335025 C 1557.5488,91.335025 1565.7936,92.497215 1561.2116,94.374875 C 1560.1116,94.825645 1550.8067,95.226085 1540.534,95.264735 L 1521.8564,95.335025 L 1521.534,116.08503 C 1521.3359,128.83754 1520.7863,137.55346 1520.108,138.69904 C 1519.0686,140.45478 1518.9603,140.42573 1518.2435,138.19904 z M 315.21157,136.32318 C 314.11157,135.8411 310.63002,134.73572 307.47479,133.86677 C 302.9586,132.623 301.41766,131.66735 300.23234,129.37519 C 298.9592,126.91321 290.98692,119.99375 285.71157,116.77204 C 284.88657,116.2682 279.03657,115.76879 272.71157,115.66223 C 239.75126,115.10697 232.81458,113.90003 230.03177,108.23625 C 220.44412,88.722665 219.34291,85.485235 219.4044,76.993195 C 219.43812,72.336815 220.20832,66.138085 221.15985,62.864935 C 222.0923,59.657415 223.09786,54.963515 223.39442,52.434055 C 224.69098,41.375275 233.10437,28.189795 241.6353,23.846915 C 247.88301,20.666355 264.2648,22.229565 269.40669,26.496955 C 270.48615,27.392825 271.90966,26.494105 276.15962,22.233565 C 292.77161,5.5802252 295.99303,3.6613352 299.07288,8.5850152 C 301.22521,12.025915 301.81164,33.243015 300.04646,43.809375 C 299.3231,48.139355 299.22764,51.430785 299.79467,52.490295 C 300.297,53.428905 303.8588,56.539815 307.70978,59.403435 C 313.40849,63.641035 314.71157,65.119955 314.71157,67.350065 C 314.71157,68.857105 314.05908,70.631645 313.2616,71.293495 C 311.73035,72.564315 307.22498,81.240635 307.8471,81.720585 C 308.04756,81.875235 312.03657,84.493275 316.71157,87.538465 C 330.26624,96.367645 329.71046,95.445275 329.71818,109.12399 C 329.72181,115.56506 329.20121,124.27511 328.56129,128.47965 L 327.3978,136.12426 L 323.80468,136.71864 C 319.2216,137.47678 317.68224,137.40594 315.21157,136.32318 z M 320.26633,124.08573 C 320.65884,122.29862 321.08823,116.67074 321.22051,111.57934 L 321.46104,102.32224 L 318.12604,99.394075 C 316.29179,97.783585 312.63566,95.226745 310.00131,93.712205 C 303.44276,89.941585 300.43006,87.556685 298.99701,85.001025 C 296.90068,81.262515 297.49378,77.347095 300.71157,73.682235 C 302.36157,71.802995 303.71157,69.698555 303.71157,69.005705 C 303.71157,68.312865 301.41891,65.997585 298.61678,63.860655 C 295.81465,61.723715 292.83071,58.920285 291.98581,57.630805 C 290.46192,55.305065 290.09926,47.566275 291.269,42.335015 C 291.84934,39.739655 292.68798,21.335015 292.2259,21.335015 C 292.08157,21.335015 289.98407,22.441335 287.56479,23.793485 C 285.00352,25.225015 282.13131,27.962305 280.68884,30.346465 C 276.17694,37.803845 274.67979,39.334635 271.88899,39.344035 C 270.10425,39.350045 268.36408,38.322175 266.66966,36.261125 C 263.72265,32.676435 254.539,29.969625 248.71157,30.968115 C 242.25811,32.073875 233.87705,42.465155 237.58857,44.759005 C 238.07093,45.057115 238.99452,47.401645 239.64101,49.969075 C 240.2875,52.536505 241.52321,56.003885 242.38705,57.674355 C 245.51544,63.723995 243.28725,74.335015 238.88852,74.335015 C 235.92723,74.335015 234.71335,72.188145 234.67613,66.885015 C 234.65665,64.107515 234.05847,60.785445 233.34686,59.502625 C 232.11886,57.288935 231.96847,57.492495 230.39177,63.502625 C 229.47809,66.985445 228.51528,72.535015 228.25218,75.835015 C 227.80674,81.422225 228.14313,82.660605 233.14157,93.835025 L 238.50931,105.83503 L 248.86044,106.06207 C 281.87183,106.78616 287.41551,107.03106 288.74533,107.82409 C 292.36503,109.98267 306.39306,120.7943 308.0602,122.71037 C 309.54542,124.41736 314.88825,126.65211 318.88211,127.23685 C 319.25091,127.29085 319.87381,125.87285 320.26633,124.08573 z M 254,71.126605 C 249.85914,66.688975 247.44526,58.582045 247.4599,49.161925 C 247.47612,38.720825 249.69054,32.835015 253.60258,32.835015 C 257.38795,32.835015 258.30953,35.350695 256.97155,42.031505 C 255.44686,49.644565 256.10036,55.417225 259.3691,63.210395 C 261.34564,67.922735 261.77765,70.009545 261.02524,71.210395 C 259.46356,73.702865 256.36954,73.665965 254,71.126605 z M 260.75144,56.883055 C 258.09498,53.682225 261.99667,48.765285 265.46157,50.947315 C 268.9239,53.127735 267.6904,58.335015 263.71157,58.335015 C 262.74626,58.335015 261.4142,57.681635 260.75144,56.883055 z M 1123.7312,111.18862 L 1123.7507,93.835025 L 1127.3245,98.097595 C 1133.3812,105.32154 1138.5837,107.69327 1149.4122,108.16686 C 1158.4268,108.56113 1158.7116,108.64651 1158.7116,110.95431 C 1158.7116,113.19575 1158.3628,113.33503 1152.7491,113.33503 C 1145.8752,113.33503 1137.0788,116.26022 1133.5647,119.71473 C 1132.2705,120.98695 1129.5241,123.49359 1127.4616,125.28504 L 1123.7116,128.54221 L 1123.7312,111.18862 z M 1203.7116,110.27904 L 1203.7116,94.105005 L 1206.4616,95.919005 C 1211.9213,99.520415 1217.5274,102.38223 1223.3144,104.52196 C 1228.9523,106.60658 1231.1905,106.72737 1274.2116,107.26875 C 1304.9881,107.65604 1319.8175,108.19321 1321.1286,108.96823 C 1322.784,109.94683 1322.3747,110.18194 1318.1286,110.69157 C 1315.4242,111.01615 1296.5641,111.55327 1276.2172,111.88517 C 1235.5153,112.54909 1226.2835,113.69486 1218.4435,119.05563 C 1216.371,120.47271 1214.4091,121.36585 1214.0836,121.04039 C 1213.7582,120.71493 1211.8538,121.46726 1209.8517,122.71223 C 1207.8497,123.95721 1205.6491,125.3082 1204.9616,125.71444 C 1203.9827,126.29289 1203.7116,122.94552 1203.7116,110.27904 z M 29.644409,124.67236 C 28.856349,124.58289 24.386569,123.99221 19.711569,123.35975 C 12.251489,122.3505 6.7747794,121.71105 3.1133894,121.42179 C 2.3351394,121.36031 2.2895194,119.65984 2.9567994,115.58503 C 3.7441394,110.77703 4.5793494,109.1637 8.0549794,105.73719 C 16.183909,97.723155 25.374759,86.720705 29.274569,80.335015 C 29.778399,79.510015 30.277809,73.660015 30.384369,67.335015 C 30.939639,34.374705 32.146569,27.438025 37.810359,24.655225 C 57.323933,15.067575 60.561358,13.966355 69.053391,14.027855 C 73.709771,14.061575 79.908511,14.831765 83.181651,15.783295 C 86.389171,16.715745 91.083071,17.721305 93.612541,18.017865 C 104.67131,19.314435 117.85679,27.727825 122.19967,36.258745 C 125.38023,42.506465 123.81703,58.888245 119.54963,64.030135 C 118.65376,65.109595 119.55248,66.533115 123.81302,70.783065 C 140.46637,87.395065 142.38525,90.616485 137.46157,93.696335 C 134.02067,95.848665 112.80358,96.435095 102.23722,94.669915 C 97.907241,93.946555 94.615811,93.851095 93.556301,94.418125 C 92.617691,94.920455 89.506771,98.482255 86.643151,102.33324 C 82.405561,108.03195 80.926631,109.33503 78.696521,109.33503 C 77.189491,109.33503 75.414941,108.68254 74.753091,107.88506 C 73.482271,106.35381 64.805951,101.84844 64.326001,102.47056 C 64.171361,102.67102 61.553314,106.66003 58.508133,111.33503 C 52.576111,120.44195 49.359978,124.25313 47.422617,124.47159 C 45.485882,124.68998 31.218739,124.85109 29.644409,124.67236 z M 45.595417,113.94038 C 46.746734,112.89833 49.113006,109.74833 50.853799,106.94038 C 57.197779,96.707375 58.831075,94.601605 61.294817,93.479055 C 65.424301,91.597535 68.740921,92.153615 72.364351,95.335025 C 74.243601,96.985025 76.348041,98.335025 77.040881,98.335025 C 77.733731,98.335025 80.049001,96.042365 82.185931,93.240235 C 84.322871,90.438105 87.126301,87.454165 88.415781,86.609265 C 90.741521,85.085375 98.480311,84.722715 103.71157,85.892455 C 106.30693,86.472795 124.71157,87.311435 124.71157,86.849355 C 124.71157,86.705025 123.60526,84.607525 122.2531,82.188245 C 120.82158,79.626965 118.08428,76.754755 115.70013,75.312285 C 108.24274,70.800395 106.71195,69.303245 106.70256,66.512435 C 106.69655,64.727695 107.72442,62.987525 109.78546,61.293115 C 113.37015,58.346095 116.07696,49.162445 115.07847,43.335015 C 113.97271,36.881555 103.58143,28.500505 101.28759,32.212025 C 100.98947,32.694375 98.644941,33.617975 96.077511,34.264455 C 93.510081,34.910945 90.042701,36.146665 88.372231,37.010495 C 82.322601,40.138885 71.711571,37.910705 71.711571,33.511965 C 71.711571,30.550675 73.858441,29.336795 79.161571,29.299585 C 81.939071,29.280095 85.261151,28.681915 86.543961,27.970305 C 88.757651,26.742305 88.554091,26.591925 82.543961,25.015225 C 79.061151,24.101545 73.511571,23.138725 70.211571,22.875625 C 64.624371,22.430185 63.385981,22.766575 52.211572,27.765015 L 40.211569,33.132755 L 39.979099,43.483885 C 39.655789,57.879765 38.944249,81.716885 38.817099,82.411705 C 38.759059,82.728875 35.674069,87.024885 31.961569,91.958385 C 25.902319,100.01047 23.510289,102.86059 16.057919,110.90771 L 13.904269,113.23324 L 19.057919,114.24171 C 26.630099,115.72345 28.483319,115.89732 36.356839,115.86466 C 41.937932,115.84152 43.96036,115.42027 45.595417,113.94038 z M 88.751441,60.883055 C 86.094981,57.682225 89.996671,52.765285 93.461571,54.947315 C 96.923901,57.127735 95.690401,62.335015 91.711571,62.335015 C 90.746261,62.335015 89.414201,61.681635 88.751441,60.883055 z M 73.911571,55.135015 C 70.706781,51.930225 74.111521,47.729435 82.711571,44.277495 C 94.159861,39.682305 113.21157,42.148745 113.21157,48.226035 C 113.21157,52.010105 110.69653,52.932515 104.01508,51.598895 C 96.500571,50.098985 89.962191,50.807155 83.033401,53.871395 C 76.714141,56.666065 75.597331,56.820775 73.911571,55.135015 z M 720.94815,100.83503 C 720.9796,91.210025 721.22219,83.335015 721.48725,83.335015 C 721.75231,83.335015 723.76819,84.960325 725.96699,86.946815 C 731.4568,91.906525 740.84618,96.083655 749.21157,97.287795 C 753.06157,97.841985 770.16157,98.311215 787.21157,98.330525 C 815.95123,98.363085 822.48234,98.895235 820.3507,101.03066 C 819.90908,101.47306 804.17211,102.09857 785.37966,102.42067 C 751.8928,102.99462 751.05042,103.05915 743.12881,105.65713 C 738.68329,107.11509 734.22604,109.21405 733.22382,110.3215 C 732.2216,111.42894 730.812,112.33503 730.09138,112.33503 C 729.37076,112.33503 727.2436,113.68503 725.36435,115.33503 C 723.48511,116.98503 721.70981,118.33503 721.41926,118.33503 C 721.1287,118.33503 720.91671,110.46003 720.94815,100.83503 z M 1166.7116,110.83503 L 1166.7116,108.33503 L 1177.9616,108.38013 C 1184.947,108.40814 1190.3488,108.92186 1192.2116,109.73533 L 1195.2116,111.04542 L 1191.2116,112.18465 C 1189.0116,112.81122 1182.5991,113.32639 1176.9616,113.32945 L 1166.7116,113.33503 L 1166.7116,110.83503 z M 1320.1555,107.44561 C 1319.9114,107.20146 1319.7116,99.651695 1319.7116,90.668355 L 1319.7116,74.335015 L 1322.7116,74.335015 L 1325.7116,74.335015 L 1325.7116,91.323825 L 1325.7116,108.31263 L 1323.1555,108.10108 C 1321.7497,107.98473 1320.3997,107.68977 1320.1555,107.44561 z M 585.91157,101.13503 C 585.25157,100.47503 584.71157,99.398165 584.71157,98.742015 C 584.71157,98.085855 584.14907,97.346705 583.46157,97.099445 C 581.85445,96.521445 482.56938,97.024025 468.71157,97.680315 C 456.01147,98.281765 452.48703,97.069665 444.85198,89.474695 C 442.0411,86.678575 437.95873,83.481435 435.78006,82.369955 C 433.60138,81.258475 431.45719,79.703975 431.0152,78.915515 C 430.5732,78.127045 425.63779,75.176235 420.04761,72.358155 C 409.42006,67.000675 404.71157,63.289735 404.71157,60.271235 C 404.71157,58.593485 409.0469,54.335015 410.75493,54.335015 C 412.12298,54.335015 443.97223,32.761525 451.21157,26.931195 C 459.24638,20.460235 462.13569,19.330565 464.52931,21.724195 C 466.11729,23.312165 466.35859,30.676075 465.4013,48.335015 L 465.21157,51.835015 L 501.21157,51.645865 C 521.01157,51.541835 548.7672,51.347785 562.89074,51.214645 C 581.96503,51.034825 588.94891,51.287105 590.04344,52.195485 C 592.03283,53.846525 593.04662,64.340165 593.06844,83.506805 C 593.08693,99.750455 592.4995,102.33503 588.78913,102.33503 C 587.86647,102.33503 586.57157,101.79503 585.91157,101.13503 z M 531.71157,87.931665 C 559.48657,87.767735 582.7131,87.566425 583.32607,87.484315 C 584.75088,87.293455 584.40401,65.947325 582.91573,62.232295 L 581.87306,59.629565 L 560.04231,59.982795 C 548.0354,60.177065 522.01157,60.448295 502.21157,60.585515 C 482.41157,60.722745 465.69805,61.168805 465.07042,61.576765 C 464.33549,62.054465 463.99115,65.436245 464.1031,71.076765 C 464.19872,75.893805 463.99656,81.744345 463.65386,84.077955 C 463.31117,86.411585 463.21032,88.500445 463.42975,88.719875 C 463.64919,88.939305 467.73986,88.918795 472.52015,88.674285 C 477.30043,88.429785 503.93657,88.095605 531.71157,87.931665 z M 454.8532,82.585015 C 454.93109,81.072515 455.10339,74.660015 455.23609,68.335015 C 455.46659,57.348365 456.52976,40.875395 457.24957,37.137685 C 457.88165,33.855555 455.99646,34.369595 450.02027,39.108895 C 446.74251,41.708265 442.22578,44.960015 439.98309,46.335015 L 435.90547,48.835015 L 436.19034,59.835015 C 436.34703,65.885015 436.5284,71.137965 436.5934,71.508225 C 436.65839,71.878485 439.8657,74.278295 443.72075,76.841125 C 447.5758,79.403955 451.19164,82.363515 451.75594,83.417915 C 453.22961,86.171505 454.6887,85.779135 454.8532,82.585015 z M 427.22233,61.085015 C 427.08765,58.747515 426.91763,56.512695 426.84451,56.118745 C 426.69979,55.338995 420.01655,59.032535 419.20958,60.338245 C 418.66974,61.211725 424.50985,65.290845 426.33939,65.318175 C 427.03994,65.328635 427.37444,63.724905 427.22233,61.085015 z M 1377.7116,81.224395 L 1377.7116,63.992125 L 1380.6716,68.413575 C 1382.2996,70.845365 1385.3022,73.960015 1387.344,75.335015 C 1390.8781,77.714995 1391.9243,77.859025 1409.134,78.335015 C 1426.3783,78.811965 1427.2116,78.927215 1427.2116,80.835015 C 1427.2116,82.734045 1426.3783,82.860265 1410.7064,83.335015 C 1395.3329,83.800735 1393.9182,84.006435 1390.0748,86.335025 C 1387.8053,87.710025 1384.0951,90.999895 1381.83,93.645845 L 1377.7116,98.456665 L 1377.7116,81.224395 z M 920.71157,91.616875 C 915.7581,89.943245 895.21473,89.277085 890.34906,90.632315 L 887.48655,91.429605 L 891.29336,84.632315 C 893.38711,80.893795 896.83732,74.460015 898.96049,70.335015 C 901.08366,66.210015 903.18561,62.468135 903.63148,62.019725 C 904.07735,61.571315 905.20511,63.111235 906.13761,65.441765 C 909.16472,73.007285 914.77526,80.311015 920.85138,84.596025 C 925.10576,87.596295 926.71157,89.359855 926.71157,91.031885 C 926.71157,93.660845 926.75005,93.657095 920.71157,91.616875 z M 1203.7116,73.301565 L 1203.7116,57.104995 L 1206.4616,58.918995 C 1211.9514,62.540285 1217.5378,65.385665 1223.3144,67.502805 C 1228.6947,69.474735 1231.5342,69.694025 1255.7116,70.004865 C 1270.2866,70.192245 1290.6494,70.455695 1300.9622,70.590295 C 1322.8645,70.876155 1320.9883,72.542955 1317.2607,56.110775 C 1315.1276,46.707345 1312.9471,40.567225 1309.8829,35.335015 C 1309.3998,34.510015 1308.1511,32.056035 1307.108,29.881715 C 1306.065,27.707395 1304.1591,24.669895 1302.8727,23.131715 L 1300.5338,20.335015 L 1321.7452,20.335015 C 1345.2823,20.335015 1343.5866,19.690075 1338.0808,26.548205 C 1334.8968,30.514315 1329.2112,42.991275 1327.6971,49.335015 C 1326.9751,52.360015 1326.1205,58.660015 1325.798,63.335015 C 1325.2222,71.681545 1325.1665,71.829695 1322.7116,71.540265 C 1320.8598,71.321935 1320.5772,71.492535 1321.6218,72.198295 C 1323.8742,73.720055 1315.4659,74.210385 1275.7116,74.875525 C 1236.665,75.528835 1227.9538,76.532465 1218.2945,81.490675 C 1216.0489,82.643355 1213.5366,83.893485 1212.7116,84.268755 C 1211.8866,84.644015 1209.5241,85.974145 1207.4616,87.224595 L 1203.7116,89.498145 L 1203.7116,73.301565 z M 719.94815,62.835015 C 719.9796,53.210015 720.22219,45.335015 720.48725,45.335015 C 720.75231,45.335015 722.76819,46.960325 724.96699,48.946815 C 730.4568,53.906525 739.84618,58.083645 748.21157,59.287795 C 752.06157,59.841975 769.16157,60.311205 786.21157,60.330525 C 814.95123,60.363085 821.48234,60.895225 819.3507,63.030645 C 818.90908,63.473055 803.17211,64.098555 784.37966,64.420655 C 750.8928,64.994615 750.05042,65.059145 742.12881,67.657115 C 737.68329,69.115075 733.22604,71.214045 732.22382,72.321485 C 731.2216,73.428925 729.812,74.335015 729.09138,74.335015 C 728.37076,74.335015 726.2436,75.685015 724.36435,77.335015 C 722.48511,78.985015 720.70981,80.335015 720.41926,80.335015 C 720.1287,80.335015 719.91671,72.460015 719.94815,62.835015 z " style="fill:#3434ff;fill-opacity:1" id="path4261"/>
  </g>
</svg>