<?xml version="1.0" encoding="UTF-8" standalone="no"?>
<!-- Created with Inkscape (http://www.inkscape.org/) -->
<svg xmlns:inkscape="http://www.inkscape.org/namespaces/inkscape" xmlns:rdf="http://www.w3.org/1999/02/22-rdf-syntax-ns#" xmlns="http://www.w3.org/2000/svg" xmlns:cc="http://creativecommons.org/ns#" xmlns:dc="http://purl.org/dc/elements/1.1/" xmlns:sodipodi="http://sodipodi.sourceforge.net/DTD/sodipodi-0.dtd" xmlns:svg="http://www.w3.org/2000/svg" xmlns:ns1="http://sozi.baierouge.fr" xmlns:xlink="http://www.w3.org/1999/xlink" id="svg3007" sodipodi:docname="New document 3" viewBox="0 0 141.99 168.43" version="1.1" inkscape:version="0.48.2 r9819">
  <sodipodi:namedview id="base" bordercolor="#666666" inkscape:pageshadow="2" inkscape:window-y="250" fit-margin-left="0" pagecolor="#ffffff" fit-margin-top="0" inkscape:window-maximized="0" inkscape:zoom="0.98994949" inkscape:window-x="250" inkscape:window-height="629" showgrid="false" borderopacity="1.0" inkscape:current-layer="layer1" inkscape:cx="18.100373" inkscape:cy="280.06362" fit-margin-right="0" fit-margin-bottom="0" inkscape:window-width="933" inkscape:pageopacity="0.0" inkscape:document-units="px"/>
  <g id="layer1" inkscape:label="Layer 1" inkscape:groupmode="layer" transform="translate(-391.86 -456.72)">
    <path id="rect3023" style="fill:#000000" inkscape:connector-curvature="0" d="m462.79 456.72c-3.8448-0.0166-9.7369 1.5393-10.531 3.2188l-1.4688 62.875-54.344 27.875c-4.7909 2.4567-4.6132 3.8037-4.5625 9.1875l4.0625 28.75c0.002 0.26035 0.11895 1.3943 0.75 2.6562 0.51105 1.0662 1.5775 2.071 3.25 2.9062l54.844 29.156c4.8168 2.4054 12.589 2.4054 17.406 0l54.312-29.156c3.3604-1.6781 3.681-3.6623 3.4688-6.2188l3.875-28.094c0.0506-5.3838-0.4957-6.5321-5.3125-8.9375l-53.344-26.656-1.5312-64.344c-0.43357-1.9257-7.3408-3.2035-10.875-3.2188zm12.562 75.062c15.42 2.991 26.531 11.421 26.531 21.344 0 12.426-17.407 22.5-38.906 22.5-21.5 0-38.938-10.074-38.938-22.5 0-9.9151 11.122-18.315 26.531-21.312l-0.46875 19.531c8.1971 6.8528 19.422 5.1529 25.719-0.34375l-0.46875-19.219zm-37.562 13.312c-0.11 0.62033-0.3125 1.2358-0.3125 1.875 0 9.1529 11.58 16.562 25.875 16.562s25.906-7.4096 25.906-16.562c0-0.6384-0.17152-1.2554-0.28125-1.875-0.0871 0.49422-0.0965 0.98868-0.25 1.4688-0.34478 1.0788-0.84512 2.1336-1.5 3.125-0.65488 0.99137-1.476 1.9308-2.4062 2.8125-0.93028 0.88168-1.9853 1.719-3.1562 2.4688-1.171 0.74977-2.4355 1.4043-3.8125 2-1.377 0.59565-2.8579 1.1119-4.4062 1.5312-1.5483 0.41932-3.1588 0.74798-4.8438 0.96875-1.6849 0.22076-3.4632 0.34375-5.25 0.34375-1.7869 0-3.5026-0.12299-5.1875-0.34375-1.6849-0.22077-3.3267-0.54943-4.875-0.96875-1.5483-0.41931-2.998-0.9356-4.375-1.5312-1.377-0.59565-2.6728-1.2502-3.8438-2-1.171-0.74977-2.2572-1.5871-3.1875-2.4688-0.93028-0.88169-1.6889-1.8211-2.3438-2.8125-0.65488-0.99137-1.1865-2.0462-1.5312-3.125-0.15319-0.47935-0.13172-0.9753-0.21875-1.4688zm-26.281 1.0938c6.3118 0 11.438 2.9456 11.438 6.5938 0 3.6481-5.1257 6.5937-11.438 6.5937-6.3118 0-11.406-2.9456-11.406-6.5937s5.0944-6.5938 11.406-6.5938zm17.031 0.9375c-0.14918 0.84129-0.40625 1.6644-0.40625 2.5312 0 12.413 15.707 22.469 35.094 22.469 19.386 0 35.125-10.056 35.125-22.469 0-0.8658-0.25743-1.6909-0.40625-2.5312-0.11807 0.67025-0.10443 1.3489-0.3125 2-0.46759 1.4631-1.1744 2.8743-2.0625 4.2188-0.88814 1.3445-1.9571 2.648-3.2188 3.8437-1.2616 1.1957-2.6932 2.2957-4.2812 3.3125-1.5881 1.0168-3.32 1.9422-5.1875 2.75-1.8675 0.80782-3.869 1.4938-5.9688 2.0625-2.0998 0.56867-4.3087 1.0131-6.5938 1.3125s-4.6704 0.46875-7.0938 0.46875c-2.4233 0-4.7774-0.16935-7.0625-0.46875s-4.494-0.74383-6.5938-1.3125-4.07-1.2547-5.9375-2.0625c-1.8675-0.80782-3.6307-1.7332-5.2188-2.75s-3.0196-2.1168-4.2812-3.3125-2.3306-2.4992-3.2188-3.8437c-0.88814-1.3445-1.5949-2.7556-2.0625-4.2188-0.20775-0.65009-0.19447-1.3308-0.3125-2zm-26.562 3.5312c-0.0408 0.2299-0.0937 0.45062-0.0937 0.6875 0 3.3922 4.2958 6.125 9.5938 6.125 5.2979 0 9.5938-2.7328 9.5938-6.125 0-0.2366-0.0843-0.45786-0.125-0.6875-0.0323 0.18317-0.0369 0.35332-0.0937 0.53125-0.12778 0.39984-0.28854 0.78883-0.53125 1.1562-0.24271 0.36742-0.56147 0.73573-0.90625 1.0625-0.34477 0.32676-0.72227 0.62837-1.1562 0.90625-0.43398 0.27788-0.89592 0.52924-1.4062 0.75-0.51034 0.22076-1.0824 0.4071-1.6562 0.5625-0.57383 0.15541-1.1568 0.26193-1.7812 0.34375-0.62447 0.0818-1.2753 0.125-1.9375 0.125-0.66224 0-1.313-0.0432-1.9375-0.125-0.62446-0.0818-1.2387-0.18834-1.8125-0.34375-0.57383-0.1554-1.1147-0.34174-1.625-0.5625-0.51034-0.22076-0.97226-0.47212-1.4062-0.75-0.43398-0.27788-0.84273-0.57949-1.1875-0.90625-0.34478-0.32677-0.6323-0.69508-0.875-1.0625-0.24271-0.36742-0.43471-0.75641-0.5625-1.1562-0.0568-0.17766-0.0614-0.34837-0.0937-0.53125zm1.5312 8.7187c17.858 8.0357 52.517 24.125 59.625 24.125 7.1644 0 30.557-11.379 49.406-19.906-18.542 8.5951-43.252 20.02-46.156 22.75-3.0928 2.9071-2.7188 37.875-2.7188 37.875s-0.36827-34.966-3.8125-37.969c-2.9077-2.5354-38.697-18.866-56.344-26.875z"/>
    <path id="path3102" sodipodi:rx="10.606602" sodipodi:ry="3.5355339" style="fill:#c0c0c0" sodipodi:type="arc" d="m315.93 596.28a10.607 3.5355 0 1 1 -21.213 0 10.607 3.5355 0 1 1 21.213 0z" transform="matrix(0.75 0 0 .67857 233.99 56.316)" sodipodi:cy="596.27832" sodipodi:cx="305.3186"/>
    <path id="path3104" sodipodi:rx="10.606602" sodipodi:ry="3.5355339" style="fill:#8b0000" sodipodi:type="arc" d="m315.93 596.28a10.607 3.5355 0 1 1 -21.213 0 10.607 3.5355 0 1 1 21.213 0z" transform="matrix(.88679 0 0 1.6887 140.73 -456.87)" sodipodi:cy="596.27832" sodipodi:cx="305.3186"/>
  </g>
  <metadata>
    <rdf:RDF>
      <cc:Work>
        <dc:format>image/svg+xml</dc:format>
        <dc:type rdf:resource="http://purl.org/dc/dcmitype/StillImage"/>
        <cc:license rdf:resource="http://creativecommons.org/licenses/publicdomain/"/>
        <dc:publisher>
          <cc:Agent rdf:about="http://openclipart.org/">
            <dc:title>Openclipart</dc:title>
          </cc:Agent>
        </dc:publisher>
        <dc:title>joystick</dc:title>
        <dc:date>2012-10-07T08:29:53</dc:date>
        <dc:description>retro joystick</dc:description>
        <dc:source>https://openclipart.org/detail/172635/joystick-by-sagism-172635</dc:source>
        <dc:creator>
          <cc:Agent>
            <dc:title>sagism</dc:title>
          </cc:Agent>
        </dc:creator>
        <dc:subject>
          <rdf:Bag>
            <rdf:li>game</rdf:li>
            <rdf:li>gamepad</rdf:li>
            <rdf:li>joystick</rdf:li>
          </rdf:Bag>
        </dc:subject>
      </cc:Work>
      <cc:License rdf:about="http://creativecommons.org/licenses/publicdomain/">
        <cc:permits rdf:resource="http://creativecommons.org/ns#Reproduction"/>
        <cc:permits rdf:resource="http://creativecommons.org/ns#Distribution"/>
        <cc:permits rdf:resource="http://creativecommons.org/ns#DerivativeWorks"/>
      </cc:License>
    </rdf:RDF>
  </metadata>
</svg>