<?xml version="1.0" encoding="UTF-8" standalone="no"?>
<!-- Created with Inkscape (http://www.inkscape.org/) -->

<svg
   xmlns:dc="http://purl.org/dc/elements/1.1/"
   xmlns:cc="http://creativecommons.org/ns#"
   xmlns:rdf="http://www.w3.org/1999/02/22-rdf-syntax-ns#"
   xmlns:svg="http://www.w3.org/2000/svg"
   xmlns="http://www.w3.org/2000/svg"
   xmlns:sodipodi="http://sodipodi.sourceforge.net/DTD/sodipodi-0.dtd"
   xmlns:inkscape="http://www.inkscape.org/namespaces/inkscape"
   width="114.95359"
   height="186.81175"
   id="svg2"
   version="1.1"
   inkscape:version="0.48.2 r9819"
   sodipodi:docname="thisIsAWug.svg">
  <defs
     id="defs4" />
  <sodipodi:namedview
     id="base"
     pagecolor="#ffffff"
     bordercolor="#666666"
     borderopacity="1.0"
     inkscape:pageopacity="0.0"
     inkscape:pageshadow="2"
     inkscape:zoom="0.5625"
     inkscape:cx="141.11108"
     inkscape:cy="-8.5394773"
     inkscape:document-units="px"
     inkscape:current-layer="layer1"
     showgrid="false"
     showguides="true"
     inkscape:guide-bbox="true"
     fit-margin-top="10"
     fit-margin-left="10"
     fit-margin-right="10"
     fit-margin-bottom="10"
     inkscape:window-width="1162"
     inkscape:window-height="828"
     inkscape:window-x="0"
     inkscape:window-y="0"
     inkscape:window-maximized="0">
    <sodipodi:guide
       orientation="0,1"
       position="-280.63402,-1070.161"
       id="guide4194" />
  </sodipodi:namedview>
  <metadata
     id="metadata7">
    <rdf:RDF>
      <cc:Work
         rdf:about="">
        <dc:format>image/svg+xml</dc:format>
        <dc:type
           rdf:resource="http://purl.org/dc/dcmitype/StillImage" />
        <dc:title />
      </cc:Work>
    </rdf:RDF>
  </metadata>
  <g
     inkscape:label="Layer 1"
     inkscape:groupmode="layer"
     id="layer1"
     transform="translate(-1368.2395,1747.2348)">
    <g
       id="g4142"
       transform="matrix(0.12416978,0,0,0.12416978,1378.1412,-1571.4649)">
      <g
         transform="translate(1590.0979,-1201.1137)"
         id="g4126">
        <path
           inkscape:connector-curvature="0"
           style="fill:#1a1a1a"
           d="m -1178.25,137.15625 c -32.1972,0.22457 -42.2308,3.08817 -73.3125,13.5 -14.7436,4.93884 -35.1521,15.41231 -46.625,23.9375 -4.7281,3.51336 -11.1936,7.95 -14.375,9.875 -20.0071,12.10611 -53.4602,37.77117 -63.6875,48.84375 -2.9347,3.17716 -8.3822,10.69649 -12.125,16.71875 -3.7427,6.02226 -9.2478,14.3125 -12.2188,18.4375 -6.7141,9.32208 -12.1368,18.27039 -16.9687,28 -2.0486,4.125 -6.6415,12.79548 -10.2187,19.25 -9.263,16.71415 -13.7406,27.69775 -17.7188,43.46875 -1.9131,7.58446 -4.1733,16.25625 -5.0312,19.28125 -3.8515,13.57892 -6.6242,27.38795 -7.5938,38 -0.5779,6.325 -1.8142,15.55 -2.75,20.5 -2.0682,10.93897 -2.1727,44.21517 -0.25,75 0.687,11 1.4738,39.575 1.75,63.5 0.4116,35.65907 0.197,46.64362 -1.1562,60.90625 -1.9511,20.56559 -7.4867,54.96418 -10.875,67.625 -2.9607,11.06276 -9.4462,26.81049 -14.625,35.46875 -5.9884,10.01159 -12.2048,15.7996 -28.875,26.84375 -12.6983,8.41272 -16.009,10.15625 -19.1563,10.15625 -4.3621,0 -5.5656,1.72099 -3.8437,5.5 1.9899,4.36752 7.7516,4.45475 16.4062,0.25 l 4.375,-2.125 2.2812,2.09375 c 1.2472,1.14058 3.6705,2.76438 5.375,3.625 3.4553,1.74439 21.8832,9.00635 33.4063,13.15625 4.125,1.4855 9.1571,3.32185 11.2187,4.09375 16.354,6.1233 88.5983,25.63775 103.2813,27.90625 2.2,0.3399 6.925,1.2389 10.5,2 3.575,0.761 10.2216,1.94055 14.7813,2.59375 4.5597,0.6532 8.1344,1.4707 7.9687,1.8125 -3.8661,7.9724 -13.9163,27.0271 -18.0313,34.1875 -2.9765,5.1795 -5.9218,10.942 -6.5624,12.8125 -0.6407,1.8706 -2.9878,6.52845 -5.1876,10.34375 -2.4556,4.2595 -3.9687,8.2243 -3.9687,10.25 0,3.2859 0.027,3.2878 6.75,4.5 3.7125,0.6694 10.4766,2.331 15.0313,3.6875 8.0341,2.3926 11.691,3.8091 23.2187,9.0625 3.5228,1.6054 7.4771,2.57805 11,2.65625 5.4912,0.1219 5.471,0.11685 5.7813,-3.09375 0.2708,-2.802 -0.051,-3.3294 -2.5,-3.9375 -1.5461,-0.3839 -6.6343,-2.53375 -11.3438,-4.78125 -4.7094,-2.2474 -9.8844,-4.61195 -11.5,-5.28125 -2.7212,-1.1272 -22.2147,-7.3125 -23.0625,-7.3125 -1.3677,0 0.6415,-4.8014 8.25,-19.625 9.2256,-17.9739 12.008,-23.57915 17.4375,-35.21875 l 3.4375,-7.34375 6,0.59375 c 3.3,0.324 10.05,1.04655 15,1.59375 4.95,0.5472 22.3875,0.9903 38.75,1 23.1252,0.014 29.7207,0.2784 29.7187,1.25 -0.01,3.2689 -5.3377,20.59275 -9.5,30.84375 -2.5524,6.2862 -5.106,12.75625 -5.6874,14.40625 -0.5815,1.65 -1.672,4.45215 -2.4063,6.21875 -1.5539,3.7384 -1.4492,3.815 5.125,4.75 7.406,1.0534 33.1833,12.0246 41.5625,17.6875 6.0071,4.0599 35.1689,17.83875 43.8438,20.71875 9.0399,3.0012 19.3858,3.9944 25.3437,2.4375 1.1419,-0.2984 1.75,-1.4202 1.75,-3.25 0,-3.2201 -1.2688,-4.47405 -5.5,-5.46875 -9.9833,-2.3468 -24.4938,-8.5884 -56.3437,-24.25 -24.5993,-12.0963 -34.6105,-16.34375 -38.6876,-16.34375 -1.9182,0 -2.4687,-0.50025 -2.4687,-2.28125 0,-1.265 0.3985,-2.7275 0.9063,-3.25 1.3413,-1.3804 8.2475,-19.1059 12.6874,-32.5625 l 3.8438,-11.625 9.0312,-0.65625 c 27.8968,-1.9772 76.2362,-12.83235 97.5313,-21.90625 1.9242,-0.8199 5.75,-2.4243 8.5,-3.5625 51.3205,-21.2419 72.2605,-34.4781 102,-64.5625 12.0423,-12.18197 16.24345,-17.23773 21.40625,-25.625 16.2941,-26.47063 21.6939,-42.24912 22.75,-66.46875 1.3121,-30.08988 -3.60985,-54.93883 -22.15625,-112 -9.6007,-29.53822 -17.48105,-64.35208 -19.59375,-86.5 -2.5602,-26.83995 1.72415,-68.53819 9.09375,-88.5 1.2183,-3.3 3.2079,-8.925 4.4375,-12.5 5.8815,-17.09997 17.7028,-34.15591 35.6875,-51.5625 11.7006,-11.32445 14.9953,-13.7643 22.0625,-16.46875 3.1008,-1.1866 7.00769,-3.59601 8.96875,-4.96875 12.95283,-9.06698 16.80055,-14.10683 17.9375,-16.375 0.59422,-0.62349 0.63646,-1.22756 0.375,-2.0625 -0.3529,-1.12698 -0.98995,-3.6375 -1.40625,-5.5625 -0.4163,-1.925 -1.6792,-5.3 -2.8125,-7.5 -5.3277,-10.34212 -36.0196,-45.19244 -47.75,-54.21875 -8.2995,-6.38626 -36.6962,-25.26693 -45.6875,-30.375 -3.4834,-1.97896 -7.6716,-3.91127 -9.3125,-4.3125 -1.6408,-0.40123 -7.0408,-2.46484 -12,-4.5625 -12.4815,-5.27951 -25.7871,-9.6731 -33.5,-11.0625 -6.6966,-1.20631 -21.8826,-4.34787 -42,-8.6875 -10.4639,-2.25721 -14.5183,-2.54399 -45,-3.125 -17.2571,-0.32894 -30.4551,-0.54361 -41.1875,-0.46875 z"
           id="path3173" />
        <path
           inkscape:connector-curvature="0"
           style="fill:#6fd1f6;fill-opacity:1"
           d="m -1198.25,153.71875 c 3.0985,0.0247 6.3277,0.14036 9.6875,0.3125 8.8,0.45086 25.45,0.88442 37,0.96875 11.55,0.0843 23.925,0.47094 27.5,0.875 5.3982,0.61014 36.7821,6.31503 59,10.71875 6.6121,1.31056 21.6411,6.14027 25.7813,8.28125 1.6375,0.84678 7.3657,3.20176 12.75,5.21875 10.4402,3.911 17.7248,7.74972 28.9687,15.375 3.85,2.61096 10.15,6.68962 14,9.03125 3.85,2.34163 7.225,4.5205 7.5,4.875 0.275,0.3545 3.4113,2.95808 7,5.78125 11.3312,8.91418 39.4725,41.26417 44.6875,51.375 2.4824,4.81276 3.2823,5.52596 6.8125,6.28125 1.58613,0.33935 2.98147,0.5815 4.28125,0.71875 l 0,0.96875 c -11.07477,5.71068 -29.88613,16.08024 -32.03125,17.8125 -7.5558,6.10143 -32.5831,32.28938 -38.375,40.15625 -17.1831,23.33905 -27.8932,47.43956 -31.7813,71.5 -4.3841,27.1314 -4.643,55.08525 -0.7187,79.5 2.2591,14.05444 8.8077,41.67233 13.2813,56 3.87189,12.40086 9.66685,30.70222 10.93745,34.5 16.779,50.15174 20.9643,91.60842 11.875,117.84375 -3.6811,10.62499 -12.17645,27.18138 -19.71875,38.40625 -7.2034,10.72041 -22.9694,26.58048 -42.3125,42.625 -5.924,4.91383 -21.0882,14.6826 -29.1562,18.75 -36.1477,18.2232 -70.313,29.11885 -112.4063,35.84375 -12.8303,2.0497 -29.375,3.64535 -29.375,2.84375 0,-0.263 0.912,-4.9249 2.0625,-10.375 1.1506,-5.4501 3.1826,-15.5625 4.5,-22.4375 1.3173,-6.875 3.7452,-18.72615 5.375,-26.34375 2.8948,-13.53023 3.9939,-27.30281 2.5,-31 -1.1176,-2.7661 -6.1501,-1.33984 -10.5625,2.96875 -3.6259,3.54061 -3.652,3.59544 -4.1563,13.71875 -0.2787,5.59441 -1.0057,12.18125 -1.625,14.65625 -1.6757,6.696 -5.5228,25.5431 -8.6874,42.5 -1.5398,8.25 -3.2061,15.5625 -3.7188,16.25 -1.1926,1.5993 -46.231,1.75985 -64.0312,0.21875 -53.4466,-4.6272 -130.5357,-22.69053 -187.6563,-43.96875 -8.525,-3.17568 -16.625,-6.10233 -18,-6.5 -1.375,-0.39768 -2.95,-1.05774 -3.5,-1.46875 -0.55,-0.411 -2.7113,-1.302 -4.7813,-1.96875 l -3.75,-1.21875 10.1876,-7.34375 c 18.2005,-13.14292 27.3651,-23.73591 35.2187,-40.65625 8.4606,-18.22811 12.6077,-34.37046 17.6563,-68.84375 2.8965,-19.7781 3.1988,-24.70354 4.0624,-61.5 0.6477,-27.59249 0.6224,-45.58338 -0.125,-58 -0.5959,-9.9 -1.4931,-27.675 -2,-39.5 -0.5068,-11.825 -1.3977,-24.2 -1.9687,-27.5 -1.3563,-7.83841 -1.4406,-31.2053 -0.125,-36.125 0.566,-2.11683 1.7746,-12.18576 2.6563,-22.34375 1.2293,-14.16381 2.409,-21.62323 5.125,-32 1.9478,-7.44201 4.3893,-17.58125 5.4374,-22.53125 3.0962,-14.62112 7.6249,-27.21591 12.0313,-33.59375 0.9897,-1.43259 5.8224,-10.65759 10.75,-20.5 7.1956,-14.37234 16.2427,-29.19694 23.7813,-38.9375 0.9583,-1.23833 2.7753,-4.28074 6.2187,-10.46875 3.2663,-5.86968 9.7755,-14.84295 13.0625,-18 5.8189,-5.58875 33.4214,-28.22986 38.3125,-31.4375 12.8601,-8.43373 33.8338,-22.54559 40.125,-27 5.0717,-3.59095 11.3775,-6.57058 24,-11.28125 28.2716,-10.5508 44.7483,-14.20412 66.4375,-14.03125 z"
           id="path3171" />
        <path
           inkscape:connector-curvature="0"
           style="fill:#000000"
           d="m -1114.1562,263.78125 c -1.6782,0.032 -3.3142,0.54909 -4.7813,1.59375 -1.7448,1.24238 -4.5086,2.1109 -6.7813,2.125 -10.2971,0.0639 -15.3734,3.39075 -19.2187,12.65625 -3.2238,7.76791 -2.8815,9.96206 2.3437,14.96875 2.4734,2.36981 5.7358,4.60278 7.25,4.9375 1.5143,0.33473 5.0313,1.29995 7.7813,2.15625 7.0852,2.20622 6.85,2.15118 8.5,1.53125 0.825,-0.30997 3.3418,-2.1723 5.625,-4.15625 2.2831,-1.98396 6.2867,-5.37908 8.875,-7.53125 l 4.6875,-3.90625 -0.6562,-5.09375 c -1.0158,-7.84164 -2.5638,-12.15443 -5.5626,-15.4375 -2.3566,-2.58022 -5.2656,-3.89709 -8.0624,-3.84375 z"
           id="path3169" />
        <path
           inkscape:connector-curvature="0"
           style="fill:#000000"
           d="m -904.34375,267.1875 c 0.0239,0.096 -0.0168,0.52253 -0.21875,1.28125 -0.0662,-0.64844 0.13989,-1.26487 0.21875,-1.28125 z"
           id="path3157" />
      </g>
      <path
         style="fill:#000000"
         d="m 86.974431,-171.8986 c -2.923203,0 -1.810092,11.86969 1.764685,18.87675 1.889227,3.70322 6.855232,15.5446 11.015889,26.30981 7.882025,20.39381 29.148555,62.880616 38.769545,77.378644 8.11658,12.231059 22.17782,28.188031 26.25634,29.839176 12.05258,4.879507 14.60179,-0.248776 15.88213,-31.336483 0.83911,-20.373808 2.29098,-26.102839 4.65235,-18.662847 0.54476,1.716501 2.32089,4.585858 3.95716,6.417019 1.63628,1.831329 7.5923,8.656742 13.20839,15.133491 13.35786,15.404835 21.86298,21.49704 29.94612,21.49704 12.24352,0 18.89486,-12.803423 23.10129,-44.491382 1.5617,-11.764551 3.51303,-24.855283 4.3315,-29.090538 5.04948,-26.1291 3.56933,-45.9091 -4.01064,-54.33082 -4.5405,-5.04463 -7.67588,-4.82107 -9.73249,0.58823 -2.31983,6.10166 -2.10511,7.19872 1.49731,8.34214 5.80451,1.84245 7.84816,8.43239 5.77532,18.44896 -1.02504,4.95342 -2.71764,15.52919 -3.79674,23.52908 -6.53048,48.413651 -9.62954,58.828743 -18.12809,60.961762 -3.56054,0.893764 -5.71157,-0.124741 -11.28328,-5.507947 -12.34534,-11.927279 -31.24631,-38.636066 -35.34712,-49.892384 -2.85125,-7.826381 -4.7573,-10.695051 -7.05874,-10.695051 -4.34344,0 -4.80166,3.07454 -6.14965,39.357775 -0.64687,17.411529 -1.73019,32.698 -2.40639,33.956763 -1.3271,2.470471 -16.04602,-13.452056 -24.27775,-26.256331 -16.71191,-25.995127 -33.51723,-57.730147 -42.40584,-80.105887 -7.028267,-17.69269 -13.492226,-30.26697 -15.561299,-30.26697 z m 451.437839,34.54499 c -8.2634,0.15778 -20.69257,6.10879 -30.64134,14.86611 -21.56019,18.97814 -35.36613,72.163196 -25.45419,98.127034 6.04586,15.8368801 20.39257,27.9074111 37.37911,31.4434334 9.71644,2.0228178 14.20293,1.789819 26.68412,-1.3368818 8.9903,-2.2521199 29.14134,-22.3118316 37.05824,-36.9513796 5.71318,-10.564514 5.95717,-10.821846 11.81813,-9.946392 8.07972,1.206572 37.98832,-2.950892 49.57151,-6.898304 9.19777,-3.134418 16.36214,-10.536074 13.20839,-13.689666 -0.71938,-0.719383 -14.22026,-0.09192 -29.94604,1.443832 -30.62768,2.990512 -37.47533,2.6641 -45.61428,-2.299435 -7.46745,-4.553679 -18.78931,-4.216744 -22.19226,0.641706 -1.46516,2.091784 -2.67375,5.947391 -2.67375,8.609515 0,3.90566 1.14736,5.325363 5.93553,7.326106 3.26377,1.363833 7.90463,2.459861 10.32089,2.459861 4.00602,0 4.22515,0.339161 2.40643,3.850215 -4.52991,8.74362 -14.14998,19.664766 -22.0853,25.079881 -11.59838,7.9146756 -27.47976,9.3136733 -40.80156,3.582841 -13.26057,-5.704652 -21.72131,-16.119452 -24.06407,-29.5718 -3.0425,-17.471938 2.2803,-40.743413 13.1016,-57.271965 8.26478,-12.623571 29.26778,-26.095911 40.69476,-26.095911 4.07968,0 4.39195,-0.51541 3.90351,-6.41702 -0.50286,-6.07632 -0.89171,-6.39332 -7.00524,-6.8983 -0.51177,-0.0422 -1.0533,-0.064 -1.60419,-0.0534 z m -196.20059,13.79592 c -3.20633,0.10143 -7.20158,6.54271 -8.76993,14.81263 -2.61079,13.766674 -2.15108,43.476311 0.8556,55.079486 4.17063,16.094932 15.69606,32.843714 29.57184,42.994082 14.13781,10.34219434 31.55379,3.8909422 41.17575,-15.293916 7.10938,-14.174647 19.35034,-54.237479 20.37417,-66.683605 0.62962,-7.653547 0.0844,-12.240947 -1.87165,-16.363427 -3.51068,-7.39821 -8.86279,-12.18652 -12.19227,-10.90894 -3.81943,1.46565 -3.22802,6.60492 1.9251,17.11208 l 4.5453,9.251206 -5.6148,16.898173 c -10.44436,31.537892 -15.37982,42.095783 -22.72705,48.929831 -9.99808,9.299728 -17.40641,8.325538 -28.34183,-3.743265 -14.05929,-15.516577 -19.20571,-28.534546 -20.42754,-51.764019 -0.6931,-13.177663 -0.34251,-17.847126 1.87164,-22.513066 3.20465,-6.75327 3.67317,-15.72463 0.90908,-17.43292 -0.41777,-0.25821 -0.82537,-0.38885 -1.28341,-0.37433 z"
         id="path4138"
         inkscape:connector-curvature="0"
         sodipodi:nodetypes="ssssssccsssssscssccssssssscsscsscscccsscscsscsssccccssscscccccsssscc" />
      <path
         sodipodi:nodetypes="cccccccccccccccscccsccccccsccssssccsccscccssscscscccccsccccscccccsccccccccccccccccccccccccccccccccccccccssssccscssccsccccscsccccsccsccssssccccccccccccssccccscccccscccccssccccssssscscsscssccssscsccsscscccccccccscscccccccscccccscscssccccsccccccsccsccscccccscccssscscc"
         inkscape:connector-curvature="0"
         id="path3127"
         d="m 122.63206,-1335.0192 c -0.041,0 -0.0597,0.015 -0.094,0.047 -0.42223,0.422 -0.25955,4.0312 0.37591,8.0353 0.6356,4.0041 1.45556,6.0406 1.78561,4.511 0.67214,-3.1148 -0.83153,-12.3511 -1.92658,-12.5933 -0.0365,-0.015 -0.10005,0 -0.14089,0 z m 40.88106,4.417 c -0.0208,0 -0.0442,0.031 -0.094,0.046 -0.23921,0.075 -0.83699,0.3967 -1.73862,0.8928 -1.39117,0.7655 -3.29472,1.5786 -4.22907,1.8326 -1.226,0.3343 -1.16023,0.5823 0.23494,0.8459 1.06317,0.2008 2.96684,-0.6114 4.22908,-1.8325 1.19302,-1.1542 1.74293,-1.7474 1.59765,-1.7858 z m -15.69457,1.1747 c -0.64961,0.1052 -1.70638,0.6285 -2.81939,1.4566 -1.78082,1.3251 -2.92707,2.5918 -2.58442,2.8194 1.09911,0.7309 6.36667,-2.7128 6.10865,-3.994 -0.0512,-0.255 -0.31507,-0.3451 -0.70484,-0.282 z m -7.70631,5.122 c -0.48868,-0.015 -2.73526,1.2884 -6.20265,3.7122 -2.86353,2.0014 -5.52928,3.7492 -5.9207,3.9 -0.39148,0.1507 -3.41932,2.2823 -6.71952,4.746 -10.13305,7.5639 -21.440185,15.5738 -22.273141,15.7415 -0.435161,0.088 -4.181554,2.6358 -8.36416,5.6859 -4.182633,3.0499 -9.943557,6.9393 -12.781201,8.646 -2.837656,1.7067 -7.110444,4.5014 -9.491932,6.2027 -5.045349,3.6045 -16.208465,9.8103 -37.544775,20.8633 -8.397411,4.3506 -18.787832,10.3913 -23.0719462,13.4391 -6.8053663,4.8417 -7.6157623,5.9955 -6.5785625,9.1631 1.1268967,3.4415 1.5943515,3.5456 9.2099797,1.5976 4.412645,-1.1288 10.811652,-3.5661 14.237891,-5.4038 3.426227,-1.8378 10.654846,-5.6884 16.070482,-8.5522 7.718714,-4.0812 18.476511,-10.703 30.590301,-18.7958 0.346569,1.1561 1.060083,3.02 2.161521,5.5448 1.397065,3.2024 2.56076,6.165 2.631431,6.5785 0.07039,0.4136 1.572453,3.7967 3.33626,7.5184 5.415177,11.4267 11.042582,24.1017 11.042582,24.9514 0,0.4441 1.735625,4.6488 3.900153,9.351 2.164381,4.7025 4.854683,11.1192 5.967687,14.2381 1.11302,3.1186 3.0314,7.855 4.22908,10.5257 2.53759,5.6575 6.39188,17.8295 13.01616,40.9279 2.60721,9.0908 6.50382,20.4791 8.6461,25.2804 3.40312,7.6273 4.34945,8.6618 7.65933,8.2703 3.59618,-0.4255 3.78985,-0.8897 3.38325,-8.7402 -0.23547,-4.5486 -1.3651,-11.3151 -2.49045,-15.0367 -1.12535,-3.7215 -3.47747,-11.559 -5.21586,-17.4331 -4.62213,-15.62 -15.79154,-43.1661 -28.94567,-71.2834 -2.901784,-6.2027 -7.115888,-15.2957 -9.350952,-20.2056 -3.056963,-6.7156 -4.369294,-8.3918 -5.403811,-6.7666 -1.017082,1.5976 -1.339178,1.1708 -1.12776,-1.6446 0.178342,-2.3739 -2.559978,-10.7337 -5.309839,-17.6211 8.186115,-5.6226 16.765872,-11.7435 25.421442,-18.1381 5.50784,-4.0688 13.62496,-9.9501 17.99707,-13.1102 5.98001,-4.3223 7.34228,-5.9791 5.54479,-6.6724 -1.76682,-0.6819 -1.39224,-1.0614 1.40968,-1.4097 4.41359,-0.549 27.50742,-15.3262 24.52863,-15.6945 -1.10251,-0.1369 -2.59145,0.6421 -3.28928,1.6916 -0.90681,1.3642 -1.92851,1.2957 -3.6652,-0.235 -2.21536,-1.9527 -2.3807,-1.8607 -1.78561,1.3157 0.48733,2.6011 0.003,3.3811 -1.92657,3.0545 -1.42081,-0.2409 -3.44889,0.5964 -4.51101,1.8795 -1.29769,1.5669 -1.73475,1.6866 -1.26872,0.376 0.38146,-1.0732 -0.12514,-2.2426 -1.17476,-2.6315 -1.2534,-0.4645 -0.87659,-1.6384 1.17476,-3.3833 1.93181,-1.6431 2.63558,-2.4345 2.2555,-2.4434 z m -5.96769,7.3304 c 0.86931,0.058 1.56919,0.4726 1.69163,1.0807 0.16324,0.8105 -0.31786,1.5852 -1.08077,1.7387 -0.76291,0.1537 -1.96712,-0.2771 -2.63142,-0.987 -0.66432,-0.7098 -0.13624,-1.5311 1.12775,-1.7855 0.316,-0.063 0.60304,-0.066 0.89281,-0.047 z m -5.73276,2.6314 c 0.7872,0.027 1.76138,0.5687 2.44348,1.6445 0.83517,1.3166 0.50419,1.858 -1.03378,1.5977 -1.26563,-0.2144 -2.43858,-0.9676 -2.58443,-1.6915 -0.21335,-1.0598 0.38756,-1.5778 1.17473,-1.5507 z m -3.05433,3.0074 c 1.17551,-0.1025 1.15249,0.817 -0.79881,2.4903 -1.26808,1.0875 -1.79823,2.529 -1.17475,3.1954 0.62349,0.6662 0.48991,1.3483 -0.28194,1.5036 -3.17726,0.6398 -3.95079,-3.9668 -0.98679,-5.8268 1.41866,-0.8901 2.537,-1.3012 3.24229,-1.3625 z m -11.55946,7.6592 c 0.92855,0.026 1.89772,0.3159 2.34948,0.799 0.60237,0.6434 -0.31249,1.0843 -2.02056,0.9866 -3.62322,-0.207 -4.27272,-1.1243 -1.22173,-1.7385 0.29208,-0.058 0.58329,-0.055 0.89281,-0.047 z m -7.18943,4.9809 c 0.2909,0.065 0.52442,0.3226 0.61087,0.7519 0.17285,0.8585 -0.31701,1.6692 -1.12776,1.8326 -0.81075,0.1632 -1.57262,0.028 -1.64464,-0.329 -0.072,-0.3574 0.46487,-1.2153 1.17474,-1.8795 0.35493,-0.3323 0.69589,-0.44 0.98679,-0.376 z m -37.074882,9.9149 c -0.112593,0.015 0.05852,0.6645 0.469895,1.9734 0.475909,1.5148 0.922127,3.545 0.986783,4.511 0.08576,1.2679 0.31201,1.2685 0.84582,-0.046 0.406735,-1.0027 -0.03883,-3.0328 -0.986797,-4.5112 -0.819188,-1.2776 -1.203095,-1.9351 -1.315701,-1.9264 z m 297.303922,17.997 c -8.80174,0 -16.56105,3.197 -23.40088,9.5859 -3.8826,3.6267 -4.88693,5.7688 -4.88693,10.3848 0,6.2443 2.39627,9.2814 26.12628,33.4097 13.75512,13.9859 15.01634,15.9866 12.87519,20.4874 -0.93355,1.9625 -3.81148,5.2628 -6.39061,7.3304 -4.02661,3.2279 -6.25251,3.7592 -15.55359,3.7592 -5.95753,0 -11.19788,0.4374 -11.70044,0.9399 -1.59486,1.5942 3.29587,4.558 12.26432,7.4243 10.24498,3.2744 12.8314,3.4157 20.39354,1.3157 12.53894,-3.482 20.49469,-15.6767 15.88251,-24.3877 -1.10851,-2.0936 -10.98619,-13.0604 -21.94419,-24.3405 -11.54771,-11.8876 -19.92364,-21.7249 -19.92364,-23.4011 0,-1.9575 2.41637,-4.1109 7.47136,-6.6723 8.75892,-4.4387 12.25536,-4.6922 17.48018,-1.2689 3.26792,2.1413 4.06338,2.1968 5.21586,0.3759 2.14234,-3.3847 1.67107,-5.3451 -2.49046,-10.2908 -3.39307,-4.0325 -4.85232,-4.6519 -11.4185,-4.6519 z m 172.45225,2.4905 c -9.92253,0.1308 -26.31423,9.8815 -26.31423,15.6476 0,3.2723 10.58193,13.0614 28.56974,26.4552 7.85671,5.85 15.87999,12.412 17.85612,14.5666 3.44145,3.7526 3.48295,4.04 1.08068,7.7064 -3.71857,5.6754 -14.7495,10.4227 -22.03813,9.4449 -3.27857,-0.4395 -5.9207,-0.3221 -5.9207,0.282 0,1.3995 5.84832,6.7098 9.77389,8.8811 6.40489,3.5424 19.5617,1.4201 28.14676,-4.558 4.13871,-2.8818 7.15793,-10.3771 6.0147,-14.8956 -1.2425,-4.9107 -12.17418,-14.7211 -36.41699,-32.5641 -5.36666,-3.9498 -9.94926,-8.2067 -10.19678,-9.4919 -0.29678,-1.5411 2.32327,-3.7317 7.75332,-6.3905 4.52832,-2.2174 8.6535,-4.0412 9.16294,-4.0412 0.50945,0 3.4419,1.6917 6.48458,3.7592 3.04268,2.0675 6.37587,3.7591 7.42437,3.7591 2.84104,0 2.29551,-6.0994 -1.03378,-11.5594 -3.15017,-5.1666 -8.93586,-7.1516 -20.34649,-7.0014 z m -461.251036,0.3289 c 0.004,0.3166 -0.05974,0.6711 -0.234948,1.1277 -0.516362,1.3453 -0.108277,3.5454 0.939791,4.8399 1.279928,1.5814 1.334202,1.9844 0.140896,1.2688 -0.97663,-0.5857 -2.277836,-0.2945 -2.866378,0.6579 -0.702807,1.137 -1.748691,0.5228 -3.054334,-1.8326 -0.47506,-0.8571 -0.826052,-1.4305 -1.127746,-1.8796 2.036874,-1.3636 4.095255,-2.7409 6.202638,-4.1821 z m 650.619626,1.3157 c -3.09906,0.035 -5.94165,2.1434 -12.21731,7.4243 -6.85749,5.7704 -8.58886,6.5192 -14.14406,6.1558 -5.8327,-0.3816 -6.44892,-0.075 -7.84709,4.088 -0.83359,2.4811 -1.92823,4.8493 -2.44346,5.2629 -2.32885,1.8685 -5.95487,9.1641 -9.72706,19.5477 -2.2532,6.2027 -8.75674,20.7507 -14.42587,32.3289 -13.56937,27.7143 -16.54033,34.6401 -16.54033,38.0147 0,3.6946 8.56135,11.9497 10.43187,10.0557 0.77049,-0.7802 5.76919,-10.2531 11.0895,-21.0043 5.32017,-10.7513 10.94198,-21.0711 12.49912,-22.978 l 2.8194,-3.4772 14.75489,6.8604 c 8.11799,3.7677 15.42586,6.8136 16.21145,6.8136 0.78545,0 7.10735,2.6846 14.04993,5.9676 l 12.59325,5.9678 3.994,12.4522 c 2.18012,6.8482 5.34512,13.6365 7.04857,15.0838 5.15161,4.3774 8.75539,3.4376 8.69309,-2.2555 -0.0553,-5.1388 -0.84775,-8.6415 -9.58588,-42.1968 -5.84888,-22.4604 -11.37171,-54.0199 -11.37171,-64.799 0,-10.1264 -2.16974,-14.166 -9.25687,-17.3391 -2.81373,-1.2597 -4.76597,-1.994 -6.62543,-1.9735 z m -252.61674,4.8869 0.4699,6.3907 c 2.31747,32.7929 8.51688,60.8937 14.98971,67.6652 2.17399,2.2742 5.30062,4.135 6.90749,4.135 2.56837,0 2.81664,-0.7726 2.06754,-6.3905 -0.46865,-3.515 -2.24422,-12.8189 -3.94713,-20.6755 -1.70289,-7.8567 -3.75164,-21.607 -4.558,-30.5903 -0.80636,-8.9835 -2.24282,-17.2725 -3.1953,-18.42 -0.95247,-1.1479 -4.21451,-2.1146 -7.23641,-2.1146 z m -397.626975,3.0074 c 0.827023,0 1.50367,0.6782 1.50367,1.4565 0,0.7782 -0.676647,1.7915 -1.50367,2.3027 -0.82701,0.5111 -1.503671,-0.12 -1.503671,-1.4098 0,-1.2892 0.676661,-2.3494 1.503671,-2.3494 z m 167.565325,3.1953 c -1.76768,0.042 -3.40081,0.4404 -3.99412,1.0337 -1.52743,1.5275 1.16474,11.7064 10.24375,39.0486 2.81894,8.4892 5.12188,16.0383 5.12188,16.7752 0,1.5096 -12.65271,6.1087 -16.77532,6.1087 -4.1781,0 -18.50282,5.7787 -24.52864,9.8679 -2.99335,2.0312 -5.63628,3.6651 -5.87371,3.6651 -2.42076,0 -21.45679,-36.0013 -22.93098,-43.3714 -1.32428,-6.6215 -8.35732,-9.9194 -13.76798,-6.4847 -3.71166,2.3563 3.18688,18.3463 19.54771,45.486 5.18903,8.6079 8.69311,16.1885 8.69311,18.749 0,2.5089 1.50231,5.8716 3.66519,8.1291 2.03417,2.1235 4.6407,7.4846 5.77974,11.9356 1.13888,4.4506 3.35364,9.0284 4.88692,10.1498 3.5195,2.5733 6.17227,2.6229 7.14244,0.093 1.36549,-3.5584 -0.08,-13.7085 -3.24229,-22.6959 l -3.10132,-8.834 4.74596,-4.4641 c 5.88101,-5.4938 17.95121,-11.4476 25.70337,-12.6874 3.18358,-0.5091 7.7458,-2.5276 10.1028,-4.5109 l 4.27606,-3.6181 1.87958,3.4301 c 1.02311,1.8946 4.98904,9.5202 8.83407,16.9634 9.85266,19.0728 12.51536,23.2963 14.6608,23.3068 2.62525,0.015 2.35218,-8.2717 -0.56388,-18.0911 -1.3291,-4.4755 -5.9519,-15.2646 -10.29075,-23.9646 -4.33885,-8.7002 -10.0985,-22.6021 -12.7812,-30.8723 -11.86065,-36.5658 -10.93297,-34.5155 -15.64758,-35.0543 -0.59375,-0.067 -1.19638,-0.1079 -1.78561,-0.093 z m -164.510992,2.1146 c 0.713298,-0.042 0.888969,0.4583 0.469896,1.5505 -0.459971,1.1985 -1.469907,2.1615 -2.208514,2.1615 -2.16167,0 -1.532689,-2.6114 0.84582,-3.524 0.363883,-0.1399 0.655046,-0.174 0.892798,-0.188 z m 219.019062,1.2215 c -1.0267,-0.038 -2.15084,0.1133 -3.38325,0.423 -3.54175,0.889 -3.56446,0.9873 -1.22174,6.3907 3.06689,7.0739 8.95842,27.8964 11.93539,42.2907 2.75939,13.3419 6.79292,21.9792 13.67401,29.2745 2.76407,2.9304 6.04107,5.3099 7.2834,5.3099 2.45015,0 3.07193,-4.5019 0.93979,-6.8135 -2.0849,-2.2605 -7.46832,-19.944 -9.82085,-32.2819 -2.21505,-11.617 -8.71001,-32.3056 -12.3113,-39.2835 -1.80982,-3.5067 -4.01534,-5.197 -7.09545,-5.3099 z m -219.160025,3.9472 c 0.415366,0.024 1.032387,0.6276 1.785611,1.9737 0.815736,1.4576 2.137169,2.2652 2.913357,1.7854 0.776201,-0.4796 1.409686,-0.2233 1.409686,0.5639 0,3.2412 -4.682423,3.1324 -5.920698,-0.1413 -0.987916,-2.6108 -0.880245,-4.2229 -0.187956,-4.1822 z m 647.001335,3.1487 c 0.093,-0.015 0.19417,4e-4 0.23489,0.047 0.3282,0.3532 2.04945,9.069 3.85323,19.4068 1.80391,10.3377 4.95043,25.4827 7.0015,33.6447 2.05094,8.1617 3.53541,15.0471 3.28919,15.2717 -0.24609,0.2247 -1.8445,-0.5768 -3.57114,-1.7388 -1.72664,-1.162 -12.21475,-6.33 -23.30694,-11.5125 -11.09219,-5.1823 -20.98267,-9.9445 -21.99115,-10.5726 -1.9556,-1.218 0.41005,-8.6347 7.89429,-24.7166 2.86484,-6.1562 4.40972,-7.8943 7.09536,-7.8943 3.7312,0 8.51267,-2.7734 14.98978,-8.74 1.98244,-1.8264 3.8539,-3.1319 4.51099,-3.1953 z m -640.798697,8.1763 c 0.546121,-0.1012 0.707715,0.8071 0.328932,2.2554 -0.918148,3.511 -1.926587,3.9582 -1.926587,0.8459 0,-1.1917 0.612827,-2.5439 1.362708,-3.0074 0.09371,-0.057 0.156941,-0.08 0.234947,-0.093 z m 2.819386,9.7738 c 0.875741,0 1.597642,0.6766 1.597642,1.5036 0,0.8271 -0.293065,1.5038 -0.657851,1.5038 -0.364638,0 -1.086552,-0.6767 -1.597655,-1.5038 -0.51109,-0.827 -0.218025,-1.5036 0.657864,-1.5036 z m 427.136511,125.0397 c -37.09055,1084.491164 -18.54528,542.24554 0,0 z"
         style="fill:#000000" />
    </g>
  </g>
</svg>
