<?xml version="1.0" encoding="UTF-8" standalone="no"?>
<!-- Created with Inkscape (http://www.inkscape.org/) -->

<svg
   xmlns:dc="http://purl.org/dc/elements/1.1/"
   xmlns:cc="http://creativecommons.org/ns#"
   xmlns:rdf="http://www.w3.org/1999/02/22-rdf-syntax-ns#"
   xmlns:svg="http://www.w3.org/2000/svg"
   xmlns="http://www.w3.org/2000/svg"
   xmlns:xlink="http://www.w3.org/1999/xlink"
   xmlns:sodipodi="http://sodipodi.sourceforge.net/DTD/sodipodi-0.dtd"
   xmlns:inkscape="http://www.inkscape.org/namespaces/inkscape"
   id="svg6481"
   sodipodi:docname="tv.svg"
   viewBox="0 0 432.22 466.04"
   sodipodi:version="0.32"
   version="1.0"
   inkscape:output_extension="org.inkscape.output.svg.inkscape"
   inkscape:version="0.48.2 r9819"
   width="100%"
   height="100%">
  <defs
     id="defs6483">
    <linearGradient
       id="linearGradient10689"
       inkscape:collect="always">
      <stop
         id="stop10691"
         style="stop-color:#cdcdcc"
         offset="0" />
      <stop
         id="stop10693"
         style="stop-color:#cdcdcc;stop-opacity:0"
         offset="1" />
    </linearGradient>
    <linearGradient
       id="linearGradient10672"
       inkscape:collect="always">
      <stop
         id="stop10674"
         style="stop-color:#eeeeec"
         offset="0" />
      <stop
         id="stop10676"
         style="stop-color:#eeeeec;stop-opacity:0"
         offset="1" />
    </linearGradient>
    <linearGradient
       id="linearGradient7655"
       y2="859.71"
       gradientUnits="userSpaceOnUse"
       x2="307.24"
       gradientTransform="matrix(2.2245 0 0 2.2245 -495.82 -1278)"
       y1="859.21"
       x1="285.5"
       inkscape:collect="always">
      <stop
         id="stop7651"
         style="stop-color:#2e3436"
         offset="0" />
      <stop
         id="stop7653"
         style="stop-color:#2e3436;stop-opacity:0"
         offset="1" />
    </linearGradient>
    <linearGradient
       id="linearGradient7663"
       y2="824.21"
       gradientUnits="userSpaceOnUse"
       x2="340.49"
       gradientTransform="matrix(2.2245 0 0 2.2245 -439.35 -1279.2)"
       y1="805.71"
       x1="339.99"
       inkscape:collect="always">
      <stop
         id="stop7659"
         style="stop-color:#2e3436"
         offset="0" />
      <stop
         id="stop7661"
         style="stop-color:#2e3436;stop-opacity:0"
         offset="1" />
    </linearGradient>
    <linearGradient
       id="linearGradient7671"
       y2="855.21"
       gradientUnits="userSpaceOnUse"
       x2="389.5"
       gradientTransform="matrix(2.2245 0 0 2.2245 -437.12 -1278)"
       y1="855.71"
       x1="402.98"
       inkscape:collect="always">
      <stop
         id="stop7667"
         style="stop-color:#2e3436"
         offset="0" />
      <stop
         id="stop7669"
         style="stop-color:#2e3436;stop-opacity:0"
         offset="1" />
    </linearGradient>
    <linearGradient
       id="linearGradient7679"
       y2="903.21"
       gradientUnits="userSpaceOnUse"
       x2="336.99"
       gradientTransform="matrix(2.2245 0 0 2.2245 -437.12 -1278)"
       y1="930.71"
       x1="335.99"
       inkscape:collect="always">
      <stop
         id="stop7675"
         style="stop-color:#2e3436"
         offset="0" />
      <stop
         id="stop7677"
         style="stop-color:#2e3436;stop-opacity:0"
         offset="1" />
    </linearGradient>
    <linearGradient
       id="linearGradient10649"
       y2="531.65"
       gradientUnits="userSpaceOnUse"
       x2="745.93"
       gradientTransform="matrix(.91773 0 0 .91773 -381.31 192.08)"
       y1="389.65"
       x1="735.93"
       inkscape:collect="always">
      <stop
         id="stop10645"
         style="stop-color:#eeeeec"
         offset="0" />
      <stop
         id="stop10647"
         style="stop-color:#eeeeec;stop-opacity:0"
         offset="1" />
    </linearGradient>
    <linearGradient
       id="linearGradient10667"
       y2="480.83"
       gradientUnits="userSpaceOnUse"
       x2="643"
       gradientTransform="translate(-267,20)"
       y1="442.83"
       x1="636.19"
       inkscape:collect="always">
      <stop
         id="stop10663"
         style="stop-color:#eeeeec"
         offset="0" />
      <stop
         id="stop10665"
         style="stop-color:#eeeeec;stop-opacity:0"
         offset="1" />
    </linearGradient>
    <linearGradient
       id="linearGradient10678"
       y2="390.76"
       xlink:href="#linearGradient10672"
       gradientUnits="userSpaceOnUse"
       x2="208.27"
       y1="379.26"
       x1="203.47"
       inkscape:collect="always" />
    <linearGradient
       id="linearGradient10682"
       y2="390.76"
       xlink:href="#linearGradient10672"
       gradientUnits="userSpaceOnUse"
       x2="208.27"
       gradientTransform="translate(275.42 -43.487)"
       y1="379.26"
       x1="203.47"
       inkscape:collect="always" />
    <linearGradient
       id="linearGradient10695"
       y2="546.63"
       xlink:href="#linearGradient10689"
       gradientUnits="userSpaceOnUse"
       x2="609.46"
       y1="522.61"
       x1="602.55"
       inkscape:collect="always" />
    <linearGradient
       id="linearGradient10716"
       y2="546.63"
       xlink:href="#linearGradient10689"
       gradientUnits="userSpaceOnUse"
       x2="609.46"
       gradientTransform="translate(-99.702 24.749)"
       y1="522.61"
       x1="602.55"
       inkscape:collect="always" />
    <linearGradient
       id="linearGradient10737"
       y2="816.05"
       gradientUnits="userSpaceOnUse"
       x2="640.36"
       gradientTransform="translate(-115,-87)"
       y1="767.05"
       x1="613.34"
       inkscape:collect="always">
      <stop
         id="stop10733"
         style="stop-color:#cececc"
         offset="0" />
      <stop
         id="stop10735"
         style="stop-color:#cececc;stop-opacity:0"
         offset="1" />
    </linearGradient>
    <linearGradient
       id="linearGradient10749"
       y2="-849.05"
       gradientUnits="userSpaceOnUse"
       x2="-646.34"
       gradientTransform="translate(126,117)"
       y1="-879.05"
       x1="-670.36"
       inkscape:collect="always">
      <stop
         id="stop10745"
         style="stop-color:#2e2e2c"
         offset="0" />
      <stop
         id="stop10747"
         style="stop-color:#888a85;stop-opacity:0"
         offset="1" />
    </linearGradient>
    <linearGradient
       inkscape:collect="always"
       xlink:href="#linearGradient7655"
       id="linearGradient3138"
       gradientUnits="userSpaceOnUse"
       gradientTransform="matrix(2.2245,0,0,2.2245,-495.82,-1278)"
       x1="285.5"
       y1="859.21"
       x2="307.24"
       y2="859.71" />
    <linearGradient
       inkscape:collect="always"
       xlink:href="#linearGradient7671"
       id="linearGradient3140"
       gradientUnits="userSpaceOnUse"
       gradientTransform="matrix(2.2245,0,0,2.2245,-437.12,-1278)"
       x1="402.98"
       y1="855.71"
       x2="389.5"
       y2="855.21" />
    <linearGradient
       inkscape:collect="always"
       xlink:href="#linearGradient7663"
       id="linearGradient3142"
       gradientUnits="userSpaceOnUse"
       gradientTransform="matrix(2.2245,0,0,2.2245,-439.35,-1279.2)"
       x1="339.99"
       y1="805.71"
       x2="340.49"
       y2="824.21" />
    <linearGradient
       inkscape:collect="always"
       xlink:href="#linearGradient7679"
       id="linearGradient3144"
       gradientUnits="userSpaceOnUse"
       gradientTransform="matrix(2.2245,0,0,2.2245,-437.12,-1278)"
       x1="335.99"
       y1="930.71"
       x2="336.99"
       y2="903.21" />
    <linearGradient
       inkscape:collect="always"
       xlink:href="#linearGradient10649"
       id="linearGradient3146"
       gradientUnits="userSpaceOnUse"
       gradientTransform="matrix(0.91773,0,0,0.91773,-381.31,192.08)"
       x1="735.93"
       y1="389.65"
       x2="745.93"
       y2="531.65" />
    <linearGradient
       inkscape:collect="always"
       xlink:href="#linearGradient10667"
       id="linearGradient3148"
       gradientUnits="userSpaceOnUse"
       gradientTransform="translate(-267,20)"
       x1="636.19"
       y1="442.83"
       x2="643"
       y2="480.83" />
    <linearGradient
       inkscape:collect="always"
       xlink:href="#linearGradient10672"
       id="linearGradient3150"
       gradientUnits="userSpaceOnUse"
       x1="203.47"
       y1="379.26"
       x2="208.27"
       y2="390.76" />
    <linearGradient
       inkscape:collect="always"
       xlink:href="#linearGradient10672"
       id="linearGradient3152"
       gradientUnits="userSpaceOnUse"
       gradientTransform="translate(275.42,-43.487)"
       x1="203.47"
       y1="379.26"
       x2="208.27"
       y2="390.76" />
    <linearGradient
       inkscape:collect="always"
       xlink:href="#linearGradient10689"
       id="linearGradient3154"
       gradientUnits="userSpaceOnUse"
       x1="602.55"
       y1="522.61"
       x2="609.46"
       y2="546.63" />
    <linearGradient
       inkscape:collect="always"
       xlink:href="#linearGradient10689"
       id="linearGradient3156"
       gradientUnits="userSpaceOnUse"
       gradientTransform="translate(-99.702,24.749)"
       x1="602.55"
       y1="522.61"
       x2="609.46"
       y2="546.63" />
    <linearGradient
       inkscape:collect="always"
       xlink:href="#linearGradient10737"
       id="linearGradient3158"
       gradientUnits="userSpaceOnUse"
       gradientTransform="translate(-115,-87)"
       x1="613.34"
       y1="767.05"
       x2="640.36"
       y2="816.05" />
    <linearGradient
       inkscape:collect="always"
       xlink:href="#linearGradient10749"
       id="linearGradient3160"
       gradientUnits="userSpaceOnUse"
       gradientTransform="translate(126,117)"
       x1="-670.36"
       y1="-879.05"
       x2="-646.34"
       y2="-849.05" />
    <linearGradient
       inkscape:collect="always"
       xlink:href="#linearGradient10749"
       id="linearGradient3163"
       gradientUnits="userSpaceOnUse"
       gradientTransform="translate(126,117)"
       x1="-670.36"
       y1="-879.05"
       x2="-646.34"
       y2="-849.05" />
    <linearGradient
       inkscape:collect="always"
       xlink:href="#linearGradient10737"
       id="linearGradient3166"
       gradientUnits="userSpaceOnUse"
       gradientTransform="translate(-115,-87)"
       x1="613.34"
       y1="767.05"
       x2="640.36"
       y2="816.05" />
    <linearGradient
       inkscape:collect="always"
       xlink:href="#linearGradient10689"
       id="linearGradient3170"
       gradientUnits="userSpaceOnUse"
       gradientTransform="translate(-99.702,24.749)"
       x1="602.55"
       y1="522.61"
       x2="609.46"
       y2="546.63" />
    <linearGradient
       inkscape:collect="always"
       xlink:href="#linearGradient10672"
       id="linearGradient3178"
       gradientUnits="userSpaceOnUse"
       gradientTransform="translate(275.42,-43.487)"
       x1="203.47"
       y1="379.26"
       x2="208.27"
       y2="390.76" />
    <linearGradient
       inkscape:collect="always"
       xlink:href="#linearGradient10672"
       id="linearGradient3181"
       gradientUnits="userSpaceOnUse"
       x1="203.47"
       y1="379.26"
       x2="208.27"
       y2="390.76" />
    <linearGradient
       inkscape:collect="always"
       xlink:href="#linearGradient10667"
       id="linearGradient3184"
       gradientUnits="userSpaceOnUse"
       gradientTransform="translate(-267,20)"
       x1="636.19"
       y1="442.83"
       x2="643"
       y2="480.83" />
    <linearGradient
       inkscape:collect="always"
       xlink:href="#linearGradient10649"
       id="linearGradient3187"
       gradientUnits="userSpaceOnUse"
       gradientTransform="matrix(0.91773,0,0,0.91773,-381.31,192.08)"
       x1="735.93"
       y1="389.65"
       x2="745.93"
       y2="531.65" />
    <linearGradient
       inkscape:collect="always"
       xlink:href="#linearGradient7679"
       id="linearGradient3216"
       gradientUnits="userSpaceOnUse"
       gradientTransform="matrix(2.2245,0,0,2.2245,-437.12,-1278)"
       x1="335.99"
       y1="930.71"
       x2="336.99"
       y2="903.21" />
    <linearGradient
       inkscape:collect="always"
       xlink:href="#linearGradient7663"
       id="linearGradient3219"
       gradientUnits="userSpaceOnUse"
       gradientTransform="matrix(2.2245,0,0,2.2245,-439.35,-1279.2)"
       x1="339.99"
       y1="805.71"
       x2="340.49"
       y2="824.21" />
    <linearGradient
       inkscape:collect="always"
       xlink:href="#linearGradient7671"
       id="linearGradient3222"
       gradientUnits="userSpaceOnUse"
       gradientTransform="matrix(2.2245,0,0,2.2245,-437.12,-1278)"
       x1="402.98"
       y1="855.71"
       x2="389.5"
       y2="855.21" />
    <linearGradient
       inkscape:collect="always"
       xlink:href="#linearGradient7655"
       id="linearGradient3225"
       gradientUnits="userSpaceOnUse"
       gradientTransform="matrix(2.2245,0,0,2.2245,-495.82,-1278)"
       x1="285.5"
       y1="859.21"
       x2="307.24"
       y2="859.71" />
  </defs>
  <sodipodi:namedview
     id="base"
     bordercolor="#666666"
     inkscape:pageshadow="2"
     inkscape:window-y="0"
     pagecolor="#ffffff"
     inkscape:window-height="856"
     inkscape:zoom="1.3689812"
     inkscape:window-x="0"
     showgrid="false"
     borderopacity="1.0"
     inkscape:current-layer="layer1"
     inkscape:cx="216.11001"
     inkscape:cy="233.02"
     showguides="true"
     inkscape:guide-bbox="true"
     inkscape:window-width="1272"
     inkscape:pageopacity="0.0"
     inkscape:document-units="px"
     inkscape:window-maximized="0" />
  <g
     id="layer1"
     inkscape:label="Capa 1"
     inkscape:groupmode="layer"
     transform="translate(-132.82 -333.32)">
    <flowRoot
       id="flowRoot9258"
       xml:space="preserve"
       style="font-size:40px;font-family:Bitstream Vera Sans;fill:#000000">
      <flowRegion
   id="flowRegion9260">
        <rect
   id="rect9262"
   y="974.36"
   width="100"
   x="391"
   height="70" />
      </flowRegion>
      <flowPara
   id="flowPara9264">thomp</flowPara>
    </flowRoot>    <path
       style="fill:#000000"
       d="M 20.1875 168.5 C 9.0066724 168.5 0 177.50667 0 188.6875 L 0 431.96875 C 0 443.14958 9.0066724 452.125 20.1875 452.125 L 412.03125 452.125 C 423.21208 452.125 432.21875 443.14958 432.21875 431.96875 L 432.21875 188.6875 C 432.21875 177.50667 423.21208 168.5 412.03125 168.5 L 20.1875 168.5 z M 50.5625 197.40625 L 293.65625 197.40625 C 304.98998 197.40625 314.125 206.51002 314.125 217.84375 L 314.125 398.28125 C 314.125 409.61498 304.98998 418.75 293.65625 418.75 L 50.5625 418.75 C 39.228768 418.75 30.125 409.61498 30.125 398.28125 L 30.125 217.84375 C 30.125 206.51002 39.228768 197.40625 50.5625 197.40625 z "
       transform="translate(132.82,333.32)"
       id="rect7074" />
    <rect
       x="474.84"
       y="672.71002"
       width="70.021004"
       height="84.263"
       ry="8.2241001"
       style="fill:#8d8d8d"
       id="rect7078" />
    <path
       inkscape:connector-curvature="0"
       d="m 480.49,333.32 c -5.79,0 -10.5,4.71 -10.5,10.5 0,1.53 0.29,2.95 0.88,4.26 l -105.3,111.25 c -2.22,-0.11 -4.48,-0.22 -6.75,-0.22 -11.9,0 -23.19,1.54 -33.49,4.26 L 215.34,390.08 c 0.22,-0.84 0.36,-1.72 0.36,-2.64 0,-5.79 -4.71,-10.5 -10.5,-10.5 -5.79,0 -10.5,4.71 -10.5,10.5 0,5.79 4.71,10.5 10.5,10.5 2.31,0 4.44,-0.79 6.17,-2.05 l 105.23,70.12 c -20.17,7.1 -35.22,19.1 -40.83,33.41 h 166.1 c -7.86,-20.04 -34.22,-35.54 -67.26,-39.36 L 475.79,353.15 c 1.41,0.71 3.02,1.1 4.7,1.1 5.79,0 10.43,-4.64 10.43,-10.43 0,-5.79 -4.64,-10.5 -10.43,-10.5 z"
       style="fill:#000000"
       id="path7084" />
    <path
       inkscape:connector-curvature="0"
       d="m 185.28,532.61 h 4.71 c 11.33,0 20.46,9.13 20.46,20.46 v 180.42 c 0,11.34 -9.13,20.46 -20.46,20.46 h -4.71 c -11.33,0 -20.46,-9.12 -20.46,-20.46 V 553.07 c 0,-11.33 9.13,-20.46 20.46,-20.46 z"
       style="fill:url(#linearGradient3225)"
       sodipodi:nodetypes="ccccccccc"
       id="rect7624" />
    <path
       inkscape:connector-curvature="0"
       d="m 425.53,531.5 h -4.71 c -11.33,0 -20.45,9.12 -20.45,20.46 v 180.42 c 0,11.33 9.12,20.46 20.45,20.46 h 4.71 c 11.34,0 20.46,-9.13 20.46,-20.46 V 551.96 c 0,-11.34 -9.12,-20.46 -20.46,-20.46 z"
       style="fill:url(#linearGradient3222)"
       sodipodi:nodetypes="ccccccccc"
       id="path7637" />
    <path
       inkscape:connector-curvature="0"
       d="m 445.98,551.95 v 4.71 c 0,11.33 -9.12,20.45 -20.46,20.45 H 188.3 c -11.34,0 -20.46,-9.12 -20.46,-20.45 v -4.71 c 0,-11.34 9.12,-20.46 20.46,-20.46 h 237.22 c 11.34,0 20.46,9.12 20.46,20.46 z"
       style="fill:url(#linearGradient3219)"
       sodipodi:nodetypes="ccccccccc"
       id="path7641" />
    <rect
       x="794.38"
       y="106.43"
       width="8.2241001"
       height="32.896999"
       transform="matrix(0.73985423,0.67276721,-0.67276721,0.73985423,0,0)"
       style="fill:#000000"
       ry="4.1121001"
       id="rect7683" />
    <path
       inkscape:connector-curvature="0"
       d="m 474.96,677.34 h 69.37"
       style="fill:none;stroke:#000000;stroke-width:2.34980011px"
       id="path9192" />
    <path
       inkscape:connector-curvature="0"
       d="m 474.96,752.52 h 69.37"
       style="fill:none;stroke:#000000;stroke-width:2.34980011px"
       id="path9194" />
    <path
       inkscape:connector-curvature="0"
       d="m 474.96,683.6 h 69.37"
       style="fill:none;stroke:#000000;stroke-width:2.34980011px"
       id="path9198" />
    <path
       inkscape:connector-curvature="0"
       d="m 474.96,689.87 h 69.37"
       style="fill:none;stroke:#000000;stroke-width:2.34980011px"
       id="path9200" />
    <path
       inkscape:connector-curvature="0"
       d="m 474.96,696.13 h 69.37"
       style="fill:none;stroke:#000000;stroke-width:2.34980011px"
       id="path9202" />
    <path
       inkscape:connector-curvature="0"
       d="m 474.96,702.4 h 69.37"
       style="fill:none;stroke:#000000;stroke-width:2.34980011px"
       id="path9204" />
    <path
       inkscape:connector-curvature="0"
       d="m 474.96,721.19 h 69.37"
       style="fill:none;stroke:#000000;stroke-width:2.34980011px"
       id="path9206" />
    <path
       inkscape:connector-curvature="0"
       d="m 474.96,733.72 h 69.37"
       style="fill:none;stroke:#000000;stroke-width:2.34980011px"
       id="path9208" />
    <path
       inkscape:connector-curvature="0"
       d="m 474.96,739.99 h 69.37"
       style="fill:none;stroke:#000000;stroke-width:2.34980011px"
       id="path9210" />
    <path
       inkscape:connector-curvature="0"
       d="m 474.96,708.66 h 69.37"
       style="fill:none;stroke:#000000;stroke-width:2.34980011px"
       id="path9212" />
    <path
       inkscape:connector-curvature="0"
       d="m 474.96,746.26 h 69.37"
       style="fill:none;stroke:#000000;stroke-width:2.34980011px"
       id="path9216" />
    <path
       inkscape:connector-curvature="0"
       d="m 474.96,714.93 h 69.37"
       style="fill:none;stroke:#000000;stroke-width:2.34980011px"
       id="path9218" />
    <path
       inkscape:connector-curvature="0"
       d="m 474.96,727.46 h 69.37"
       style="fill:none;stroke:#000000;stroke-width:2.34980011px"
       id="path9220" />
    <path
       inkscape:connector-curvature="0"
       d="m 509.18,769.77 h -2.53 v -1.76 h -1.29 v 6.54 c 0,1.4 0.76,2.28 2.09,2.28 h 1.73 v -1.24 h -1.56 c -0.66,0 -0.97,-0.22 -0.97,-0.88 v -3.7 h 2.53 v -1.24 m 0.65,3.53 c 0,2.17 1.7,3.67 3.65,3.67 1.96,0 3.66,-1.5 3.66,-3.67 0,-2.17 -1.7,-3.67 -3.66,-3.67 -1.95,0 -3.65,1.5 -3.65,3.67 m 1.35,0 c 0,-1.44 0.97,-2.44 2.3,-2.44 1.34,0 2.31,1 2.31,2.44 0,1.44 -0.97,2.44 -2.31,2.44 -1.33,0 -2.3,-1 -2.3,-2.44 m 8.46,3.53 v -3.21 h 1.47 c 0.67,0 1.14,0.4 1.14,1.28 v 1.93 h 1.29 v -2.07 c 0,-1.25 -0.57,-1.87 -1.61,-2.08 v -0.03 c 0.39,-0.1 0.82,-0.8 1.1,-1.29 l 0.93,-1.59 h -1.47 l -1.22,2.09 c -0.19,0.32 -0.55,0.53 -1.09,0.53 h -0.54 v -5.85 h -1.3 v 10.29 h 1.3 m 4.88,-3.53 c 0,2.17 1.7,3.67 3.66,3.67 1.95,0 3.66,-1.5 3.66,-3.67 0,-2.17 -1.71,-3.67 -3.66,-3.67 -1.96,0 -3.66,1.5 -3.66,3.67 m 1.35,0 c 0,-1.44 0.97,-2.44 2.31,-2.44 1.33,0 2.3,1 2.3,2.44 0,1.44 -0.97,2.44 -2.3,2.44 -1.34,0 -2.31,-1 -2.31,-2.44 m 8.36,3.53 v -4.12 c 0,-1.08 0.79,-1.85 1.72,-1.85 0.92,0 1.71,0.77 1.71,1.85 v 4.12 h 1.3 v -4.12 c 0,-1.85 -1.3,-3.08 -3.01,-3.08 -1.72,0 -3.02,1.23 -3.02,3.08 v 4.12 h 1.3"
       style="fill:#eeeeec"
       id="flowRoot9266" />
    <path
       inkscape:connector-curvature="0"
       d="m 505.44,531.22 v 8.4 h 1.06 v -3.37 c 0,-0.89 0.64,-1.5 1.41,-1.5 0.75,0 1.4,0.32 1.4,1.5 v 3.37 h 1.07 v -3.37 c -0.01,-1.94 -1.08,-2.5 -2.41,-2.5 -0.61,0 -1.15,0.27 -1.47,0.63 v -3.16 h -1.06 z m 8.12,0 c -1.19,0 -2.03,0.78 -2.03,2.09 v 6.31 h 1.06 v -4.74 h 1.72 v -1.04 h -1.72 v -0.56 c 0,-0.73 0.43,-1.06 1.13,-1.06 h 0.75 v -1 h -0.91 z m -14.12,2.62 2,5.32 c 0.19,0.51 0.44,0.59 0.81,0.59 0.37,0 0.62,-0.08 0.81,-0.59 l 2.03,-5.32 h -1.15 l -1.69,4.47 -1.66,-4.47 h -1.15 z"
       style="fill:#eeeeec"
       id="flowRoot9275" />
    <path
       inkscape:connector-curvature="0"
       d="m 505.88,594.25 -0.32,1.03 h 1.53 v 7.34 h 1.16 v -8.37 h -2.37 z"
       style="fill:#eeeeec"
       id="path9449" />
    <path
       inkscape:connector-curvature="0"
       d="m 481.81,604.9 -2.06,2.9 c -0.6,0.86 -1.09,1.51 -1.09,2.63 0,1.69 1.34,3 3,3 1.77,0 3.09,-1.44 3.09,-3 0,-1.69 -0.98,-2.99 -2.84,-3.03 l -0.66,0.97 c 1.35,-0.03 2.35,0.67 2.35,2.09 0,1.06 -0.88,1.91 -1.91,1.91 -1.01,0 -1.88,-0.85 -1.88,-1.85 0,-0.8 0.31,-1.28 0.79,-1.97 l 2.59,-3.65 h -1.38 z"
       style="fill:#eeeeec"
       id="path9470" />
    <path
       inkscape:connector-curvature="0"
       d="m 480.08,640.61 v 4.28 h 2.09 c 1.33,0 1.84,0.56 1.84,1.56 0,0.86 -0.51,1.5 -1.56,1.5 h -2.75 v 1.03 h 3.06 c 1.53,0 2.5,-1.24 2.5,-2.5 0,-1.75 -1.22,-2.66 -3.03,-2.66 h -1 v -2.18 h 3.22 v -1.03 h -4.37 z"
       style="fill:#eeeeec"
       id="path9468" />
    <path
       inkscape:connector-curvature="0"
       d="m 504.79,653.33 v 1.03 h 3.59 l -2.62,2.44 v 0.85 h 1.31 c 1.26,0 1.97,0.61 1.97,1.43 0,0.88 -0.59,1.6 -1.69,1.6 h -2.78 v 1.03 h 3.09 c 1.42,0 2.5,-1.05 2.5,-2.66 0,-1.51 -1.13,-2.44 -2.69,-2.47 l 1.13,-0.97 c 0.54,-0.48 1,-0.77 1,-1.37 0,-0.61 -0.4,-0.91 -1.19,-0.91 h -3.62 z"
       style="fill:#eeeeec"
       id="path9466" />
    <path
       inkscape:connector-curvature="0"
       d="m 534.63,641.16 c -0.02,0 -0.05,0.04 -0.1,0.12 l -1.06,1.78 v 3.63 h -2.53 l 3.03,-5.38 h -1.25 l -2.69,4.88 c -0.2,0.37 -0.37,0.6 -0.37,0.87 0,0.43 0.31,0.69 0.81,0.69 h 3 v 1.94 h 1.16 v -1.94 h 1.25 v -1.06 h -1.25 v -5.38 c 0,-0.13 0.01,-0.15 0,-0.15 z"
       style="fill:#eeeeec"
       id="path9464" />
    <path
       inkscape:connector-curvature="0"
       d="m 533.28,604.03 c -1.56,0 -2.97,1.03 -2.97,2.69 0,1.21 0.61,2.08 1.75,2.5 l 0.97,-0.78 c -0.82,-0.08 -1.57,-0.7 -1.57,-1.56 0,-1.06 0.61,-1.78 1.69,-1.78 0.94,0 1.66,0.64 1.66,1.59 0,0.71 -0.45,1.3 -0.91,1.66 l -2.97,2.31 c -0.53,0.42 -0.75,0.59 -0.75,1.03 0,0.55 0.4,0.87 1.13,0.87 h 4.62 v -1.03 h -4.22 v -0.03 l 2.35,-1.84 c 1.14,-0.84 1.9,-1.59 1.9,-2.97 0,-1.49 -1.2,-2.66 -2.68,-2.66 z"
       style="fill:#eeeeec"
       id="path9451" />
    <path
       inkscape:connector-curvature="0"
       d="m 481.69,544.72 v 8.4 h 1.06 v -8.4 h -1.06 z m 4.53,0 c -1.19,0 -2.03,0.78 -2.03,2.09 v 6.31 h 1.06 v -4.74 h 1.72 v -1.04 h -1.72 v -0.56 c 0,-0.73 0.43,-1.06 1.13,-1.06 h 0.74 v -1 h -0.9 z m -13.41,2.62 v 3.94 c 0,1.08 0.89,1.97 2.07,1.97 0.64,0 1.3,-0.26 1.68,-0.81 0.39,0.55 1.01,0.81 1.66,0.81 1.17,0 2.06,-0.89 2.06,-1.97 v -3.94 h -1.03 v 3.69 c 0,0.73 -0.41,1.19 -1.03,1.19 -0.69,0 -1.16,-0.36 -1.16,-1.34 v -3.54 h -1.03 v 3.54 c 0,0.98 -0.44,1.34 -1.12,1.34 -0.63,0 -1.03,-0.46 -1.03,-1.19 v -3.69 h -1.07 z"
       style="fill:#eeeeec"
       id="path9480" />
    <path
       inkscape:connector-curvature="0"
       d="m 533.59,543.72 v 8.4 h 1.07 v -3.37 c 0,-0.89 0.63,-1.5 1.4,-1.5 0.76,0 1.41,0.32 1.41,1.5 v 3.37 h 1.06 v -3.37 c 0,-1.94 -1.07,-2.5 -2.41,-2.5 -0.61,0 -1.14,0.27 -1.46,0.63 v -3.16 h -1.07 z m 8.13,0 c -1.19,0 -2.03,0.78 -2.03,2.09 v 6.31 h 1.06 v -4.74 h 1.72 v -1.04 h -1.72 v -0.56 c 0,-0.73 0.43,-1.06 1.13,-1.06 h 0.74 v -1 h -0.9 z m -14.13,2.62 v 3.38 c 0,1.51 1.07,2.53 2.47,2.53 1.41,0 2.47,-1.02 2.47,-2.53 v -3.38 h -1.06 v 3.38 c 0,0.89 -0.65,1.5 -1.41,1.5 -0.75,0 -1.4,-0.61 -1.4,-1.5 v -3.38 h -1.07 z"
       style="fill:#eeeeec"
       id="path9484" />
    <path
       inkscape:connector-curvature="0"
       d="m 167,780.68 h 20.6 l -1.37,17.68 H 168.37 L 167,780.68 z"
       style="fill:#000000"
       sodipodi:nodetypes="ccccc"
       id="rect9823" />
    <path
       inkscape:connector-curvature="0"
       d="m 506,781.68 h 20.6 l -1.37,17.68 H 507.37 L 506,781.68 z"
       style="fill:#000000"
       sodipodi:nodetypes="ccccc"
       id="path9826" />
    <path
       inkscape:connector-curvature="0"
       d="m 191.7,538.72 h 223.1 c 10.4,0 18.77,8.37 18.77,18.77 v 95.83 c 0,10.41 -8.37,18.78 -18.77,18.78 0,0 5.08,-66.11 -114.3,-32.12 -59.03,16.8 -108.8,32.12 -108.8,32.12 -9.97,2.94 -18.77,-8.37 -18.77,-18.78 v -95.83 c 0,-10.4 8.37,-18.77 18.77,-18.77 z"
       style="opacity:0.72886999;fill:url(#linearGradient3187)"
       sodipodi:nodetypes="cccccssccc"
       id="rect10130" />
    <path
       inkscape:connector-curvature="0"
       d="m 354.19,462.83 c -27.95,0 -52.83,11.37 -68.81,29 0,0 45.69,-1.41 74.47,-9.19 18.17,-7.07 63.15,9.19 63.15,9.19 -15.98,-17.63 -40.86,-29 -68.81,-29 z"
       style="opacity:0.72886999;fill:url(#linearGradient3184)"
       sodipodi:nodetypes="ccccc"
       id="path10659" />
    <path
       inkscape:connector-curvature="0"
       d="m 213.9,387.33 c 0,4.88 -3.82,-4.19 -8.95,-1.56 -5,0.75 -8.73,6.44 -8.73,1.56 0,-4.88 3.96,-8.84 8.84,-8.84 4.88,0 8.84,3.96 8.84,8.84 z"
       style="opacity:0.72886999;fill:url(#linearGradient3181)"
       sodipodi:nodetypes="ccssc"
       id="path10669" />
    <path
       inkscape:connector-curvature="0"
       d="m 489.32,343.84 c 0,4.88 -3.82,-4.18 -8.95,-1.56 -5,0.75 -8.73,6.44 -8.73,1.56 0,-4.88 3.96,-8.84 8.84,-8.84 4.88,0 8.84,3.96 8.84,8.84 z"
       style="opacity:0.72886999;fill:url(#linearGradient3178)"
       sodipodi:nodetypes="ccssc"
       id="path10680" />
    <g
       transform="translate(-99.702,85.206)"
       id="g10699">
      <path
         sodipodi:cx="420.72855"
         sodipodi:cy="833.15906"
         transform="matrix(2.3498,0,0,2.3498,-381.9,-1415.4)"
         d="m 430.325,833.15906 c 0,5.29997 -4.29648,9.59645 -9.59645,9.59645 -5.29998,0 -9.59645,-4.29648 -9.59645,-9.59645 0,-5.29997 4.29647,-9.59645 9.59645,-9.59645 5.29997,0 9.59645,4.29648 9.59645,9.59645 z"
         sodipodi:type="arc"
         style="fill:#8d8d8d"
         sodipodi:ry="9.5964489"
         sodipodi:rx="9.5964489"
         id="path10684" />
      <path
         inkscape:connector-curvature="0"
         d="m 626.08,541.98 c 0,10.69 -2.61,-10.08 -19.67,-3.71 -10.24,3.82 -19.07,14.4 -19.07,3.71 0,-10.69 8.68,-19.37 19.37,-19.37 10.69,0 19.37,8.68 19.37,19.37 z"
         style="fill:url(#linearGradient3154)"
         sodipodi:nodetypes="csssc"
         id="path10686" />
      <rect
         x="751.06"
         y="287.85999"
         width="8.2241001"
         height="32.896999"
         transform="matrix(0.94007,0.34097,-0.34097,0.94007,0,0)"
         style="fill:#000000"
         ry="4.1121001"
         id="rect10697" />
    </g>
    <path
       sodipodi:cx="420.72855"
       sodipodi:cy="833.15906"
       transform="matrix(2.3498,0,0,2.3498,-481.6,-1390.6)"
       d="m 430.325,833.15906 a 9.5964489,9.5964489 0 1 1 -19.1929,0 9.5964489,9.5964489 0 1 1 19.1929,0 z"
       sodipodi:type="arc"
       style="fill:#8d8d8d"
       sodipodi:ry="9.5964489"
       sodipodi:rx="9.5964489"
       id="path10706" />
    <path
       inkscape:connector-curvature="0"
       d="m 526.38,566.73 c 0,10.69 -2.61,-10.08 -19.67,-3.71 -10.24,3.82 -19.07,14.4 -19.07,3.71 0,-10.69 8.68,-19.37 19.37,-19.37 10.69,0 19.37,8.68 19.37,19.37 z"
       style="fill:url(#linearGradient3170)"
       sodipodi:nodetypes="csssc"
       id="path10708" />
    <rect
       x="502.34"
       y="551.87"
       width="8.2241001"
       height="32.896999"
       ry="4.1121001"
       style="fill:#000000"
       id="rect10710" />
    <rect
       x="477.34"
       y="674.63"
       width="67.021004"
       height="84.838997"
       ry="8.2804003"
       style="opacity:0.72899996;fill:url(#linearGradient3166)"
       id="rect10719" />
    <rect
       x="-544.35999"
       y="-755.46997"
       width="67.021004"
       height="84.838997"
       transform="scale(-1,-1)"
       style="opacity:0.80985999;fill:url(#linearGradient3163)"
       ry="8.2804003"
       id="rect10739" />
    <text
       xml:space="preserve"
       style="font-size:70px;font-style:normal;font-variant:normal;font-weight:normal;font-stretch:normal;text-align:start;line-height:125%;letter-spacing:0px;word-spacing:0px;writing-mode:lr-tb;text-anchor:start;fill:#000000;fill-opacity:1;stroke:none;font-family:fontdiner;-inkscape-font-specification:fontdiner"
       x="-124.91041"
       y="258.58646"
       id="text3264"
       sodipodi:linespacing="125%"
       transform="translate(132.82,333.32)"><tspan
         sodipodi:role="line"
         x="-124.91041"
         y="258.58646"
         id="tspan3268" /></text>
  </g>
  <metadata
     id="metadata92">
    <rdf:RDF>
      <cc:Work>
        <dc:format>image/svg+xml</dc:format>
        <dc:type
           rdf:resource="http://purl.org/dc/dcmitype/StillImage" />
        <cc:license
           rdf:resource="http://creativecommons.org/licenses/publicdomain/" />
        <dc:publisher>
          <cc:Agent
             rdf:about="http://openclipart.org/">
            <dc:title>Openclipart</dc:title>
          </cc:Agent>
        </dc:publisher>
        <dc:title>old television 2.0</dc:title>
        <dc:date>2008-11-02T09:36:41</dc:date>
        <dc:description>old television web 2.0 style</dc:description>
        <dc:source>https://openclipart.org/detail/19899/old-television-2.0-by-rg1024</dc:source>
        <dc:creator>
          <cc:Agent>
            <dc:title>rg1024</dc:title>
          </cc:Agent>
        </dc:creator>
        <dc:subject>
          <rdf:Bag>
            <rdf:li>television</rdf:li>
          </rdf:Bag>
        </dc:subject>
      </cc:Work>
      <cc:License
         rdf:about="http://creativecommons.org/licenses/publicdomain/">
        <cc:permits
           rdf:resource="http://creativecommons.org/ns#Reproduction" />
        <cc:permits
           rdf:resource="http://creativecommons.org/ns#Distribution" />
        <cc:permits
           rdf:resource="http://creativecommons.org/ns#DerivativeWorks" />
      </cc:License>
    </rdf:RDF>
  </metadata>
</svg>
