<svg xmlns="http://www.w3.org/2000/svg" viewBox="0 0 24 24">
    <path d="M 5 3 L 3 5 L 4.40625 7.109375 C 4.77725 7.666375 5.4023125 8 6.0703125 8 L 6.5859375 8 L 10.123047 11.537109 L 4.4882812 17.169922 C 3.8362812 17.821922 3.8362812 18.87925 4.4882812 19.53125 L 5.4667969 20.509766 C 5.7937969 20.836766 6.2204375 21 6.6484375 21 C 7.0754375 21 7.5040781 20.837719 7.8300781 20.511719 L 12.5 15.839844 L 17.169922 20.511719 C 17.495922 20.837719 17.924562 21 18.351562 21 C 18.778562 21 19.20525 20.837719 19.53125 20.511719 L 20.509766 19.533203 C 21.161766 18.881203 21.161766 17.823875 20.509766 17.171875 L 15.839844 12.5 L 17.400391 10.939453 C 17.597391 10.968453 17.795 11 18 11 C 20.209 11 22 9.209 22 7 C 22 6.414 21.867625 5.860375 21.640625 5.359375 L 20.226562 6.7734375 L 18.671875 6.328125 L 18.226562 4.7734375 L 19.640625 3.359375 C 19.139625 3.132375 18.586 3 18 3 C 15.791 3 14 4.791 14 7 C 14 7.205 14.031547 7.4026094 14.060547 7.5996094 L 11.537109 10.123047 L 8 6.5859375 L 8 6.0703125 C 8 5.4023125 7.666375 4.77725 7.109375 4.40625 L 5 3 z M 16.693359 4.8691406 L 16.783203 5.1875 L 17.228516 6.7421875 L 17.457031 7.5429688 L 18.257812 7.7714844 L 19.8125 8.2167969 L 20.130859 8.3085938 C 19.689859 9.0225938 18.9 9.5 18 9.5 C 17.913 9.5 17.78 9.4800312 17.625 9.4570312 L 16.876953 9.34375 L 16.339844 9.8789062 L 14.779297 11.439453 L 14.769531 11.429688 L 11.429688 14.769531 L 11.439453 14.779297 L 6.7695312 19.449219 C 6.7365312 19.482219 6.6944375 19.5 6.6484375 19.5 C 6.6024375 19.5 6.5622969 19.482219 6.5292969 19.449219 L 5.5507812 18.472656 C 5.4847813 18.406656 5.4847813 18.297469 5.5507812 18.230469 L 15.121094 8.6601562 L 15.654297 8.109375 L 15.541016 7.359375 C 15.520016 7.219375 15.5 7.087 15.5 7 C 15.5 6.1 15.978359 5.3091406 16.693359 4.8691406 z M 14.779297 13.560547 L 19.451172 18.230469 C 19.517172 18.296469 19.517172 18.403703 19.451172 18.470703 L 18.472656 19.449219 C 18.439656 19.482219 18.399516 19.498047 18.353516 19.498047 C 18.306516 19.498047 18.265422 19.482219 18.232422 19.449219 L 13.5625 14.779297 L 14.779297 13.560547 z"></path>
</svg>
