<?xml version="1.0" encoding="UTF-8" standalone="no"?>
<!-- Created with Inkscape (http://www.inkscape.org/) -->
<svg xmlns:inkscape="http://www.inkscape.org/namespaces/inkscape" xmlns:rdf="http://www.w3.org/1999/02/22-rdf-syntax-ns#" xmlns="http://www.w3.org/2000/svg" xmlns:sodipodi="http://sodipodi.sourceforge.net/DTD/sodipodi-0.dtd" xmlns:ns1="http://sozi.baierouge.fr" xmlns:cc="http://creativecommons.org/ns#" xmlns:xlink="http://www.w3.org/1999/xlink" xmlns:dc="http://purl.org/dc/elements/1.1/" id="svg2" sodipodi:docname="Mower.svg" viewBox="0 0 570 240" version="1.1" inkscape:version="0.48.4 r9939">
  <defs id="defs4">
    <linearGradient id="linearGradient10165" y2="150.46" gradientUnits="userSpaceOnUse" x2="103.66" gradientTransform="matrix(-1 0 0 1 231.88 -0.000005)" y1="182.22" x1="103.66" inkscape:collect="always">
      <stop id="stop5381" style="stop-color:#000000" offset="0"/>
      <stop id="stop5383" style="stop-color:#868682" offset="1"/>
    </linearGradient>
    <linearGradient id="linearGradient10167" y2="152.13" xlink:href="#linearGradient11411" gradientUnits="userSpaceOnUse" x2="87.75" gradientTransform="matrix(-1.2687 0 0 1.1867 306.25 269.58)" y1="160.33" x1="87.75" inkscape:collect="always"/>
    <linearGradient id="linearGradient11411">
      <stop id="stop11413" style="stop-color:#cccccc" offset="0"/>
      <stop id="stop11415" style="stop-color:#ffffff" offset="1"/>
    </linearGradient>
    <linearGradient id="linearGradient10169" y2="-31.532" xlink:href="#linearGradient11411" gradientUnits="userSpaceOnUse" x2="139.12" gradientTransform="matrix(-1 0 0 -.93532 284.79 426.81)" y1="-10.173" x1="139.12" inkscape:collect="always"/>
    <linearGradient id="linearGradient10171" y2="374.84" gradientUnits="userSpaceOnUse" x2="185.69" y1="395.31" x1="185.69" inkscape:collect="always">
      <stop id="stop5373" style="stop-color:#333333" offset="0"/>
      <stop id="stop5375" style="stop-color:#666666" offset="1"/>
    </linearGradient>
    <linearGradient id="linearGradient10173" y2="-276.68" gradientUnits="userSpaceOnUse" x2="93.938" gradientTransform="matrix(.91902 0 0 .91902 39.163 663.73)" y1="-302.47" x1="93.938" inkscape:collect="always">
      <stop id="stop12230-8" style="stop-color:#f2f2f2" offset="0"/>
      <stop id="stop12232-2" style="stop-color:#666666" offset="1"/>
    </linearGradient>
    <linearGradient id="linearGradient10175" y2="438.05" xlink:href="#linearGradient12332" gradientUnits="userSpaceOnUse" x2="218.92" gradientTransform="matrix(.64308 -.028073 .030637 .70183 -91.487 106.35)" y1="463.72" x1="218.92" inkscape:collect="always"/>
    <linearGradient id="linearGradient12332">
      <stop id="stop12334" style="stop-color:#ff4c00" offset="0"/>
      <stop id="stop12336" style="stop-color:#ffb600" offset="1"/>
    </linearGradient>
    <linearGradient id="linearGradient10177" y2="430.42" xlink:href="#linearGradient12332" gradientUnits="userSpaceOnUse" x2="253.5" gradientTransform="matrix(.72817 0 0 .74297 -99.235 96.106)" y1="460.61" x1="253.5" inkscape:collect="always"/>
    <linearGradient id="linearGradient10179" y2="-7.5834" xlink:href="#linearGradient12384" gradientUnits="userSpaceOnUse" x2="232.37" y1="-15.467" x1="231.06" inkscape:collect="always"/>
    <linearGradient id="linearGradient12384">
      <stop id="stop12386" style="stop-color:#aa4400" offset="0"/>
      <stop id="stop12388" style="stop-color:#2b1100" offset="1"/>
    </linearGradient>
    <linearGradient id="linearGradient10181" y2="436" xlink:href="#linearGradient12332" gradientUnits="userSpaceOnUse" x2="245.5" gradientTransform="matrix(.69248 0 0 .69248 -92.818 119.37)" y1="485.77" x1="245.5" inkscape:collect="always"/>
    <linearGradient id="linearGradient10183" y2="14" xlink:href="#linearGradient12384" gradientUnits="userSpaceOnUse" x2="236.4" y1="-1.5692" x1="236.4" inkscape:collect="always"/>
    <linearGradient id="linearGradient10185" y2="23.25" xlink:href="#linearGradient12332" gradientUnits="userSpaceOnUse" x2="235.75" gradientTransform="matrix(.91860 0 0 .91860 12.338 .011629)" y1="-5.2544" x1="235.75" inkscape:collect="always"/>
    <linearGradient id="linearGradient10187" y2=".53747" xlink:href="#linearGradient12438" gradientUnits="userSpaceOnUse" x2="270.39" gradientTransform="matrix(.72817 0 0 .84540 -99.235 431.22)" y1="-19.983" x1="270.39" inkscape:collect="always"/>
    <linearGradient id="linearGradient12438">
      <stop id="stop12440" style="stop-color:#b3b3b3" offset="0"/>
      <stop id="stop12442" style="stop-color:#333333" offset="1"/>
    </linearGradient>
    <linearGradient id="linearGradient10189" y2="-55.334" xlink:href="#linearGradient12384" gradientUnits="userSpaceOnUse" x2="129.36" gradientTransform="matrix(.72817 0 0 .72817 -19.002 463.88)" y1="-62.696" x1="129.36" inkscape:collect="always"/>
    <linearGradient id="linearGradient10191" y2="420.48" xlink:href="#linearGradient12438" gradientUnits="userSpaceOnUse" x2="-98.328" gradientTransform="matrix(.96385 -.0023502 .0025152 .90064 231.14 -418.92)" y1="409.96" x1="-92.62" inkscape:collect="always"/>
    <linearGradient id="linearGradient10193" y2="-41.5" gradientUnits="userSpaceOnUse" x2="137.69" gradientTransform="translate(-.0625 452.55)" y1="-48.195" x1="141.55" inkscape:collect="always">
      <stop id="stop12648" style="stop-color:#ffffff" offset="0"/>
      <stop id="stop12650" style="stop-color:#808080" offset="1"/>
    </linearGradient>
    <linearGradient id="linearGradient10195" y2="-56.902" xlink:href="#linearGradient12438" gradientUnits="userSpaceOnUse" x2="121.18" gradientTransform="matrix(.72817 0 0 .72817 305.5 243.52)" y1="-80.467" x1="121.18" inkscape:collect="always"/>
  </defs>
  <sodipodi:namedview id="base" bordercolor="#666666" inkscape:pageshadow="2" inkscape:window-y="-8" pagecolor="#ffffff" inkscape:window-height="1017" inkscape:window-maximized="1" inkscape:zoom="0.98994949" inkscape:window-x="-8" showgrid="false" borderopacity="1.0" inkscape:current-layer="layer1" inkscape:cx="2.664077" inkscape:cy="242.6643" inkscape:window-width="1920" inkscape:pageopacity="0.0" inkscape:document-units="px"/>
  <g id="layer1" inkscape:label="Layer 1" inkscape:groupmode="layer" transform="translate(0 -812.36)">
    <g id="g8616" transform="matrix(-4.4177 0 0 4.4177 502.52 -934.67)">
      <g id="g5385" transform="translate(-179.5,44)">
        <g id="g12298" transform="matrix(.72817 0 0 .72817 83.99 59.873)">
          <g id="g12197" transform="matrix(1.2621 0 0 1.2621 20.59 258.35)">
            <path id="path12139" d="m158.09 146.03v8.125 8.125h-75.812c-0.9999 0-1.9183-0.223-2.75-0.59375l-3.5312-3.5-0.0312-0.0625c-0.13854-0.21309-0.25985-0.42467-0.34375-0.625-0.14345-0.34262-0.24022-0.76851-0.3125-1.2188v-4.25c0.0723-0.45024 0.16905-0.87613 0.3125-1.2188 0.0839-0.20033 0.20521-0.41191 0.34375-0.625l0.0312-0.0625 3.5312-3.5c0.83166-0.37075 1.7501-0.59375 2.75-0.59375h75.812z" style="fill-rule:evenodd;fill:url(#linearGradient10165)" inkscape:connector-curvature="0"/>
            <g id="g12061" transform="matrix(-1 0 0 1 231.88 .00313)">
              <g id="g12020" transform="translate(-34.397 -24.237)"/>
            </g>
          </g>
          <g id="g12290">
            <path id="path12145" sodipodi:nodetypes="ccsssc" style="fill-rule:evenodd;fill:url(#linearGradient10167)" inkscape:connector-curvature="0" d="m219.63 459.93v-14.041h-93.692c-4.1542 0-7.0406 3.1178-7.0406 7.0033s2.8864 7.0381 7.0406 7.0381z"/>
            <path id="rect12236" d="m152.39 445.89-15 14.03h-5.5l15-14.03h5.5zm-7.5938 0-15 14.03h-2l15-14.03h2z" style="fill-rule:evenodd;fill:url(#linearGradient10169)" inkscape:connector-curvature="0"/>
          </g>
        </g>
        <g id="g5367">
          <path id="path4810" d="m174.84 380.74c-0.82769 0-1.4312 0.70559-1.5625 1.5l0.40625 1.875h1.4688l0.0937-0.34375h0.75l0.0937 0.34375h1.4688l0.59375-2.7812-2.0938-0.375-0.8125 1.2812h-0.78125c-0.0614-0.81325 0.13732-1.2681 0.8125-1.4062-0.1399-0.0577-0.27856-0.0937-0.4375-0.0937zm5.4375 0c-0.82769 0-1.4312 0.70559-1.5625 1.5l0.40625 1.875h1.4688l0.0937-0.34375h0.75l0.0937 0.34375h1.4688l0.59375-2.7812-2.0938-0.375-0.8125 1.2812h-0.78125c-0.0614-0.81325 0.13732-1.2681 0.8125-1.4062-0.1399-0.0577-0.27856-0.0937-0.4375-0.0937zm5.4062 0c-0.82769 0-1.4312 0.70559-1.5625 1.5l0.40625 1.875h1.4688l0.0937-0.34375h0.75l0.0937 0.34375h1.4688l0.59375-2.7812-2.0938-0.375-0.8125 1.2812h-0.78125c-0.0614-0.81325 0.13732-1.2681 0.8125-1.4062-0.1399-0.0577-0.27856-0.0937-0.4375-0.0937zm5.4375 0c-0.82769 0-1.4312 0.70559-1.5625 1.5l0.40625 1.875h1.4688l0.0937-0.34375h0.75l0.0937 0.34375h1.4688l0.59375-2.7812-2.0938-0.375-0.8125 1.2812h-0.78125c-0.0614-0.81325 0.13732-1.2681 0.8125-1.4062-0.1399-0.0577-0.27856-0.0937-0.4375-0.0937zm5.4062 0c-0.82769 0-1.4312 0.70559-1.5625 1.5l0.40625 1.875h1.4688l0.0937-0.34375h0.75l0.0937 0.34375h1.4688l0.59375-2.7812-2.0938-0.375-0.8125 1.2812h-0.78125c-0.0614-0.81325 0.13732-1.2681 0.8125-1.4062-0.1399-0.0577-0.27856-0.0937-0.4375-0.0937zm5.4375 0c-0.82769 0-1.4312 0.70559-1.5625 1.5l0.40625 1.875h1.4688l0.0937-0.34375h0.75l0.0937 0.34375h1.4688l0.59375-2.7812-2.0938-0.375-0.8125 1.2812h-0.78125c-0.0614-0.81325 0.13732-1.2681 0.8125-1.4062-0.1399-0.0577-0.27856-0.0937-0.4375-0.0937zm5.4062 0c-0.82769 0-1.3999 0.70559-1.5312 1.5l0.40625 1.875h1.4688l0.0937-0.34375h0.71875l0.0937 0.34375h1.4688l0.59375-2.7812-2.0938-0.375-0.8125 1.2812h-0.78125c-0.0614-0.81325 0.13732-1.2681 0.8125-1.4062-0.1399-0.0577-0.27856-0.0937-0.4375-0.0937zm5.4375 0c-0.82769 0-1.4312 0.70559-1.5625 1.5l0.40625 1.875h1.4688l0.0937-0.34375h0.75l0.0937 0.34375h1.4688l0.59375-2.7812-2.0938-0.375-0.8125 1.2812h-0.78125c-0.0614-0.81325 0.13732-1.2681 0.8125-1.4062-0.1399-0.0577-0.27856-0.0937-0.4375-0.0937zm5.4375 0c-0.82769 0-1.4312 0.70559-1.5625 1.5l0.40625 1.875h1.4688l0.0937-0.34375h0.75l0.0937 0.34375h1.4688l0.59375-2.7812-2.0938-0.375-0.8125 1.2812h-0.78125c-0.0614-0.81325 0.13732-1.2681 0.8125-1.4062-0.1399-0.0577-0.27856-0.0937-0.4375-0.0937zm5.4062 0c-0.82769 0-1.4312 0.70559-1.5625 1.5l0.40625 1.875h1.4688l0.0937-0.34375h0.75l0.0937 0.34375h1.4688l0.59375-2.7812-2.0938-0.375-0.8125 1.2812h-0.78125c-0.0614-0.81325 0.13732-1.2681 0.8125-1.4062-0.1399-0.0577-0.27856-0.0937-0.4375-0.0937zm5.4375 0c-0.82769 0-1.4312 0.70559-1.5625 1.5l0.40625 1.875h1.4688l0.0937-0.34375h0.75l0.0937 0.34375h1.4688l0.59375-2.7812-2.0938-0.375-0.8125 1.2812h-0.78125c-0.0614-0.81325 0.13732-1.2681 0.8125-1.4062-0.1399-0.0577-0.27856-0.0937-0.4375-0.0937zm5.4062 0c-0.82769 0-1.4312 0.70559-1.5625 1.5l0.40625 1.875h1.4688l0.0937-0.34375h0.75l0.0937 0.34375h1.4688l0.59375-2.7812-2.0938-0.375-0.8125 1.2812h-0.78125c-0.0614-0.81325 0.13732-1.2681 0.8125-1.4062-0.1399-0.0577-0.27856-0.0937-0.4375-0.0937zm-62.938 1.3125-1.75 1.2188 0.34375 1.5-0.5625 0.53125c-0.61847-0.53164-0.78597-0.98737-0.40625-1.5625-0.1397 0.0581-0.29386 0.13761-0.40625 0.25-0.58527 0.58527-0.50012 1.5016-0.0312 2.1562l1.625 1.0312 1.0312-1.0312-0.1875-0.3125 0.53125-0.53125 0.3125 0.1875 1.0312-1.0312-1.5312-2.4062zm-4.1562 5.1875-0.40625 2.0938 1.3125 0.8125v0.78125c-0.81325 0.0614-1.2681-0.13732-1.4062-0.8125-0.0577 0.1399-0.0937 0.27856-0.0937 0.4375 0 0.82769 0.70559 1.4312 1.5 1.5625l1.875-0.40625v-1.4688l-0.34375-0.0937v-0.75l0.34375-0.0937v-1.4688l-2.7812-0.59375zm3.0938 5.0625-2.375 1.5312 1.1875 1.75 1.5-0.34375 0.5625 0.5625c-0.53164 0.61847-1.0186 0.78597-1.5938 0.40625 0.0582 0.1397 0.13761 0.26261 0.25 0.375 0.58527 0.58527 1.5016 0.53137 2.1562 0.0625l1.0625-1.625-1.0625-1.0312-0.28125 0.1875-0.53125-0.53125 0.15625-0.3125-1.0312-1.0312zm3.375 2.9062-0.59375 2.7812 2.0938 0.40625 0.8125-1.3125h0.78125c0.0614 0.81325-0.13732 1.2681-0.8125 1.4062 0.1399 0.0577 0.27856 0.0937 0.4375 0.0937 0.82769 0 1.4312-0.70559 1.5625-1.5l-0.40625-1.875h-1.4688l-0.0937 0.34375h-0.75l-0.0937-0.34375h-1.4688zm5.4375 0-0.59375 2.7812 2.0938 0.40625 0.8125-1.3125h0.78125c0.0614 0.81325-0.13732 1.2681-0.8125 1.4062 0.1399 0.0577 0.27856 0.0937 0.4375 0.0937 0.82769 0 1.4312-0.70559 1.5625-1.5l-0.40625-1.875h-1.4688l-0.0937 0.34375h-0.75l-0.0937-0.34375h-1.4688zm5.4062 0-0.59375 2.7812 2.0938 0.40625 0.8125-1.3125h0.78125c0.0614 0.81325-0.13732 1.2681-0.8125 1.4062 0.1399 0.0577 0.27856 0.0937 0.4375 0.0937 0.82769 0 1.4312-0.70559 1.5625-1.5l-0.40625-1.875h-1.4688l-0.0937 0.34375h-0.75l-0.0937-0.34375h-1.4688zm5.4375 0-0.59375 2.7812 2.0938 0.40625 0.8125-1.3125h0.78125c0.0614 0.81325-0.13732 1.2681-0.8125 1.4062 0.1399 0.0577 0.27856 0.0937 0.4375 0.0937 0.82769 0 1.4312-0.70559 1.5625-1.5l-0.40625-1.875h-1.4688l-0.0937 0.34375h-0.75l-0.0937-0.34375h-1.4688zm5.4062 0-0.59375 2.7812 2.0938 0.40625 0.8125-1.3125h0.78125c0.0614 0.81325-0.13732 1.2681-0.8125 1.4062 0.1399 0.0577 0.27856 0.0937 0.4375 0.0937 0.82769 0 1.4312-0.70559 1.5625-1.5l-0.40625-1.875h-1.4688l-0.0937 0.34375h-0.75l-0.0937-0.34375h-1.4688zm5.4375 0-0.59375 2.7812 2.0938 0.40625 0.8125-1.3125h0.78125c0.0614 0.81325-0.13732 1.2681-0.8125 1.4062 0.1399 0.0577 0.27856 0.0937 0.4375 0.0937 0.82769 0 1.4312-0.70559 1.5625-1.5l-0.40625-1.875h-1.4688l-0.0937 0.34375h-0.75l-0.0937-0.34375h-1.4688zm5.4375 0-0.59375 2.7812 2.0938 0.40625 0.8125-1.3125h0.78125c0.0614 0.81325-0.13732 1.2681-0.8125 1.4062 0.1399 0.0577 0.27856 0.0937 0.4375 0.0937 0.82769 0 1.3999-0.70559 1.5312-1.5l-0.40625-1.875h-1.4688l-0.0937 0.34375h-0.71875l-0.0937-0.34375h-1.4688zm5.4062 0-0.59375 2.7812 2.0938 0.40625 0.8125-1.3125h0.78125c0.0614 0.81325-0.13732 1.2681-0.8125 1.4062 0.1399 0.0577 0.27856 0.0937 0.4375 0.0937 0.82769 0 1.4312-0.70559 1.5625-1.5l-0.40625-1.875h-1.4688l-0.0937 0.34375h-0.75l-0.0937-0.34375h-1.4688zm5.4375 0-0.59375 2.7812 2.0938 0.40625 0.8125-1.3125h0.78125c0.0614 0.81325-0.13732 1.2681-0.8125 1.4062 0.1399 0.0577 0.27856 0.0937 0.4375 0.0937 0.82769 0 1.4312-0.70559 1.5625-1.5l-0.40625-1.875h-1.4688l-0.0937 0.34375h-0.75l-0.0937-0.34375h-1.4688zm5.4062 0-0.59375 2.7812 2.0938 0.40625 0.8125-1.3125h0.78125c0.0614 0.81325-0.13732 1.2681-0.8125 1.4062 0.1399 0.0577 0.27856 0.0937 0.4375 0.0937 0.82769 0 1.4312-0.70559 1.5625-1.5l-0.40625-1.875h-1.4688l-0.0937 0.34375h-0.75l-0.0937-0.34375h-1.4688zm5.4375 0-0.59375 2.7812 2.0938 0.40625 0.8125-1.3125h0.78125c0.0614 0.81325-0.13732 1.2681-0.8125 1.4062 0.1399 0.0577 0.27856 0.0937 0.4375 0.0937 0.82769 0 1.4312-0.70559 1.5625-1.5l-0.40625-1.875h-1.4688l-0.0937 0.34375h-0.75l-0.0937-0.34375h-1.4688zm5.4062 0-0.59375 2.7812 2.0938 0.40625 0.8125-1.3125h0.78125c0.0614 0.81325-0.13732 1.2681-0.8125 1.4062 0.1399 0.0577 0.27856 0.0937 0.4375 0.0937 0.82769 0 1.4312-0.70559 1.5625-1.5l-0.40625-1.875h-1.4688l-0.0937 0.34375h-0.75l-0.0937-0.34375h-1.4688z" style="fill-rule:evenodd;fill:url(#linearGradient10171)" inkscape:connector-curvature="0"/>
          <path id="path10753-7" d="m174.53 382.58c-0.33062 0-0.59375 0.32563-0.59375 0.65625s0.26313 0.5625 0.59375 0.5625 0.59375-0.23188 0.59375-0.5625-0.26313-0.65625-0.59375-0.65625zm2.125 0c-0.33061 0-0.59375 0.32563-0.59375 0.65625s0.26313 0.5625 0.59375 0.5625c0.33061 0 0.625-0.23188 0.625-0.5625s-0.29439-0.65625-0.625-0.65625zm3.2812 0c-0.33062 0-0.5625 0.32563-0.5625 0.65625s0.23188 0.5625 0.5625 0.5625 0.59375-0.23188 0.59375-0.5625-0.26313-0.65625-0.59375-0.65625zm2.1562 0c-0.33061 0-0.59375 0.32563-0.59375 0.65625s0.26313 0.5625 0.59375 0.5625c0.33061 0 0.59375-0.23188 0.59375-0.5625s-0.26314-0.65625-0.59375-0.65625zm3.2812 0c-0.33062 0-0.59375 0.32563-0.59375 0.65625s0.26313 0.5625 0.59375 0.5625 0.59375-0.23188 0.59375-0.5625-0.26313-0.65625-0.59375-0.65625zm2.1562 0c-0.33061 0-0.625 0.32563-0.625 0.65625s0.29438 0.5625 0.625 0.5625c0.33061 0 0.59375-0.23188 0.59375-0.5625s-0.26314-0.65625-0.59375-0.65625zm3.25 0c-0.33062 0-0.5625 0.32563-0.5625 0.65625s0.23188 0.5625 0.5625 0.5625 0.625-0.23188 0.625-0.5625-0.29438-0.65625-0.625-0.65625zm2.1562 0c-0.33061 0-0.59375 0.32563-0.59375 0.65625s0.26313 0.5625 0.59375 0.5625c0.33061 0 0.59375-0.23188 0.59375-0.5625s-0.26314-0.65625-0.59375-0.65625zm3.2812 0c-0.33062 0-0.59375 0.32563-0.59375 0.65625s0.26313 0.5625 0.59375 0.5625 0.59375-0.23188 0.59375-0.5625-0.26313-0.65625-0.59375-0.65625zm2.1562 0c-0.33061 0-0.625 0.32563-0.625 0.65625s0.29438 0.5625 0.625 0.5625c0.33061 0 0.59375-0.23188 0.59375-0.5625s-0.26314-0.65625-0.59375-0.65625zm3.25 0c-0.33062 0-0.5625 0.32563-0.5625 0.65625s0.23188 0.5625 0.5625 0.5625 0.625-0.23188 0.625-0.5625-0.29438-0.65625-0.625-0.65625zm2.1562 0c-0.33061 0-0.59375 0.32563-0.59375 0.65625s0.26313 0.5625 0.59375 0.5625c0.33061 0 0.625-0.23188 0.625-0.5625s-0.29439-0.65625-0.625-0.65625zm3.2812 0c-0.33062 0-0.5625 0.32563-0.5625 0.65625s0.23188 0.5625 0.5625 0.5625 0.59375-0.23188 0.59375-0.5625-0.26313-0.65625-0.59375-0.65625zm2.1562 0c-0.33061 0-0.59375 0.32563-0.59375 0.65625s0.26313 0.5625 0.59375 0.5625c0.33061 0 0.59375-0.23188 0.59375-0.5625s-0.26314-0.65625-0.59375-0.65625zm3.2812 0c-0.33062 0-0.59375 0.32563-0.59375 0.65625s0.26313 0.5625 0.59375 0.5625 0.59375-0.23188 0.59375-0.5625-0.26313-0.65625-0.59375-0.65625zm2.125 0c-0.33061 0-0.59375 0.32563-0.59375 0.65625s0.26313 0.5625 0.59375 0.5625c0.33061 0 0.625-0.23188 0.625-0.5625s-0.29439-0.65625-0.625-0.65625zm3.2812 0c-0.33062 0-0.5625 0.32563-0.5625 0.65625s0.23188 0.5625 0.5625 0.5625 0.59375-0.23188 0.59375-0.5625-0.26313-0.65625-0.59375-0.65625zm2.1562 0c-0.33061 0-0.59375 0.32563-0.59375 0.65625s0.26313 0.5625 0.59375 0.5625c0.33061 0 0.59375-0.23188 0.59375-0.5625s-0.26314-0.65625-0.59375-0.65625zm3.2812 0c-0.33062 0-0.59375 0.32563-0.59375 0.65625s0.26313 0.5625 0.59375 0.5625 0.59375-0.23188 0.59375-0.5625-0.26313-0.65625-0.59375-0.65625zm2.1562 0c-0.33061 0-0.625 0.32563-0.625 0.65625s0.29438 0.5625 0.625 0.5625c0.33061 0 0.59375-0.23188 0.59375-0.5625s-0.26314-0.65625-0.59375-0.65625zm3.25 0c-0.33062 0-0.5625 0.32563-0.5625 0.65625s0.23188 0.5625 0.5625 0.5625 0.59375-0.23188 0.59375-0.5625-0.26313-0.65625-0.59375-0.65625zm2.1562 0c-0.33061 0-0.59375 0.32563-0.59375 0.65625s0.26313 0.5625 0.59375 0.5625c0.33061 0 0.59375-0.23188 0.59375-0.5625s-0.26314-0.65625-0.59375-0.65625zm3.2812 0c-0.33062 0-0.59375 0.32563-0.59375 0.65625s0.26313 0.5625 0.59375 0.5625 0.59375-0.23188 0.59375-0.5625-0.26313-0.65625-0.59375-0.65625zm2.1562 0c-0.33061 0-0.625 0.32563-0.625 0.65625s0.29438 0.5625 0.625 0.5625c0.33061 0 0.59375-0.23188 0.59375-0.5625s-0.26314-0.65625-0.59375-0.65625zm-64.531 1.25c-0.15986-0.005-0.28936 0.0394-0.40625 0.15625-0.23378 0.23378-0.23378 0.64122 0 0.875s0.60997 0.23378 0.84375 0 0.23378-0.60997 0-0.84375c-0.11689-0.11689-0.27764-0.18242-0.4375-0.1875zm-1.5 1.5312c-0.15986-0.005-0.32061 0.0394-0.4375 0.15625-0.23378 0.23378-0.20253 0.60997 0.0312 0.84375 0.23378 0.23378 0.57872 0.23378 0.8125 0s0.26503-0.57872 0.0312-0.8125c-0.11689-0.11689-0.27764-0.18242-0.4375-0.1875zm-1.0312 2.75c-0.33062 0-0.625 0.26314-0.625 0.59375s0.29438 0.625 0.625 0.625 0.5625-0.29438 0.5625-0.625c0-0.33061-0.23188-0.59375-0.5625-0.59375zm0 2.1562c-0.33062 0-0.625 0.26313-0.625 0.59375s0.29438 0.59375 0.625 0.59375 0.5625-0.26313 0.5625-0.59375-0.23188-0.59375-0.5625-0.59375zm1.2188 2.6875c-0.14971-0.005-0.32061 0.0394-0.4375 0.15625-0.23378 0.23378-0.23378 0.64122 0 0.875s0.64122 0.23378 0.875 0 0.20253-0.60997-0.0312-0.84375c-0.11689-0.11689-0.25654-0.18242-0.40625-0.1875zm1.5 1.5312c-0.14971-0.005-0.28936 0.0394-0.40625 0.15625-0.23378 0.23378-0.26503 0.64122-0.0312 0.875 0.23378 0.23378 0.64122 0.20253 0.875-0.0312 0.23378-0.23378 0.23378-0.57872 0-0.8125-0.11689-0.11689-0.28779-0.18243-0.4375-0.1875zm2.7812 1.0625c-0.33061 0-0.625 0.23188-0.625 0.5625s0.29439 0.625 0.625 0.625 0.59375-0.29438 0.59375-0.625-0.26313-0.5625-0.59375-0.5625zm2.1562 0c-0.33062 0-0.625 0.23188-0.625 0.5625s0.29438 0.625 0.625 0.625 0.5625-0.29438 0.5625-0.625-0.23188-0.5625-0.5625-0.5625zm3.25 0c-0.33061 0-0.59375 0.23188-0.59375 0.5625s0.26314 0.625 0.59375 0.625 0.625-0.29438 0.625-0.625-0.29438-0.5625-0.625-0.5625zm2.1562 0c-0.33062 0-0.59375 0.23188-0.59375 0.5625s0.26313 0.625 0.59375 0.625 0.59375-0.29438 0.59375-0.625-0.26313-0.5625-0.59375-0.5625zm3.2812 0c-0.33061 0-0.59375 0.23188-0.59375 0.5625s0.26314 0.625 0.59375 0.625 0.59375-0.29438 0.59375-0.625-0.26313-0.5625-0.59375-0.5625zm2.1562 0c-0.33062 0-0.59375 0.23188-0.59375 0.5625s0.26313 0.625 0.59375 0.625 0.5625-0.29438 0.5625-0.625-0.23188-0.5625-0.5625-0.5625zm3.25 0c-0.33061 0-0.59375 0.23188-0.59375 0.5625s0.26314 0.625 0.59375 0.625 0.625-0.29438 0.625-0.625-0.29438-0.5625-0.625-0.5625zm2.1562 0c-0.33062 0-0.59375 0.23188-0.59375 0.5625s0.26313 0.625 0.59375 0.625 0.59375-0.29438 0.59375-0.625-0.26313-0.5625-0.59375-0.5625zm3.2812 0c-0.33061 0-0.59375 0.23188-0.59375 0.5625s0.26314 0.625 0.59375 0.625 0.59375-0.29438 0.59375-0.625-0.26313-0.5625-0.59375-0.5625zm2.1562 0c-0.33062 0-0.59375 0.23188-0.59375 0.5625s0.26313 0.625 0.59375 0.625 0.5625-0.29438 0.5625-0.625-0.23188-0.5625-0.5625-0.5625zm3.2812 0c-0.33061 0-0.625 0.23188-0.625 0.5625s0.29439 0.625 0.625 0.625 0.59375-0.29438 0.59375-0.625-0.26313-0.5625-0.59375-0.5625zm2.125 0c-0.33062 0-0.59375 0.23188-0.59375 0.5625s0.26313 0.625 0.59375 0.625 0.59375-0.29438 0.59375-0.625-0.26313-0.5625-0.59375-0.5625zm3.2812 0c-0.33061 0-0.59375 0.23188-0.59375 0.5625s0.26314 0.625 0.59375 0.625 0.59375-0.29438 0.59375-0.625-0.26313-0.5625-0.59375-0.5625zm2.1562 0c-0.33062 0-0.59375 0.23188-0.59375 0.5625s0.26313 0.625 0.59375 0.625 0.5625-0.29438 0.5625-0.625-0.23188-0.5625-0.5625-0.5625zm3.2812 0c-0.33061 0-0.625 0.23188-0.625 0.5625s0.29439 0.625 0.625 0.625 0.59375-0.29438 0.59375-0.625-0.26313-0.5625-0.59375-0.5625zm2.1562 0c-0.33062 0-0.625 0.23188-0.625 0.5625s0.29438 0.625 0.625 0.625 0.5625-0.29438 0.5625-0.625-0.23188-0.5625-0.5625-0.5625zm3.25 0c-0.33061 0-0.59375 0.23188-0.59375 0.5625s0.26314 0.625 0.59375 0.625 0.625-0.29438 0.625-0.625-0.29438-0.5625-0.625-0.5625zm2.1562 0c-0.33062 0-0.59375 0.23188-0.59375 0.5625s0.26313 0.625 0.59375 0.625 0.59375-0.29438 0.59375-0.625-0.26313-0.5625-0.59375-0.5625zm3.2812 0c-0.33061 0-0.59375 0.23188-0.59375 0.5625s0.26314 0.625 0.59375 0.625 0.59375-0.29438 0.59375-0.625-0.26313-0.5625-0.59375-0.5625zm2.1562 0c-0.33062 0-0.625 0.23188-0.625 0.5625s0.29438 0.625 0.625 0.625 0.5625-0.29438 0.5625-0.625-0.23188-0.5625-0.5625-0.5625zm3.25 0c-0.33061 0-0.59375 0.23188-0.59375 0.5625s0.26314 0.625 0.59375 0.625 0.625-0.29438 0.625-0.625-0.29438-0.5625-0.625-0.5625zm2.1562 0c-0.33062 0-0.59375 0.23188-0.59375 0.5625s0.26313 0.625 0.59375 0.625 0.59375-0.29438 0.59375-0.625-0.26313-0.5625-0.59375-0.5625zm3.2812 0c-0.33061 0-0.59375 0.23188-0.59375 0.5625s0.26314 0.625 0.59375 0.625 0.59375-0.29438 0.59375-0.625-0.26313-0.5625-0.59375-0.5625zm2.1562 0c-0.33062 0-0.59375 0.23188-0.59375 0.5625s0.26313 0.625 0.59375 0.625 0.5625-0.29438 0.5625-0.625-0.23188-0.5625-0.5625-0.5625z" style="fill-rule:evenodd;fill:url(#linearGradient10173)" inkscape:connector-curvature="0"/>
        </g>
      </g>
      <g id="g8597">
        <path id="path3538" sodipodi:nodetypes="cccccccccc" style="fill-rule:evenodd;fill:url(#linearGradient10175)" inkscape:connector-curvature="0" d="m67.842 398.44c-1.55 0.27841-2.4301 2.4787-2.8016 4.4255l-4.5327 21.362 5.5139-0.2407 1.2292-5.8107c-0.76524-0.12251-1.562-0.22197-2.3129-0.36425-1.0782-0.29335-1.0819-1.3936-0.89503-2.5196l2.953-14.256c0.1671-0.87562 0.45965-1.8142 0.84619-2.5956z"/>
        <path id="rect12408" d="m69.577 417.19c-4.7185-1.0069-8.283 5.9462-8.283 10.854 0 5.6094-1.788 18.732 4.5622 18.732h33.815c10.222 0 11.493 1.1265 11.493-10.126 0-8.9621-18.041-14.199-29.686-16.912-1.0605-0.24709-1.0606-0.23528-11.901-2.5486zm18.011 10.956c0.44414 0.00042 0.9084 0.12015 1.4336 0.22756 5.8445 1.1952 19.638 3.7964 19.638 9.2329 0 6.826-0.97791 6.144-5.9392 6.144h-16.429c-3.0821 0-3.2085-6.86-3.2085-10.263 0-2.9774 1.3967-5.3447 4.5056-5.3417z" sodipodi:nodetypes="ssssssssssssss" style="fill-rule:evenodd;fill:url(#linearGradient10177)" inkscape:connector-curvature="0"/>
        <path id="path3559" sodipodi:nodetypes="cccccccccc" style="opacity:.52655;fill-rule:evenodd;fill:#333333" inkscape:connector-curvature="0" d="m58.539 426.19c-0.05709 0.18412-0.11239 0.36439-0.15929 0.54613l-3.7446 13.062c-0.11574 0.44847-0.18348 0.90621-0.22756 1.3426h32.518v-6.144l-1.7749-2.9127c-1.1922-1.969-1.9206-3.5593-4.1415-4.1642l-6.0985-1.7294z"/>
        <path id="path12378" style="fill-rule:evenodd;fill:url(#linearGradient10179)" inkscape:connector-curvature="0" transform="matrix(.63440 .15647 -.10594 .42954 -75.966 392.84)" d="m236.44-9.5702c0 3.051-2.4733 5.5243-5.5243 5.5243s-5.5243-2.4733-5.5243-5.5243 2.4733-5.5243 5.5243-5.5243 5.5243 2.4733 5.5243 5.5243z"/>
        <path id="path12448" sodipodi:nodetypes="csccsscscscccc" d="m77.12 441.36c-0.97375 0.0938-1.5864 2.9127-3.1403 2.9127h-11.833c0.17698 0.27967 0.36554 0.53348 0.56889 0.77369h11.537c1.6575 0 2.2235-3.2033 3.3223-2.89 5.1113 1.4575 4.2946 1.45 6.7811 2.1163 1.5125 0.37915 2.4533 0.77369 3.9822 0.77369 3.9707 0 4.9939 0.42007 4.187-1.1833-0.03211 0.66015-1.3244 0.4096-4.4373 0.4096-1.5289 0-2.4697-0.39454-3.9822-0.77369-2.4865-0.66625-1.6699-0.65877-6.7811-2.1162-0.06867-0.0196-0.13988-0.0291-0.2048-0.0227z" style="fill-rule:evenodd;fill:#803300" inkscape:connector-curvature="0"/>
        <path id="path12356" d="m62.101 422.5c-1.7558 0.10963-2.8418 2.3051-3.3451 4.2553l-3.3906 13.062c-0.57516 2.2288-0.73167 4.5511 4.1642 4.5511h14.718c1.6575 0 2.2247-3.2032 3.3235-2.8899 5.1113 1.4575 4.2946 1.45 6.7811 2.1163 1.5125 0.37914 2.4533 0.77368 3.9822 0.77368 5.6725 0 5.3597 0.86391 2.2334-4.5511l-4.6876-7.7141c-1.1922-1.969-1.9206-3.5593-4.1415-4.1642l-18.842-5.3475c-0.27761-0.0756-0.54562-0.10668-0.79644-0.091z" sodipodi:nodetypes="sccsssccccccs" style="fill-rule:evenodd;fill:url(#linearGradient10181)" inkscape:connector-curvature="0"/>
        <g id="g12369" transform="matrix(.66890 0 0 .66890 -85.695 130.03)">
          <path id="path12344" style="fill-rule:evenodd;fill:url(#linearGradient10183)" inkscape:connector-curvature="0" transform="matrix(1.1316 0 0 1.1316 -37.764 450.74)" d="m244.75 4.75c0 5.2467-4.2533 9.5-9.5 9.5s-9.5-4.2533-9.5-9.5 4.2533-9.5 9.5-9.5 9.5 4.2533 9.5 9.5z"/>
          <path id="path12340" d="m228.44-4.3438c-4.8196 0-8.7188 3.8991-8.7188 8.7188 0 1.1366 0.2297 2.2229 0.625 3.2188h16.188c0.3953-0.99582 0.625-2.0822 0.625-3.2188 0-4.8196-3.8991-8.7188-8.7188-8.7188zm-3.19 3.5938h6.375c0.30048 0 0.53125 0.23077 0.53125 0.53125s-0.23077 0.53125-0.53125 0.53125h-6.375c-0.30048 0-0.53125-0.23077-0.53125-0.53125s0.23077-0.53125 0.53125-0.53125zm0 2.3125h6.375c0.30048 0 0.53125 0.26202 0.53125 0.5625s-0.23077 0.5625-0.53125 0.5625h-6.375c-0.30048 0-0.53125-0.26202-0.53125-0.5625s0.23077-0.5625 0.53125-0.5625zm0 2.375h6.375c0.30048 0 0.53125 0.23077 0.53125 0.53125 0.01 0.3004-0.22 0.5312-0.53 0.5312h-6.375c-0.30048 0-0.53125-0.23077-0.53125-0.53125s0.23077-0.53125 0.53125-0.53125zm-4.75 4.0625c1.3747 3.0144 4.4081 5.0938 7.9375 5.0938 3.5279 0 6.5619-2.0814 7.9375-5.0938h-3.3125c-1.0824 1.3757-2.7392 2.2812-4.625 2.2812-1.8883 0-3.5428-0.90245-4.625-2.2812h-3.32z" style="fill-rule:evenodd;fill:url(#linearGradient10185)" transform="matrix(1.0886 0 0 1.0886 -20.241 451.35)" inkscape:connector-curvature="0"/>
        </g>
        <path id="path12425" d="m89.294 421.65-1.0695 6.6674c6.1599 1.197 17.643 3.4906 20.161 8.0554l2.4804-2.0935c-1.4129-4.4152-10.457-9.88-21.572-12.629z" sodipodi:nodetypes="ccccc" style="fill:url(#linearGradient10187)" inkscape:connector-curvature="0"/>
        <path id="rect12461" style="fill-rule:evenodd;fill:url(#linearGradient10189)" inkscape:connector-curvature="0" d="m72.475 417.8c-0.2705 1.3516 0.03007 2.5459 0.72817 2.7079l10.581 3.5271c0.69956 0.23464 1.8675-0.64056 1.8887-3.2768-1.4474-0.37376-2.8683-0.71673-4.187-1.024-0.80303-0.18711-4.2566-0.92198-9.0112-1.9342z"/>
        <path id="path12718" style="fill-rule:evenodd;fill:#2f1300" inkscape:connector-curvature="0" d="m79.509 429.33c-0.94443 0.36041-1.5595 1.3174-1.3084 2.1392l2.2718 7.3699c0.25107 0.82173 0.92384 1.3063 1.8697 0.94963l0.9487-0.35508 0.9487-0.3551c0.94754-0.35207 1.1368-1.1593 0.78665-1.9439l-3.1256-7.0503c-0.35019-0.78464-1.4425-1.1026-2.3915-0.75433z"/>
        <g id="g12667" transform="matrix(.75896 -.28407 .28407 .75896 -138.2 164.74)">
          <path id="rect12629" d="m137.47-52.938c-1.2474 0.008-2.3722 0.84798-2.4375 1.9062l-0.5625 9.5c-0.0653 1.0583 0.50262 1.9092 1.75 1.9062h1.25 1.25c1.2474 0.003 1.8153-0.84798 1.75-1.9062l-0.5625-9.5c-0.0653-1.0583-1.1901-1.8982-2.4375-1.9062z" style="fill-rule:evenodd;fill:url(#linearGradient10191)" inkscape:connector-curvature="0" transform="translate(0 452.36)"/>
          <path id="path12633" d="m137.47 401.36c-0.779 0-1.4062 0.62726-1.4062 1.4062 0 0.779 0.62725 1.4062 1.4062 1.4062 0.779 0 1.4062-0.62725 1.4062-1.4062 0-0.77899-0.62725-1.4062-1.4062-1.4062zm0 3.3125c-0.779 0-1.4062 0.62726-1.4062 1.4062 0 0.779 0.62725 1.4062 1.4062 1.4062 0.779 0 1.4062-0.62725 1.4062-1.4062 0-0.77899-0.62725-1.4062-1.4062-1.4062zm0 3.3125c-0.779 0-1.4062 0.62726-1.4062 1.4062 0 0.779 0.62725 1.4062 1.4062 1.4062 0.779 0 1.4062-0.62725 1.4062-1.4062 0-0.77899-0.62725-1.4062-1.4062-1.4062z" style="fill-rule:evenodd;fill:url(#linearGradient10193)" inkscape:connector-curvature="0"/>
        </g>
        <path id="path12684" style="fill-rule:evenodd;fill:url(#linearGradient10195)" inkscape:connector-curvature="0" d="m396 187.47c-2.1697 0.0462-3.5963 1.0849-3.9375 3.2812-0.30007 2.0575-0.55609 4.1119-0.90625 6.4688 0.66271-0.32506 1.3843-0.51915 2.125-0.5l0.90625-5.9062c0.0943-0.33445 0.24507-0.56699 0.46875-0.75 0.18351-0.19458 0.36661-0.28608 0.625-0.375 0.0664-0.0274 0.14958-0.0737 0.21875-0.0937 0.10874-0.0223 0.22844-0.0312 0.34375-0.0312 0.80725 0.0582 1.4401 0.59129 1.6562 1.25 1.8428 5.6153 5.6562 18.812 5.6562 18.812l2.5-0.6875c-1.4712-4.2255-4.0549-12.295-6.0312-18.188-0.76328-1.8528-1.7357-3.2302-3.625-3.2812z" transform="translate(-324.5 220.36)"/>
      </g>
    </g>
  </g>
  <metadata>
    <rdf:RDF>
      <cc:Work>
        <dc:format>image/svg+xml</dc:format>
        <dc:type rdf:resource="http://purl.org/dc/dcmitype/StillImage"/>
        <cc:license rdf:resource="http://creativecommons.org/licenses/publicdomain/"/>
        <dc:publisher>
          <cc:Agent rdf:about="http://openclipart.org/">
            <dc:title>Openclipart</dc:title>
          </cc:Agent>
        </dc:publisher>
      </cc:Work>
      <cc:License rdf:about="http://creativecommons.org/licenses/publicdomain/">
        <cc:permits rdf:resource="http://creativecommons.org/ns#Reproduction"/>
        <cc:permits rdf:resource="http://creativecommons.org/ns#Distribution"/>
        <cc:permits rdf:resource="http://creativecommons.org/ns#DerivativeWorks"/>
      </cc:License>
    </rdf:RDF>
  </metadata>
</svg>