<?xml version="1.0" encoding="UTF-8" standalone="no"?>
<!-- Generator: Adobe Illustrator 17.0.0, SVG Export Plug-In . SVG Version: 6.00 Build 0)  -->
<svg xmlns:inkscape="http://www.inkscape.org/namespaces/inkscape" xmlns:rdf="http://www.w3.org/1999/02/22-rdf-syntax-ns#" xmlns="http://www.w3.org/2000/svg" xmlns:dc="http://purl.org/dc/elements/1.1/" xmlns:ns1="http://sozi.baierouge.fr" xmlns:cc="http://web.resource.org/cc/" xmlns:xlink="http://www.w3.org/1999/xlink" xmlns:sodipodi="http://sodipodi.sourceforge.net/DTD/sodipodi-0.dtd" id="Слой_1" enable-background="new 0 0 402.52 595.276" xml:space="preserve" viewBox="0 0 402.52 595.276" version="1.0" y="0px" x="0px">
<g>
	<text font-size="10" font-family="'PFDinDisplayPro-Medium'" transform="translate(280.3 60.13)" fill="#FFFFFF">3</text>
	<text font-size="9" font-family="'PFDinDisplayPro-Bold'" transform="translate(113.12 79.223)"> </text>
	<g>
		<path fill="#2B2523" clip-rule="evenodd" d="m144.6 78.688c1.624-0.163 54.624-13.373 118.56-0.488 0 0 5.305-0.162 5.035 3.411 0 0 1.568 147.64-27.448 364.57 0 0-0.056 2.869-3.142 3.137 0 0-34.649 2.438-65.019 0.162 0 0-3.304-0.215-3.682-2.652 0 0-24.743-149.69-27.611-365.22 0.16-2.381 1.74-2.814 3.3-2.922" fill-rule="evenodd"/>
	</g>
	<polyline points="245.52 181.54 247.2 184.95 250.97 185.5 248.24 188.15 248.89 191.9 245.52 190.13 242.15 191.9 242.8 188.15 240.07 185.5 243.84 184.95 245.52 181.54" fill="#CDCAC7" clip-rule="evenodd" fill-rule="evenodd"/>
	<polygon stroke="#28211C" stroke-width=".216" stroke-miterlimit="10" points="245.52 181.54 247.2 184.95 250.97 185.5 248.24 188.15 248.89 191.9 245.52 190.13 242.15 191.9 242.8 188.15 240.07 185.5 243.84 184.95" fill="none"/>
	<path fill="#CCC9C9" clip-rule="evenodd" d="m162.69 129.74c3.734 0 6.768-3.086 6.768-6.822 0-3.735-3.034-6.822-6.768-6.822-3.735 0-6.82 3.087-6.82 6.822 0 3.74 3.08 6.82 6.82 6.82" fill-rule="evenodd"/>
	<path fill="#CCC9C9" clip-rule="evenodd" d="m183.75 129.74c3.736 0 6.822-3.086 6.822-6.822 0-3.735-3.086-6.822-6.822-6.822-3.735 0-6.767 3.087-6.767 6.822 0 3.74 3.03 6.82 6.77 6.82" fill-rule="evenodd"/>
	<path fill="#CCC9C9" clip-rule="evenodd" d="m204.75 129.74c3.734 0 6.767-3.086 6.767-6.822 0-3.735-3.033-6.822-6.767-6.822-3.737 0-6.768 3.087-6.768 6.822 0.01 3.74 3.04 6.82 6.77 6.82" fill-rule="evenodd"/>
	<path fill="#CCC9C9" clip-rule="evenodd" d="m225.98 129.74c3.736 0 6.767-3.086 6.767-6.822 0-3.735-3.031-6.822-6.767-6.822s-6.822 3.087-6.822 6.822c-0.01 3.74 3.08 6.82 6.82 6.82" fill-rule="evenodd"/>
	<path fill="#CCC9C9" clip-rule="evenodd" d="m246.93 129.74c3.735 0 6.821-3.086 6.821-6.822 0-3.735-3.086-6.822-6.821-6.822-3.738 0-6.824 3.087-6.824 6.822-0.01 3.74 3.08 6.82 6.82 6.82" fill-rule="evenodd"/>
	<path fill="#CCC9C9" clip-rule="evenodd" d="m162.69 150.75c3.734 0 6.768-3.032 6.768-6.767 0-3.736-3.034-6.821-6.768-6.821-3.735 0-6.82 3.085-6.82 6.821 0 3.73 3.08 6.77 6.82 6.77" fill-rule="evenodd"/>
	<path fill="#CCC9C9" clip-rule="evenodd" d="m183.75 150.75c3.736 0 6.822-3.032 6.822-6.767 0-3.736-3.086-6.821-6.822-6.821-3.735 0-6.767 3.085-6.767 6.821 0 3.73 3.03 6.77 6.77 6.77" fill-rule="evenodd"/>
	<path fill="#CCC9C9" clip-rule="evenodd" d="m204.75 150.75c3.734 0 6.767-3.032 6.767-6.767 0-3.736-3.033-6.821-6.767-6.821-3.737 0-6.768 3.085-6.768 6.821 0.01 3.73 3.04 6.77 6.77 6.77" fill-rule="evenodd"/>
	<path fill="#CCC9C9" clip-rule="evenodd" d="m225.98 150.75c3.736 0 6.767-3.032 6.767-6.767 0-3.736-3.031-6.821-6.767-6.821s-6.822 3.085-6.822 6.821c-0.01 3.73 3.08 6.77 6.82 6.77" fill-rule="evenodd"/>
	<path fill="#CCC9C9" clip-rule="evenodd" d="m246.93 150.75c3.735 0 6.821-3.032 6.821-6.767 0-3.736-3.086-6.821-6.821-6.821-3.738 0-6.824 3.085-6.824 6.821-0.01 3.73 3.08 6.77 6.82 6.77" fill-rule="evenodd"/>
	<path fill="#CCC9C9" clip-rule="evenodd" d="m162.69 171.64c3.734 0 6.768-3.033 6.768-6.821 0-3.737-3.034-6.768-6.768-6.768-3.735 0-6.82 3.031-6.82 6.768 0 3.79 3.08 6.82 6.82 6.82" fill-rule="evenodd"/>
	<path fill="#CCC9C9" clip-rule="evenodd" d="m183.75 171.64c3.736 0 6.822-3.033 6.822-6.821 0-3.737-3.086-6.768-6.822-6.768-3.735 0-6.767 3.031-6.767 6.768 0 3.79 3.03 6.82 6.77 6.82" fill-rule="evenodd"/>
	<path fill="#CCC9C9" clip-rule="evenodd" d="m204.75 171.64c3.734 0 6.767-3.033 6.767-6.821 0-3.737-3.033-6.768-6.767-6.768-3.737 0-6.768 3.031-6.768 6.768 0.01 3.79 3.04 6.82 6.77 6.82" fill-rule="evenodd"/>
	<path fill="#CCC9C9" clip-rule="evenodd" d="m225.98 171.64c3.736 0 6.767-3.033 6.767-6.821 0-3.737-3.031-6.768-6.767-6.768s-6.822 3.031-6.822 6.768c-0.01 3.79 3.08 6.82 6.82 6.82" fill-rule="evenodd"/>
	<path fill="#CCC9C9" clip-rule="evenodd" d="m246.93 171.64c3.735 0 6.821-3.033 6.821-6.821 0-3.737-3.086-6.768-6.821-6.768-3.738 0-6.824 3.031-6.824 6.768-0.01 3.79 3.08 6.82 6.82 6.82" fill-rule="evenodd"/>
	<path fill="#CCC9C9" clip-rule="evenodd" d="m164.2 192.81c3.357 0 6.064-2.761 6.064-6.064 0-3.355-2.707-6.118-6.064-6.118s-6.063 2.763-6.063 6.118c0 3.3 2.71 6.06 6.06 6.06" fill-rule="evenodd"/>
	<path fill="#CCC9C9" clip-rule="evenodd" d="m164.2 224.59c3.357 0 6.064-2.763 6.064-6.118 0-3.303-2.707-6.064-6.064-6.064s-6.063 2.761-6.063 6.064c0 3.36 2.71 6.12 6.06 6.12" fill-rule="evenodd"/>
	<path fill="#CCC9C9" clip-rule="evenodd" d="m245.36 224.59c3.302 0 6.064-2.763 6.064-6.118 0-3.303-2.762-6.064-6.064-6.064-3.358 0-6.118 2.761-6.118 6.064 0 3.36 2.76 6.12 6.12 6.12" fill-rule="evenodd"/>
	<g>
		<defs>
			<path id="SVGID_1_" d="m240.27 245c3.358 0 6.064-2.706 6.064-6.063 0-3.356-2.706-6.118-6.064-6.118-3.356 0-6.064 2.762-6.064 6.118-0.01 3.36 2.7 6.06 6.06 6.06"/>
		</defs>
		<clipPath id="SVGID_2_">
			<use overflow="visible" xlink:href="#SVGID_1_"/>
		</clipPath>
		<g clip-path="url(#SVGID_2_)">
			<defs>
				<rect id="SVGID_3_" y="72.562" x="121" height="377.89" width="172.27"/>
			</defs>
			<clipPath id="SVGID_4_">
				<use overflow="visible" xlink:href="#SVGID_3_"/>
			</clipPath>
			<polyline fill="#2D91CF" points="252.96 242.97 253.55 244.11 236.72 252.73 236.14 251.58 252.96 242.97" clip-path="url(#SVGID_4_)"/>
			<polyline fill="#FFFFFF" points="244.4 226.24 243.81 225.1 226.99 233.71 227.57 234.85 244.4 226.24" clip-path="url(#SVGID_4_)"/>
		</g>
	</g>
	<g>
		<defs>
			<polyline id="SVGID_5_" points="236.14 251.58 252.96 242.97 244.4 226.24 227.57 234.85"/>
		</defs>
		<clipPath id="SVGID_6_">
			<use overflow="visible" xlink:href="#SVGID_5_"/>
		</clipPath>
		<g clip-path="url(#SVGID_6_)">
			<defs>
				<polyline id="SVGID_7_" points="252.96 242.97 244.4 226.24 227.57 234.85 236.14 251.58 252.96 242.97"/>
			</defs>
			<clipPath id="SVGID_8_">
				<use overflow="visible" xlink:href="#SVGID_7_"/>
			</clipPath>
			<g clip-path="url(#SVGID_8_)">
				<defs>
					<path id="SVGID_9_" d="m240.27 245c3.358 0 6.064-2.706 6.064-6.063 0-3.356-2.706-6.118-6.064-6.118-3.356 0-6.064 2.762-6.064 6.118-0.01 3.36 2.7 6.06 6.06 6.06"/>
				</defs>
				<clipPath id="SVGID_10_">
					<use overflow="visible" xlink:href="#SVGID_9_"/>
				</clipPath>
				<g clip-path="url(#SVGID_10_)">
					<defs>
						<rect id="SVGID_11_" y="72.562" x="121" height="377.89" width="172.27"/>
					</defs>
					<clipPath id="SVGID_12_">
						<use overflow="visible" xlink:href="#SVGID_11_"/>
					</clipPath>
					<g clip-path="url(#SVGID_12_)">
						<defs>
								<rect id="SVGID_13_" transform="matrix(.4557 .8901 -.8901 .4557 343.45 -83.826)" height="18.903" width="18.798" y="229.46" x="230.87"/>
						</defs>
						<clipPath id="SVGID_14_">
							<use overflow="visible" xlink:href="#SVGID_13_"/>
						</clipPath>
					</g>
				</g>
			</g>
		</g>
	</g>
	<g>
		<defs>
			<path id="SVGID_15_" d="m171.73 245c3.357 0 6.065-2.706 6.065-6.063 0-3.356-2.708-6.118-6.065-6.118s-6.064 2.762-6.064 6.118c-0.02 3.36 2.69 6.06 6.05 6.06"/>
		</defs>
		<clipPath id="SVGID_16_">
			<use overflow="visible" xlink:href="#SVGID_15_"/>
		</clipPath>
		<g clip-path="url(#SVGID_16_)">
			<defs>
				<rect id="SVGID_17_" y="72.562" x="121" height="377.89" width="172.27"/>
			</defs>
			<clipPath id="SVGID_18_">
				<use overflow="visible" xlink:href="#SVGID_17_"/>
			</clipPath>
			<polyline fill="#D52216" points="184.4 242.99 184.98 244.13 168.16 252.7 167.58 251.56 184.4 242.99" clip-path="url(#SVGID_18_)"/>
			<polyline fill="#FFFFFF" points="175.87 226.26 175.29 225.12 158.48 233.69 159.06 234.83 175.87 226.26" clip-path="url(#SVGID_18_)"/>
		</g>
	</g>
	<g>
		<defs>
			<polyline id="SVGID_19_" points="167.58 251.56 184.4 242.99 175.87 226.26 159.06 234.83"/>
		</defs>
		<clipPath id="SVGID_20_">
			<use overflow="visible" xlink:href="#SVGID_19_"/>
		</clipPath>
		<g clip-path="url(#SVGID_20_)">
			<defs>
				<polyline id="SVGID_21_" points="184.4 242.99 175.87 226.26 159.06 234.83 167.58 251.56 184.4 242.99"/>
			</defs>
			<clipPath id="SVGID_22_">
				<use overflow="visible" xlink:href="#SVGID_21_"/>
			</clipPath>
			<g clip-path="url(#SVGID_22_)">
				<defs>
					<path id="SVGID_23_" d="m171.73 245c3.357 0 6.065-2.706 6.065-6.063 0-3.356-2.708-6.118-6.065-6.118s-6.064 2.762-6.064 6.118c-0.02 3.36 2.69 6.06 6.05 6.06"/>
				</defs>
				<clipPath id="SVGID_24_">
					<use overflow="visible" xlink:href="#SVGID_23_"/>
				</clipPath>
				<g clip-path="url(#SVGID_24_)">
					<defs>
						<rect id="SVGID_25_" y="72.562" x="121" height="377.89" width="172.27"/>
					</defs>
					<clipPath id="SVGID_26_">
						<use overflow="visible" xlink:href="#SVGID_25_"/>
					</clipPath>
					<g clip-path="url(#SVGID_26_)">
						<defs>
								<rect id="SVGID_27_" transform="matrix(.454 .891 -.891 .454 306.63 -22.566)" height="18.87" width="18.772" y="229.48" x="162.34"/>
						</defs>
						<clipPath id="SVGID_28_">
							<use overflow="visible" xlink:href="#SVGID_27_"/>
						</clipPath>
					</g>
				</g>
			</g>
		</g>
	</g>
	<g>
		<defs>
			<path id="SVGID_29_" d="m175.73 263.68c3.358 0 6.065-2.707 6.065-6.063 0-3.357-2.707-6.118-6.065-6.118-3.354 0-6.063 2.761-6.063 6.118-0.01 3.35 2.7 6.06 6.05 6.06"/>
		</defs>
		<clipPath id="SVGID_30_">
			<use overflow="visible" xlink:href="#SVGID_29_"/>
		</clipPath>
		<g clip-path="url(#SVGID_30_)">
			<defs>
				<rect id="SVGID_31_" y="72.562" x="121" height="377.89" width="172.27"/>
			</defs>
			<clipPath id="SVGID_32_">
				<use overflow="visible" xlink:href="#SVGID_31_"/>
			</clipPath>
			<polyline fill="#008B39" points="188.43 261.65 189.01 262.79 172.19 271.4 171.61 270.26 188.43 261.65" clip-path="url(#SVGID_32_)"/>
			<polyline fill="#FFFFFF" points="179.86 244.92 179.28 243.78 162.45 252.39 163.04 253.53 179.86 244.92" clip-path="url(#SVGID_32_)"/>
		</g>
	</g>
	<g>
		<defs>
			<polyline id="SVGID_33_" points="171.6 270.26 188.43 261.65 179.86 244.92 163.04 253.53"/>
		</defs>
		<clipPath id="SVGID_34_">
			<use overflow="visible" xlink:href="#SVGID_33_"/>
		</clipPath>
		<g clip-path="url(#SVGID_34_)">
			<defs>
				<polyline id="SVGID_35_" points="188.43 261.65 179.86 244.92 163.04 253.53 171.6 270.26 188.43 261.65"/>
			</defs>
			<clipPath id="SVGID_36_">
				<use overflow="visible" xlink:href="#SVGID_35_"/>
			</clipPath>
			<g clip-path="url(#SVGID_36_)">
				<defs>
					<path id="SVGID_37_" d="m175.73 263.68c3.358 0 6.065-2.707 6.065-6.063 0-3.357-2.707-6.118-6.065-6.118-3.354 0-6.063 2.761-6.063 6.118-0.01 3.35 2.7 6.06 6.05 6.06"/>
				</defs>
				<clipPath id="SVGID_38_">
					<use overflow="visible" xlink:href="#SVGID_37_"/>
				</clipPath>
				<g clip-path="url(#SVGID_38_)">
					<defs>
						<rect id="SVGID_39_" y="72.562" x="121" height="377.89" width="172.27"/>
					</defs>
					<clipPath id="SVGID_40_">
						<use overflow="visible" xlink:href="#SVGID_39_"/>
					</clipPath>
					<g clip-path="url(#SVGID_40_)">
						<defs>
								<rect id="SVGID_41_" transform="matrix(.4557 .8901 -.8901 .4557 324.94 -16.22)" height="18.9" width="18.797" y="248.14" x="166.34"/>
						</defs>
						<clipPath id="SVGID_42_">
							<use overflow="visible" xlink:href="#SVGID_41_"/>
						</clipPath>
					</g>
				</g>
			</g>
		</g>
	</g>
	<path fill="#CCC9C9" clip-rule="evenodd" d="m205.02 257.72c3.357 0 6.064-2.708 6.064-6.064 0-3.357-2.707-6.064-6.064-6.064-3.356 0-6.118 2.707-6.118 6.064 0 3.36 2.77 6.06 6.12 6.06" fill-rule="evenodd"/>
	<g>
		<defs>
			<path id="SVGID_43_" d="m233.99 263.84c3.358 0 6.063-2.708 6.063-6.064 0-3.357-2.705-6.064-6.063-6.064-3.357 0-6.064 2.707-6.064 6.064-0.01 3.35 2.7 6.06 6.06 6.06"/>
		</defs>
		<clipPath id="SVGID_44_">
			<use overflow="visible" xlink:href="#SVGID_43_"/>
		</clipPath>
		<g clip-path="url(#SVGID_44_)">
			<defs>
				<rect id="SVGID_45_" y="72.562" x="121" height="377.89" width="172.27"/>
			</defs>
			<clipPath id="SVGID_46_">
				<use overflow="visible" xlink:href="#SVGID_45_"/>
			</clipPath>
			<polyline fill="#FCE900" points="246.63 261.84 247.2 262.98 230.42 271.53 229.84 270.39 246.63 261.84" clip-path="url(#SVGID_46_)"/>
			<polyline fill="#FFFFFF" points="238.13 245.17 237.55 244.03 220.77 252.58 221.35 253.72 238.13 245.17" clip-path="url(#SVGID_46_)"/>
		</g>
	</g>
	<g>
		<defs>
			<polyline id="SVGID_47_" points="229.84 270.39 246.62 261.84 238.13 245.17 221.35 253.72"/>
		</defs>
		<clipPath id="SVGID_48_">
			<use overflow="visible" xlink:href="#SVGID_47_"/>
		</clipPath>
		<g clip-path="url(#SVGID_48_)">
			<defs>
				<polyline id="SVGID_49_" points="246.63 261.84 238.13 245.17 221.35 253.72 229.84 270.39 246.63 261.84"/>
			</defs>
			<clipPath id="SVGID_50_">
				<use overflow="visible" xlink:href="#SVGID_49_"/>
			</clipPath>
			<g clip-path="url(#SVGID_50_)">
				<defs>
					<path id="SVGID_51_" d="m233.99 263.84c3.358 0 6.063-2.708 6.063-6.064 0-3.357-2.705-6.064-6.063-6.064-3.357 0-6.064 2.707-6.064 6.064-0.01 3.35 2.7 6.06 6.06 6.06"/>
				</defs>
				<clipPath id="SVGID_52_">
					<use overflow="visible" xlink:href="#SVGID_51_"/>
				</clipPath>
				<g clip-path="url(#SVGID_52_)">
					<defs>
						<rect id="SVGID_53_" y="72.562" x="121" height="377.89" width="172.27"/>
					</defs>
					<clipPath id="SVGID_54_">
						<use overflow="visible" xlink:href="#SVGID_53_"/>
					</clipPath>
					<g clip-path="url(#SVGID_54_)">
						<defs>
								<rect id="SVGID_55_" transform="matrix(.454 .891 -.891 .454 357.43 -67.737)" height="18.834" width="18.709" y="248.36" x="224.63"/>
						</defs>
						<clipPath id="SVGID_56_">
							<use overflow="visible" xlink:href="#SVGID_55_"/>
						</clipPath>
					</g>
				</g>
			</g>
		</g>
	</g>
	<path fill="#CCC9C9" clip-rule="evenodd" d="m175.68 289.72c3.735 0 6.767-3.032 6.767-6.713 0-3.736-3.032-6.768-6.767-6.768-3.682 0-6.713 3.032-6.713 6.768 0 3.68 3.03 6.71 6.71 6.71" fill-rule="evenodd"/>
	<path fill="#CCC9C9" clip-rule="evenodd" d="m233.93 289.72c3.736 0 6.767-3.032 6.767-6.713 0-3.736-3.031-6.768-6.767-6.768-3.68 0-6.712 3.032-6.712 6.768 0 3.68 3.03 6.71 6.71 6.71" fill-rule="evenodd"/>
	<path fill="#CCC9C9" clip-rule="evenodd" d="m229.93 311.21c3.735 0 6.765-3.032 6.765-6.767 0-3.682-3.03-6.714-6.765-6.714-3.682 0-6.713 3.032-6.713 6.714-0.01 3.74 3.02 6.77 6.7 6.77" fill-rule="evenodd"/>
	<path fill="#CCC9C9" clip-rule="evenodd" d="m179.74 311.21c3.682 0 6.712-3.032 6.712-6.767 0-3.682-3.03-6.714-6.712-6.714-3.737 0-6.769 3.032-6.769 6.714 0 3.74 3.03 6.77 6.77 6.77" fill-rule="evenodd"/>
	<path fill="#CCC9C9" clip-rule="evenodd" d="m183.68 332.16c3.357 0 6.117-2.761 6.117-6.119 0-3.356-2.76-6.116-6.117-6.116s-6.117 2.76-6.117 6.116c0 3.36 2.76 6.12 6.12 6.12" fill-rule="evenodd"/>
	<path fill="#CCC9C9" clip-rule="evenodd" d="m204.76 332.16c3.356 0 6.064-2.761 6.064-6.119 0-3.356-2.708-6.116-6.064-6.116-3.357 0-6.064 2.76-6.064 6.116 0 3.36 2.7 6.12 6.06 6.12" fill-rule="evenodd"/>
	<path fill="#CCC9C9" clip-rule="evenodd" d="m225.99 332.16c3.356 0 6.064-2.761 6.064-6.119 0-3.356-2.708-6.116-6.064-6.116-3.357 0-6.118 2.76-6.118 6.116 0 3.36 2.76 6.12 6.12 6.12" fill-rule="evenodd"/>
	<path fill="#CCC9C9" clip-rule="evenodd" d="m196.68 273.59v17.811c0 0.813 0.868 1.301 1.57 0.867 5.089-2.924 10.233-5.9 15.375-8.879 0.381-0.216 0.488-0.487 0.488-0.92s-0.107-0.65-0.488-0.866c-5.142-2.977-10.286-5.955-15.375-8.879-0.69-0.43-1.56 0.05-1.56 0.87" fill-rule="evenodd"/>
	<path fill="#CCC9C9" clip-rule="evenodd" d="m197.99 299.25c0-1.082 0.811-1.949 1.896-1.949h9.851c1.138 0 1.95 0.867 2.003 1.949v9.853c-0.053 1.136-0.865 1.949-2.003 1.949h-9.851c-1.03 0-1.896-0.813-1.896-1.949" fill-rule="evenodd"/>
	<path fill="#CCC9C9" clip-rule="evenodd" d="m171.78 108.68c3.303 0 6.011-2.653 6.011-5.955s-2.708-6.009-6.011-6.009c-3.302 0-6.009 2.707-6.009 6.009s2.71 5.96 6.01 5.96" fill-rule="evenodd"/>
	<g>
		<defs>
			<path id="SVGID_57_" d="m204.7 104.46c4.494 0 8.23-3.735 8.23-8.228 0-4.548-3.736-8.229-8.23-8.229-4.547 0-8.174 3.681-8.174 8.229-0.01 4.488 3.62 8.228 8.17 8.228"/>
		</defs>
		<clipPath id="SVGID_58_">
			<use overflow="visible" xlink:href="#SVGID_57_"/>
		</clipPath>
		<g clip-path="url(#SVGID_58_)">
			<defs>
				<rect id="SVGID_59_" y="72.562" x="121" height="377.89" width="172.27"/>
			</defs>
			<clipPath id="SVGID_60_">
				<use overflow="visible" xlink:href="#SVGID_59_"/>
			</clipPath>
			<polyline fill="#D52216" points="218.62 102.74 219.09 104.12 198.26 111.29 197.79 109.91 218.62 102.74" clip-path="url(#SVGID_60_)"/>
			<polyline fill="#E46556" points="211.66 82.546 211.19 81.17 190.36 88.341 190.84 89.718 211.66 82.546" clip-path="url(#SVGID_60_)"/>
		</g>
	</g>
	<g>
		<defs>
			<polyline id="SVGID_61_" points="197.79 109.91 218.62 102.74 211.66 82.546 190.84 89.718"/>
		</defs>
		<clipPath id="SVGID_62_">
			<use overflow="visible" xlink:href="#SVGID_61_"/>
		</clipPath>
		<g clip-path="url(#SVGID_62_)">
			<defs>
				<polyline id="SVGID_63_" points="218.62 102.74 211.66 82.546 190.84 89.718 197.79 109.91 218.62 102.74"/>
			</defs>
			<clipPath id="SVGID_64_">
				<use overflow="visible" xlink:href="#SVGID_63_"/>
			</clipPath>
			<g clip-path="url(#SVGID_64_)">
				<defs>
					<path id="SVGID_65_" d="m204.7 104.46c4.494 0 8.23-3.735 8.23-8.228 0-4.548-3.736-8.229-8.23-8.229-4.547 0-8.174 3.681-8.174 8.229-0.01 4.488 3.62 8.228 8.17 8.228"/>
				</defs>
				<clipPath id="SVGID_66_">
					<use overflow="visible" xlink:href="#SVGID_65_"/>
				</clipPath>
				<g clip-path="url(#SVGID_66_)">
					<defs>
						<rect id="SVGID_67_" y="72.562" x="121" height="377.89" width="172.27"/>
					</defs>
					<clipPath id="SVGID_68_">
						<use overflow="visible" xlink:href="#SVGID_67_"/>
					</clipPath>
					<g clip-path="url(#SVGID_68_)">
						<defs>
								<rect id="SVGID_69_" transform="matrix(.3256 .9455 -.9455 .3256 229.06 -128.67)" height="22.028" width="21.357" y="85.214" x="194.05"/>
						</defs>
						<clipPath id="SVGID_70_">
							<use overflow="visible" xlink:href="#SVGID_69_"/>
						</clipPath>
					</g>
				</g>
			</g>
		</g>
	</g>
		<line y2="191.02" x1="193.28" x2="193.28" stroke="#574E4C" stroke-miterlimit="10" y1="191.19" stroke-width=".216" fill="none"/>
		<line y2="229.68" x1="221.97" x2="221.27" stroke="#574E4C" stroke-miterlimit="10" y1="229.03" stroke-width=".216" fill="none"/>
		<line y2="224.59" x1="216.88" x2="216.18" stroke="#574E4C" stroke-miterlimit="10" y1="223.89" stroke-width=".216" fill="none"/>
		<line y2="223.94" x1="226.57" x2="227" stroke="#574E4C" stroke-miterlimit="10" y1="224.38" stroke-width=".216" fill="none"/>
		<line y2="218.85" x1="221.48" x2="221.92" stroke="#574E4C" stroke-miterlimit="10" y1="219.29" stroke-width=".216" fill="none"/>
		<line y2="218.53" x1="188.84" x2="188.84" stroke="#574E4C" stroke-miterlimit="10" y1="218.69" stroke-width=".216" fill="none"/>
		<line y2="230.98" x1="186.56" x2="186.56" stroke="#574E4C" stroke-miterlimit="10" y1="231.2" stroke-width=".216" fill="none"/>
		<line y2="184.42" x1="186.46" x2="186.46" stroke="#574E4C" stroke-miterlimit="10" y1="184.2" stroke-width=".216" fill="none"/>
		<line y2="225.35" x1="182.02" x2="182.02" stroke="#574E4C" stroke-miterlimit="10" y1="225.56" stroke-width=".216" fill="none"/>
		<line y2="225.3" x1="180.82" x2="180.82" stroke="#574E4C" stroke-miterlimit="10" y1="225.51" stroke-width=".216" fill="none"/>
		<line y2="229.68" x1="193.33" x2="188.24" stroke="#574E4C" stroke-miterlimit="10" y1="224.59" stroke-width=".216" fill="none"/>
		<line y2="225.62" x1="189.32" x2="194.09" stroke="#574E4C" stroke-miterlimit="10" y1="230.38" stroke-width=".216" fill="none"/>
		<line y2="191.89" x1="223.05" x2="227.71" stroke="#574E4C" stroke-miterlimit="10" y1="196.6" stroke-width=".216" fill="none"/>
		<line y2="231.25" x1="187.97" x2="188.35" stroke="#574E4C" stroke-miterlimit="10" y1="231.85" stroke-width=".216" fill="none"/>
		<line y2="183.5" x1="221.81" x2="221.16" stroke="#574E4C" stroke-miterlimit="10" y1="182.53" stroke-width=".216" fill="none"/>
		<line y2="190.21" x1="214.66" x2="214.99" stroke="#574E4C" stroke-miterlimit="10" y1="190.81" stroke-width=".216" fill="none"/>
		<line y2="223.78" x1="180.18" x2="180.93" stroke="#574E4C" stroke-miterlimit="10" y1="224.32" stroke-width=".216" fill="none"/>
		<line y2="190.92" x1="229.5" x2="228.58" stroke="#574E4C" stroke-miterlimit="10" y1="190.32" stroke-width=".216" fill="none"/>
		<line y2="218.85" x1="182.5" x2="187.59" stroke="#574E4C" stroke-miterlimit="10" y1="223.94" stroke-width=".216" fill="none"/>
		<line y2="222.8" x1="186.56" x2="181.8" stroke="#574E4C" stroke-miterlimit="10" y1="218.09" stroke-width=".216" fill="none"/>
		<line y2="189.02" x1="220.18" x2="215.47" stroke="#574E4C" stroke-miterlimit="10" y1="184.37" stroke-width=".216" fill="none"/>
		<line y2="190.54" x1="193.28" x2="192.79" stroke="#574E4C" stroke-miterlimit="10" y1="190.1" stroke-width=".216" fill="none"/>
		<line y2="195.84" x1="188.19" x2="187.48" stroke="#574E4C" stroke-miterlimit="10" y1="195.14" stroke-width=".216" fill="none"/>
		<line y2="447.37" x1="168.92" x2="169.02" stroke="#574E4C" stroke-miterlimit="10" y1="446.94" stroke-width=".216" fill="none"/>
		<line y2="190.1" x1="182.5" x2="183.21" stroke="#574E4C" stroke-miterlimit="10" y1="190.81" stroke-width=".216" fill="none"/>
		<line y2="185.07" x1="187.76" x2="188.24" stroke="#574E4C" stroke-miterlimit="10" y1="185.5" stroke-width=".216" fill="none"/>
		<line y2="78.688" x1="145.15" x2="145.15" stroke="#574E4C" stroke-miterlimit="10" y1="78.633" stroke-width=".216" fill="none"/>
	<polyline stroke="#574E4C" stroke-width=".216" stroke-miterlimit="10" points="145.91 78.579 146.99 78.146 148.18 77.875 149.37 77.659 150.51 77.443 151.7 77.225 155.27 76.576 156.41 76.414 157.6 76.197 164.75 75.223 165.94 75.115 167.13 74.952 168.32 74.789 170.7 74.573 171.89 74.411 173.08 74.303 174.28 74.194 176.66 73.977 177.85 73.869 179.04 73.761 180.23 73.707 181.42 73.599 182.61 73.544 183.8 73.435 185.05 73.382 186.24 73.329 187.43 73.219 188.62 73.165 189.81 73.111 192.2 73.003 193.39 73.003 195.77 72.894 197.01 72.894 198.2 72.84 199.34 72.84 200.53 72.787 210.12 72.787 211.3 72.84 212.5 72.84 213.69 72.894 214.93 72.894 219.7 73.111 220.89 73.165 223.27 73.273 224.46 73.329 225.71 73.435 226.9 73.489 228.09 73.544 230.47 73.761 231.66 73.814 237.62 74.356 238.81 74.518 241.19 74.735 242.38 74.898 243.57 75.006 253.1 76.306 254.24 76.522 255.43 76.684 256.62 76.901 259 77.334 260.14 77.551 261.33 77.821 262.52 78.038 263.6 78.471" fill="none"/>
		<line y2="78.905" x1="145.91" x2="145.91" stroke="#574E4C" stroke-miterlimit="10" y1="78.579" stroke-width=".216" fill="none"/>
		<line y2="78.471" x1="263.6" x2="263.6" stroke="#574E4C" stroke-miterlimit="10" y1="78.796" stroke-width=".216" fill="none"/>
		<line y2="78.633" x1="263.01" x2="263.01" stroke="#574E4C" stroke-miterlimit="10" y1="78.741" stroke-width=".216" fill="none"/>
		<line y2="78.849" x1="146.5" x2="146.5" stroke="#574E4C" stroke-miterlimit="10" y1="78.741" stroke-width=".216" fill="none"/>
	<polyline stroke="#574E4C" stroke-width=".216" stroke-miterlimit="10" points="146.5 78.741 146.23 78.741 146.23 78.688 146.02 78.688 146.02 78.633 145.91 78.633 145.91 78.579" fill="none"/>
	<polyline stroke="#574E4C" stroke-width=".216" stroke-miterlimit="10" points="263.6 78.47 263.6 78.525 263.5 78.525 263.5 78.579 263.39 78.579 263.33 78.579 263.33 78.634 263.22 78.634 263.01 78.634" fill="none"/>
	<polyline stroke="#574E4C" stroke-width=".216" stroke-miterlimit="10" points="146.5 78.741 147.21 78.741 147.21 78.688 147.69 78.688 147.69 78.633 148.13 78.633 148.13 78.579 148.18 78.579 148.5 78.579 148.5 78.525 148.61 78.525 148.88 78.525" fill="none"/>
		<line y2="78.47" x1="260.63" x2="260.63" stroke="#574E4C" stroke-miterlimit="10" y1="78.416" stroke-width=".216" fill="none"/>
	<polyline stroke="#574E4C" stroke-width=".216" stroke-miterlimit="10" points="260.63 78.416 260.9 78.416 260.95 78.416 260.95 78.47 261.33 78.47 261.38 78.524 261.76 78.524 261.82 78.579 262.25 78.579 262.25 78.633 263.01 78.633" fill="none"/>
	<polyline stroke="#574E4C" stroke-width=".216" stroke-miterlimit="10" points="148.88 78.523 149.1 78.47 149.37 78.416 149.64 78.361 149.91 78.361 150.18 78.308 150.4 78.252 150.67 78.252 150.94 78.199 151.21 78.145 151.48 78.145 151.7 78.09 151.97 78.036 152.24 78.036 152.51 77.983 152.78 77.929 153 77.929 153.27 77.874 153.54 77.819 153.81 77.819 154.03 77.765 154.3 77.712 154.57 77.712 154.84 77.658 155.11 77.658 155.33 77.603 155.6 77.549 155.87 77.549 156.14 77.496 156.41 77.496 156.63 77.442 156.9 77.387 157.17 77.387 157.71 77.278 157.93 77.278 158.2 77.225 158.47 77.225 158.74 77.17 159.01 77.17 159.23 77.116 159.5 77.062 159.77 77.062 160.04 77.007 160.31 77.007 160.52 76.954 160.8 76.954 161.07 76.9 161.34 76.9 161.61 76.845 161.82 76.791 162.1 76.791 162.37 76.738 162.64 76.738 162.91 76.683 163.18 76.683 163.39 76.629 163.66 76.629 163.94 76.575 164.21 76.575 164.48 76.522 164.69 76.522 164.96 76.467 165.24 76.467 165.51 76.413 165.78 76.413 165.99 76.358 166.26 76.358 166.53 76.304 166.81 76.304 167.08 76.251 167.29 76.251 167.56 76.196 167.84 76.196 168.1 76.142 168.37 76.142 168.64 76.088 169.13 76.088 169.4 76.033 169.67 76.033 169.94 75.98 170.16 75.98 170.43 75.926 170.7 75.926 170.97 75.871 171.52 75.871 171.73 75.817 172 75.817 172.27 75.762 172.81 75.762 173.03 75.709 173.3 75.709 173.57 75.655 174.11 75.655 174.6 75.601" fill="none"/>
	<polyline stroke="#574E4C" stroke-width=".216" stroke-miterlimit="10" points="234.91 75.545 235.13 75.545 235.4 75.601 235.94 75.601 236.21 75.653 236.48 75.653 236.7 75.708 237.24 75.708 237.51 75.761 237.78 75.761 238 75.817 238.54 75.817 238.81 75.87 239.08 75.87 239.35 75.924 239.57 75.924 239.84 75.978 240.38 75.978 240.65 76.033 240.86 76.033 241.14 76.088 241.41 76.088 241.68 76.14 241.95 76.14 242.22 76.194 242.44 76.194 242.71 76.249 243.25 76.249 243.52 76.304 243.74 76.304 244.01 76.357 244.28 76.357 244.55 76.412 244.82 76.412 245.04 76.465 245.3 76.465 245.58 76.52 245.85 76.52 246.12 76.573 246.39 76.573 246.6 76.628 246.88 76.628 247.14 76.682 247.42 76.682 247.69 76.736 247.9 76.791 248.18 76.791 248.44 76.845 248.72 76.845 248.99 76.899 249.2 76.899 249.48 76.953 249.75 76.953 250.02 77.007 250.29 77.062 250.5 77.062 250.78 77.115 251.04 77.115 251.31 77.169 251.59 77.169 251.8 77.223 252.07 77.278 252.34 77.278 252.61 77.332 252.88 77.332 253.1 77.386 253.37 77.442 253.64 77.442 253.91 77.495 254.18 77.495 254.4 77.549 254.67 77.602 254.94 77.602 255.22 77.656 255.48 77.656 255.7 77.711 255.97 77.765 256.24 77.765 256.51 77.819 256.78 77.873 257 77.873 257.27 77.927 257.54 77.982 257.81 77.982 258.08 78.036 258.3 78.09 258.57 78.09 258.84 78.145 259.11 78.197 259.33 78.197 259.6 78.252 259.87 78.307 260.14 78.307 260.63 78.414" fill="none"/>
	<polyline stroke="#574E4C" stroke-width=".216" stroke-miterlimit="10" points="145.15 78.631 145.1 78.631 145.04 78.687 144.77 78.687 144.72 78.74 144.39 78.74 144.39 78.794 144.07 78.794 144.07 78.847 143.74 78.847 143.74 78.903 143.53 78.903" fill="none"/>
	<polyline stroke="#574E4C" stroke-width=".216" stroke-miterlimit="10" points="265.99 78.794 265.77 78.794 265.77 78.741 265.44 78.741 265.44 78.687 265.12 78.687 265.12 78.632 264.8 78.632 264.8 78.577 264.42 78.577 264.42 78.523 264.36 78.523" fill="none"/>
	<polyline stroke="#574E4C" stroke-width=".216" stroke-miterlimit="10" points="263.71 78.794 263.82 78.794 263.82 78.741 264.09 78.741 264.14 78.741 264.14 78.687 264.31 78.687 264.31 78.632 264.36 78.632 264.36 78.577" fill="none"/>
	<polyline stroke="#574E4C" stroke-width=".216" stroke-miterlimit="10" points="145.8 78.903 146.12 78.903 146.12 78.848 146.18 78.848 146.72 78.848 146.72 78.795 147.21 78.795 147.21 78.741 147.59 78.741 147.64 78.687 148.02 78.687 148.02 78.632 148.4 78.632 148.4 78.577 148.61 78.577 148.72 78.577 148.72 78.524 148.83 78.524 149.97 78.361 151.05 78.197 152.19 78.037 153.32 77.874 154.46 77.765 155.54 77.603 156.68 77.442 157.82 77.332 158.96 77.17 160.09 77.062 161.18 76.9 163.45 76.683 164.58 76.52 166.86 76.304 167.94 76.196 171.35 75.871 172.49 75.817 174.76 75.601 175.85 75.546 176.98 75.438 178.12 75.382 179.26 75.275 180.39 75.22 181.53 75.113 189.49 74.733 190.57 74.679 191.71 74.626 192.85 74.626 193.98 74.572 195.12 74.572 196.26 74.517 197.39 74.517 198.53 74.464 200.75 74.464 201.89 74.408 208.71 74.408 209.84 74.464 212.12 74.464 213.26 74.517 214.39 74.517 215.53 74.572 216.67 74.572 217.75 74.626 220.02 74.733 221.16 74.733 223.43 74.842 226.84 75.004 227.98 75.113 230.26 75.22 231.39 75.33 232.53 75.382 233.61 75.491 234.75 75.546 237.02 75.762 238.16 75.817 239.3 75.925 241.57 76.141 242.65 76.249 246.06 76.574 247.2 76.736 248.34 76.845 249.42 76.954 250.56 77.116 251.69 77.223 252.83 77.387 253.97 77.496 255.05 77.657 257.32 77.983 258.46 78.09 260.68 78.415 260.74 78.415 260.74 78.468 260.9 78.468 261.01 78.468 261.06 78.524 261.44 78.524 261.44 78.577 261.82 78.577 261.87 78.632 262.25 78.632 262.31 78.687 262.68 78.687 262.74 78.741 263.33 78.741 263.39 78.795 263.71 78.795" fill="none"/>
	<polyline stroke="#574E4C" stroke-width=".216" stroke-miterlimit="10" points="265.99 78.794 266.1 78.794 266.1 78.848 266.31 78.848 266.31 78.903 266.47 78.903 266.53 78.957 266.64 78.957 266.64 79.01 266.74 79.01 266.74 79.066 266.85 79.066 266.85 79.119 266.91 79.119 266.96 79.174 267.02 79.174 267.02 79.228 267.07 79.228 267.12 79.282 267.18 79.282 267.18 79.337 267.23 79.337 267.23 79.39 267.29 79.39 267.29 79.442 267.34 79.442 267.4 79.499 267.4 79.551 267.45 79.551 267.5 79.606 267.5 79.66 267.56 79.66 267.56 79.715 267.61 79.715 267.61 79.77 267.66 79.822 267.66 79.877 267.72 79.877 267.72 79.931 267.77 79.931 267.77 79.986" fill="none"/>
	<polyline stroke="#574E4C" stroke-width=".216" stroke-miterlimit="10" points="145.15 78.687 145.15 78.741 145.26 78.741 145.26 78.795 145.42 78.795 145.42 78.848 145.69 78.848 145.74 78.848 145.74 78.904 145.8 78.904" fill="none"/>
	<polyline stroke="#574E4C" stroke-width=".216" stroke-miterlimit="10" points="141.74 80.095 141.79 80.039 141.79 79.986 141.85 79.986 141.85 79.932 141.9 79.878 141.9 79.824 141.96 79.824 141.96 79.77 142.01 79.77 142.01 79.716 142.06 79.716 142.06 79.661 142.12 79.661 142.12 79.607 142.17 79.607 142.17 79.553 142.23 79.553 142.23 79.499 142.28 79.499 142.28 79.444 142.33 79.444 142.33 79.391 142.39 79.391 142.44 79.337 142.5 79.337 142.5 79.282 142.55 79.282 142.6 79.228 142.66 79.228 142.66 79.174 142.77 79.174 142.77 79.12 142.88 79.12 142.93 79.066 142.98 79.066 143.04 79.012 143.2 79.012 143.2 78.957 143.42 78.957 143.42 78.905 143.53 78.905" fill="none"/>
	<polyline stroke="#574E4C" stroke-width=".216" stroke-miterlimit="10" points="141.74 80.095 141.74 80.149 141.68 80.149 141.68 80.257 141.63 80.257 141.63 80.365 141.58 80.365 141.58 80.472 141.52 80.472 141.52 80.635 141.47 80.635 141.47 80.798 141.41 80.798 141.41 81.068 141.36 81.068 141.36 81.232 141.36 81.448" fill="none"/>
	<polyline stroke="#574E4C" stroke-width=".216" stroke-miterlimit="10" points="268.15 81.34 268.15 81.178 268.15 80.961 268.1 80.906 268.1 80.691 268.04 80.691 268.04 80.528 267.99 80.473 267.99 80.365 267.94 80.365 267.94 80.257 267.88 80.257 267.88 80.15 267.83 80.095 267.83 80.04 267.77 80.04 267.77 79.986" fill="none"/>
	<polyline stroke="#574E4C" stroke-width=".216" stroke-miterlimit="10" points="267.56 81.611 267.56 81.178 267.5 81.178 267.5 80.961 267.45 80.906 267.45 80.745 267.4 80.691 267.4 80.582 267.34 80.582 267.34 80.473 267.29 80.42 267.29 80.365 267.23 80.312 267.23 80.257 267.18 80.257 267.18 80.15 267.12 80.15 267.12 80.095 267.07 80.04 267.02 79.986 267.02 79.933 266.96 79.933 266.96 79.879 266.91 79.879 266.91 79.824 266.85 79.824 266.85 79.77 266.8 79.77 266.8 79.716 266.74 79.716 266.74 79.662 266.69 79.662 266.69 79.607 266.64 79.607 266.64 79.553 266.58 79.553 266.53 79.5 266.47 79.444 266.42 79.444 266.42 79.391 266.37 79.391 266.31 79.338 266.26 79.338 266.2 79.283 266.15 79.283 266.1 79.228 266.04 79.228 266.04 79.174 265.88 79.174 265.82 79.12 265.72 79.12 265.72 79.066 265.5 79.066 265.44 79.012" fill="none"/>
	<polyline stroke="#574E4C" stroke-width=".216" stroke-miterlimit="10" points="267.56 81.611 267.56 81.557 267.88 81.557 267.88 81.502 268.04 81.502 268.04 81.448 268.1 81.448 268.15 81.394 268.15 81.34" fill="none"/>
	<polyline stroke="#574E4C" stroke-width=".216" stroke-miterlimit="10" points="168.92 446.94 168.97 446.99 169.02 446.99 169.02 447.05 169.13 447.05 169.13 447.1 169.3 447.1 169.3 447.16 169.46 447.16 170.16 447.32 170.86 447.37 171.57 447.42 172.27 447.48 173.03 447.53 173.73 447.59 174.44 447.64 175.14 447.7 175.85 447.7 176.55 447.75 177.31 447.8 178.01 447.8 178.71 447.86 180.12 447.86 180.88 447.91 181.58 447.91 182.29 447.97 183.7 447.97 184.46 448.02 185.86 448.02 186.57 448.08 188.73 448.08 189.44 448.13 192.3 448.13 193.01 448.18 197.99 448.18 198.75 448.24 210.82 448.24 211.52 448.18 216.5 448.18 217.26 448.13 220.08 448.13 220.84 448.08 222.95 448.08 223.65 448.02 225.11 448.02 225.81 447.97 227.22 447.97 227.98 447.91 228.69 447.91 229.39 447.86 230.8 447.86 231.55 447.8 232.26 447.8 232.96 447.75 233.67 447.7 234.37 447.7 235.07 447.64 235.83 447.59 236.54 447.53 237.24 447.48 237.94 447.42 238.64 447.37 239.35 447.26 240.05 447.16 240.22 447.16 240.22 447.1 240.38 447.1 240.38 447.05 240.49 447.05 240.49 446.99 240.6 446.99 240.6 446.94" fill="none"/>
	<polyline stroke="#574E4C" stroke-width=".216" stroke-miterlimit="10" points="144.07 79.121 144.01 79.175 143.8 79.175 143.8 79.229 143.69 79.229 143.63 79.284 143.53 79.284 143.47 79.338 143.42 79.338 143.36 79.392 143.31 79.392 143.25 79.445 143.2 79.445 143.2 79.5 143.09 79.5 143.09 79.554 143.04 79.554 142.98 79.608 142.93 79.663 142.88 79.663 142.88 79.717 142.82 79.717 142.82 79.771 142.77 79.771 142.77 79.825 142.71 79.825 142.71 79.879 142.66 79.879 142.66 79.933 142.6 79.933 142.6 79.987 142.55 79.987 142.55 80.04 142.5 80.096 142.44 80.15 142.44 80.204 142.39 80.204 142.39 80.258 142.33 80.258 142.33 80.366 142.28 80.366 142.28 80.42 142.23 80.474 142.23 80.583 142.17 80.583 142.17 80.691 142.12 80.746 142.12 80.853 142.06 80.853 142.06 81.016 142.01 81.069 142.01 81.341 141.96 81.395 141.96 81.72" fill="none"/>
	<polyline stroke="#574E4C" stroke-width=".216" stroke-miterlimit="10" points="149.1 81.179 148.88 81.179 148.83 81.233 148.29 81.233 148.24 81.287 147.75 81.287 147.64 81.341 147.21 81.341 147.15 81.395 146.56 81.395 146.5 81.449 146.02 81.449 145.91 81.503 145.36 81.503 145.26 81.557 144.72 81.557 144.61 81.612 143.9 81.612 143.85 81.665 142.93 81.665 142.82 81.72 141.96 81.72" fill="none"/>
	<polyline stroke="#574E4C" stroke-width=".216" stroke-miterlimit="10" points="148.83 78.634 148.83 78.797 148.83 79.121 148.83 79.284 148.88 79.284 148.88 79.771 148.94 79.771 148.94 80.204 148.99 80.258 148.99 80.636 149.05 80.636 149.05 81.016 149.1 81.016 149.1 81.179" fill="none"/>
	<polyline stroke="#574E4C" stroke-width=".216" stroke-miterlimit="10" points="162.69 276.84 162.64 277.22 162.64 279.87 162.69 280.25 162.69 281 162.74 281.38 162.74 282.09 162.8 282.47 162.8 282.84 162.85 283.22 162.85 283.6 162.91 283.98 162.91 284.36 162.96 284.74 162.96 285.12 163.01 285.5 163.07 285.88 163.07 286.26 163.12 286.63 163.18 287.01 163.18 287.39 163.23 287.77 163.29 288.15 163.34 288.53 163.34 288.91 163.39 289.29 163.45 289.61 163.5 289.99 163.56 290.37 163.61 290.75 163.61 291.13 163.66 291.51 163.72 291.89 163.77 292.26 163.83 292.64 163.88 293.02 163.94 293.4 163.99 293.78 164.04 294.1 164.1 294.48 164.15 294.86 164.21 295.24 164.26 295.62 164.32 296 164.37 296.38 164.48 296.76 164.53 297.14 164.58 297.46 164.64 297.84 164.69 298.22 164.75 298.6 164.86 298.98 164.91 299.36 164.96 299.74 165.02 300.12 165.07 300.44 165.18 300.82 165.23 301.2 165.29 301.58 165.4 301.96 165.45 302.34 165.5 302.71 165.61 303.04 165.67 303.42 165.78 303.8 165.83 304.18 165.94 304.55 165.99 304.93 166.1 305.26 166.16 305.64 166.26 306.02 166.32 306.4 166.42 306.77 166.48 307.1 166.59 307.48 166.7 307.86 166.8 308.24 166.86 308.56 166.97 308.94 167.08 309.32 167.18 309.7 167.29 310.02 167.34 310.4 167.45 310.78 167.56 311.1 167.72 311.48 167.84 311.86 167.94 312.19 168.05 312.57 168.16 312.95 168.43 313.65" fill="none"/>
	<polyline stroke="#574E4C" stroke-width=".216" stroke-miterlimit="10" points="241.08 313.65 241.19 313.27 241.35 312.95 241.57 312.19 241.68 311.86 241.84 311.48 241.95 311.1 242.06 310.78 242.16 310.4 242.27 310.02 242.33 309.7 242.44 309.32 242.54 308.94 242.65 308.56 242.76 308.24 242.82 307.86 242.92 307.48 243.03 307.1 243.09 306.77 243.19 306.4 243.25 306.02 243.35 305.64 243.41 305.26 243.52 304.93 243.57 304.55 243.68 304.17 243.74 303.8 243.84 303.42 243.9 303.04 244.01 302.71 244.06 302.34 244.11 301.96 244.22 301.58 244.28 301.2 244.33 300.82 244.44 300.44 244.49 300.12 244.6 299.36 244.71 298.98 244.76 298.6 244.82 298.22 244.87 297.84 244.93 297.46 244.98 297.14 245.09 296.76 245.14 296.38 245.2 296 245.25 295.62 245.3 295.24 245.36 294.86 245.41 294.48 245.47 294.1 245.52 293.78 245.58 293.4 245.63 293.02 245.68 292.64 245.74 292.26 245.79 291.88 245.85 291.51 245.9 291.13 245.96 290.75 245.96 290.37 246.01 289.99 246.06 289.61 246.12 289.29 246.17 288.91 246.17 288.53 246.23 288.15 246.28 287.77 246.33 287.39 246.33 287.01 246.39 286.63 246.44 286.26 246.44 285.88 246.5 285.5 246.55 285.12 246.55 284.74 246.6 284.36 246.6 283.98 246.66 283.6 246.66 283.22 246.71 282.84 246.71 282.47 246.77 282.09 246.77 281.76 246.82 281.38 246.82 280.25 246.88 279.87 246.88 277.59 246.82 276.84" fill="none"/>
	<polyline stroke="#574E4C" stroke-width=".216" stroke-miterlimit="10" points="267.56 81.611 267.45 88.486 267.29 95.363 267.12 102.29 266.96 109.17 266.74 116.04 266.53 122.92 266.26 129.85 265.93 136.72 265.66 143.6 265.28 150.48 264.9 157.35 264.52 164.28 264.09 171.16 263.66 178.03 263.17 184.91 262.63 191.78 262.09 198.66 261.49 205.54 260.84 212.36 260.19 219.23 259.49 226.11 258.73 232.98 257.98 239.8 257.16 246.68 256.3 253.5 255.43 260.32 254.51 267.14 253.48 273.91 252.45 280.73 251.37 287.55 250.23 294.38 249.04 301.14 247.8 307.91 246.44 314.68 245.09 321.44 243.57 328.16 242.06 334.92 240.43 341.58 238.7 348.3 236.86 354.9 234.86 361.51 232.74 368.11 230.47 374.61 227.98 381 225.17 387.33 222.03 393.45 218.4 399.3 213.9 404.55 208.17 408.28 201.4 408.28 195.66 404.6 191.22 399.4 187.54 393.56 184.4 387.44 181.58 381.1 179.1 374.72 176.82 368.17 174.66 361.62 172.71 355.01 170.86 348.35 169.13 341.69 167.51 335.03 165.94 328.27 164.48 321.55 163.07 314.79 161.77 308.02 160.47 301.25 159.28 294.48 158.14 287.66 157.06 280.84 156.03 274.02 155.06 267.25 154.14 260.43 153.22 253.61 152.35 246.79 151.54 239.91 150.78 233.09 150.02 226.22 149.32 219.34 148.67 212.46 148.07 205.64 147.48 198.77 146.88 191.89 146.4 185.02 145.91 178.14 145.42 171.26 144.99 164.39 144.61 157.46 144.23 150.58 143.9 143.71 143.58 136.83 143.26 129.96 143.04 123.03 142.77 116.15 142.55 109.28 142.39 102.34 142.23 95.47 142.06 88.595 141.96 81.72" fill="none"/>
	<polyline stroke="#574E4C" stroke-width=".216" stroke-miterlimit="10" points="163.02 276.84 163.02 271.2 163.07 271.15 163.07 269.8" fill="none"/>
	<polyline stroke="#574E4C" stroke-width=".216" stroke-miterlimit="10" points="246.44 269.8 246.44 270.94 246.5 270.99 246.5 276.84" fill="none"/>
	<polyline stroke="#574E4C" stroke-width=".216" stroke-miterlimit="10" points="240.76 313.54 240.76 313.7 240.7 313.7 240.7 313.86 240.65 313.86 240.65 314.03 240.6 314.03 240.6 314.19 240.54 314.19 240.54 314.3 240.49 314.35" fill="none"/>
	<polyline stroke="#574E4C" stroke-width=".216" stroke-miterlimit="10" points="169.02 314.35 169.02 314.3 168.97 314.3 168.97 314.14 168.92 314.14 168.92 314.03 168.86 313.97 168.86 313.87 168.81 313.81 168.81 313.65 168.75 313.65 168.75 313.54 168.64 313.16 168.54 312.84 168.43 312.46 168.32 312.08 168.21 311.75 168.1 311.38 168 311 167.89 310.62 167.84 310.29 167.72 309.91 167.67 309.54 167.56 309.16 167.45 308.83 167.4 308.45 167.29 308.07 167.24 307.69 167.13 307.37 167.08 306.99 166.97 306.61 166.91 306.23 166.8 305.85 166.75 305.53 166.7 305.15 166.59 304.77 166.53 304.39 166.48 304.01 166.37 303.63 166.32 303.31 166.26 302.93 166.16 302.55 166.1 302.17 166.05 301.79 165.94 301.47 165.88 301.09 165.83 300.71 165.78 300.33 165.72 299.95 165.61 299.57 165.56 299.25 165.5 298.87 165.45 298.49 165.4 298.11 165.34 297.73 165.23 297.35 165.18 296.97 165.13 296.65 165.07 296.27 165.02 295.89 164.96 295.51 164.91 295.13 164.86 294.75 164.75 294 164.69 293.67 164.64 293.29 164.58 292.91 164.53 292.54 164.48 292.16 164.42 291.78 164.37 291.4 164.32 291.02 164.26 290.69 164.21 290.32 164.15 289.94 164.1 289.56 164.1 289.18 164.04 288.8 163.99 288.42 163.94 288.04 163.88 287.66 163.83 287.34 163.83 286.96 163.77 286.58 163.72 286.2 163.66 285.82 163.61 285.44 163.61 285.06 163.56 284.68 163.5 284.31 163.5 283.93 163.45 283.55 163.39 283.22 163.39 282.84 163.29 282.09 163.29 281.71 163.23 281.33 163.23 280.95 163.18 280.57 163.18 280.19 163.12 279.81 163.12 279.43 163.07 279.06 163.07 278.35 163.01 277.97 163.01 276.84" fill="none"/>
	<polyline stroke="#574E4C" stroke-width=".216" stroke-miterlimit="10" points="162.74 269.8 162.74 270.66 162.69 270.72 162.69 273.42 162.64 273.48 162.64 276.24 162.69 276.35 162.69 276.84 162.42 274.88 162.15 272.88 161.88 270.94 161.61 268.99 161.34 267.04 161.12 265.09 160.85 263.14 160.63 261.13 160.36 259.19 160.15 257.24 159.88 255.23 159.66 253.29 159.44 251.34 159.22 249.33 158.96 247.38 158.74 245.38 158.52 243.43 158.3 241.48 158.09 239.48 157.93 237.53 157.71 235.53 157.49 233.58 157.28 231.58 157.11 229.63 156.9 227.68 156.74 225.68 156.52 223.73 156.36 221.72 156.14 219.77 155.98 217.77 155.81 215.82 155.6 213.82 155.44 211.87 155.27 209.87 155.11 207.92 154.95 205.92 154.78 203.96 154.62 201.96 154.46 200.01 154.3 198.01 154.14 196.06 153.97 194.06 153.87 192.11 153.7 190.11 153.54 188.16 153.43 186.15 153.27 184.2 153.16 182.2 153 180.25 152.89 178.25 152.78 176.24 152.62 174.3 152.51 172.29 152.4 170.35 152.3 168.34 152.13 166.39 152.02 164.39 151.92 162.44 151.81 160.44 151.7 158.44 151.59 156.48 151.48 154.48 151.38 152.53 151.32 150.53 151.21 148.58 151.1 146.58 151 144.58 150.94 142.63 150.83 140.62 150.78 138.67 150.67 136.67 150.56 134.67 150.51 132.72 150.46 130.72 150.35 128.77 150.29 126.76 150.18 124.76 150.13 122.81 150.08 120.81 150.02 118.86 149.91 116.86 149.86 114.85 149.81 112.9 149.75 110.9 149.7 108.95 149.64 106.95 149.59 104.95 149.53 103 149.48 100.99 149.43 99.045 149.37 97.042 149.37 95.038 149.32 93.089 149.26 91.085 149.21 89.082 149.21 87.134 149.16 85.129 149.16 83.181 149.1 81.18 150.24 81.017 151.32 80.853 152.46 80.692 153.59 80.53 154.68 80.421 155.81 80.258 156.95 80.097 158.03 79.988 159.17 79.825 160.31 79.717 161.39 79.554 162.53 79.444 163.66 79.339 164.8 79.23 165.88 79.121 167.02 78.959 168.16 78.85 169.3 78.743 170.38 78.689 173.79 78.364 174.87 78.309 176.01 78.201 177.14 78.093 179.42 77.985 180.5 77.876 182.78 77.767 183.91 77.66 185.05 77.605 186.19 77.551 187.27 77.498 188.41 77.444 189.54 77.444 190.68 77.389 192.96 77.28 194.04 77.28 195.18 77.227 196.31 77.227 197.45 77.171 198.58 77.171 199.67 77.119 209.79 77.119 210.93 77.171 213.2 77.171 214.34 77.227 215.48 77.227 216.56 77.28 217.7 77.335 218.83 77.335 222.24 77.498 223.33 77.551 225.6 77.66 226.74 77.714 227.87 77.767 229.01 77.822 230.09 77.931 231.23 77.985 232.37 78.093 233.5 78.147 234.64 78.254 235.72 78.309 236.86 78.418 238 78.525 239.13 78.58 240.22 78.689 241.35 78.796 242.49 78.905 243.63 79.012 244.71 79.121 245.85 79.283 248.12 79.501 249.2 79.608 250.34 79.772 251.48 79.879 252.61 80.041 253.7 80.15 254.83 80.313 255.97 80.473 257.05 80.637 258.19 80.746 260.41 81.069 260.41 83.074 260.36 85.022 260.3 87.025 260.3 89.029 260.25 90.978 260.19 92.981 260.19 94.983 260.14 96.933 260.09 98.936 260.03 100.94 259.98 102.89 259.92 104.89 259.87 106.84 259.82 108.84 259.76 110.85 259.71 112.8 259.65 114.8 259.6 116.8 259.54 118.75 259.44 120.75 259.38 122.7 259.33 124.71 259.22 126.71 259.16 128.66 259.11 130.66 259 132.61 258.95 134.61 258.84 136.62 258.79 138.56 258.68 140.57 258.57 142.57 258.52 144.52 258.41 146.52 258.3 148.47 258.24 150.48 258.14 152.48 258.03 154.43 257.92 156.43 257.81 158.38 257.7 160.38 257.6 162.33 257.48 164.34 257.38 166.34 257.27 168.29 257.11 170.29 257 172.24 256.89 174.24 256.78 176.24 256.62 178.2 256.51 180.2 256.35 182.15 256.24 184.15 256.08 186.1 255.97 188.1 255.81 190.05 255.65 192.06 255.54 194 255.38 196.01 255.22 198.01 255.05 199.96 254.89 201.96 254.72 203.91 254.56 205.92 254.4 207.86 254.24 209.87 254.08 211.81 253.91 213.82 253.75 215.77 253.53 217.77 253.37 219.72 253.21 221.72 252.99 223.67 252.83 225.68 252.61 227.62 252.4 229.63 252.23 231.58 252.02 233.52 251.8 235.53 251.64 237.48 251.42 239.48 251.21 241.43 250.99 243.43 250.78 245.38 250.56 247.33 250.34 249.33 250.07 251.28 249.85 253.29 249.64 255.23 249.37 257.18 249.15 259.19 248.93 261.13 248.66 263.14 248.39 265.09 248.18 267.04 247.9 268.99 247.63 270.94 247.36 272.88 246.82 276.84 246.88 276.78 246.88 273.04 246.82 272.99 246.82 270.56 246.77 270.5 246.77 269.8 246.28 269.09 245.52 268.72 244.71 268.39 243.9 268.17 243.03 268.01 242.22 267.79 241.35 267.69 240.49 267.52 239.62 267.41 238.75 267.25 237.94 267.2 237.08 267.09 236.21 266.98 235.34 266.93 234.48 266.82 233.61 266.77 232.74 266.66 231.88 266.6 231.01 266.5 230.15 266.44 229.33 266.33 228.47 266.28 227.6 266.17 226.74 266.06 225.87 266.01 225 265.9 224.14 265.79 223.27 265.74 222.4 265.63 221.54 265.52 220.73 265.41 219.86 265.36 218.99 265.25 218.13 265.2 217.26 265.09 216.4 265.03 215.53 264.92 214.66 264.87 213.8 264.82 212.93 264.71 212.06 264.66 211.2 264.6 210.33 264.6 209.47 264.55 208.6 264.49 207.79 264.49 206.92 264.44 203.46 264.44 202.59 264.49 201.72 264.49 200.86 264.55 199.99 264.55 199.13 264.6 198.31 264.66 197.45 264.71 196.58 264.76 195.72 264.87 194.85 264.92 193.98 264.98 193.12 265.09 192.25 265.14 191.38 265.25 190.52 265.3 189.71 265.41 188.84 265.52 187.97 265.57 187.11 265.68 186.24 265.79 185.38 265.84 184.51 265.95 183.64 266.06 182.78 266.12 181.91 266.22 181.1 266.28 180.23 266.39 179.37 266.44 178.5 266.55 177.63 266.6 176.76 266.71 175.9 266.77 175.03 266.82 174.17 266.93 173.3 266.98 172.43 267.09 171.57 267.2 170.76 267.25 169.89 267.41 169.02 267.52 168.16 267.69 167.29 267.79 166.48 268.01 165.61 268.17 164.8 268.39 163.99 268.72 162.74 269.8" fill="none"/>
	<polyline stroke="#574E4C" stroke-width=".216" stroke-miterlimit="10" points="260.68 78.525 260.68 78.689 260.68 79.013 260.68 79.23 260.63 79.23 260.63 79.717 260.57 79.717 260.57 80.15 260.52 80.15 260.52 80.584 260.46 80.584 260.46 80.963 260.41 80.963 260.41 81.069" fill="none"/>
	<polyline stroke="#574E4C" stroke-width=".216" stroke-miterlimit="10" points="267.56 81.611 266.64 81.611 266.53 81.558 265.61 81.558 265.55 81.503 264.9 81.503 264.8 81.449 264.14 81.449 264.09 81.395 263.5 81.395 263.44 81.34 262.95 81.34 262.85 81.287 262.31 81.287 262.2 81.233 261.71 81.233 261.66 81.179 261.22 81.179 261.11 81.124 260.63 81.124 260.57 81.069 260.41 81.069" fill="none"/>
		<line y2="269.8" x1="246.44" x2="246.77" stroke="#574E4C" stroke-miterlimit="10" y1="269.8" stroke-width=".216" fill="none"/>
	<polyline stroke="#574E4C" stroke-width=".216" stroke-miterlimit="10" points="246.44 269.8 245.68 269.53 244.82 269.36 244.01 269.31 243.14 269.2 242.33 269.15 241.46 269.09 240.65 269.04 239.78 268.99 238.92 268.93 238.1 268.88 237.24 268.88 236.43 268.82 235.56 268.82 234.7 268.77 233.88 268.77 233.02 268.72 232.2 268.72 231.34 268.66 227.12 268.66 226.25 268.6 181.58 268.6 180.72 268.66 178.18 268.66 177.36 268.72 176.5 268.72 175.63 268.77 174.82 268.77 173.95 268.82 173.14 268.82 172.27 268.88 171.41 268.88 170.59 268.93 169.73 268.99 168.92 269.04 168.05 269.09 167.18 269.15 166.37 269.2 165.51 269.31 164.69 269.36 163.07 269.8 162.74 269.8" fill="none"/>
	<polyline stroke="#574E4C" stroke-width=".216" stroke-miterlimit="10" points="246.44 269.8 241.35 269.8 240.54 269.74 229.6 269.74 228.74 269.69 180.77 269.69 179.91 269.74 168.97 269.74 168.16 269.8 163.07 269.8" fill="none"/>
	<polyline stroke="#574E4C" stroke-width=".216" stroke-miterlimit="10" points="240.76 313.54 240.86 313.16 241.03 312.84 241.08 312.46 241.19 312.08 241.3 311.75 241.41 311.38 241.52 311 241.62 310.62 241.68 310.29 241.79 309.91 241.89 309.53 241.95 309.16 242.06 308.83 242.11 308.45 242.22 308.07 242.27 307.69 242.38 307.37 242.44 306.99 242.54 306.61 242.6 306.23 242.71 305.85 242.76 305.53 242.82 305.15 242.92 304.77 242.98 304.39 243.09 304.01 243.14 303.63 243.19 303.31 243.3 302.93 243.35 302.55 243.41 302.17 243.46 301.79 243.57 301.47 243.63 301.09 243.68 300.71 243.74 300.33 243.79 299.95 243.9 299.57 243.95 299.25 244.01 298.87 244.06 298.49 244.11 298.11 244.17 297.73 244.28 297.35 244.33 296.97 244.38 296.65 244.44 296.27 244.49 295.89 244.6 295.13 244.66 294.75 244.71 294.38 244.76 294 244.82 293.67 244.87 293.29 244.93 292.91 244.98 292.54 245.04 292.16 245.09 291.78 245.14 291.4 245.2 291.02 245.25 290.69 245.3 290.31 245.36 289.94 245.41 289.56 245.47 289.18 245.47 288.8 245.52 288.42 245.58 288.04 245.63 287.66 245.68 287.34 245.74 286.96 245.74 286.58 245.79 286.2 245.85 285.82 245.9 285.44 245.9 285.06 245.96 284.68 246.01 284.31 246.01 283.93 246.06 283.55 246.12 283.22 246.12 282.84 246.17 282.46 246.23 282.09 246.23 281.71 246.28 281.33 246.28 280.95 246.33 280.57 246.33 280.19 246.39 279.81 246.39 279.43 246.44 279.05 246.44 278.35 246.5 277.97 246.5 276.84" fill="none"/>
	<polyline stroke="#574E4C" stroke-width=".216" stroke-miterlimit="10" points="168.43 313.65 168.48 313.65 168.48 313.81 168.54 313.81 168.54 313.97 168.59 313.97 168.59 314.14 168.64 314.14 168.64 314.3 168.7 314.3 168.7 314.41 168.75 314.46 169.24 315 169.89 315.33 171.3 315.76 172.06 315.92 172.76 316.03 173.46 316.19 174.22 316.3 174.93 316.41 175.68 316.46 176.44 316.57 177.15 316.63 177.9 316.74 178.61 316.79 179.37 316.84 180.07 316.9 180.83 316.95 181.58 317 182.29 317.06 183.05 317.11 183.75 317.11 185.27 317.22 185.97 317.22 186.73 317.28 187.43 317.28 188.19 317.33 188.95 317.33 189.65 317.38 191.11 317.38 191.87 317.44 193.33 317.44 194.09 317.49 197.01 317.49 197.77 317.55 211.74 317.55 212.5 317.49 215.42 317.49 216.18 317.44 217.64 317.44 218.4 317.38 219.86 317.38 220.56 317.33 221.32 317.33 222.08 317.28 222.78 317.28 223.54 317.22 224.3 317.22 225 317.17 225.76 317.11 226.46 317.11 227.98 317 228.69 316.95 229.44 316.9 230.15 316.84 230.9 316.79 231.61 316.74 232.37 316.63 233.12 316.57 233.83 316.46 234.59 316.41 235.29 316.3 236.05 316.19 236.75 316.03 237.46 315.92 238.21 315.76 238.92 315.54 239.62 315.33 240.27 315 240.76 314.46 240.81 314.46 240.81 314.3 240.86 314.3 240.86 314.14 240.92 314.14 240.92 313.97 240.97 313.97 240.97 313.81 241.03 313.81 241.03 313.65 241.08 313.65 240.7 315.71 240.32 317.76 239.94 319.82 239.51 321.88 239.13 323.99 238.75 326.05 238.32 328.1 237.89 330.16 237.51 332.22 237.08 334.28 236.59 336.33 236.16 338.39 235.72 340.45 235.23 342.5 234.8 344.56 234.32 346.62 233.83 348.68 233.34 350.68 232.8 352.74 232.31 354.79 231.77 356.8 231.23 358.85 230.69 360.91 230.15 362.92 229.55 364.92 228.96 366.98 228.36 368.98 227.76 370.98 227.12 372.98 225.81 376.99 225.11 378.99 224.41 380.94 223.65 382.95 222.89 384.9 222.14 386.84 221.27 388.79 220.4 390.69 219.54 392.58 218.56 394.48 217.59 396.32 216.5 398.16 215.37 399.89 214.12 401.62 212.77 403.25 211.31 404.71 209.63 406.01 207.79 407.04 205.78 407.63 203.67 407.63 201.67 407.04 199.83 406.01 198.2 404.71 196.74 403.25 195.39 401.62 194.15 399.89 193.01 398.16 191.92 396.32 190.95 394.48 189.98 392.58 189.11 390.69 188.24 388.79 187.43 386.84 186.62 384.9 185.86 382.95 185.1 380.94 184.4 378.99 183.7 376.99 183.05 374.99 182.4 372.98 181.75 370.98 180.56 366.98 179.96 364.92 179.37 362.92 178.82 360.91 178.28 358.85 177.74 356.8 177.2 354.79 176.71 352.74 176.17 350.68 175.68 348.68 174.71 344.56 174.28 342.5 173.79 340.45 173.36 338.39 172.92 336.33 172.49 334.28 172.06 332.22 171.62 330.16 171.19 328.1 170.76 326.05 170.38 323.99 170 321.88 169.62 319.82 169.19 317.76 168.43 313.65" fill="none"/>
	<polyline stroke="#574E4C" stroke-width=".216" stroke-miterlimit="10" points="169.03 314.35 169.73 314.57 170.43 314.68 171.13 314.73 171.84 314.84 172.6 314.84 174 314.95 174.76 315 175.47 315 176.23 315.06 176.93 315.06 177.63 315.11 179.1 315.11 179.8 315.16 181.96 315.16 182.72 315.22 185.59 315.22 186.35 315.27 191.38 315.27 192.14 315.33 217.37 315.33 218.13 315.27 223.16 315.27 223.92 315.22 226.79 315.22 227.55 315.16 229.72 315.16 230.42 315.11 231.88 315.11 232.58 315.06 233.34 315.06 234.04 315 234.75 315 235.51 314.95 236.92 314.84 237.67 314.84 238.38 314.73 239.08 314.68 240.49 314.35 240.49 314.41 240.65 314.41 240.65 314.46 240.76 314.46" fill="none"/>
	<polyline stroke="#574E4C" stroke-width=".216" stroke-miterlimit="10" points="168.76 314.46 168.86 314.46 168.86 314.41 169.03 314.41 169.03 314.35 179.85 314.35 180.56 314.3 228.96 314.3 229.66 314.35 240.49 314.35" fill="none"/>
	<polyline stroke="#574E4C" stroke-width=".216" stroke-miterlimit="10" points="265.99 78.796 266.04 78.796 266.04 78.85 265.99 78.85 265.99 78.905 265.93 78.959 265.77 78.959 265.77 79.012 265.45 79.012 265.45 79.068 265.12 79.068 265.06 79.012 264.42 79.012 264.36 78.959 264.31 78.959 263.88 78.959 263.88 78.905 263.39 78.905 263.39 78.85 263.28 78.85 262.96 78.85 262.96 78.796 262.52 78.796 262.52 78.743 262.14 78.743 262.09 78.689 261.71 78.689 261.71 78.634 261.33 78.634 261.33 78.58 260.95 78.58 260.95 78.525 260.9 78.525 260.84 78.525 260.68 78.525 259.54 78.364 258.41 78.201 257.32 78.038 255.05 77.714 253.91 77.606 252.83 77.444 251.69 77.335 250.56 77.171 249.42 77.064 248.28 76.902 247.2 76.793 244.93 76.577 243.79 76.415 241.52 76.197 240.38 76.09 239.3 76.035 238.16 75.928 237.02 75.819 235.89 75.71 234.75 75.657 233.61 75.548 232.48 75.494 231.34 75.386 230.2 75.332 229.12 75.223 217.75 74.681 216.61 74.681 215.48 74.628 214.39 74.628 213.26 74.574 212.12 74.574 210.98 74.52 199.61 74.52 198.53 74.574 196.26 74.574 193.98 74.681 192.9 74.681 190.63 74.79 189.49 74.79 183.81 75.062 182.67 75.17 180.4 75.277 179.26 75.386 178.18 75.439 177.04 75.494 175.9 75.603 174.76 75.71 173.63 75.765 169.08 76.197 168 76.306 162.31 76.848 161.23 77.009 160.09 77.119 158.96 77.28 157.82 77.389 156.68 77.551 155.6 77.66 152.19 78.147 151.1 78.309 149.97 78.472 148.83 78.634 148.67 78.634 148.51 78.634 148.51 78.689 148.13 78.689 148.13 78.743 147.75 78.743 147.75 78.796 147.37 78.796 147.32 78.85 146.94 78.85 146.94 78.905 146.56 78.905 146.5 78.959 146.23 78.959 146.07 78.959 146.07 79.012 145.64 79.012 145.64 79.068 145.2 79.068 145.1 79.068 145.1 79.121 144.39 79.121 144.39 79.176 144.07 79.176 144.07 79.121 143.74 79.121 143.74 79.068 143.58 79.068 143.53 79.012 143.53 78.959 143.47 78.959 143.47 78.905 143.53 78.905" fill="none"/>
	<polyline stroke="#574E4C" stroke-width=".216" stroke-miterlimit="10" points="141.36 81.448 141.36 81.502 141.42 81.502 141.42 81.557 141.47 81.557 141.47 81.611 141.63 81.611 141.68 81.664 141.96 81.664 141.96 81.72" fill="none"/>
	<polyline stroke="#574E4C" stroke-width=".216" stroke-miterlimit="10" points="260.57 78.796 260.9 78.796 260.95 78.85 261.33 78.85 261.33 78.905 261.76 78.905 261.76 78.959 262.2 78.959 262.25 79.012 262.96 79.012 263.01 78.58 261.87 78.309 260.68 78.038 258.3 77.606 257.11 77.389 255.92 77.171 254.73 76.956 253.53 76.793 252.34 76.577 251.15 76.415 247.58 75.928 246.34 75.765 245.14 75.603 243.95 75.439 242.76 75.332 241.57 75.17 240.33 75.062 239.14 74.899 237.94 74.79 235.56 74.574 234.32 74.465 230.74 74.141 229.5 74.032 228.31 73.978 227.12 73.87 225.87 73.816 224.68 73.707 223.49 73.654 222.24 73.6 221.05 73.546 219.86 73.49 218.67 73.437 217.42 73.383 216.23 73.33 215.04 73.33 213.8 73.275 212.61 73.22 210.17 73.22 208.98 73.167 200.48 73.167 199.29 73.22 198.15 73.22 196.91 73.275 195.72 73.275 194.52 73.33 193.28 73.383 192.09 73.383 190.9 73.437 189.65 73.49 188.46 73.546 187.27 73.654 186.08 73.707 184.83 73.762 183.64 73.816 182.45 73.924 181.21 74.032 180.02 74.087 177.63 74.304 176.39 74.412 172.81 74.736 171.57 74.844 170.38 74.952 169.19 75.116 168 75.223 166.75 75.386 165.56 75.494 160.8 76.144 159.6 76.306 158.41 76.469 157.17 76.684 155.98 76.848 153.6 77.28 152.4 77.444 151.27 77.66 150.02 77.931 148.83 78.147 147.69 78.418 146.5 78.689 146.56 79.121 147.21 79.121 147.26 79.068 147.69 79.068 147.75 79.012 148.13 79.012 148.18 78.959 148.51 78.959 148.56 78.905 148.88 78.905 148.94 78.85 150.02 78.689 151.16 78.58 153.44 78.254 154.52 78.093 155.65 77.931 156.79 77.822 157.93 77.66 159.01 77.551 160.15 77.389 161.28 77.28 162.42 77.119 163.5 77.009 164.64 76.902 168.05 76.577 169.19 76.469 170.27 76.36 171.41 76.253 172.55 76.144 173.68 76.035 174.82 75.982 175.96 75.873 177.04 75.765 179.31 75.657 180.45 75.548 182.72 75.439 183.86 75.332 185 75.277 186.08 75.223 189.49 75.062 190.63 75.062 192.9 74.952 194.04 74.952 195.18 74.899 196.31 74.899 197.45 74.844 198.53 74.844 199.61 74.79 210.98 74.79 212.07 74.844 213.2 74.844 214.34 74.899 215.48 74.899 216.61 74.952 217.75 74.952 223.44 75.223 224.52 75.277 225.65 75.332 226.79 75.386 229.06 75.494 230.2 75.603 231.34 75.657 232.48 75.765 233.56 75.819 234.7 75.928 235.83 75.982 238.11 76.197 239.24 76.306 240.38 76.36 241.46 76.469 242.6 76.577 243.74 76.684 244.87 76.848 246.01 76.956 247.09 77.064 248.23 77.171 249.37 77.335 250.51 77.444 251.64 77.606 252.72 77.714 253.86 77.877 255 77.985 256.14 78.147 257.22 78.309 258.35 78.472 259.49 78.634 260.57 78.796" fill="none"/>
		<line y2="78.526" x1="264.36" x2="264.36" stroke="#574E4C" stroke-miterlimit="10" y1="78.58" stroke-width=".216" fill="none"/>
		<line y2="446.94" x1="240.49" x2="240.6" stroke="#574E4C" stroke-miterlimit="10" y1="447.37" stroke-width=".216" fill="none"/>
	<path fill="#CCC9C9" clip-rule="evenodd" d="m183.04 187.18c-10.558 11.314-10.558 28.909 0 40.224l1.136-1.083c1.95-2.003 3.954-3.951 5.901-5.901-6.766-7.471-6.766-18.786 0-26.257v-0.054l-7.037-7.038" fill-rule="evenodd"/>
	<path fill="#CCC9C9" clip-rule="evenodd" d="m184.51 185.77l1.137 1.082c1.894 2.003 3.842 3.953 5.792 5.847 7.471-6.713 18.786-6.713 26.258 0 1.948-1.894 3.898-3.844 5.845-5.847l1.138-1.082v-0.109c-11.37-10.611-28.856-10.611-40.17 0" fill-rule="evenodd"/>
	<path fill="#CCC9C9" clip-rule="evenodd" d="m226.14 187.18l-1.192 1.136c-1.896 1.949-3.899 3.952-5.848 5.847 6.712 7.471 6.712 18.786 0 26.257 1.895 1.95 3.899 3.898 5.848 5.901l1.192 1.083c10.55-11.32 10.5-28.91 0-40.23" fill-rule="evenodd"/>
	<path fill="#CCC9C9" clip-rule="evenodd" d="m184.51 228.81c11.314 10.613 28.8 10.613 40.17 0v-0.054l-6.983-6.983v0.108c-7.472 6.659-18.787 6.659-26.258 0v-0.108l-6.929 6.983" fill-rule="evenodd"/>
	<path fill="#029A39" clip-rule="evenodd" d="m204.54 219.61c3.194 0 6.39-1.353 8.663-3.573 2.22-2.274 3.52-5.413 3.52-8.608 0-3.194-1.3-6.388-3.52-8.608-2.273-2.274-5.469-3.628-8.663-3.628-3.192 0-6.334 1.354-8.553 3.628-2.273 2.22-3.572 5.414-3.518 8.608 0 3.195 1.245 6.334 3.518 8.608 2.21 2.22 5.35 3.57 8.55 3.57" fill-rule="evenodd"/>
	<path stroke="#4E4442" stroke-width=".499" stroke-miterlimit="10" d="m234.58 207.16c0 16.62-13.427 30.1-30.049 30.1-16.511 0-29.991-13.48-29.991-30.1 0-16.567 13.48-30.048 29.991-30.048 16.63 0 30.05 13.48 30.05 30.05" fill="none"/>
	<path stroke="#4E4442" stroke-width=".499" stroke-miterlimit="10" d="m222.08 207.43c0 2.274-0.433 4.602-1.301 6.713-0.865 2.111-2.164 4.061-3.789 5.63-3.247 3.303-7.903 5.198-12.452 5.198-4.546 0-9.093-1.949-12.342-5.144-3.249-3.247-5.143-7.795-5.143-12.397 0-4.601 1.894-9.204 5.143-12.451 3.249-3.249 7.796-5.145 12.342-5.145 4.604 0 9.205 1.896 12.4 5.145 3.24 3.24 5.14 7.85 5.14 12.45" fill="none"/>
	<path stroke="#28211C" stroke-width=".499" stroke-miterlimit="10" d="m184.18 226.32c-9.961-10.774-9.961-27.339 0-38.005" fill="none"/>
	<path stroke="#28211C" stroke-width=".499" stroke-miterlimit="10" d="m185.64 186.86c10.665-9.907 27.177-9.907 37.895 0" fill="none"/>
	<path stroke="#28211C" stroke-width=".499" stroke-miterlimit="10" d="m224.95 188.32c9.961 10.666 9.961 27.231 0 38.005" fill="none"/>
	<path stroke="#28211C" stroke-width=".499" stroke-miterlimit="10" d="m223.54 227.73c-10.719 9.907-27.23 9.907-37.895 0" fill="none"/>
	<path fill="#FFFFFF" clip-rule="evenodd" d="m204.29 91.6v5.306c-0.055 0-0.107-0.055-0.107-0.055v-5.197c0-0.054 0.06-0.054 0.11-0.054m0 8.175c-1.624-0.164-2.816-1.516-2.816-3.195 0-0.865 0.327-1.678 0.921-2.327 0.054 0 0.054 0 0.054-0.055l-0.054-0.054-0.648-0.649h-0.055c-0.868 0.812-1.301 1.948-1.301 3.085 0 2.274 1.68 4.115 3.899 4.277v-1.085zm0.71 0h-0.272v1.082h0.272v-1.085zm0-8.175h-0.272v5.306h0.272v-5.306zm-0.55 9.26v-1.082h0.271v1.082h-0.27zm0-3.954h0.271v-5.306h-0.271v5.306zh-0.162v-5.306h0.162v5.306zm0.65 2.869v1.082h-0.107v-1.082c0.06-0.003 0.06-0.003 0.11-0.003zm-0.1-8.175h0.107v5.306h-0.107v-5.306zm-0.55 8.175h-0.162v1.082h0.162v-1.085zm0.65-2.869h0.108l0.054-0.055v-5.197c0-0.054-0.054-0.054-0.054-0.054h-0.108v5.306zm0 3.954v-1.082c1.623-0.164 2.923-1.516 2.923-3.195 0-0.865-0.378-1.678-0.974-2.327-0.053 0-0.053-0.055 0-0.109l0.651-0.649h0.053 0.054c0.811 0.812 1.243 1.948 1.243 3.085 0.01 2.271-1.72 4.117-3.94 4.277z" fill-rule="evenodd"/>
	<rect y="301.62" x="202.3" height="5.115" width="5.116" fill="#2B2523"/>
	<path fill="#2B2523" clip-rule="evenodd" d="m175.71 282.98l4.277 3.195v-6.389m-8.56 3.19l4.277-3.194v6.389l-4.28-3.2z" fill-rule="evenodd"/>
	<path fill="#2B2523" clip-rule="evenodd" d="m229.71 286.17l4.276-3.195-4.276-3.194m8.5 3.19l-4.223 3.195v-6.389l4.22 3.19z" fill-rule="evenodd"/>
	<polyline points="180.39 304.47 183.86 307.07 183.86 301.88" fill="#2B2523" clip-rule="evenodd" fill-rule="evenodd"/>
	<polyline points="176.87 304.47 180.39 301.88 180.39 307.07" fill="#2B2523" clip-rule="evenodd" fill-rule="evenodd"/>
	<polyline points="175.57 301.88 175.57 307.07 176.87 307.07 176.87 301.88" fill="#2B2523" clip-rule="evenodd" fill-rule="evenodd"/>
	<path fill="#2B2523" clip-rule="evenodd" d="m229.28 304.47l-3.466 2.6v-5.197m7.04 2.6l-3.573-2.597v5.197l3.57-2.6zm0-2.59h1.246v5.197h-1.246v-5.2z" fill-rule="evenodd"/>
	<polyline points="203.94 279.89 203.94 285.09 205.23 285.09 205.23 279.89" fill="#2B2523" clip-rule="evenodd" fill-rule="evenodd"/>
	<polyline points="205.82 279.89 205.82 285.09 207.13 285.09 207.13 279.89" fill="#2B2523" clip-rule="evenodd" fill-rule="evenodd"/>
	<polyline points="203.86 282.49 200.39 285.09 200.39 279.89" fill="#2B2523" clip-rule="evenodd" fill-rule="evenodd"/>
	<polyline points="170.19 103.97 170.4 103.75 170.84 103.32 171.27 102.89 171.75 102.4 172.24 101.91 172.68 101.48 172.68 99.261 172.24 99.693 171.75 100.13 171.27 100.56 170.84 100.94 170.4 101.37 170.35 101.43 168.83 101.43 168.83 103.97 170.19 103.97" fill="#2B2523"/>
	<polyline points="174.41 100.24 172.24 102.51 171.76 103 171.27 103.43 170.84 103.92 170.62 104.13 170.4 104.35 169.97 104.84 169.05 105.7 169.32 105.92 169.97 105.38 170.4 104.94 170.84 104.51 170.89 104.46 171.27 104.84 171.76 105.27 172.24 105.7 172.68 106.14 172.68 102.56 174.73 100.56 174.41 100.24" fill="#2B2523"/>
	<polyline points="204.59 232.01 206.11 229.96 203.08 229.96" fill="#28211C" clip-rule="evenodd" fill-rule="evenodd"/>
	<polyline points="204.59 182.79 203.08 184.85 206.11 184.85" fill="#28211C" clip-rule="evenodd" fill-rule="evenodd"/>
	<polyline points="229.39 207.46 227.38 205.9 227.38 208.93" fill="#28211C" clip-rule="evenodd" fill-rule="evenodd"/>
	<polyline points="179.79 207.41 181.8 208.87 181.8 205.84" fill="#28211C" clip-rule="evenodd" fill-rule="evenodd"/>
	<rect y="354.96" x="196.88" height="5.358" width="15.753" fill="#E8E7E6"/>
	<path fill="#CCC9C9" clip-rule="evenodd" d="m204.73 338.01c-4.332 0-7.851 3.466-7.851 7.797v9.15h15.753v-9.15c0.01-4.33-3.57-7.8-7.9-7.8" fill-rule="evenodd"/>
	<path fill="#CCC9C9" clip-rule="evenodd" d="m196.88 360.32v9.149c0 4.333 3.519 7.85 7.851 7.85 4.33 0 7.902-3.517 7.902-7.85v-9.149" fill-rule="evenodd"/>
	<path fill="#CCC9C9" clip-rule="evenodd" d="m210.31 389.71c0-3.248-2.654-5.902-5.955-5.902-3.303 0-5.955 2.654-5.955 5.902v0.053c0.053 3.248 2.706 5.955 5.955 5.9 3.3 0.01 5.95-2.7 5.95-5.95" fill-rule="evenodd"/>
	<text font-size="4.5116" font-family="'PFDinDisplayPro-Medium'" transform="translate(166.19 95.018)" fill="#E6E5E5">MUTE</text>
	<text font-size="4.5116" font-family="'PFDinDisplayPro-Medium'" transform="translate(222.06 114.36)" fill="#E6E5E5"><tspan y="0" x="0">EP</tspan><tspan letter-spacing="11" y="0" x="4.62">G</tspan><tspan y="0" x="19.346">G</tspan><tspan y="0" x="22.26">O</tspan><tspan y="0" x="25.328">T</tspan><tspan y="0" x="27.479">O</tspan></text>
	<text font-size="4.5116" font-family="'PFDinDisplayPro-Medium'" transform="translate(239.28 135.76)" fill="#E6E5E5">RECALL</text>
	<text font-size="4.5116" font-family="'PFDinDisplayPro-Medium'" transform="translate(222.3 135.76)" fill="#E6E5E5">TTX</text>
	<text font-size="4.5116" font-family="'PFDinDisplayPro-Medium'" transform="translate(216.58 156.44)" fill="#E6E5E5"><tspan y="0" x="0">TV/RADI</tspan><tspan letter-spacing="5" y="0" x="15.578">O</tspan><tspan y="0" x="24.087">AUDIO</tspan></text>
	<text font-size="4.5116" font-family="'PFDinDisplayPro-Medium'" transform="translate(241.77 179.22)" fill="#E6E5E5"><tspan y="0" x="0">F</tspan><tspan y="0" x="1.977">A</tspan><tspan y="0" x="4.606">V</tspan></text>
	<text font-size="4.5116" font-family="'PFDinDisplayPro-Medium'" transform="translate(240.96 210.74)" fill="#E6E5E5">EXIT</text>
	<text font-size="4.5116" font-family="'PFDinDisplayPro-Medium'" transform="translate(195.43 244.01)" fill="#E6E5E5">SUBTITLE</text>
	<text font-size="4.5116" font-family="'PFDinDisplayPro-Medium'" transform="translate(177.29 336.83)" fill="#E6E5E5"><tspan y="0" x="0">MEDI</tspan><tspan letter-spacing="6" y="0" x="9.93">A</tspan><tspan y="0" x="19.458">RECORD</tspan></text>
	<text font-size="4.5116" font-family="'PFDinDisplayPro-Medium'" transform="translate(199.62 382.73)" fill="#E6E5E5">INFO</text>
	<text font-size="4.5116" font-family="'PFDinDisplayPro-Medium'" transform="translate(200.95 348.08)" fill="#2B2523">CH+</text>
	<text font-size="4.5116" font-family="'PFDinDisplayPro-Medium'" transform="translate(201.19 370.42)" fill="#2B2523">CH-</text>
	<text font-size="4.5116" font-family="'PFDinDisplayPro-Medium'" transform="translate(221.87 336.83)" fill="#E6E5E5">USB</text>
	<text font-size="4.5116" font-family="'PFDinDisplayPro-Medium'" transform="translate(165.61 231.23)" fill="#E6E5E5">TIMER</text>
	<text font-size="4.5116" font-family="'PFDinDisplayPro-Medium'" transform="translate(158.3 210.74)" fill="#E6E5E5">MENU</text>
	<text font-size="2.9633" font-family="'PFDinDisplayPro-Medium'" transform="translate(177.96 212.36)" fill="#2B2523"><tspan y="0" x="0">V</tspan><tspan y="0" x="1.595">O</tspan><tspan y="0" x="3.636">L</tspan><tspan y="0" x="4.827">-</tspan></text>
		<text font-size="7.1637" font-family="'PFDinDisplayPro-Regular'" transform="matrix(1 0 0 1.0001 200.35 209.43)" fill="#FFFFFF">ОК</text>
	<text font-size="2.9633" font-family="'PFDinDisplayPro-Medium'" transform="translate(224.29 212.36)" fill="#2B2523"><tspan y="0" x="0">V</tspan><tspan y="0" x="1.595">OL+</tspan></text>
	<polyline points="162.71 125.7 162.71 121.47 162.16 121.94 161.58 121.21 162.8 120.14 163.74 120.14 163.74 125.7 162.71 125.7" fill="#2B2523"/>
	<path d="m185.52 121.68c0 0.183-0.034 0.353-0.1 0.512-0.07 0.158-0.154 0.306-0.259 0.447-0.106 0.14-0.22 0.268-0.345 0.387-0.127 0.118-0.253 0.225-0.375 0.323-0.115 0.091-0.241 0.187-0.383 0.285-0.143 0.1-0.283 0.209-0.417 0.326-0.134 0.119-0.252 0.248-0.353 0.389-0.103 0.139-0.165 0.292-0.186 0.458h2.409v0.918h-3.473v-0.788c0-0.225 0.035-0.432 0.101-0.623s0.157-0.365 0.27-0.527c0.113-0.161 0.242-0.308 0.391-0.442 0.146-0.135 0.299-0.259 0.454-0.371 0.15-0.107 0.299-0.211 0.445-0.313 0.145-0.102 0.273-0.206 0.386-0.311 0.113-0.104 0.205-0.209 0.275-0.317 0.068-0.107 0.103-0.219 0.103-0.337 0-0.092-0.02-0.174-0.063-0.246-0.042-0.073-0.102-0.134-0.173-0.185-0.074-0.051-0.156-0.089-0.251-0.117-0.095-0.027-0.191-0.04-0.293-0.04-0.189 0-0.376 0.033-0.562 0.101-0.185 0.067-0.353 0.167-0.502 0.302l-0.533-0.818c0.205-0.183 0.449-0.326 0.733-0.426 0.285-0.1 0.589-0.15 0.911-0.15 0.216 0 0.431 0.026 0.646 0.081 0.214 0.053 0.406 0.141 0.576 0.261 0.169 0.12 0.305 0.281 0.41 0.479 0.08 0.2 0.14 0.44 0.14 0.74" fill="#2B2523"/>
	<path d="m204.74 120.09c0.219 0 0.434 0.029 0.64 0.085s0.391 0.147 0.552 0.271c0.161 0.123 0.291 0.282 0.39 0.476 0.1 0.193 0.148 0.425 0.148 0.694 0 0.274-0.063 0.516-0.192 0.723s-0.304 0.364-0.522 0.472c0.239 0.107 0.424 0.271 0.555 0.49 0.128 0.221 0.194 0.462 0.194 0.724 0 0.301-0.056 0.562-0.165 0.782-0.111 0.22-0.252 0.399-0.424 0.538-0.173 0.14-0.367 0.243-0.58 0.31-0.215 0.067-0.431 0.101-0.646 0.101-0.327 0-0.64-0.05-0.934-0.149-0.295-0.099-0.546-0.241-0.749-0.423 0.01-0.017 0.042-0.065 0.097-0.145 0.053-0.081 0.11-0.168 0.173-0.262 0.06-0.094 0.118-0.182 0.173-0.263 0.053-0.08 0.086-0.128 0.098-0.144 0.148 0.129 0.323 0.229 0.522 0.302 0.199 0.072 0.388 0.108 0.563 0.108 0.259 0 0.46-0.064 0.61-0.192 0.147-0.13 0.221-0.307 0.221-0.533 0-0.209-0.068-0.386-0.206-0.532-0.136-0.145-0.315-0.217-0.536-0.217h-0.66v-0.87h0.644c0.183 0 0.348-0.063 0.493-0.19 0.144-0.126 0.217-0.302 0.217-0.527 0-0.119-0.025-0.218-0.073-0.298-0.047-0.081-0.109-0.147-0.181-0.198s-0.154-0.088-0.246-0.11c-0.091-0.02-0.176-0.032-0.258-0.032-0.176 0-0.361 0.036-0.557 0.105-0.192 0.07-0.363 0.173-0.514 0.306l-0.541-0.824c0.205-0.185 0.454-0.327 0.75-0.428 0.31-0.12 0.62-0.17 0.96-0.17" fill="#2B2523"/>
	<polyline points="164.11 145.93 164.11 146.73 163.08 146.73 163.08 145.93 160.75 145.93 160.75 145.1 162.54 141.18 163.62 141.18 161.9 145.01 163.08 145.01 163.08 143.42 164.11 143.42 164.11 145.01 164.57 145.01 164.57 145.93 164.11 145.93" fill="#2B2523"/>
	<path d="m185.34 145.88c-0.099 0.191-0.229 0.35-0.392 0.479-0.162 0.13-0.353 0.227-0.57 0.291s-0.44 0.096-0.671 0.096c-0.34 0-0.646-0.047-0.924-0.145-0.275-0.097-0.516-0.238-0.72-0.427l0.547-0.822c0.171 0.156 0.346 0.265 0.524 0.327 0.178 0.061 0.357 0.092 0.539 0.092 0.083 0 0.169-0.012 0.259-0.037 0.091-0.023 0.175-0.062 0.255-0.115 0.079-0.054 0.141-0.125 0.197-0.211 0.055-0.085 0.08-0.193 0.08-0.322v-0.62c0-0.188-0.044-0.328-0.133-0.419-0.089-0.092-0.212-0.137-0.367-0.137-0.074 0-0.157 0.013-0.245 0.04-0.089 0.027-0.175 0.06-0.258 0.101-0.083 0.04-0.161 0.082-0.229 0.124-0.07 0.043-0.125 0.078-0.162 0.106l-0.926-0.363v-2.765h3.167v0.927h-2.144v1.088c0.155-0.091 0.318-0.163 0.487-0.218 0.17-0.053 0.319-0.08 0.449-0.08 0.218 0 0.415 0.037 0.587 0.113 0.171 0.075 0.317 0.178 0.435 0.31 0.117 0.131 0.208 0.288 0.27 0.467 0.062 0.18 0.092 0.378 0.092 0.593v0.862c-0.03 0.25-0.08 0.47-0.18 0.66" fill="#2B2523"/>
	<path d="m206.49 145.24c0 0.258-0.05 0.483-0.148 0.674-0.101 0.191-0.233 0.351-0.396 0.476-0.164 0.127-0.349 0.222-0.557 0.288-0.207 0.064-0.417 0.096-0.631 0.096-0.233 0-0.452-0.031-0.661-0.093-0.21-0.062-0.396-0.155-0.556-0.281-0.161-0.126-0.288-0.285-0.383-0.476-0.095-0.19-0.141-0.415-0.141-0.672v-2.588c0-0.258 0.048-0.482 0.148-0.673 0.099-0.19 0.228-0.35 0.391-0.48 0.164-0.128 0.351-0.225 0.566-0.29 0.214-0.064 0.435-0.096 0.667-0.096 0.671 0 1.215 0.192 1.628 0.577l-0.539 0.833c-0.172-0.155-0.347-0.264-0.524-0.326-0.178-0.061-0.355-0.093-0.533-0.093-0.074 0-0.158 0.014-0.248 0.04-0.092 0.027-0.178 0.068-0.255 0.124-0.079 0.056-0.143 0.127-0.197 0.215-0.055 0.088-0.081 0.193-0.081 0.315l0.008 0.591c0.243-0.13 0.442-0.217 0.6-0.261 0.157-0.043 0.308-0.065 0.449-0.065 0.225 0 0.424 0.038 0.598 0.113 0.175 0.076 0.321 0.181 0.44 0.315 0.12 0.135 0.208 0.294 0.267 0.477 0.058 0.183 0.088 0.382 0.088 0.598v0.66m-1.05-0.58c0-0.215-0.052-0.367-0.158-0.455-0.105-0.089-0.22-0.133-0.345-0.133-0.141 0-0.281 0.025-0.426 0.076-0.141 0.051-0.303 0.131-0.481 0.238v0.701c0 0.129 0.02 0.239 0.064 0.33s0.1 0.165 0.168 0.222c0.067 0.056 0.143 0.098 0.226 0.126 0.084 0.026 0.169 0.04 0.256 0.04 0.081 0 0.163-0.014 0.247-0.04 0.083-0.028 0.158-0.071 0.222-0.13 0.065-0.058 0.119-0.133 0.164-0.222 0.041-0.088 0.063-0.197 0.063-0.326v-0.43z" fill="#2B2523"/>
	<polyline points="162.42 167.63 161.23 167.63 163.26 163 161.84 163 161.84 163.8 160.81 163.8 160.81 162.07 164.51 162.07 164.51 162.94 162.42 167.63" fill="#2B2523"/>
	<path d="m183.78 162.02c0.203 0 0.407 0.031 0.606 0.095 0.201 0.065 0.382 0.165 0.542 0.298 0.157 0.135 0.285 0.303 0.382 0.504 0.096 0.202 0.145 0.436 0.145 0.706 0 0.258-0.057 0.49-0.169 0.697-0.114 0.206-0.269 0.359-0.468 0.456 0.247 0.107 0.434 0.277 0.56 0.511 0.125 0.234 0.19 0.477 0.19 0.73 0 0.284-0.054 0.531-0.162 0.741-0.108 0.209-0.247 0.381-0.419 0.515-0.171 0.135-0.366 0.234-0.582 0.298-0.212 0.065-0.426 0.098-0.642 0.098-0.232 0-0.455-0.031-0.671-0.093-0.214-0.062-0.405-0.159-0.571-0.29-0.167-0.132-0.299-0.3-0.399-0.504s-0.148-0.446-0.148-0.725c0-0.14 0.019-0.275 0.058-0.408 0.04-0.131 0.099-0.253 0.17-0.366 0.074-0.113 0.154-0.214 0.247-0.302 0.091-0.089 0.19-0.157 0.297-0.205-0.205-0.092-0.362-0.24-0.475-0.443-0.113-0.206-0.169-0.444-0.169-0.719 0-0.268 0.05-0.502 0.149-0.7 0.1-0.199 0.229-0.366 0.39-0.501 0.161-0.133 0.342-0.233 0.541-0.298 0.2-0.08 0.39-0.12 0.59-0.12m-0.01 3.2c-0.117 0-0.231 0.02-0.337 0.057-0.109 0.038-0.2 0.093-0.281 0.165-0.081 0.073-0.147 0.159-0.195 0.258-0.049 0.099-0.071 0.214-0.071 0.342 0 0.258 0.08 0.459 0.243 0.602 0.165 0.142 0.378 0.213 0.641 0.213 0.258 0 0.47-0.071 0.636-0.213 0.168-0.143 0.251-0.349 0.251-0.618 0-0.117-0.023-0.227-0.073-0.326-0.048-0.099-0.112-0.185-0.193-0.258-0.08-0.072-0.175-0.127-0.281-0.165-0.12-0.02-0.23-0.04-0.35-0.04zm0.83-1.59c0-0.252-0.081-0.446-0.243-0.58-0.166-0.134-0.355-0.202-0.568-0.202-0.104 0-0.206 0.018-0.304 0.053-0.1 0.035-0.189 0.086-0.263 0.153-0.075 0.067-0.137 0.149-0.183 0.245-0.049 0.097-0.074 0.207-0.074 0.331 0 0.129 0.023 0.243 0.068 0.342 0.046 0.1 0.108 0.182 0.185 0.25 0.078 0.068 0.167 0.119 0.263 0.153 0.096 0.035 0.199 0.052 0.308 0.052 0.099 0 0.201-0.018 0.301-0.056 0.099-0.037 0.187-0.089 0.263-0.156 0.074-0.068 0.133-0.151 0.18-0.251 0.02-0.09 0.05-0.2 0.05-0.32z" fill="#2B2523"/>
	<path d="m206.49 166.14c0 0.253-0.051 0.475-0.146 0.665-0.097 0.191-0.227 0.351-0.392 0.48-0.163 0.128-0.353 0.225-0.566 0.29-0.216 0.063-0.44 0.096-0.67 0.096-0.678 0-1.224-0.192-1.635-0.576l0.547-0.825c0.17 0.155 0.346 0.262 0.524 0.321 0.177 0.06 0.352 0.089 0.523 0.089 0.076 0 0.159-0.014 0.251-0.04 0.091-0.027 0.176-0.068 0.252-0.124 0.079-0.056 0.143-0.128 0.194-0.217 0.052-0.088 0.076-0.193 0.076-0.315v-0.642c-0.235 0.124-0.433 0.207-0.592 0.251-0.159 0.042-0.308 0.063-0.447 0.063-0.21 0-0.399-0.038-0.571-0.112-0.173-0.076-0.321-0.179-0.44-0.31-0.12-0.132-0.214-0.289-0.278-0.472-0.066-0.182-0.099-0.384-0.099-0.605v-0.564c0-0.257 0.05-0.484 0.147-0.681 0.098-0.196 0.224-0.359 0.383-0.491 0.158-0.131 0.341-0.231 0.551-0.299 0.21-0.067 0.427-0.1 0.654-0.1 0.24 0 0.468 0.035 0.681 0.105 0.211 0.069 0.396 0.173 0.551 0.311 0.156 0.136 0.278 0.303 0.367 0.499 0.089 0.195 0.135 0.423 0.135 0.681v2.51m-1.03-2.42c0-0.129-0.02-0.239-0.059-0.33-0.041-0.091-0.095-0.166-0.162-0.222s-0.143-0.097-0.226-0.125c-0.083-0.027-0.165-0.04-0.245-0.04-0.081 0-0.164 0.013-0.25 0.04-0.086 0.028-0.163 0.07-0.23 0.13-0.066 0.059-0.123 0.132-0.164 0.221-0.045 0.088-0.065 0.197-0.065 0.326v0.371c0 0.215 0.052 0.365 0.161 0.451 0.106 0.087 0.226 0.13 0.355 0.13 0.132 0 0.271-0.026 0.414-0.077 0.142-0.051 0.298-0.128 0.471-0.229v-0.64z" fill="#2B2523"/>
	<path d="m165.95 188.07c0 0.252-0.052 0.471-0.161 0.657-0.107 0.185-0.243 0.338-0.409 0.459s-0.354 0.211-0.563 0.27c-0.208 0.059-0.414 0.088-0.612 0.088-0.203 0-0.408-0.029-0.614-0.088s-0.394-0.149-0.56-0.27-0.302-0.274-0.41-0.459c-0.106-0.186-0.161-0.405-0.161-0.657v-2.676c0-0.253 0.055-0.472 0.161-0.661 0.108-0.188 0.245-0.344 0.415-0.466 0.167-0.124 0.357-0.217 0.563-0.279s0.408-0.093 0.606-0.093 0.404 0.031 0.612 0.093c0.209 0.062 0.397 0.155 0.563 0.279 0.166 0.122 0.302 0.278 0.409 0.466 0.109 0.189 0.161 0.408 0.161 0.661v2.68m-1.03-2.47c0-0.129-0.022-0.24-0.064-0.331-0.044-0.091-0.101-0.165-0.172-0.222-0.069-0.056-0.147-0.097-0.23-0.124-0.084-0.027-0.169-0.041-0.256-0.041-0.08 0-0.164 0.014-0.25 0.041s-0.165 0.068-0.236 0.124c-0.07 0.057-0.126 0.131-0.169 0.222-0.044 0.091-0.067 0.202-0.067 0.331v2.256c0 0.129 0.023 0.24 0.067 0.331 0.043 0.092 0.099 0.165 0.169 0.221 0.071 0.056 0.15 0.097 0.236 0.121s0.17 0.036 0.25 0.036c0.087 0 0.172-0.012 0.256-0.036 0.083-0.024 0.161-0.065 0.23-0.121 0.071-0.056 0.128-0.129 0.172-0.221 0.042-0.091 0.064-0.202 0.064-0.331v-2.26z" fill="#2B2523"/>
	<path stroke="#9D9D9C" stroke-width=".5" stroke-miterlimit="22.926" d="m171.79 101.6" fill="none"/>
	<path stroke="#9D9D9C" stroke-width=".5" stroke-miterlimit="22.926" d="m183.79 327.4" fill="none"/>
	<path stroke="#9D9D9C" stroke-width=".5" stroke-miterlimit="22.926" d="m204.13 389.93" fill="none"/>
	<path stroke="#9D9D9C" stroke-width=".5" stroke-miterlimit="22.926" d="m201.13 357.62" fill="none"/>
	<path stroke="#9D9D9C" stroke-width=".5" stroke-miterlimit="22.926" d="m225.87 125.43" fill="none"/>
	<path stroke="#9D9D9C" stroke-width=".5" stroke-miterlimit="22.926" d="m233.13 258.59" fill="none"/>
	<path stroke="#9D9D9C" stroke-width=".5" stroke-miterlimit="22.926" d="m241.13 239.29" fill="none"/>
	<path stroke="#9D9D9C" stroke-width=".5" stroke-miterlimit="22.926" d="m209.46 209.91" fill="none"/>
	<path stroke="#9D9D9C" stroke-width=".5" stroke-miterlimit="22.926" d="m245.13 219.07" fill="none"/>
	<path stroke="#9D9D9C" stroke-width=".5" stroke-miterlimit="22.926" d="m244.79 187.59" fill="none"/>
	<path stroke="#9D9D9C" stroke-width=".5" stroke-miterlimit="22.926" d="m249.73 164.79" fill="none"/>
	<path stroke="#9D9D9C" stroke-width=".5" stroke-miterlimit="22.926" d="m245.96 143.24" fill="none"/>
	<path stroke="#9D9D9C" stroke-width=".5" stroke-miterlimit="22.926" d="m249.73 122.26" fill="none"/>
</g>
<metadata><rdf:RDF><cc:Work><dc:format>image/svg+xml</dc:format><dc:type rdf:resource="http://purl.org/dc/dcmitype/StillImage"/><cc:license rdf:resource="http://creativecommons.org/licenses/publicdomain/"/><dc:publisher><cc:Agent rdf:about="http://openclipart.org/"><dc:title>Openclipart</dc:title></cc:Agent></dc:publisher></cc:Work><cc:License rdf:about="http://creativecommons.org/licenses/publicdomain/"><cc:permits rdf:resource="http://creativecommons.org/ns#Reproduction"/><cc:permits rdf:resource="http://creativecommons.org/ns#Distribution"/><cc:permits rdf:resource="http://creativecommons.org/ns#DerivativeWorks"/></cc:License></rdf:RDF></metadata></svg>