<svg id="Capa_1" enable-background="new 0 0 512 512" height="512" viewBox="0 0 512 512" width="512" xmlns="http://www.w3.org/2000/svg"><g fill="#0fa657"><path d="m160.784 329.711c-4.209 0-7.621-3.412-7.621-7.621v-57.528c0-4.209 3.412-7.621 7.621-7.621s7.621 3.412 7.621 7.621v57.528c-.001 4.21-3.413 7.621-7.621 7.621z"/><path d="m409.742 512c-4.209 0-7.621-3.412-7.621-7.621v-177.432c0-4.209 3.412-7.621 7.621-7.621s7.621 3.412 7.621 7.621v177.432c-.001 4.209-3.413 7.621-7.621 7.621z"/><path d="m260.626 512c-4.209 0-7.621-3.412-7.621-7.621v-289.304c0-4.209 3.412-7.621 7.621-7.621s7.621 3.412 7.621 7.621v289.305c0 4.208-3.412 7.62-7.621 7.62z"/></g><path d="m253.256 265.051c12.484-12.484 14.094-32.463 13.997-42.852-.037-3.926-3.194-7.083-7.12-7.12-10.389-.098-30.368 1.513-42.852 13.997-12.158 12.158-16.255 33.677-17.623 45.641-.527 4.605 3.353 8.485 7.958 7.958 11.964-1.369 33.483-5.467 45.64-17.624z" fill="#13b866"/><path d="m267.253 222.199c-.037-3.926-3.194-7.083-7.12-7.12-4.802-.045-11.653.277-18.865 1.867 1.432 1.299 2.34 3.164 2.36 5.253.098 10.389-1.513 30.368-13.996 42.852-7.503 7.503-18.569 11.93-28.757 14.546 1.44 2.094 3.954 3.396 6.742 3.077 11.964-1.368 33.483-5.466 45.641-17.624 12.482-12.483 14.093-32.463 13.995-42.851z" fill="#0fa657"/><path d="m268.555 265.051c-12.484-12.484-14.094-32.463-13.997-42.852.037-3.926 3.194-7.083 7.12-7.12 10.389-.098 30.368 1.513 42.852 13.997 12.158 12.158 16.255 33.677 17.623 45.641.527 4.605-3.353 8.485-7.958 7.958-11.964-1.369-33.483-5.467-45.64-17.624z" fill="#13b866"/><path d="m322.154 274.716c-1.368-11.964-5.466-33.483-17.623-45.641-12.484-12.484-32.463-14.094-42.852-13.997-1.605.015-3.076.558-4.264 1.456 8.962 1.71 18.742 5.289 25.995 12.541 12.158 12.158 16.255 33.676 17.624 45.641.235 2.053-.41 3.959-1.601 5.398 5.527 1.303 10.701 2.096 14.764 2.561 4.603.526 8.483-3.354 7.957-7.959z" fill="#0fa657"/><path d="m260.627 236.951c-58.771 0-106.415-47.644-106.415-106.415v-118.613c0-4.827 6.018-7.035 9.139-3.352l36.456 43.006c1.971 2.325 5.514 2.456 7.651.283l49.472-50.311c2.031-2.066 5.362-2.066 7.393 0l49.472 50.311c2.137 2.174 5.68 2.043 7.651-.283l36.456-43.006c3.121-3.682 9.139-1.475 9.139 3.352v118.613c.001 58.771-47.643 106.415-106.414 106.415z" fill="#fc8186"/><path d="m357.903 8.571-28.805 33.98v73.525c0 58.771-47.643 106.415-106.415 106.415-6.212 0-12.298-.538-18.219-1.56 16.302 10.15 35.545 16.019 56.162 16.019 58.771 0 106.415-47.644 106.415-106.415v-118.612c.001-4.827-6.017-7.034-9.138-3.352z" fill="#fa4954"/><circle cx="162.858" cy="219.844" fill="#fa4954" r="58.85"/><path d="m187.07 166.208c3.34 7.387 5.215 15.578 5.215 24.212 0 32.502-26.348 58.85-58.85 58.85-8.634 0-16.825-1.875-24.212-5.215 9.233 20.421 29.767 34.638 53.635 34.638 32.502 0 58.85-26.348 58.85-58.85 0-23.867-14.218-44.401-34.638-53.635z" fill="#e21f2d"/><circle cx="410.411" cy="276.867" fill="#fa4954" r="58.85"/><circle cx="67.805" cy="282.722" fill="#fa4954" r="58.85"/><path d="m434.623 223.231c3.34 7.387 5.215 15.578 5.215 24.212 0 32.502-26.348 58.85-58.85 58.85-8.634 0-16.825-1.875-24.212-5.215 9.234 20.421 29.767 34.638 53.636 34.638 32.502 0 58.85-26.348 58.85-58.85-.001-23.867-14.219-44.401-34.639-53.635z" fill="#e21f2d"/><path d="m92.017 229.087c3.34 7.387 5.215 15.578 5.215 24.212 0 32.502-26.348 58.85-58.85 58.85-8.634 0-16.825-1.875-24.212-5.215 9.233 20.421 29.767 34.638 53.635 34.638 32.502 0 58.85-26.348 58.85-58.85 0-23.868-14.217-44.402-34.638-53.635z" fill="#e21f2d"/><path d="m255.612 370.578c-2.732-3.202-7.543-3.583-10.743-.85l-63.657 54.317 31.417-71.268c1.698-3.851-.048-8.349-3.899-10.047-3.851-1.695-8.349.048-10.047 3.899l-30.278 68.685v-65.611c0-4.209-3.412-7.621-7.621-7.621s-7.621 3.412-7.621 7.621v65.611l-30.278-68.685c-1.697-3.851-6.196-5.595-10.047-3.899-3.851 1.698-5.597 6.196-3.899 10.047l31.417 71.268-63.656-54.317c-3.202-2.733-8.012-2.352-10.743.85-2.732 3.202-2.351 8.012.85 10.743l86.357 73.687v49.371c0 4.209 3.412 7.621 7.621 7.621s7.621-3.412 7.621-7.621v-49.371l86.357-73.687c3.2-2.731 3.581-7.541.849-10.743z" fill="#75d6a5"/><path d="m257.198 329.772c-5.435-.502-10.607.422-15.193 2.437-2.343 1.029-5.074-.021-6.024-2.398-4.511-11.289-15.543-19.266-28.442-19.266-5.493 0-10.645 1.45-15.101 3.984-2.023 1.15-4.629.524-5.888-1.433-5.446-8.47-14.949-14.083-25.767-14.083s-20.321 5.613-25.767 14.083c-1.259 1.957-3.865 2.584-5.888 1.433-4.456-2.534-9.608-3.984-15.101-3.984-12.899 0-23.931 7.977-28.442 19.266-.95 2.377-3.68 3.427-6.024 2.398-4.585-2.014-9.757-2.938-15.191-2.437-14.317 1.321-25.968 12.74-27.533 27.033-2.022 18.462 12.382 34.082 30.435 34.082 12.901 0 23.934-7.978 28.444-19.269.941-2.356 3.649-3.442 5.97-2.418 3.775 1.667 7.95 2.594 12.342 2.594 10.818 0 20.321-5.613 25.767-14.083 1.259-1.957 3.865-2.584 5.888-1.433 4.456 2.534 9.608 3.984 15.1 3.984 5.493 0 10.645-1.45 15.1-3.984 2.023-1.15 4.629-.524 5.888 1.433 5.447 8.47 14.949 14.083 25.767 14.083 4.392 0 8.567-.927 12.342-2.594 2.321-1.025 5.028.061 5.97 2.417 4.51 11.291 15.543 19.269 28.444 19.269 18.052 0 32.456-15.619 30.435-34.08-1.564-14.292-13.214-25.712-27.531-27.034z" fill="#fdde2e"/><path d="m284.73 356.807c-.637-5.815-2.943-11.154-6.418-15.531-.698 16.295-14.123 29.292-30.589 29.292-12.901 0-23.933-7.978-28.444-19.269-.941-2.356-3.649-3.442-5.97-2.418-3.775 1.667-7.95 2.594-12.342 2.594-10.818 0-20.321-5.613-25.767-14.083-1.259-1.958-3.865-2.584-5.888-1.434-4.456 2.534-9.608 3.984-15.101 3.984s-10.645-1.45-15.1-3.984c-2.023-1.15-4.629-.524-5.888 1.434-5.446 8.47-14.949 14.083-25.767 14.083-4.392 0-8.567-.927-12.342-2.594-2.321-1.025-5.028.062-5.969 2.418-4.51 11.291-15.543 19.269-28.444 19.269-9.737 0-18.407-4.549-24.016-11.632-.738 17.517 13.235 31.951 30.588 31.951 12.901 0 23.934-7.978 28.444-19.269.941-2.356 3.649-3.442 5.97-2.418 3.775 1.667 7.95 2.594 12.342 2.594 10.818 0 20.32-5.613 25.767-14.083 1.259-1.957 3.865-2.584 5.888-1.433 4.456 2.534 9.608 3.984 15.101 3.984s10.645-1.45 15.1-3.984c2.023-1.151 4.629-.524 5.888 1.433 5.447 8.47 14.949 14.083 25.767 14.083 4.392 0 8.567-.928 12.342-2.594 2.321-1.025 5.028.062 5.97 2.418 4.51 11.291 15.543 19.269 28.444 19.269 18.051 0 32.455-15.619 30.434-34.08z" fill="#f9c301"/><path d="m393.694 391.206c20.56 29.939 19.938 67.627 19.003 80.557-.163 2.248-2.579 3.574-4.569 2.514-10.569-5.628-39.199-22.727-59.423-52.175-25.232-36.742-40.248-70.263-27.824-78.794s47.581 11.156 72.813 47.898z" fill="#13b866"/><path d="m393.694 391.206c-25.232-36.742-60.39-56.43-72.813-47.898-.376.258-.724.541-1.05.844 15.85 6.334 36.565 23.052 53.048 47.054 17.549 25.553 19.664 56.74 19.326 73.371 6.692 4.569 12.345 7.795 15.923 9.7 1.99 1.059 4.406-.266 4.569-2.514.935-12.93 1.558-50.618-19.003-80.557z" fill="#0fa657"/><path d="m425.789 391.206c-20.56 29.939-19.938 67.627-19.003 80.557.163 2.248 2.579 3.574 4.569 2.514 10.569-5.628 39.199-22.727 59.423-52.175 25.232-36.742 40.247-70.263 27.824-78.794-12.423-8.532-47.581 11.156-72.813 47.898z" fill="#13b866"/><path d="m498.602 343.308c-4.894-3.361-13.324-2.326-23.278 2.39 7.71 11.281-6.861 42.46-30.173 76.404-11.798 17.18-26.453 30.149-38.718 39.097-.007 4.343.165 7.962.353 10.564.163 2.248 2.579 3.574 4.569 2.514 10.569-5.628 39.199-22.727 59.423-52.175 25.232-36.741 40.247-70.262 27.824-78.794z" fill="#0fa657"/></svg>