<svg xmlns="http://www.w3.org/2000/svg" xmlns:xlink="http://www.w3.org/1999/xlink" version="1.1" x="0px" y="0px" viewBox="0 0 100 100" enable-background="new 0 0 100 100" xml:space="preserve"><path d="M94.598,52.464c-3.757-1.802-7.981-2.685-12.323-2.687c1.382-7.278,0.561-14.556-2.376-20.68  c-0.268-0.559-0.849-0.897-1.468-0.847c-5.146,0.394-10.272,2.184-14.938,5.181c-2.65-6.76-7.013-12.557-12.645-16.408  c-0.511-0.349-1.183-0.349-1.694,0c-5.63,3.853-9.992,9.649-12.643,16.409c-4.666-2.998-9.792-4.788-14.939-5.182  c-0.622-0.05-1.199,0.289-1.467,0.847c-2.937,6.122-3.76,13.4-2.379,20.677c-4.342,0.002-8.566,0.886-12.323,2.69  c-0.558,0.268-0.894,0.85-0.847,1.467c0.746,9.716,7.079,19.141,16.529,24.596c5.404,3.121,11.422,4.711,17.229,4.71  c4.1,0,8.09-0.804,11.688-2.408c3.598,1.604,7.586,2.408,11.688,2.408c5.805,0,11.824-1.589,17.228-4.71  c9.452-5.455,15.786-14.881,16.528-24.597C95.492,53.314,95.155,52.731,94.598,52.464z M77.624,31.342  c2.395,5.549,2.92,12.074,1.543,18.59c-4.46,0.426-8.952,1.767-13.123,3.999c0.211-1.711,0.328-3.448,0.328-5.202  c0-4.275-0.654-8.453-1.857-12.374C68.61,33.598,73.101,31.87,77.624,31.342z M50.001,20.103  c8.272,6.126,13.371,16.987,13.371,28.625c0,11.635-5.099,22.494-13.371,28.619c-8.271-6.128-13.37-16.986-13.37-28.619  C36.631,37.092,41.729,26.231,50.001,20.103z M22.378,31.342c4.524,0.528,9.015,2.256,13.11,5.014  c-1.203,3.922-1.857,8.099-1.857,12.373c0,1.755,0.117,3.492,0.328,5.204c-4.172-2.233-8.665-3.576-13.124-4.003  C19.456,43.416,19.983,36.89,22.378,31.342z M22.585,75.93C14.321,71.158,8.679,63.113,7.65,54.739  c7.765-3.301,17.554-2.437,25.819,2.337c0.393,0.227,0.769,0.468,1.147,0.707c1.847,8.442,6.222,15.949,12.384,21.011  C39.481,81.438,30.362,80.421,22.585,75.93z M77.416,75.93c-7.776,4.491-16.896,5.506-24.415,2.864  c6.164-5.062,10.54-12.569,12.386-21.014c0.377-0.238,0.753-0.479,1.144-0.704c8.264-4.771,18.054-5.635,25.82-2.336  C91.324,63.113,85.683,71.158,77.416,75.93z"></path></svg>