<?xml version="1.0" encoding="UTF-8" standalone="no"?>
<!-- Created with Inkscape (http://www.inkscape.org/) -->

<svg
   xmlns:dc="http://purl.org/dc/elements/1.1/"
   xmlns:cc="http://creativecommons.org/ns#"
   xmlns:rdf="http://www.w3.org/1999/02/22-rdf-syntax-ns#"
   xmlns:svg="http://www.w3.org/2000/svg"
   xmlns="http://www.w3.org/2000/svg"
   xmlns:xlink="http://www.w3.org/1999/xlink"
   xmlns:sodipodi="http://sodipodi.sourceforge.net/DTD/sodipodi-0.dtd"
   xmlns:inkscape="http://www.inkscape.org/namespaces/inkscape"
   width="784"
   height="250"
   id="svg2"
   version="1.1"
   inkscape:version="0.48.2 r9819"
   sodipodi:docname="wug_with_blowtorch.svg">
  <defs
     id="defs4">
    <linearGradient
       inkscape:collect="always"
       x1="141.55"
       y1="-48.195"
       gradientTransform="translate(-0.0625,452.55)"
       x2="137.69"
       gradientUnits="userSpaceOnUse"
       y2="-41.5"
       id="linearGradient10193">
      <stop
         offset="0"
         style="stop-color:#ffffff"
         id="stop12648" />
      <stop
         offset="1"
         style="stop-color:#808080"
         id="stop12650" />
    </linearGradient>
    <linearGradient
       id="linearGradient12438">
      <stop
         offset="0"
         style="stop-color:#b3b3b3"
         id="stop12440" />
      <stop
         offset="1"
         style="stop-color:#333333"
         id="stop12442" />
    </linearGradient>
    <linearGradient
       id="linearGradient12384">
      <stop
         offset="0"
         style="stop-color:#aa4400"
         id="stop12386" />
      <stop
         offset="1"
         style="stop-color:#2b1100"
         id="stop12388" />
    </linearGradient>
    <linearGradient
       id="linearGradient12332">
      <stop
         offset="0"
         style="stop-color:#ff4c00"
         id="stop12334" />
      <stop
         offset="1"
         style="stop-color:#ffb600"
         id="stop12336" />
    </linearGradient>
    <linearGradient
       inkscape:collect="always"
       x1="93.938004"
       y1="-302.47"
       gradientTransform="matrix(0.91902,0,0,0.91902,39.163,663.73)"
       x2="93.938004"
       gradientUnits="userSpaceOnUse"
       y2="-276.67999"
       id="linearGradient10173">
      <stop
         offset="0"
         style="stop-color:#f2f2f2"
         id="stop12230-8" />
      <stop
         offset="1"
         style="stop-color:#666666"
         id="stop12232-2" />
    </linearGradient>
    <linearGradient
       inkscape:collect="always"
       x1="185.69"
       y1="395.31"
       x2="185.69"
       gradientUnits="userSpaceOnUse"
       y2="374.84"
       id="linearGradient10171">
      <stop
         offset="0"
         style="stop-color:#333333"
         id="stop5373" />
      <stop
         offset="1"
         style="stop-color:#666666"
         id="stop5375" />
    </linearGradient>
    <linearGradient
       id="linearGradient11411">
      <stop
         offset="0"
         style="stop-color:#cccccc"
         id="stop11413" />
      <stop
         offset="1"
         style="stop-color:#ffffff"
         id="stop11415" />
    </linearGradient>
    <linearGradient
       inkscape:collect="always"
       x1="103.66"
       y1="182.22"
       gradientTransform="matrix(-1,0,0,1,231.88,-5e-6)"
       x2="103.66"
       gradientUnits="userSpaceOnUse"
       y2="150.46001"
       id="linearGradient10165">
      <stop
         offset="0"
         style="stop-color:#000000"
         id="stop5381" />
      <stop
         offset="1"
         style="stop-color:#868682"
         id="stop5383" />
    </linearGradient>
    <filter
       color-interpolation-filters="sRGB"
       inkscape:label="Drop Shadow"
       id="filter4865">
      <feFlood
         flood-opacity=".6"
         flood-color="rgb(0,0,0)"
         result="flood"
         id="feFlood4867" />
      <feComposite
         in="flood"
         in2="SourceGraphic"
         result="composite1"
         operator="in"
         id="feComposite4869" />
      <feGaussianBlur
         result="blur"
         stdDeviation="1"
         id="feGaussianBlur4871" />
      <feOffset
         dy="4"
         dx="4"
         result="offset"
         id="feOffset4873" />
      <feComposite
         in="SourceGraphic"
         in2="offset"
         result="composite2"
         operator="over"
         id="feComposite4875" />
    </filter>
    <linearGradient
       inkscape:collect="always"
       xlink:href="#linearGradient10165"
       id="linearGradient7706"
       gradientUnits="userSpaceOnUse"
       gradientTransform="matrix(-1,0,0,1,231.88,-4.9999999e-6)"
       x1="103.66"
       y1="182.22"
       x2="103.66"
       y2="150.46001" />
    <linearGradient
       inkscape:collect="always"
       xlink:href="#linearGradient11411"
       id="linearGradient7708"
       gradientUnits="userSpaceOnUse"
       gradientTransform="matrix(-1.2687,0,0,1.1867,306.25,269.58)"
       x1="87.75"
       y1="160.33"
       x2="87.75"
       y2="152.13" />
    <linearGradient
       inkscape:collect="always"
       xlink:href="#linearGradient11411"
       id="linearGradient7710"
       gradientUnits="userSpaceOnUse"
       gradientTransform="matrix(-1,0,0,-0.93532,284.79,426.81)"
       x1="139.12"
       y1="-10.173"
       x2="139.12"
       y2="-31.532" />
    <linearGradient
       inkscape:collect="always"
       xlink:href="#linearGradient10171"
       id="linearGradient7712"
       gradientUnits="userSpaceOnUse"
       x1="185.69"
       y1="395.31"
       x2="185.69"
       y2="374.84" />
    <linearGradient
       inkscape:collect="always"
       xlink:href="#linearGradient10173"
       id="linearGradient7714"
       gradientUnits="userSpaceOnUse"
       gradientTransform="matrix(0.91902,0,0,0.91902,39.163,663.73)"
       x1="93.938004"
       y1="-302.47"
       x2="93.938004"
       y2="-276.67999" />
    <linearGradient
       inkscape:collect="always"
       xlink:href="#linearGradient12332"
       id="linearGradient7716"
       gradientUnits="userSpaceOnUse"
       gradientTransform="matrix(0.64308,-0.028073,0.030637,0.70183,-91.487,106.35)"
       x1="218.92"
       y1="463.72"
       x2="218.92"
       y2="438.04999" />
    <linearGradient
       inkscape:collect="always"
       xlink:href="#linearGradient12332"
       id="linearGradient7718"
       gradientUnits="userSpaceOnUse"
       gradientTransform="matrix(0.72817,0,0,0.74297,-99.235,96.106)"
       x1="253.5"
       y1="460.60999"
       x2="253.5"
       y2="430.42001" />
    <linearGradient
       inkscape:collect="always"
       xlink:href="#linearGradient12384"
       id="linearGradient7720"
       gradientUnits="userSpaceOnUse"
       x1="231.06"
       y1="-15.467"
       x2="232.37"
       y2="-7.5833998" />
    <linearGradient
       inkscape:collect="always"
       xlink:href="#linearGradient12332"
       id="linearGradient7722"
       gradientUnits="userSpaceOnUse"
       gradientTransform="matrix(0.69248,0,0,0.69248,-92.818,119.37)"
       x1="245.5"
       y1="485.76999"
       x2="245.5"
       y2="436" />
    <linearGradient
       inkscape:collect="always"
       xlink:href="#linearGradient12384"
       id="linearGradient7724"
       gradientUnits="userSpaceOnUse"
       x1="236.39999"
       y1="-1.5692"
       x2="236.39999"
       y2="14" />
    <linearGradient
       inkscape:collect="always"
       xlink:href="#linearGradient12332"
       id="linearGradient7726"
       gradientUnits="userSpaceOnUse"
       gradientTransform="matrix(0.9186,0,0,0.9186,12.338,0.011629)"
       x1="235.75"
       y1="-5.2543998"
       x2="235.75"
       y2="23.25" />
    <linearGradient
       inkscape:collect="always"
       xlink:href="#linearGradient12438"
       id="linearGradient7728"
       gradientUnits="userSpaceOnUse"
       gradientTransform="matrix(0.72817,0,0,0.8454,-99.235,431.22)"
       x1="270.39001"
       y1="-19.983"
       x2="270.39001"
       y2="0.53746998" />
    <linearGradient
       inkscape:collect="always"
       xlink:href="#linearGradient12384"
       id="linearGradient7730"
       gradientUnits="userSpaceOnUse"
       gradientTransform="matrix(0.72817,0,0,0.72817,-19.002,463.88)"
       x1="129.36"
       y1="-62.695999"
       x2="129.36"
       y2="-55.334" />
    <linearGradient
       inkscape:collect="always"
       xlink:href="#linearGradient12438"
       id="linearGradient7732"
       gradientUnits="userSpaceOnUse"
       gradientTransform="matrix(0.96385,-0.0023502,0.0025152,0.90064,231.14,-418.92)"
       x1="-92.620003"
       y1="409.95999"
       x2="-98.328003"
       y2="420.48001" />
    <linearGradient
       inkscape:collect="always"
       xlink:href="#linearGradient10193"
       id="linearGradient7734"
       gradientUnits="userSpaceOnUse"
       gradientTransform="translate(-0.0625,452.55)"
       x1="141.55"
       y1="-48.195"
       x2="137.69"
       y2="-41.5" />
    <linearGradient
       inkscape:collect="always"
       xlink:href="#linearGradient12438"
       id="linearGradient7736"
       gradientUnits="userSpaceOnUse"
       gradientTransform="matrix(0.72817,0,0,0.72817,305.5,243.52)"
       x1="121.18"
       y1="-80.467003"
       x2="121.18"
       y2="-56.902" />
    <linearGradient
       inkscape:collect="always"
       x1="49.253"
       y1="766.44"
       gradientTransform="matrix(0.4496,0,0,0.4496,190.36,1183.3)"
       x2="426.61"
       gradientUnits="userSpaceOnUse"
       y2="766.44"
       id="linearGradient3785">
      <stop
         offset="0"
         style="stop-color:#cccccc"
         id="stop3781" />
      <stop
         offset="1"
         style="stop-color:#666666"
         id="stop3783" />
    </linearGradient>
    <linearGradient
       inkscape:collect="always"
       xlink:href="#linearGradient3785"
       id="linearGradient6556"
       gradientUnits="userSpaceOnUse"
       gradientTransform="matrix(0.0962519,0,0,0.0962519,224.59274,486.44484)"
       x1="49.253"
       y1="766.44"
       x2="426.61"
       y2="766.44" />
  </defs>
  <sodipodi:namedview
     id="base"
     pagecolor="#ffffff"
     bordercolor="#666666"
     borderopacity="1.0"
     inkscape:pageopacity="0.0"
     inkscape:pageshadow="2"
     inkscape:zoom="0.83103679"
     inkscape:cx="198.29738"
     inkscape:cy="232.61914"
     inkscape:document-units="px"
     inkscape:current-layer="layer1"
     showgrid="false"
     inkscape:window-width="1384"
     inkscape:window-height="856"
     inkscape:window-x="0"
     inkscape:window-y="0"
     inkscape:window-maximized="1" />
  <metadata
     id="metadata7">
    <rdf:RDF>
      <cc:Work
         rdf:about="">
        <dc:format>image/svg+xml</dc:format>
        <dc:type
           rdf:resource="http://purl.org/dc/dcmitype/StillImage" />
        <dc:title></dc:title>
      </cc:Work>
    </rdf:RDF>
  </metadata>
  <g
     inkscape:label="Layer 1"
     inkscape:groupmode="layer"
     id="layer1"
     transform="translate(0,-802.36218)">
    <rect
       style="color:#000000;fill:#ffffff;stroke:#000000;stroke-width:3;stroke-linecap:round;stroke-linejoin:bevel;stroke-miterlimit:4;stroke-opacity:1;stroke-dasharray:none;stroke-dashoffset:0;marker:none;visibility:visible;display:inline;overflow:visible;enable-background:accumulate"
       id="rect4434"
       width="352.57162"
       height="340.53848"
       x="31.286221"
       y="-97.758369"
       transform="translate(0,802.36218)"
       ry="36.099483"
       inkscape:export-filename="/Users/pat/Sites/Wugbot/wugbot.org/img/wug_with_blowtorch.png"
       inkscape:export-xdpi="126.56"
       inkscape:export-ydpi="126.56" />
    <path
       style="opacity:0.3;color:#000000;fill:#ffff00;fill-opacity:1;fill-rule:nonzero;stroke:none;stroke-width:10;marker:none;visibility:visible;display:inline;overflow:visible;enable-background:accumulate"
       d="M 113.875 -97.75 L 125.3125 41.34375 L 141.78125 67.375 L 383.84375 99.25 L 383.84375 -61.65625 C 383.84375 -81.655364 367.74911 -97.75 347.75 -97.75 L 113.875 -97.75 z "
       transform="translate(0,802.36218)"
       id="path6597" />
    <g
       inkscape:tile-y0="97.465385"
       inkscape:tile-x0="394.10584"
       transform="matrix(-0.74450518,-0.97532913,1.1939925,-0.12766514,-2930.6955,1236.3582)"
       id="use7199">
      <path
         transform="translate(0,802.36218)"
         style="color:#000000;fill:#ffe680;fill-opacity:1;fill-rule:nonzero;stroke:none;stroke-width:20;marker:none;visibility:visible;display:inline;overflow:visible;enable-background:accumulate"
         d="m 226.09796,840.008 240.0945,0 0,9.15158 -244.93946,-0.53833 z"
         id="path7748"
         inkscape:connector-curvature="0"
         sodipodi:nodetypes="ccccc" />
      <path
         style="color:#000000;fill:#d4aa00;fill-opacity:1;fill-rule:nonzero;stroke:none;stroke-width:20;marker:none;visibility:visible;display:inline;overflow:visible;enable-background:accumulate"
         d="m 222.62607,1650.4325 247.34331,0.6638 -3.77692,6.8854 -240.0945,0 z"
         id="path7750"
         inkscape:connector-curvature="0"
         sodipodi:nodetypes="ccccc" />
      <path
         style="color:#000000;fill:#ff0000;fill-opacity:1;fill-rule:nonzero;stroke:none;stroke-width:20;marker:none;visibility:visible;display:inline;overflow:visible;enable-background:accumulate"
         d="m 461.31362,847.875 c 0.0216,0.37161 0.0479,0.75898 0.0937,1.125 -0.0458,0.36602 -0.0721,0.75338 -0.0937,1.125 0.23423,10.09172 10.52527,15.60772 18.71763,15.5 0.49193,0 0.98505,-0.0357 1.46875,-0.0625 0.65076,0.0372 1.32362,0.0567 2,0.0625 12.8952,0.1113 18.0625,-5.6961 18.0625,-15.5 0,-0.36946 -0.004,-0.76114 -0.0312,-1.125 0.0273,-0.36602 0.0312,-0.75331 0.0312,-1.125 0,-9.80389 -5.1673,-15.61134 -18.0625,-15.5 -0.57791,0.005 -1.15953,0.003 -1.71875,0.0312 -7.94398,0.0516 -21.21766,4.26478 -20.46763,15.46875 z"
         transform="translate(0,802.36218)"
         id="path7752"
         inkscape:connector-curvature="0"
         sodipodi:nodetypes="cccccsscsscc" />
    </g>
    <g
       inkscape:tile-y0="97.465385"
       inkscape:tile-x0="394.10584"
       transform="matrix(0.41500427,-1.1475627,0.83776751,0.79425804,-3460.1565,1314.7063)"
       id="use7201">
      <path
         transform="translate(0,802.36218)"
         style="color:#000000;fill:#ffe680;fill-opacity:1;fill-rule:nonzero;stroke:none;stroke-width:20;marker:none;visibility:visible;display:inline;overflow:visible;enable-background:accumulate"
         d="m 226.09796,840.008 240.0945,0 0,9.15158 -244.93946,-0.53833 z"
         id="path7740"
         inkscape:connector-curvature="0"
         sodipodi:nodetypes="ccccc" />
      <path
         style="color:#000000;fill:#d4aa00;fill-opacity:1;fill-rule:nonzero;stroke:none;stroke-width:20;marker:none;visibility:visible;display:inline;overflow:visible;enable-background:accumulate"
         d="m 222.62607,1650.4325 247.34331,0.6638 -3.77692,6.8854 -240.0945,0 z"
         id="path7742"
         inkscape:connector-curvature="0"
         sodipodi:nodetypes="ccccc" />
      <path
         style="color:#000000;fill:#ff0000;fill-opacity:1;fill-rule:nonzero;stroke:none;stroke-width:20;marker:none;visibility:visible;display:inline;overflow:visible;enable-background:accumulate"
         d="m 461.31362,847.875 c 0.0216,0.37161 0.0479,0.75898 0.0937,1.125 -0.0458,0.36602 -0.0721,0.75338 -0.0937,1.125 0.23423,10.09172 10.52527,15.60772 18.71763,15.5 0.49193,0 0.98505,-0.0357 1.46875,-0.0625 0.65076,0.0372 1.32362,0.0567 2,0.0625 12.8952,0.1113 18.0625,-5.6961 18.0625,-15.5 0,-0.36946 -0.004,-0.76114 -0.0312,-1.125 0.0273,-0.36602 0.0312,-0.75331 0.0312,-1.125 0,-9.80389 -5.1673,-15.61134 -18.0625,-15.5 -0.57791,0.005 -1.15953,0.003 -1.71875,0.0312 -7.94398,0.0516 -21.21766,4.26478 -20.46763,15.46875 z"
         transform="translate(0,802.36218)"
         id="path7744"
         inkscape:connector-curvature="0"
         sodipodi:nodetypes="cccccsscsscc" />
    </g>
    <g
       id="g6493"
       transform="matrix(0.64995356,-0.11197519,0.11197519,0.64995356,-161.40254,336.05137)"
       inkscape:transform-center-x="-39.741961">
      <g
         transform="translate(155.21826,340.87147)"
         id="g6479">
        <path
           id="path2998"
           sodipodi:nodetypes="ccccccccccccccccccccccccccccccccccccccsccccccccccccccccc"
           style="color:#000000;fill:#000000"
           inkscape:connector-curvature="0"
           d="m 241.31907,520.95508 c -0.32219,-1.5751 0.63564,-3.40029 2.38211,-3.37781 0.88652,-0.48136 1.12436,-4.5938 0.0486,-5.056 -1.07249,0.0246 -0.73591,1.65407 -1.50706,2.28491 -0.97339,1.83489 -4.03761,2.96677 -5.33539,0.84528 -1.06891,-1.21963 -0.94376,-3.41356 -0.78844,-4.67365 0.36096,-0.85792 0.50474,-2.71372 1.11659,-3.90124 1.19382,-0.96145 2.35663,-2.4549 4.29195,-2.22304 1.63673,0.12977 1.84242,2.21362 1.97605,3.48399 -0.63437,1.25926 0.99647,2.43242 0.78108,0.65843 0.039,-3.42169 -0.099,-6.86458 0.0972,-10.27043 1.44605,-1.8475 3.65612,-3.02307 5.78518,-3.94856 6.59419,-2.64393 13.93618,-1.76952 20.75859,-0.58337 1.45342,-0.0468 2.34058,1.72502 3.06268,-0.29056 2.73106,-3.40093 7.88341,-3.18642 11.37575,-1.11927 1.64619,0.76672 3.04063,1.96133 4.66145,2.76746 1.80937,-0.88153 5.64046,0.66261 3.01965,2.43434 -2.0378,0.38314 -4.36473,0.42703 -5.93118,-1.14254 -2.41294,-1.60214 -5.17611,-3.12155 -8.16707,-2.94108 -1.80956,0.4108 -3.99608,1.71766 -3.79185,3.79185 1.72706,2.7514 5.39234,2.85544 8.26448,3.30373 2.32644,0.20837 4.89994,0.39192 6.89755,-1.0605 3.13633,-1.78341 6.35871,-4.03676 10.15055,-3.77729 1.81121,0.49999 0.7484,3.09051 -0.95671,2.65228 -3.88519,0.18732 -6.69846,3.26263 -10.209,4.52122 -3.69294,1.05811 -7.65819,0.35151 -11.27855,-0.68059 -1.86249,-0.52752 -3.51547,-1.60196 -4.75201,-3.09115 0.67153,2.77795 -1.0698,4.32235 -3.78842,3.52788 -5.05152,-0.0803 -10.10239,-0.43945 -15.15647,-0.22776 -1.20535,1.82542 -1.87451,3.98067 -1.6931,6.19407 0.0278,2.67926 0.15556,5.38827 0.1103,8.08422 1.30955,0.35521 3.1177,0.12995 3.93785,1.36121 0.50168,1.91427 -2.33201,5.14335 0.73555,4.75929 l -1.09709,0.90527 c -1.77161,0.58864 -5.00399,0.0498 -2.13671,-1.74422 1.21846,-3.72698 -3.61544,-2.50928 -5.79052,-2.71287 -1.3699,0.35945 -5.68114,-0.40046 -4.21959,1.85529 2.78908,-0.20775 5.38998,0.99418 8.03584,1.65292 1.64037,0.73505 0.43977,1.61393 -1.45883,1.45045 -7.8149,-0.67288 -9.11161,-2.37589 -9.4308,-3.71199 z m 6.31996,-3.86399 c 3.92586,1.11296 2.29668,-3.65976 2.46046,-5.97635 -0.31096,-3.76252 0.0175,-8.27775 3.14231,-10.8566 5.77169,-0.20081 11.54616,0.17724 17.31892,0.18229 -0.24606,-1.38495 0.89232,-3.9751 -1.2137,-3.92629 -6.4818,-0.97155 -13.61827,-1.72009 -19.65286,1.37393 -0.75483,0.5017 -1.61339,0.91715 -2.34078,1.41121 -0.81829,1.84686 -0.20304,4.93762 -0.39443,7.27541 -0.002,3.52167 -4.3e-4,7.04313 -8.6e-4,10.5648 0.22762,-0.006 0.45761,0.0218 0.68062,-0.0486 z m -8.29017,-2.97512 c 1.86657,-1.48167 1.65917,-4.82308 1.18553,-6.6019 -1.14078,-0.31851 -0.92617,1.52402 -1.40299,2.23631 -0.44367,1.40752 -0.88513,3.15495 -0.0608,4.4675 z" />
        <path
           id="path3768"
           style="color:#000000;fill:#ff7f7e"
           inkscape:connector-curvature="0"
           d="m 288.31894,504.77038 c -0.0127,-0.0124 -0.36221,-0.0473 -0.77665,-0.0773 -0.70915,-0.0514 -1.14612,-0.10107 -2.39088,-0.27197 -0.28561,-0.0392 -0.59736,-0.0713 -0.69276,-0.0713 -0.0954,0 -0.17346,-0.0219 -0.17346,-0.0486 0,-0.0274 -0.13774,-0.0486 -0.31599,-0.0486 -0.17825,0 -0.31598,-0.0212 -0.31598,-0.0486 0,-0.0267 -0.10939,-0.0486 -0.24307,-0.0486 -0.13369,0 -0.24307,-0.0219 -0.24307,-0.0486 0,-0.027 -0.12964,-0.0486 -0.29169,-0.0486 -0.16205,0 -0.29169,-0.0216 -0.29169,-0.0486 0,-0.0267 -0.10938,-0.0486 -0.24307,-0.0486 -0.13369,0 -0.24307,-0.0219 -0.24307,-0.0486 0,-0.0267 -0.0875,-0.0486 -0.19446,-0.0486 -0.10695,0 -0.19446,-0.0219 -0.19446,-0.0486 0,-0.0267 -0.0656,-0.0486 -0.14584,-0.0486 -0.0802,0 -0.14585,-0.0219 -0.14585,-0.0486 0,-0.0267 -0.0656,-0.0486 -0.14584,-0.0486 -0.0802,0 -0.14585,-0.0219 -0.14585,-0.0486 0,-0.0267 -0.0547,-0.0486 -0.12154,-0.0486 -0.0668,0 -0.12153,-0.0219 -0.12153,-0.0486 0,-0.0267 -0.0875,-0.0486 -0.19446,-0.0486 -0.10695,0 -0.19446,-0.0219 -0.19446,-0.0486 0,-0.0267 0.10809,-0.0486 0.2402,-0.0486 0.13212,0 0.25373,0.0219 0.27026,0.0486 0.0165,0.0267 0.16002,0.0486 0.31886,0.0486 0.16013,0 0.28882,0.0217 0.28882,0.0486 0,0.0281 0.15299,0.0486 0.36173,0.0486 0.19896,0 0.37527,0.0219 0.3918,0.0486 0.0165,0.0267 0.18189,0.0486 0.36747,0.0486 0.19255,0 0.33744,0.021 0.33744,0.0486 0,0.0278 0.14584,0.0486 0.34031,0.0486 0.19446,0 0.3403,0.0208 0.3403,0.0486 0,0.0298 0.23498,0.0486 0.60768,0.0486 0.37272,0 0.60768,0.0188 0.60768,0.0486 0,0.0292 0.19445,0.0486 0.48614,0.0486 0.29168,0 0.48614,-0.0195 0.48614,-0.0486 0,-0.0299 0.24307,-0.0486 0.63199,-0.0486 0.38893,0 0.632,-0.0186 0.632,-0.0486 0,-0.027 0.12868,-0.0486 0.28882,-0.0486 0.15885,0 0.30233,-0.0219 0.31885,-0.0486 0.0165,-0.0267 0.14779,-0.0486 0.29169,-0.0486 0.1439,0 0.27516,-0.0219 0.29169,-0.0486 0.0165,-0.0267 0.10532,-0.0486 0.19733,-0.0486 0.092,0 0.16728,-0.0219 0.16728,-0.0486 0,-0.0267 0.0643,-0.0486 0.14298,-0.0486 0.0786,0 0.15649,-0.0219 0.17302,-0.0486 0.0165,-0.0267 0.10532,-0.0486 0.19732,-0.0486 0.092,0 0.16729,-0.0219 0.16729,-0.0486 0,-0.0267 0.0656,-0.0486 0.14584,-0.0486 0.0802,0 0.14584,-0.0219 0.14584,-0.0486 0,-0.0267 0.0547,-0.0486 0.12154,-0.0486 0.0668,0 0.12154,-0.0219 0.12154,-0.0486 0,-0.0267 0.0547,-0.0486 0.12153,-0.0486 0.0668,0 0.12154,-0.0219 0.12154,-0.0486 0,-0.0267 0.0437,-0.0486 0.0972,-0.0486 0.0535,0 0.0972,-0.0219 0.0972,-0.0486 0,-0.0267 0.0547,-0.0486 0.12154,-0.0486 0.0668,0 0.12153,-0.0219 0.12153,-0.0486 0,-0.0267 0.0438,-0.0486 0.0972,-0.0486 0.0535,0 0.0972,-0.0219 0.0972,-0.0486 0,-0.0267 0.0438,-0.0486 0.0972,-0.0486 0.0535,0 0.0972,-0.0219 0.0972,-0.0486 0,-0.0267 0.0389,-0.0486 0.0865,-0.0486 0.0476,0 0.11803,-0.0438 0.15658,-0.0972 0.0385,-0.0535 0.109,-0.0972 0.15657,-0.0972 0.0476,0 0.0865,-0.0182 0.0865,-0.0404 0,-0.0222 0.0602,-0.0713 0.13369,-0.10905 0.0735,-0.0378 0.1665,-0.1036 0.20661,-0.14629 0.0401,-0.0427 0.13309,-0.0925 0.20662,-0.11064 0.0735,-0.0182 0.13369,-0.0545 0.13369,-0.0807 0,-0.0262 0.0437,-0.0477 0.0972,-0.0477 0.0535,0 0.0972,-0.0219 0.0972,-0.0486 0,-0.0267 0.0352,-0.0486 0.0783,-0.0486 0.095,0 0.60722,-0.26829 0.73158,-0.38319 0.12149,-0.11222 0.49434,-0.35769 0.67289,-0.443 0.0802,-0.0383 0.20053,-0.10591 0.26739,-0.1502 0.0668,-0.0443 0.28561,-0.16733 0.48614,-0.27341 0.71163,-0.37642 0.80232,-0.42782 0.81835,-0.46387 0.009,-0.0201 0.0581,-0.0365 0.10939,-0.0365 0.0513,0 0.0932,-0.0219 0.0932,-0.0486 0,-0.0267 0.0437,-0.0486 0.0972,-0.0486 0.0535,0 0.0972,-0.0165 0.0972,-0.0367 0,-0.0346 0.0516,-0.0569 0.4983,-0.21445 0.10026,-0.0354 0.1823,-0.0808 0.1823,-0.10103 0,-0.0201 0.0656,-0.0367 0.14585,-0.0367 0.0802,0 0.14584,-0.0219 0.14584,-0.0486 0,-0.0267 0.0438,-0.0486 0.0972,-0.0486 0.0535,0 0.0972,-0.0219 0.0972,-0.0486 0,-0.0267 0.0656,-0.0486 0.14584,-0.0486 0.0802,0 0.14585,-0.0219 0.14585,-0.0486 0,-0.0267 0.0656,-0.0486 0.14584,-0.0486 0.0802,0 0.14585,-0.0219 0.14585,-0.0486 0,-0.0267 0.0547,-0.0486 0.12153,-0.0486 0.0668,0 0.12154,-0.0219 0.12154,-0.0486 0,-0.0267 0.0534,-0.0486 0.11867,-0.0486 0.0653,0 0.13218,-0.0219 0.14871,-0.0486 0.0165,-0.0267 0.2147,-0.0486 0.44041,-0.0486 0.24117,0 0.41036,-0.0201 0.41036,-0.0486 0,-0.0296 0.21877,-0.0486 0.55908,-0.0486 0.3403,0 0.55905,-0.0191 0.55905,-0.0486 0,-0.0267 0.0875,-0.0486 0.19446,-0.0486 0.10696,0 0.19446,-0.0219 0.19446,-0.0486 0,-0.0267 0.0608,-0.0486 0.13511,-0.0486 0.0794,0 0.16404,-0.0401 0.20519,-0.0972 0.0385,-0.0535 0.0991,-0.0972 0.13448,-0.0972 0.0712,0 0.30306,-0.21447 0.30306,-0.28032 0,-0.0229 0.0447,-0.0896 0.0993,-0.14819 0.0871,-0.0936 0.0993,-0.17019 0.0993,-0.62833 0,-0.31856 -0.0197,-0.52838 -0.0506,-0.53868 -0.0279,-0.009 -0.0506,-0.0479 -0.0506,-0.0857 0,-0.0379 -0.0219,-0.0689 -0.0486,-0.0689 -0.0267,0 -0.0486,-0.0338 -0.0486,-0.0751 0,-0.0865 -0.21219,-0.31379 -0.29295,-0.31379 -0.0299,0 -0.0849,-0.0306 -0.12221,-0.0679 -0.0374,-0.0374 -0.18824,-0.10578 -0.3353,-0.15202 -0.37227,-0.11711 -1.25569,-0.0707 -2.3851,0.12528 -0.16043,0.0278 -0.38467,0.0627 -0.4983,0.0775 -0.11364,0.0148 -0.20662,0.0466 -0.20662,0.0706 0,0.0241 -0.0477,0.0437 -0.10593,0.0437 -0.0583,0 -0.17311,0.0206 -0.25523,0.0459 -0.0821,0.0253 -0.31873,0.0964 -0.52581,0.158 -0.20709,0.0616 -0.37664,0.12847 -0.37677,0.14853 -9e-5,0.0201 -0.044,0.0365 -0.0975,0.0365 -0.0535,0 -0.0972,0.0219 -0.0972,0.0486 0,0.0267 -0.0437,0.0486 -0.0972,0.0486 -0.0535,0 -0.0972,0.0219 -0.0972,0.0486 0,0.0267 -0.0334,0.0486 -0.0743,0.0486 -0.0409,0 -0.20433,0.0656 -0.36322,0.14583 -0.1589,0.0802 -0.33328,0.14586 -0.38753,0.14586 -0.0542,0 -0.0986,0.0218 -0.0986,0.0486 0,0.0267 -0.0328,0.0486 -0.0729,0.0486 -0.0401,0 -0.0729,0.0219 -0.0729,0.0486 0,0.0267 -0.0547,0.0486 -0.12154,0.0486 -0.0668,0 -0.12153,0.0219 -0.12153,0.0486 0,0.0267 -0.0438,0.0486 -0.0972,0.0486 -0.0535,0 -0.0972,0.0218 -0.0972,0.0486 0,0.0267 -0.0438,0.0486 -0.0972,0.0486 -0.0535,0 -0.0972,0.0219 -0.0972,0.0486 0,0.0267 -0.0328,0.0486 -0.0729,0.0486 -0.0401,0 -0.0729,0.0219 -0.0729,0.0486 0,0.0267 -0.0437,0.0486 -0.0972,0.0486 -0.0535,0 -0.0972,0.0219 -0.0972,0.0486 0,0.0267 -0.0438,0.0486 -0.0972,0.0486 -0.0535,0 -0.0972,0.0219 -0.0972,0.0486 0,0.0267 -0.0328,0.0486 -0.0729,0.0486 -0.0401,0 -0.0729,0.0219 -0.0729,0.0486 0,0.0267 -0.0437,0.0486 -0.0972,0.0486 -0.0535,0 -0.0972,0.0219 -0.0972,0.0486 0,0.0267 -0.0437,0.0486 -0.0972,0.0486 -0.0535,0 -0.0972,0.0219 -0.0972,0.0486 0,0.0267 -0.0438,0.0486 -0.0972,0.0486 -0.0535,0 -0.0972,0.0219 -0.0972,0.0486 0,0.0267 -0.0437,0.0486 -0.0972,0.0486 -0.0535,0 -0.0972,0.0219 -0.0972,0.0486 0,0.0267 -0.0437,0.0486 -0.0972,0.0486 -0.0535,0 -0.0972,0.0219 -0.0972,0.0486 0,0.0267 -0.0389,0.0486 -0.0865,0.0486 -0.0476,0 -0.11803,0.0438 -0.15658,0.0972 -0.0385,0.0535 -0.10417,0.0972 -0.14584,0.0972 -0.0417,0 -0.1073,0.0438 -0.14585,0.0972 -0.0385,0.0535 -0.109,0.0972 -0.15657,0.0972 -0.0476,0 -0.0865,0.0219 -0.0865,0.0486 0,0.0267 -0.0389,0.0486 -0.0865,0.0486 -0.0476,0 -0.11803,0.0438 -0.15657,0.0972 -0.0385,0.0535 -0.10418,0.0972 -0.14585,0.0972 -0.0417,0 -0.1073,0.0437 -0.14584,0.0972 -0.0385,0.0535 -0.109,0.0972 -0.15658,0.0972 -0.0476,0 -0.0865,0.0219 -0.0865,0.0486 0,0.0267 -0.0498,0.0486 -0.11072,0.0486 -0.10512,0 -0.2454,0.0776 -0.43758,0.24203 -0.15761,0.13483 -0.65024,0.40335 -0.98305,0.53582 -0.0535,0.0212 -0.1738,0.0722 -0.26739,0.11306 -0.0936,0.0409 -0.26859,0.10561 -0.38893,0.1438 -0.2061,0.0654 -0.33427,0.10111 -0.80215,0.22353 -0.49179,0.12866 -1.05145,0.16127 -2.28491,0.13314 -2.00217,-0.0457 -3.46686,-0.19482 -4.61842,-0.47035 -0.51018,-0.12207 -0.88421,-0.18882 -1.49634,-0.26702 -0.15452,-0.0197 -0.29254,-0.0547 -0.30671,-0.0776 -0.0142,-0.0229 -0.0721,-0.0417 -0.12882,-0.0417 -0.10646,0 -0.43163,-0.10091 -0.47458,-0.14726 -0.0134,-0.0144 -0.18838,-0.0794 -0.38892,-0.14442 -0.20054,-0.065 -0.37559,-0.13336 -0.38903,-0.15187 -0.0134,-0.0184 -0.10641,-0.0491 -0.20662,-0.0679 -0.1002,-0.0188 -0.18219,-0.0536 -0.18219,-0.0774 0,-0.0238 -0.0438,-0.0432 -0.0972,-0.0432 -0.0535,0 -0.0972,-0.0219 -0.0972,-0.0486 0,-0.0267 -0.0438,-0.0486 -0.0972,-0.0486 -0.0535,0 -0.0972,-0.0219 -0.0972,-0.0486 0,-0.0267 -0.0389,-0.0486 -0.0865,-0.0486 -0.0476,0 -0.11804,-0.0438 -0.15658,-0.0972 -0.0385,-0.0535 -0.10753,-0.0972 -0.1533,-0.0972 -0.0458,0 -0.0971,-0.0438 -0.11408,-0.0972 -0.017,-0.0535 -0.0574,-0.0972 -0.0898,-0.0972 -0.0324,0 -0.0904,-0.0438 -0.12899,-0.0972 -0.0385,-0.0535 -0.0882,-0.0972 -0.11031,-0.0972 -0.0537,0 -0.71615,-0.67355 -0.71615,-0.72814 0,-0.0235 -0.03,-0.0727 -0.0666,-0.10938 -0.0366,-0.0367 -0.10457,-0.14003 -0.15097,-0.22973 -0.12696,-0.24553 -0.0653,-0.89099 0.1126,-1.17816 0.0714,-0.11531 0.16254,-0.27512 0.2025,-0.35517 0.04,-0.08 0.31539,-0.38631 0.61208,-0.68059 0.59661,-0.59181 0.67081,-0.65664 0.75161,-0.65664 0.0305,0 0.11677,-0.0656 0.19171,-0.14583 0.0749,-0.0802 0.17121,-0.14586 0.21396,-0.14586 0.0428,0 0.0777,-0.0219 0.0777,-0.0486 0,-0.0267 0.0438,-0.0486 0.0972,-0.0486 0.0535,0 0.0972,-0.0219 0.0972,-0.0486 0,-0.0267 0.0656,-0.0486 0.14585,-0.0486 0.0802,0 0.14584,-0.0219 0.14584,-0.0486 0,-0.0267 0.0656,-0.0486 0.14585,-0.0486 0.0802,0 0.14584,-0.0219 0.14584,-0.0486 0,-0.0267 0.0656,-0.0486 0.14584,-0.0486 0.0802,0 0.14585,-0.0219 0.14585,-0.0486 0,-0.0267 0.0875,-0.0486 0.19446,-0.0486 0.10695,0 0.19445,-0.0219 0.19445,-0.0486 0,-0.0307 0.3322,-0.0486 0.89937,-0.0486 0.51123,0 0.89936,0.0193 0.89936,0.0445 0,0.0245 0.13673,0.0563 0.30385,0.0708 0.52307,0.0453 0.76569,0.0874 0.76569,0.13269 0,0.024 0.0656,0.0437 0.14585,0.0437 0.0802,0 0.14584,0.0219 0.14584,0.0486 0,0.0267 0.0437,0.0486 0.0972,0.0486 0.0535,0 0.0972,0.0219 0.0972,0.0486 0,0.0267 0.0656,0.0486 0.14584,0.0486 0.0802,0 0.14585,0.0219 0.14585,0.0486 0,0.0267 0.0656,0.0486 0.14584,0.0486 0.0802,0 0.14585,0.0219 0.14585,0.0486 0,0.0267 0.0437,0.0486 0.0972,0.0486 0.0535,0 0.0972,0.0219 0.0972,0.0486 0,0.0267 0.0437,0.0486 0.0972,0.0486 0.0535,0 0.0972,0.0219 0.0972,0.0486 0,0.0267 0.0656,0.0486 0.14584,0.0486 0.0802,0 0.14584,0.0165 0.14584,0.0368 0,0.0201 0.0711,0.0675 0.158,0.10512 0.0869,0.0376 0.34395,0.15497 0.57122,0.26081 0.22727,0.10585 0.54752,0.25491 0.71165,0.33128 0.35326,0.16435 1.10448,0.61769 1.12762,0.6805 0.009,0.0242 0.0581,0.044 0.10939,0.044 0.0512,0 0.0932,0.0193 0.0932,0.0427 0,0.0235 0.0656,0.0699 0.14584,0.10314 0.0802,0.0332 0.14584,0.077 0.14584,0.0972 0,0.0203 0.0656,0.064 0.14585,0.0972 0.0802,0.0332 0.14584,0.077 0.14584,0.0972 0,0.0203 0.0656,0.064 0.14585,0.0972 0.0802,0.0332 0.14584,0.077 0.14584,0.0972 0,0.0203 0.0656,0.064 0.14585,0.0972 0.0802,0.0332 0.14584,0.0763 0.14584,0.0957 0,0.0195 0.0875,0.0748 0.19446,0.12301 0.10695,0.0482 0.19446,0.10477 0.19446,0.12564 0,0.021 0.0445,0.0521 0.0988,0.0693 0.0543,0.0171 0.15178,0.0843 0.21657,0.14911 0.0648,0.0648 0.14063,0.11777 0.16858,0.11777 0.028,0 0.0508,0.0219 0.0508,0.0486 0,0.0267 0.0328,0.0486 0.0729,0.0486 0.0401,0 0.0729,0.0219 0.0729,0.0486 0,0.0267 0.0547,0.0486 0.12154,0.0486 0.0668,0 0.12154,0.0219 0.12154,0.0486 0,0.0267 0.0547,0.0486 0.12153,0.0486 0.0668,0 0.12154,0.0219 0.12154,0.0486 0,0.0267 0.0875,0.0486 0.19446,0.0486 0.10695,0 0.19446,0.0226 0.19446,0.0501 0,0.0338 0.42397,0.0423 1.30045,0.0261 1.68184,-0.0311 2.4429,-0.0709 2.4429,-0.12779 0,-0.0251 0.0547,-0.0457 0.12154,-0.0457 0.0668,0 0.12154,-0.0219 0.12154,-0.0486 0,-0.0267 0.0328,-0.0486 0.0729,-0.0486 0.0401,0 0.0729,-0.0219 0.0729,-0.0486 0,-0.0267 0.0328,-0.0486 0.0729,-0.0486 0.0401,0 0.0729,-0.0186 0.0729,-0.0412 0,-0.0364 0.0592,-0.1177 0.24594,-0.33757 0.0293,-0.0345 0.0874,-0.19738 0.12921,-0.36193 0.0598,-0.23562 0.0649,-0.34623 0.024,-0.52063 -0.0285,-0.12181 -0.0648,-0.28162 -0.0806,-0.35518 -0.0433,-0.2016 -0.54544,-0.68224 -0.789,-0.7552 -0.21027,-0.063 -1.04976,-0.0918 -1.21184,-0.0415 -0.0507,0.0156 -0.28903,0.0537 -0.52966,0.0845 -1.01776,0.13017 -1.3985,0.0798 -1.89597,-0.25084 -0.18717,-0.1244 -0.38952,-0.24174 -0.44968,-0.26073 -0.0602,-0.019 -0.10938,-0.0549 -0.10938,-0.0799 0,-0.0249 -0.0389,-0.0453 -0.0865,-0.0453 -0.0476,0 -0.11803,-0.0438 -0.15658,-0.0972 -0.0385,-0.0535 -0.109,-0.0972 -0.15657,-0.0972 -0.0476,0 -0.0865,-0.0219 -0.0865,-0.0486 0,-0.0267 -0.0328,-0.0486 -0.0729,-0.0486 -0.0401,0 -0.0729,-0.0219 -0.0729,-0.0486 0,-0.0267 -0.028,-0.0486 -0.0622,-0.0486 -0.0342,0 -0.0937,-0.0438 -0.13227,-0.0972 -0.0386,-0.0535 -0.10418,-0.0972 -0.14585,-0.0972 -0.0417,0 -0.1073,-0.0438 -0.14584,-0.0972 -0.0385,-0.0535 -0.109,-0.0972 -0.15658,-0.0972 -0.0476,0 -0.0865,-0.0219 -0.0865,-0.0486 0,-0.0267 -0.0389,-0.0486 -0.0865,-0.0486 -0.0476,0 -0.11804,-0.0438 -0.15658,-0.0972 -0.0385,-0.0535 -0.109,-0.0972 -0.15657,-0.0972 -0.0476,0 -0.0865,-0.0219 -0.0865,-0.0486 0,-0.0267 -0.0389,-0.0486 -0.0865,-0.0486 -0.0476,0 -0.11803,-0.0438 -0.15658,-0.0972 -0.0385,-0.0535 -0.109,-0.0972 -0.15657,-0.0972 -0.0476,0 -0.0865,-0.0219 -0.0865,-0.0486 0,-0.0267 -0.0437,-0.0486 -0.0972,-0.0486 -0.0535,0 -0.0972,-0.0219 -0.0972,-0.0486 0,-0.0267 -0.0287,-0.0486 -0.0638,-0.0486 -0.0351,0 -0.11072,-0.0438 -0.16812,-0.0972 -0.0574,-0.0535 -0.1381,-0.0972 -0.17932,-0.0972 -0.0412,0 -0.075,-0.0219 -0.075,-0.0486 0,-0.0267 -0.0328,-0.0486 -0.0729,-0.0486 -0.0401,0 -0.0729,-0.0219 -0.0729,-0.0486 0,-0.0267 -0.0437,-0.0486 -0.0972,-0.0486 -0.0535,0 -0.0972,-0.0219 -0.0972,-0.0486 0,-0.0267 -0.0437,-0.0486 -0.0972,-0.0486 -0.0535,0 -0.0972,-0.0219 -0.0972,-0.0486 0,-0.0267 -0.0437,-0.0486 -0.0972,-0.0486 -0.0535,0 -0.0972,-0.0219 -0.0972,-0.0486 0,-0.0267 -0.0383,-0.0491 -0.0851,-0.0497 -0.0468,0 -0.13977,-0.0439 -0.20662,-0.0962 -0.0668,-0.0523 -0.14552,-0.0955 -0.17483,-0.0961 -0.0293,0 -0.11682,-0.0315 -0.19446,-0.0687 -0.0776,-0.0372 -0.22866,-0.10557 -0.33562,-0.15194 -0.10695,-0.0464 -0.35853,-0.16154 -0.55906,-0.25593 -0.20053,-0.0944 -0.44118,-0.18908 -0.53476,-0.21045 -0.22119,-0.0505 -0.61138,-0.14647 -1.17891,-0.28999 -0.33977,-0.0859 -1.59811,-0.24855 -1.95674,-0.25288 -0.63378,-0.008 -1.56954,0.0764 -1.82629,0.16412 -0.14884,0.0508 -0.31838,0.0924 -0.37676,0.0924 -0.0584,0 -0.10615,0.0219 -0.10615,0.0486 0,0.0267 -0.0457,0.0486 -0.10149,0.0486 -0.12761,0 -1.03528,0.30227 -1.05716,0.35204 -0.009,0.0203 -0.0351,0.0369 -0.0582,0.0369 -0.0231,0 -0.1726,0.0766 -0.33228,0.17015 -0.15967,0.0936 -0.30305,0.17015 -0.31859,0.17015 -0.0156,0 -0.0281,-0.0492 -0.028,-0.10937 4.3e-4,-0.14584 0.13025,-0.33483 0.46296,-0.674 0.23162,-0.23611 0.32905,-0.29758 0.6092,-0.38428 0.31429,-0.0973 0.41121,-0.10201 1.68449,-0.0821 0.74304,0.0116 1.67914,0.0563 2.08023,0.0992 0.40106,0.043 0.87296,0.0787 1.04864,0.0796 0.17569,0 0.52438,0.0453 0.77485,0.0988 0.25048,0.0535 0.7521,0.11952 1.11472,0.14664 0.74845,0.056 0.84954,0.0708 1.3885,0.20332 0.62452,0.15356 0.74715,0.17919 1.34549,0.28116 0.31222,0.0532 0.66225,0.1272 0.77783,0.16445 0.1156,0.0373 0.35238,0.095 0.52617,0.12833 0.1738,0.0333 0.56874,0.12327 0.87766,0.19991 0.30892,0.0766 0.66441,0.15339 0.78999,0.1706 0.12558,0.0171 0.22834,0.0502 0.22834,0.0733 0,0.0231 0.0985,0.042 0.21877,0.042 0.12032,0 0.21877,0.0219 0.21877,0.0486 0,0.0267 0.0766,0.0486 0.17016,0.0486 0.0936,0 0.17015,0.0219 0.17015,0.0486 0,0.0267 0.0766,0.0486 0.17015,0.0486 0.0936,0 0.17015,0.0219 0.17015,0.0486 0,0.0267 0.0547,0.0486 0.12154,0.0486 0.0668,0 0.12153,0.0218 0.12153,0.0486 0,0.0267 0.0656,0.0486 0.14585,0.0486 0.0802,0 0.14584,0.0219 0.14584,0.0486 0,0.0267 0.0656,0.0486 0.14585,0.0486 0.0802,0 0.14584,0.0219 0.14584,0.0486 0,0.0267 0.0656,0.0486 0.14585,0.0486 0.0802,0 0.14584,0.0219 0.14584,0.0486 0,0.0267 0.0656,0.0486 0.14584,0.0486 0.0802,0 0.14585,0.0219 0.14585,0.0486 0,0.0267 0.0656,0.0486 0.14584,0.0486 0.0802,0 0.14585,0.0219 0.14585,0.0486 0,0.0267 0.0656,0.0486 0.14584,0.0486 0.0802,0 0.14584,0.0219 0.14584,0.0486 0,0.0267 0.0875,0.0486 0.19446,0.0486 0.10696,0 0.19446,0.0219 0.19446,0.0486 0,0.0267 0.0438,0.0486 0.0972,0.0486 0.0535,0 0.0972,0.0219 0.0972,0.0486 0,0.0267 0.0547,0.0486 0.12154,0.0486 0.0668,0 0.12154,0.0219 0.12154,0.0486 0,0.0267 0.0656,0.0486 0.14584,0.0486 0.0802,0 0.14584,0.0219 0.14584,0.0486 0,0.0267 0.0766,0.0486 0.17016,0.0486 0.0936,0 0.17015,0.0219 0.17015,0.0486 0,0.0267 0.0656,0.0486 0.14584,0.0486 0.0802,0 0.14585,0.0219 0.14585,0.0486 0,0.0267 0.0547,0.0486 0.12153,0.0486 0.0668,0 0.12154,0.0219 0.12154,0.0486 0,0.0267 0.0656,0.0486 0.14584,0.0486 0.0802,0 0.14585,0.0219 0.14585,0.0486 0,0.0267 0.0875,0.0486 0.19446,0.0486 0.10695,0 0.19446,0.0219 0.19446,0.0486 0,0.0267 0.0437,0.0486 0.0972,0.0486 0.0535,0 0.0972,0.0219 0.0972,0.0486 0,0.0267 0.0656,0.0486 0.14585,0.0486 0.0802,0 0.14584,0.0219 0.14584,0.0486 0,0.0267 0.0656,0.0486 0.14585,0.0486 0.0802,0 0.14584,0.0219 0.14584,0.0486 0,0.0267 0.0656,0.0486 0.14585,0.0486 0.0802,0 0.14584,0.0195 0.14584,0.0434 0,0.12209 1.05188,0.2308 2.81969,0.29137 0.79958,0.0274 1.45427,0.0746 1.72584,0.12446 0.70668,0.12972 2.12676,0.41593 2.28491,0.46052 0.0802,0.0226 0.41382,0.0921 0.74137,0.15448 0.57119,0.10871 0.59579,0.11839 0.60224,0.23661 0.006,0.10924 0.005,0.322 -0.004,0.73786 -0.002,0.0911 -0.0345,0.13662 -0.1121,0.15673 -0.10335,0.0268 -0.26486,0.1439 -0.50872,0.36901 -0.0592,0.0546 -0.12058,0.0994 -0.13638,0.0994 -0.0158,0 -0.15852,0.13673 -0.31715,0.30385 -0.15862,0.16711 -0.37391,0.39404 -0.47845,0.50429 -0.10453,0.11028 -0.21715,0.25108 -0.25024,0.31295 -0.0587,0.1097 -0.10534,0.17298 -0.22935,0.31126 -0.0334,0.0373 -0.0608,0.0934 -0.0608,0.12466 0,0.0313 -0.0656,0.11819 -0.14584,0.19312 -0.0802,0.0749 -0.14585,0.1617 -0.14585,0.1928 0,0.0311 -0.10938,0.16314 -0.24307,0.29334 -0.13369,0.13023 -0.24307,0.26223 -0.24307,0.29334 0,0.0311 -0.0656,0.11787 -0.14584,0.1928 -0.0802,0.075 -0.14585,0.15018 -0.14585,0.16722 0,0.0334 -0.71101,0.73223 -1.12899,1.10962 -0.29239,0.26398 -0.55766,0.45983 -0.6819,0.50341 -0.0468,0.0165 -0.0851,0.0492 -0.0851,0.0728 0,0.0236 -0.0438,0.043 -0.0972,0.043 -0.0535,0 -0.0972,0.0219 -0.0972,0.0486 0,0.0267 -0.0438,0.0486 -0.0972,0.0486 -0.0535,0 -0.0972,0.0218 -0.0972,0.0486 0,0.0267 -0.0328,0.0486 -0.0729,0.0486 -0.0401,0 -0.0729,0.0219 -0.0729,0.0486 0,0.0267 -0.0547,0.0486 -0.12153,0.0486 -0.0669,0 -0.12154,0.0219 -0.12154,0.0486 0,0.0267 -0.0437,0.0486 -0.0972,0.0486 -0.0535,0 -0.0972,0.0219 -0.0972,0.0486 0,0.0267 -0.0547,0.0486 -0.12153,0.0486 -0.0668,0 -0.12154,0.0219 -0.12154,0.0486 0,0.0267 -0.0547,0.0486 -0.12154,0.0486 -0.0668,0 -0.12154,0.0219 -0.12154,0.0486 0,0.0267 -0.0437,0.0486 -0.0972,0.0486 -0.0535,0 -0.0972,0.0219 -0.0972,0.0486 0,0.0267 -0.0438,0.0486 -0.0972,0.0486 -0.0535,0 -0.0972,0.0219 -0.0972,0.0486 0,0.0267 -0.0437,0.0486 -0.0972,0.0486 -0.0535,0 -0.0972,0.0219 -0.0972,0.0486 0,0.0267 -0.0656,0.0486 -0.14584,0.0486 -0.0802,0 -0.14585,0.0219 -0.14585,0.0486 0,0.0267 -0.0438,0.0486 -0.0972,0.0486 -0.0535,0 -0.0972,0.0219 -0.0972,0.0486 0,0.0267 -0.0656,0.0486 -0.14584,0.0486 -0.0802,0 -0.14585,0.0219 -0.14585,0.0486 0,0.0267 -0.0656,0.0486 -0.14584,0.0486 -0.0802,0 -0.14584,0.0219 -0.14584,0.0486 0,0.0267 -0.0656,0.0486 -0.14585,0.0486 -0.0802,0 -0.14584,0.0219 -0.14584,0.0486 0,0.0267 -0.0656,0.0486 -0.14585,0.0486 -0.0802,0 -0.14584,0.0219 -0.14584,0.0486 0,0.0267 -0.0656,0.0486 -0.14585,0.0486 -0.0802,0 -0.14584,0.0219 -0.14584,0.0486 0,0.0267 -0.0766,0.0486 -0.17015,0.0486 -0.0936,0 -0.17015,0.0219 -0.17015,0.0486 0,0.0267 -0.0656,0.0486 -0.14585,0.0486 -0.0802,0 -0.14584,0.0219 -0.14584,0.0486 0,0.0267 -0.0656,0.0486 -0.14585,0.0486 -0.0802,0 -0.14584,0.0219 -0.14584,0.0486 0,0.0267 -0.0875,0.0486 -0.19446,0.0486 -0.10695,0 -0.19446,0.0219 -0.19446,0.0486 0,0.0267 -0.0656,0.0486 -0.14584,0.0486 -0.0802,0 -0.14585,0.0219 -0.14585,0.0486 0,0.0267 -0.0984,0.0486 -0.21877,0.0486 -0.12032,0 -0.21877,0.0191 -0.21877,0.0424 0,0.0233 -0.10392,0.0555 -0.23091,0.0715 -0.12701,0.0161 -0.37313,0.0645 -0.54692,0.10771 -0.68667,0.17081 -1.74752,0.27443 -3.03956,0.29687 -0.69583,0.012 -1.27557,0.0118 -1.28829,0 z m -3.49898,-6.54603 c 0,-0.0267 0.0766,-0.0486 0.17015,-0.0486 0.0936,0 0.17016,-0.0219 0.17016,-0.0486 0,-0.0267 0.0766,-0.0486 0.17015,-0.0486 0.0936,0 0.17015,-0.0219 0.17015,-0.0486 0,-0.0267 0.0608,-0.0486 0.13511,-0.0486 0.0793,0 0.16404,-0.0401 0.20519,-0.0972 0.0385,-0.0535 0.0887,-0.0972 0.11144,-0.0972 0.0227,0 0.0726,-0.0313 0.1108,-0.0695 0.0785,-0.0785 0.0954,-0.41669 0.0208,-0.41669 -0.0267,0 -0.0486,-0.0228 -0.0486,-0.0507 0,-0.12194 -0.26082,-0.36747 -0.90344,-0.85044 -0.83865,-0.63033 -0.78686,-0.62014 -3.02414,-0.59492 -1.13922,0.0128 -1.91617,0.0416 -2.05211,0.076 -0.12033,0.0304 -0.47974,0.0908 -0.79871,0.13427 -0.77791,0.10593 -1.68368,0.4068 -1.912,0.6351 -0.037,0.037 -0.0853,0.0673 -0.10729,0.0673 -0.022,0 -0.10552,0.0602 -0.18561,0.13367 -0.0801,0.0735 -0.19382,0.16652 -0.25275,0.20661 -0.0589,0.0401 -0.15219,0.11122 -0.20727,0.15802 -0.0551,0.0468 -0.11866,0.0851 -0.14131,0.0851 -0.0226,0 -0.0412,0.0219 -0.0412,0.0486 0,0.0267 0.0656,0.0486 0.14585,0.0486 0.0802,0 0.14584,0.0219 0.14584,0.0486 0,0.0267 0.0656,0.0486 0.14585,0.0486 0.0802,0 0.14584,0.0219 0.14584,0.0486 0,0.0267 0.0656,0.0486 0.14585,0.0486 0.0802,0 0.14584,0.0219 0.14584,0.0486 0,0.0267 0.0875,0.0486 0.19446,0.0486 0.10695,0 0.19446,0.0219 0.19446,0.0486 0,0.0267 0.10938,0.0486 0.24307,0.0486 0.13369,0 0.24307,0.0219 0.24307,0.0486 0,0.0267 0.0875,0.0486 0.19446,0.0486 0.10695,0 0.19446,0.0219 0.19446,0.0486 0,0.0267 0.0437,0.0486 0.0972,0.0486 0.0535,0 0.0972,0.0219 0.0972,0.0486 0,0.0267 0.10938,0.0486 0.24307,0.0486 0.13369,0 0.24307,0.0219 0.24307,0.0486 0,0.0288 0.17825,0.0486 0.43752,0.0486 0.25927,0 0.43754,0.0197 0.43754,0.0486 0,0.0317 0.81836,0.0486 2.35792,0.0486 1.53947,0 2.35791,-0.0169 2.35791,-0.0486 z" />
        <path
           id="path3770"
           style="color:#000000;fill:#fbffc2"
           inkscape:connector-curvature="0"
           d="m 280.38929,498.26224 c -0.0131,-0.0131 -0.27377,-0.0457 -0.57933,-0.0726 -0.30556,-0.0268 -0.64306,-0.0612 -0.75002,-0.0765 -0.18683,-0.0266 -0.2414,-0.0434 -0.51046,-0.15733 -0.12147,-0.0514 -0.22098,-0.076 -0.63199,-0.15596 -0.47578,-0.0926 -0.5989,-0.12788 -1.45021,-0.41567 -0.0698,-0.0236 0.86355,-0.74676 1.15439,-0.89446 0.57031,-0.28968 1.89504,-0.55351 3.20418,-0.63814 1.00504,-0.065 3.21404,-0.0356 3.46879,0.0461 0.21816,0.07 0.55305,0.2945 1.14676,0.76876 0.46433,0.3709 0.69201,0.65428 0.69201,0.86121 0,0.13629 -0.3508,0.4666 -0.49556,0.4666 -0.049,0 -0.12713,0.0193 -0.17356,0.0426 -0.14729,0.0744 -0.41479,0.14588 -0.74071,0.1979 -0.31125,0.0497 -4.2868,0.0748 -4.33433,0.0274 z" />
        <path
           id="path3777"
           sodipodi:nodetypes="cscsssssc"
           style="fill:#ffcc00;stroke:#000000;stroke-width:2.27766776"
           inkscape:connector-curvature="0"
           d="m 238.9192,581.34785 c 0,0 17.00935,-1.65407 22.7592,0.29191 5.74964,1.94589 7.42656,8.27035 7.42656,8.27035 0,0 4.43195,29.64957 3.71327,59.32407 -0.7187,29.67643 -1.07692,30.42832 -2.87492,31.9129 -9.43894,7.8008 -38.22459,3.36948 -40.24768,2.82168 -7.54644,-2.04333 -9.22336,-11.09203 -9.46292,-44.56259 -0.15323,-21.40953 1.39375,-51.54053 4.91108,-54.07047 7.30688,-5.25418 13.77519,-3.98921 13.77519,-3.98921 z" />
        <path
           id="path3773"
           sodipodi:nodetypes="cscssscczc"
           style="fill:url(#linearGradient6556);stroke:#000000;stroke-width:2.40629745"
           inkscape:connector-curvature="0"
           d="m 245.38666,521.31902 c 0,0 -10.12015,2.06255 -12.32029,5.22514 -2.20013,3.16259 -1.10002,53.37955 -1.10002,53.37955 0,0 7.78278,8.80011 20.02043,7.01273 4.54178,-0.66342 9.22807,-0.38312 11.03408,-6.23796 3.0601,-9.92084 -3.71093,-18.85176 -3.8839,-24.64528 -0.27502,-9.21265 4.81259,-14.65786 4.81259,-14.65786 l -1.23753,-7.15018 c 0,0 3.15794,-5.87166 0.96252,-9.90028 -2.19543,-4.02862 -16.50048,-1.10003 -18.28786,-3.025 z" />
        <path
           id="path3775"
           sodipodi:nodetypes="cscssscc"
           style="fill:#ff0000;stroke:#000000;stroke-width:1.4437784"
           inkscape:connector-curvature="0"
           d="m 264.3994,528.68349 c -0.48126,0.13751 -4.95003,-0.34375 -5.63767,2.6814 -0.68751,3.025 -0.61876,9.41902 -0.61876,9.41902 1.90861,9.16149 0.96971,5.2155 7.21889,5.98149 2.04837,0.25102 3.57498,-4.81259 3.64391,-5.91255 0.0688,-1.10003 -0.75627,-7.97525 -1.16877,-8.80011 -0.41251,-0.82502 -2.33757,-3.64392 -2.33757,-3.64392 z" />
        <path
           style="color:#000000;fill:#ffffff"
           d="m 247.63903,516.07659 c 3.92586,1.11296 2.29668,-3.65976 2.46046,-5.97635 -0.31096,-3.76252 0.0175,-8.27775 3.14231,-10.8566 5.77169,-0.20081 11.54616,0.17724 17.31892,0.18229 -0.24606,-1.38495 0.89232,-3.9751 -1.2137,-3.92629 -6.4818,-0.97155 -13.61827,-1.72009 -19.65286,1.37393 -0.75483,0.5017 -1.61339,0.91715 -2.34078,1.41121 -0.81829,1.84686 -0.20304,4.93762 -0.39443,7.27541 -0.002,3.52167 -4.3e-4,7.04313 -8.6e-4,10.5648 0.22762,-0.006 0.45761,0.0218 0.68062,-0.0486 z"
           id="path6475"
           inkscape:connector-curvature="0" />
        <path
           style="color:#000000;fill:#000000"
           d="m 239.34886,513.10147 c 1.86657,-1.48167 1.65917,-4.82308 1.18553,-6.6019 -1.14078,-0.31851 -0.92617,1.52402 -1.40299,2.23631 -0.44367,1.40752 -0.88513,3.15495 -0.0608,4.4675 z"
           id="path6471"
           inkscape:connector-curvature="0" />
      </g>
      <g
         inkscape:transform-center-y="-2.3348448"
         inkscape:transform-center-x="-30.641312"
         transform="matrix(-2.796002,-0.42898332,-0.71185517,1.684947,3312.0321,4449.2374)"
         id="g4258">
        <path
           style="fill:#000000"
           d="m 1507.2358,-1675.9502 c -4.6936,0.2872 -8.7384,-0.2962 -11.4168,-1.6586 -1.8539,-0.9431 -4.3929,-2.6556 -5.4984,-3.7057 -0.8837,-0.8395 -1.9654,-2.1075 -2.2351,-2.6231 -0.1711,-0.3271 0.088,-1.8742 0.5316,-3.1625 0.3649,-1.0599 0.8054,-3.0827 0.8071,-3.7173 0,-0.2344 -0.2161,-1.0726 -0.4811,-1.8626 -0.2651,-0.7899 -0.5152,-1.5754 -0.5549,-1.7461 -0.04,-0.1707 -0.2346,-0.4846 -0.4307,-0.6984 -0.4328,-0.4719 -0.9467,-0.5976 -3.2556,-0.7955 -1.2149,-0.1041 -1.7852,-0.2086 -2.0837,-0.3803 -0.6637,-0.3817 -0.5762,-0.5054 -1.3232,1.882 l -0.4501,1.4357 0.9817,0.9933 c 1.3049,1.3244 1.8796,2.4469 1.9712,3.8493 0.058,0.8816 0.025,1.0858 -0.3337,2.0682 -0.5245,1.4364 -1.3997,2.7584 -2.3515,3.5505 -0.8678,0.7222 -1.1398,0.8236 -2.1807,0.8187 -1.3506,-0.01 -1.9957,-0.6032 -3.0111,-2.7899 -0.2696,-0.5805 -0.5905,-1.3628 -0.714,-1.7384 -0.1236,-0.3756 -0.3325,-0.7753 -0.4618,-0.8886 -0.222,-0.1945 -0.2807,-0.1761 -1.0671,0.3454 -0.4577,0.3035 -1.3834,0.8343 -2.0604,1.1757 -1.4394,0.7259 -1.7084,1.0422 -1.3193,1.5793 0.1852,0.2556 0.2722,0.6931 0.3725,1.8858 0.1456,1.7308 0.2315,2.0924 0.7528,3.1663 0.8021,1.6527 2.0321,2.5603 4.3847,3.2285 0.8688,0.2467 1.3855,0.3104 2.4446,0.3104 0.9569,0 1.3598,0.044 1.4047,0.1552 0.047,0.1167 0.093,0.109 0.1901,-0.031 0.092,-0.1334 0.3617,-0.1863 0.9429,-0.1863 0.4465,0 0.811,-0.035 0.811,-0.078 0,-0.043 0.3709,-0.1727 0.8265,-0.2871 0.4557,-0.1145 0.9894,-0.3197 1.1835,-0.4579 0.1942,-0.1383 0.4025,-0.232 0.4657,-0.2096 0.063,0.023 0.4972,0.4075 0.9623,0.8576 1.1389,1.102 4.6628,3.7508 6.1619,4.6331 2.5219,1.4842 3.9513,2.03 7.2251,2.7589 1.0851,0.2415 1.8701,0.3214 3.8183,0.3802 1.3488,0.041 2.4523,0.095 2.4523,0.1203 0,0.026 -0.064,0.1489 -0.1436,0.2755 -0.079,0.1266 -0.1084,0.3294 -0.062,0.4501 0.08,0.208 0.1007,0.2099 0.3454,-0.012 0.1422,-0.1286 0.3374,-0.3902 0.4346,-0.5782 0.1206,-0.2332 0.2754,-0.3414 0.485,-0.3414 0.6467,-1.4718 3.2358,-3.6116 1.4793,-7.9715 z"
           id="path4256"
           inkscape:connector-curvature="0"
           sodipodi:nodetypes="csccccccssccccccsssccsccccssccsscscsssssccsccc" />
        <g
           id="g4234"
           transform="translate(-57.876301,0)">
          <path
             inkscape:connector-curvature="0"
             style="fill:#999999;fill-opacity:1"
             d="m 1540.5059,-1695.0396 c 0.071,0 0.2386,0.018 0.4307,0.054 0.2561,0.049 1.2369,0.1594 2.1808,0.2445 1.9918,0.1796 1.9827,0.1716 2.4795,1.4939 0.711,1.8928 0.7657,2.2567 0.5316,3.5544 -0.1156,0.6406 -0.4018,1.766 -0.6364,2.4989 -0.2346,0.7329 -0.4268,1.4217 -0.4268,1.5327 0,0.1284 -0.068,0.1774 -0.1863,0.1319 -0.1269,-0.049 -0.1862,0.01 -0.1862,0.1747 0,0.1353 -0.068,0.3549 -0.1514,0.4889 -0.12,0.1922 -0.12,0.2757 0,0.3958 0.2763,0.2762 0.1585,0.8366 -0.4113,1.9712 -0.3094,0.6161 -0.6787,1.4137 -0.8187,1.7694 -0.2674,0.6791 -0.9277,1.8067 -1.3504,2.3049 -0.1967,0.2318 -0.286,0.265 -0.4229,0.1513 -0.1398,-0.116 -0.2438,-0.041 -0.5316,0.3881 -0.3257,0.4856 -0.4466,0.5573 -1.3349,0.8109 -0.7257,0.2073 -1.4075,0.2919 -2.6657,0.3299 -1.9616,0.059 -2.4117,0.019 -3.4263,-0.2949 -2.7961,-0.8664 -3.6253,-1.9039 -3.9774,-4.9862 -0.1042,-0.9125 -0.2141,-1.7307 -0.2444,-1.816 -0.032,-0.091 0.2156,-0.2878 0.5937,-0.4773 0.3564,-0.1787 0.9731,-0.5476 1.3736,-0.8187 0.4005,-0.2712 0.7748,-0.449 0.8304,-0.392 0.056,0.057 0.2203,0.4075 0.3647,0.7761 0.4759,1.2143 1.3776,2.7962 1.8936,3.3254 0.938,0.9619 2.4391,1.3606 3.729,0.9856 1.1884,-0.3454 2.1567,-1.2725 3.1314,-2.9956 0.5937,-1.0495 1.3973,-3.1728 1.4939,-3.9462 0.09,-0.7191 -0.083,-1.9564 -0.3958,-2.821 -0.2486,-0.6871 -1.0784,-1.8651 -1.8198,-2.5882 l -0.5549,-0.5432 0.2367,-0.8227 c 0.1297,-0.4533 0.2367,-0.8442 0.2367,-0.8691 0,-0.01 0.011,-0.011 0.035,-0.012 z"
             id="path4236" />
          <path
             inkscape:connector-curvature="0"
             style="fill:#999999;fill-opacity:1"
             d="m 1545.5076,-1683.0068 0.4579,0.6015 c 0.2522,0.3306 0.7817,0.916 1.1757,1.3038 0.7074,0.6961 0.7136,0.7166 0.7761,1.5443 0.1002,1.3256 0.062,1.4355 -0.8304,2.3554 -0.2537,0.2615 -0.4571,0.4944 -0.6208,0.7023 l -0.039,-0.035 -1.2068,1.5793 c -0.9603,-0.7468 -1.8672,-1.4931 -2.1264,-1.7578 l -0.5394,-0.5549 0.3919,-0.5743 c 0.2173,-0.3157 0.7445,-1.3406 1.1719,-2.2777 0.4273,-0.9371 0.915,-1.9674 1.0826,-2.2933 z"
             id="path4238" />
          <path
             inkscape:connector-curvature="0"
             style="fill:#999999;fill-opacity:1"
             d="m 1548.9495,-1679.4369 c 0.01,0 0.018,0 0.027,0 0.068,0.038 0.4594,0.3041 0.8692,0.5898 0.2734,0.1906 0.6727,0.4459 1.1175,0.7179 l 0,0.7023 c -0.1024,0.1982 -0.1922,0.5078 -0.2173,0.7683 -0.1286,1.3389 -1.2565,2.8684 -2.2389,3.0344 -0.2875,0.049 -0.5959,0.19 -0.6829,0.3143 -0.1355,0.1935 -0.3514,0.07 -1.8665,-1.0826 l 0.9895,-1.3077 0.01,0 c 0.161,-0.144 0.3573,-0.3327 0.5976,-0.5743 1.0351,-1.0407 1.2586,-1.5016 1.2844,-2.6503 0.01,-0.3021 0.052,-0.4961 0.1125,-0.5122 z"
             id="path4240" />
          <path
             inkscape:connector-curvature="0"
             style="fill:#999999;fill-opacity:1"
             d="m 1551.6657,-1677.7024 c 0.8347,0.4919 1.7136,0.9782 2.2583,1.2417 l 0.7295,0.3493 -0.066,0.6402 c -0.087,0.8519 -0.7229,2.6647 -1.1485,3.2789 -0.2469,0.3562 -0.9398,0.9701 -1.1003,0.9192 -0.4442,-0.141 -0.6477,0.7416 -0.2755,1.0283 l 0.5376,-0.2324 c -0.9924,-0.3543 -1.6215,-0.6855 -2.8714,-1.3892 l -1.1098,-0.6247 0.4851,-0.1669 c 0.2676,-0.093 0.6726,-0.3503 0.9002,-0.5704 0.6351,-0.6141 1.3267,-2.1189 1.7229,-3.7561 0.023,-0.095 0,-0.2223 -0.062,-0.3492 z"
             id="path4242" />
          <path
             inkscape:connector-curvature="0"
             style="fill:#999999;fill-opacity:1"
             d="m 1555.5925,-1675.7894 c 0.2209,-0.023 1.4687,0.4197 1.5522,0.5627 0.055,0.094 0.1816,0.1707 0.2794,0.1707 0.259,0 0.3483,0.5287 0.2522,1.4706 -0.1362,1.3338 -0.6322,3.2478 -0.8421,3.2478 -0.1834,0 -0.4608,0.389 -0.4656,0.6519 0,0.2462 -0.3077,0.2666 -0.9972,0.066 -1.0752,-0.3127 -1.8156,-0.534 -2.4213,-0.7373 l -0.5377,0.2247 c 0.2845,-0.01 1.1231,-0.7445 1.4689,-1.2219 0.5224,-0.7211 0.7933,-1.3667 1.2534,-2.9956 0.2155,-0.7632 0.4091,-1.4068 0.4268,-1.4279 0,-0.01 0.016,-0.01 0.031,-0.012 z"
             id="path4244" />
          <path
             inkscape:connector-curvature="0"
             style="fill:#999999;fill-opacity:1"
             d="m 1538.9033,-1675.3858 c -0.015,0 -0.029,0.01 -0.046,0.019 -0.068,0.042 -0.1242,0.1335 -0.1242,0.2017 0,0.068 0.056,0.089 0.1242,0.047 0.068,-0.042 0.1242,-0.1335 0.1242,-0.2018 0,-0.051 -0.033,-0.074 -0.078,-0.066 z"
             id="path4246" />
          <path
             inkscape:connector-curvature="0"
             style="fill:#999999;fill-opacity:1"
             d="m 1538.2049,-1675.2772 c -0.022,-10e-4 -0.044,0 -0.066,0 -0.1478,0.016 -0.2841,0.1038 -0.2211,0.2056 0.039,0.062 0.1849,0.083 0.3259,0.047 0.1707,-0.045 0.2145,-0.1075 0.1319,-0.1901 -0.042,-0.042 -0.1047,-0.063 -0.1707,-0.066 z"
             id="path4248" />
          <path
             inkscape:connector-curvature="0"
             style="fill:#999999;fill-opacity:1"
             d="m 1564.1214,-1675.1802 0.4851,0 0.485,0 -0.074,0.7955 c -0.1393,1.4917 -0.7449,4.9801 -0.8808,5.0715 -0.205,0.138 -0.4463,0.1127 -0.4463,-0.046 0,-0.078 0.1177,-0.8182 0.26,-1.6453 0.1859,-1.0799 0.2447,-1.8818 0.2134,-2.8404 z"
             id="path4250" />
          <path
             inkscape:connector-curvature="0"
             style="fill:#999999;fill-opacity:1"
             d="m 1558.9568,-1675.1453 c 0.1913,0 0.4376,0.016 0.6945,0.039 0.8597,0.078 0.9352,0.1088 0.9352,0.3647 0,0.153 0.091,0.4922 0.2018,0.7567 0.2827,0.6749 0.168,2.2112 -0.2678,3.6319 -0.3158,1.0295 -0.3645,1.1144 -0.7101,1.1835 -0.5086,0.1018 -1.9961,0.032 -2.4174,-0.1125 -0.1073,-0.037 -0.062,-0.2466 0.1591,-0.7295 0.495,-1.0813 0.9235,-2.9612 0.9235,-4.0588 0,-0.5336 0.054,-1.0026 0.1203,-1.0438 0.033,-0.021 0.1696,-0.033 0.3609,-0.031 z"
             id="path4252" />
          <path
             inkscape:connector-curvature="0"
             style="fill:#999999;fill-opacity:1"
             d="m 1561.7661,-1675.056 0.6247,0 0.6286,0 0.1669,0.7567 c 0.185,0.834 0.1125,2.721 -0.163,4.2722 l -0.1513,0.8692 -1.0322,0.039 c -0.8038,0.028 -1.0145,10e-4 -0.9623,-0.1242 0.037,-0.088 0.2517,-0.7217 0.4773,-1.4047 0.3776,-1.1429 0.4113,-1.3676 0.4113,-2.8248 z"
             id="path4254" />
        </g>
      </g>
      <g
         transform="matrix(-1.6347072,0,0,1.785232,3150.2092,3955.8664)"
         id="g4603">
        <path
           style="fill:#000000"
           d="m 1773.2293,-1708.5663 c -2.8179,0.022 -5.1915,0.3308 -10.3164,1.2378 -2.5859,0.4577 -4.8188,1.0327 -8.182,2.1109 -3.5635,1.1423 -7.9246,3.6782 -11.1862,6.5034 -1.9185,1.6619 -2.4885,2.2518 -2.9951,3.0965 -0.344,0.5736 -0.4462,0.8603 -0.2899,0.9856 l 0,0.7062 c -0.011,0 -0.012,0 -0.017,0 -1.6579,0 -1.868,0.023 -2.095,0.2444 -0.2062,0.2014 -0.2196,0.2803 -0.075,0.4346 0.097,0.1037 0.2661,0.1863 0.3733,0.1863 0.1075,0 0.4473,0.1636 0.7554,0.3608 0.7277,0.4658 1.1815,0.5278 2.8722,0.3997 1.6675,-0.1263 2.0873,-0.042 3.2237,0.6403 2.0857,1.2514 3.4094,2.9555 4.0186,5.1802 0.482,1.7606 0.6578,6.5785 0.3469,9.5106 l -0.079,0.7605 c -0.1719,4.8834 -0.2874,4.8316 -1.3878,8.3307 0,0.055 -0.3101,1.1862 -0.6895,2.5144 -0.6891,2.412 -1.9037,5.9074 -3.597,10.3604 -2.3524,6.1865 -3.2697,9.0542 -3.6671,11.4857 -0.2989,1.8284 -0.2098,6.1309 0.1537,7.5744 0.4605,1.8288 2.2155,5.2854 3.6716,7.2251 1.36,1.8118 5.791,5.5238 7.9229,6.6392 2.1909,1.1464 8.0615,3.5219 10.3779,4.1985 0.6683,0.1952 1.1083,0.3834 1.0146,0.4346 9.7617,1.9661 11.1202,1.4765 22.5038,2.1535 l 3.0435,-0.074 c 1.6735,-0.041 3.929,-0.1391 5.0111,-0.2173 4.7679,-0.3441 7.826,-0.6357 9.1043,-0.8691 1.6405,-0.2997 4.531,-1.0965 5.9993,-1.6531 0.5806,-0.22 1.4208,-0.5084 1.8666,-0.6402 0.7592,-0.2245 0.8098,-0.2637 0.7905,-0.617 -0.011,-0.2074 0.027,-0.4747 0.084,-0.5937 0.1859,-0.3895 -0.3297,-0.4023 -1.1067,-0.031 l -0.7246,0.3453 -0.6061,-0.2755 c -1.1856,-0.5343 -2.5829,-1.9318 -3.4433,-3.4457 -0.5775,-1.0163 -1.0342,-2.5978 -1.4185,-4.9047 -0.4489,-2.6936 -0.4508,-4.0428 -0.011,-8.5444 0.4473,-4.5535 0.4061,-4.2913 1.1989,-7.6985 0.3736,-1.6049 0.7766,-3.365 0.896,-3.9114 0.1193,-0.5463 0.4737,-1.9991 0.7905,-3.2284 0.3169,-1.2293 0.7259,-2.8482 0.9091,-3.6009 0.1832,-0.7528 0.5583,-2.1497 0.8301,-3.1043 0.2718,-0.9546 0.6521,-2.4368 0.8476,-3.2905 0.3629,-1.5839 0.8658,-3.5965 1.2825,-5.153 1.229,-4.5925 1.4819,-10.1449 0.6895,-15.1254 -0.3569,-2.2433 -0.8158,-3.9142 -1.4845,-5.4014 -0.4177,-0.9291 -2.7847,-4.6637 -3.4784,-5.4868 -0.5215,-0.6188 -2.4395,-2.7687 -2.613,-2.9296 -0.08,-0.074 -0.5244,-0.5144 -0.9882,-0.9817 -2.2256,-2.2426 -4.4502,-3.8837 -8.0767,-5.9563 -3.4149,-1.9516 -5.5102,-2.82 -10.4043,-4.3033 -3.7592,-1.1392 -5.676,-1.4443 -9.6972,-1.556 -0.4824,-0.013 -0.9385,-0.025 -1.3791,-0.027 -0.1928,-10e-4 -0.383,0 -0.5709,0 z"
           id="path4340"
           inkscape:connector-curvature="0"
           sodipodi:nodetypes="csssccccccsssscccccsscssccccsccccccccsccssscccsssscsssscsc" />
        <path
           id="path4292"
           d="m 1774.5557,-1706.9521 c 2.2389,-0.01 4.3859,0.1306 6.0344,0.4229 2.0853,0.3699 7.5209,2.0019 10.1232,3.0383 2.1128,0.8415 6.4774,3.4112 8.6433,5.091 1.0217,0.7924 4.1727,3.9293 5.4897,5.4634 0.9704,1.1303 2.62,3.5018 3.4169,4.9125 1.7416,3.0833 2.4698,6.42 2.4682,11.2917 0,1.9133 -0.2962,5.5401 -0.5709,7.0001 -0.3498,1.8583 -2.1238,8.9287 -3.2149,12.805 -0.4517,1.6049 -0.9608,3.5047 -1.1287,4.2218 -0.1678,0.717 -0.392,1.648 -0.5007,2.0682 -0.6517,2.5223 -1.7729,7.2845 -2.0246,8.6104 -0.3716,1.9572 -0.9859,8.1871 -0.9882,10.015 0,1.4263 0.5514,5.5049 0.9048,6.6664 0.7884,2.5917 2.2167,4.5175 4.3127,5.8166 0.4531,0.2808 0.8257,0.5295 0.8257,0.551 0,0.1513 -4.6101,1.3114 -6.0432,1.5211 -19.3486,1.5878 -22.4224,1.3469 -39.5527,-1.4788 -2.5217,-0.7864 -7.6593,-2.9101 -9.056,-3.7445 -1.1021,-0.6586 -2.9735,-2.0888 -4.5192,-3.4535 -2.465,-2.1763 -4.0024,-4.3555 -5.6436,-8.0012 -0.3412,-0.7579 -0.9421,-3.1654 -1.1024,-4.4158 -0.1412,-1.1029 -0.057,-3.7992 0.1494,-4.7378 0.3129,-1.4263 0.5417,-2.6879 0.6324,-3.5195 0.14,-1.2836 0.9584,-4.1756 1.8842,-6.6431 0.4483,-1.1951 1.2032,-3.4302 1.6777,-4.9668 0.4743,-1.5366 1.0822,-3.4922 1.3482,-4.3459 0.6137,-1.9693 1.1408,-3.9386 1.322,-4.9357 0.078,-0.4274 0.1895,-0.8428 0.2459,-0.9236 0.057,-0.081 0.1144,-0.3187 0.1274,-0.5277 0.02,-0.326 0.3284,-2.2656 0.9135,-5.7196 0.2301,-1.3582 0.3348,-7.7072 0.1581,-9.6231 -0.2775,-3.009 -1.075,-4.8149 -2.8986,-6.5655 -1.3159,-1.2631 -3.4193,-2.3969 -4.9936,-2.6929 -0.3342,-0.063 -0.9848,-0.1169 -1.6777,-0.1475 l 0,-0.873 c 0.1679,-0.136 0.2723,-0.321 0.2723,-0.5239 0,-0.2137 0.9193,-1.0389 1.6645,-1.49 0.2601,-0.1574 1.2577,-0.8832 2.2135,-1.6142 3.2524,-2.4876 6.6322,-4.3594 9.5435,-5.285 0.773,-0.2458 2.196,-0.6974 3.1622,-1.005 1.335,-0.425 2.1448,-0.6006 3.3729,-0.7295 1.547,-0.1623 3.5625,-0.4902 3.7946,-0.617 0.06,-0.033 1.2373,-0.2328 2.6176,-0.4423 2.0243,-0.3073 4.3577,-0.4644 6.5966,-0.4734 z"
           style="fill:#999999"
           inkscape:connector-curvature="0"
           sodipodi:nodetypes="cccscccccccscscscccsccccccccccccccccsccccccccc" />
        <path
           id="path4294"
           d="m 1766.64,-1694.3475 c -0.8043,-0.021 -1.4639,0.3006 -2.1012,1.0004 -0.7427,0.8154 -0.8138,1.545 -0.2369,2.4863 0.2713,0.443 0.5574,0.6654 0.9689,0.746 1.4415,0.2825 1.7904,0.2033 2.338,-0.5262 0.6113,-0.8144 0.7737,-1.5512 0.5741,-2.6599 -0.1423,-0.7904 -0.1715,-0.8183 -0.9637,-0.9771 -0.2021,-0.04 -0.3937,-0.064 -0.5792,-0.07 z"
           style="fill:#000000"
           inkscape:connector-curvature="0" />
        <path
           id="path4296"
           d="m 1798.32,-1688.4353 c -0.026,0.01 -0.072,0.098 -0.1668,0.2794 -0.1064,0.2049 -0.1963,0.4842 -0.1977,0.6208 0,0.219 0.025,0.2117 0.202,-0.062 0.1109,-0.1707 0.1968,-0.4501 0.1933,-0.6208 0,-0.1513 0,-0.2253 -0.03,-0.2173 z"
           style="fill:#000000"
           inkscape:connector-curvature="0" />
        <path
           id="path4298"
           d="m 1798.1663,-1686.728 c -0.034,0 -0.1018,0.056 -0.1493,0.1242 -0.048,0.068 -0.02,0.1242 0.061,0.1242 0.081,0 0.1492,-0.056 0.1492,-0.1242 0,-0.068 -0.027,-0.1242 -0.061,-0.1242 z"
           style="fill:#000000"
           inkscape:connector-curvature="0" />
      </g>
      <g
         transform="matrix(-1.785232,0,0,1.785232,2621.9455,3982.9041)"
         id="g4590">
        <path
           inkscape:connector-curvature="0"
           style="fill:#000000"
           d="m 1335.241,-1682.6006 c -0.2039,0.012 -0.3105,0.156 -0.3105,0.4385 0,0.3055 0.1211,0.462 0.6985,0.8964 1.1174,0.8405 1.6608,1.3516 1.6608,1.5598 0,0.1065 -0.2025,0.6008 -0.4501,1.102 -0.546,1.105 -1.4065,1.9382 -2.5805,2.499 -1.402,0.6697 -1.3137,0.6965 -1.9013,-0.5898 -0.5362,-1.1737 -0.6926,-1.3291 -1.2262,-1.1952 -0.277,0.07 -0.3108,0.1302 -0.2406,0.4191 0.045,0.1848 0.2076,0.5293 0.3609,0.7683 0.1533,0.239 0.4045,0.7419 0.5627,1.1175 0.1581,0.3756 0.8087,1.7725 1.4434,3.1043 0.6347,1.3317 1.376,3.0918 1.6492,3.9113 0.5283,1.5851 1.315,4.9605 1.4512,6.2279 l 0.082,0.7644 -0.6286,0.132 c -0.3454,0.074 -1.1788,0.415 -1.8548,0.7566 -2.958,1.4947 -3.9052,2.6809 -3.9191,4.9086 -0.01,1.5455 0.2096,2.436 0.7411,2.9995 0.4214,0.4468 0.4343,0.4485 1.2029,0.3764 0.8213,-0.077 2.3237,0.094 2.7899,0.3182 0.2224,0.1066 0.3283,0.091 0.5278,-0.089 0.3185,-0.2883 0.3164,-0.4784 -0.027,-1.1757 -0.4247,-0.8619 -0.3913,-2.1062 0.078,-2.8947 0.3971,-0.6676 0.7468,-0.9624 1.1525,-0.9624 0.5815,0 4.8994,1.4875 5.2384,1.8044 0.093,0.087 0.1987,0.407 0.2328,0.7101 0.074,0.6588 -0.1118,1.059 -0.8265,1.7966 -0.2787,0.2876 -0.5044,0.6 -0.5044,0.6945 0,0.2304 0.363,0.5336 0.7489,0.6248 0.532,0.1258 1.3045,0.8929 1.6064,1.5948 0.155,0.3604 0.3743,0.7266 0.485,0.811 0.2451,0.1865 0.4702,0.201 0.5704,0.039 0.041,-0.066 0.2722,-0.2121 0.5122,-0.326 0.4831,-0.2292 1.6664,-1.5929 2.1885,-2.5222 1.006,-1.7904 1.0928,-4.3831 0.2057,-6.1309 -0.4723,-0.9305 -1.7978,-2.3941 -2.658,-2.9374 -0.4422,-0.2793 -0.8032,-0.5218 -0.8032,-0.5393 0,-0.018 0.1476,-0.6992 0.3298,-1.5172 0.3083,-1.3841 0.3341,-1.7101 0.3492,-4.6797 0.015,-2.8689 0.038,-3.2149 0.2367,-3.434 0.1322,-0.1461 0.2027,-0.3863 0.1785,-0.5976 -0.034,-0.2962 -0.091,-0.3455 -0.3609,-0.3182 -0.2949,0.03 -0.3372,-0.03 -0.5355,-0.745 -0.5569,-2.0092 -1.8026,-3.8954 -4.2101,-6.3792 -2.1448,-2.2128 -3.6335,-3.3753 -4.245,-3.341 z"
           id="path3231-6" />
        <path
           inkscape:connector-curvature="0"
           style="fill:#999999;fill-opacity:1"
           d="m 1338.0464,-1679.0617 c 0.142,0 2.4813,2.4957 2.6154,2.7899 0.3744,0.8218 -1.4779,2.3967 -3.9308,3.341 -0.6146,0.2365 -1.3794,0.4686 -1.6996,0.516 l -0.582,0.085 -0.5627,-1.1214 -0.5626,-1.1175 1.1524,-0.5627 c 1.4482,-0.7045 2.5669,-1.8133 3.1276,-3.1003 0.1987,-0.4563 0.3976,-0.8304 0.4423,-0.8304 z"
           id="path3229-7" />
        <path
           inkscape:connector-curvature="0"
           style="fill:#999999;fill-opacity:1"
           d="m 1341.3719,-1675.1931 c 0.04,7e-4 0.099,0.055 0.1901,0.1669 0.3881,0.4762 1.1806,2.2416 1.3659,3.0383 0.1721,0.7404 0.1727,0.8215 -0.023,1.0438 -0.5052,0.5729 -3.552,1.7201 -5.6148,2.1147 -0.5122,0.098 -1.0195,0.2144 -1.1253,0.2561 -0.1445,0.057 -0.2416,-0.074 -0.3919,-0.5199 -0.1101,-0.3265 -0.3432,-0.9764 -0.52,-1.4474 -0.1767,-0.471 -0.3221,-0.8761 -0.3221,-0.9002 0,-0.024 0.1615,-0.047 0.3609,-0.047 0.5485,0 2.4471,-0.7062 3.4263,-1.2766 0.838,-0.4881 2.447,-1.9409 2.5765,-2.3243 0.019,-0.058 0.038,-0.091 0.062,-0.1009 0.01,0 0.01,0 0.016,0 z"
           id="path3227-0" />
        <path
           inkscape:connector-curvature="0"
           style="fill:#999999;fill-opacity:1"
           d="m 1343.1839,-1669.8732 c 0.036,0 0.066,0.4678 0.066,1.04 0,0.7731 -0.048,1.0802 -0.1862,1.1951 -0.1025,0.085 -0.1863,0.2822 -0.1863,0.4385 0,0.3762 -0.5696,0.8414 -1.459,1.1912 -0.5691,0.2238 -0.9558,0.2818 -1.8936,0.2794 -0.6306,0 -1.4193,-0.049 -1.7927,-0.1009 l -1.1214,-0.4385 c -0.087,-0.3725 -0.1732,-0.7228 -0.2483,-0.9972 -0.1029,-0.3756 -0.1889,-0.6984 -0.1902,-0.7179 0,-0.019 0.1085,0.023 0.2406,0.093 0.1321,0.071 0.3975,0.1285 0.5898,0.128 0.9834,0 4.6423,-1.1775 5.6536,-1.816 0.2558,-0.1614 0.4923,-0.2949 0.5277,-0.2949 z"
           id="path3225-4" />
        <path
           inkscape:connector-curvature="0"
           style="fill:#999999;fill-opacity:1"
           d="m 1343.2499,-1666.0511 0,0.4152 c 0,0.4438 -0.1688,1.6004 -0.388,2.6968 -0.1222,0.6114 -0.1716,0.6801 -0.648,0.8964 -0.4363,0.1981 -0.7961,0.2331 -2.3166,0.2212 -2.5729,-0.02 -2.6041,-0.031 -2.6075,-0.877 0,-0.2641 -0.1912,-1.3065 -0.4191,-2.3903 l 1.1912,0.3105 c 1.2211,0.5333 3.3863,0.098 4.7845,-0.9662 z"
           id="path3223-1" />
        <path
           inkscape:connector-curvature="0"
           style="fill:#999999;fill-opacity:1"
           d="m 1342.3419,-1660.898 c 0.1226,0 0.1752,0.085 0.2639,0.2794 0.1019,0.2235 0.216,0.3057 0.3453,0.2561 0.578,-0.2218 2.4341,1.6125 3.1935,3.1546 0.3829,0.7774 0.3962,0.8582 0.3919,2.3593 0,1.4046 -0.037,1.6178 -0.3259,2.235 -0.387,0.8276 -1.2415,1.9828 -1.6259,2.1963 -0.3876,0.2153 -0.4369,0.2027 -0.5316,-0.1164 -0.1906,-0.6426 -0.9479,-1.4488 -2.0255,-2.1575 -0.024,-0.016 0.074,-0.1561 0.2173,-0.3104 0.1437,-0.1543 0.3795,-0.5243 0.5239,-0.8226 0.323,-0.6673 0.2785,-1.7219 -0.093,-2.239 -0.3405,-0.4737 -1.7834,-1.1574 -3.4263,-1.6219 -0.77,-0.2178 -1.5713,-0.4492 -1.781,-0.5161 -0.8057,-0.2571 -1.2603,-0.1627 -1.8703,0.3997 -1.1234,1.0354 -1.6608,2.1696 -1.6608,3.5039 l 0,0.7528 -1.2107,0 -1.2106,0 -0.229,-0.4657 c -0.1468,-0.3006 -0.25,-0.8742 -0.2949,-1.6258 -0.063,-1.0585 -0.042,-1.2232 0.2406,-1.8393 0.3578,-0.7816 0.9223,-1.2094 2.9413,-2.2273 1.4296,-0.7208 2.1363,-0.8992 2.1031,-0.5316 -0.091,1.0044 0.5375,0.8406 0.8808,-0.2289 0.1394,-0.4343 0.1707,-0.4557 0.5433,-0.3764 0.5668,0.1206 3.9231,0.1115 4.3731,-0.012 0.084,-0.023 0.1545,-0.037 0.2095,-0.043 0.021,0 0.041,0 0.058,0 z"
           id="path3221-0" />
      </g>
      <path
         inkscape:connector-curvature="0"
         style="fill:#000000"
         d="m 366.964,1089.0375 c 0.0411,0.018 0.11425,0.1749 0.26314,0.4988 0.16781,0.3658 0.30956,0.8644 0.31188,1.1082 0,0.391 -0.0393,0.378 -0.31866,-0.1107 -0.17496,-0.3047 -0.31045,-0.8035 -0.30492,-1.1082 0,-0.2701 0,-0.4022 0.0482,-0.388 z"
         id="path4635" />
      <path
         inkscape:connector-curvature="0"
         style="fill:#000000"
         d="m 367.20643,1092.0854 c 0.0536,0 0.16067,0.1 0.23547,0.2217 0.075,0.1214 0.0321,0.2217 -0.0964,0.2217 -0.12854,0 -0.23547,-0.1 -0.23547,-0.2217 0,-0.1214 0.0428,-0.2217 0.0964,-0.2217 z"
         id="path4637" />
      <g
         transform="matrix(-2.270204,0,0,2.270204,4069.0308,4551.0727)"
         id="g5467">
        <path
           sodipodi:nodetypes="csscccscsscccsccsssssccccccccccccsccsscccscccscssscccc"
           inkscape:connector-curvature="0"
           id="path4629"
           d="m 1697.2492,-1534.0068 c 0.5905,0.1952 -22.4469,-0.9125 -22.5297,-0.8613 -0.2358,0.1457 -0.2099,6.8831 0.031,8.0749 0.1036,0.5122 0.225,1.6377 0.2716,2.4989 l 0.085,1.5638 -0.8498,-0.163 c -1.1909,-0.2304 -2.2853,-0.2077 -3.5582,0.074 -1.1699,0.2587 -2.0536,0.6717 -2.7938,1.3116 -0.4367,0.3775 -0.4579,0.4371 -0.4579,1.1563 0,0.7201 0.024,0.7809 0.4967,1.2417 0.581,0.5671 2.7825,1.7545 3.9229,2.1148 0.6702,0.2117 3.1352,0.7526 4.2102,0.9235 0.6604,0.105 3.0981,0.077 4.086,-0.047 2.102,-0.2636 3.7367,-1.382 3.7367,-2.5571 l 0,-0.3415 0.4035,0.3881 c 0.7964,0.7671 3.4765,1.3731 5.4945,1.2417 1.0162,-0.066 3.1031,-0.5444 3.9735,-0.908 1.2186,-0.5092 2.9949,-1.9636 3.4224,-2.8016 0.1299,-0.2546 0.2711,-0.7613 0.3143,-1.1292 0.099,-0.8446 -0.1601,-1.388 -1.0904,-2.2893 -0.7213,-0.699 -1.401,-0.9785 -1.9129,-0.7839 -0.2719,0.1034 -0.3011,0.082 -0.2988,-0.225 0,-0.1861 0.088,-1.0361 0.1901,-1.8897 0.1017,-0.8537 0.1878,-2.3953 0.194,-3.4263 l 0.012,-1.8742 2.689,-0.074 c 0,-0.2003 -0.088,-0.5443 -0.042,-1.2182 z m -17.2149,0.5578 c 0.014,0.035 0.025,0.073 0.035,0.1125 2.1135,-5e-4 4.7697,0.5678 8.0051,0.5991 l 0.4773,0 0.01,0 c -0.2263,2.2154 -0.2321,2.9241 -0.027,3.2168 0.1655,0.2363 0.2018,0.6471 0.2018,2.3437 l 0,2.0604 -1.1408,0.163 c -1.716,0.2428 -3.2434,0.8775 -4.2567,1.7694 -0.4823,0.4245 -0.5626,0.563 -0.5626,0.9623 0,0.2572 0.058,0.6417 0.1319,0.8537 0.074,0.212 0.1158,0.4753 0.093,0.5859 -0.032,0.1583 -0.119,0.1195 -0.4074,-0.1824 -0.2016,-0.2108 -0.6324,-0.5628 -0.9585,-0.7838 -0.326,-0.221 -0.5919,-0.5013 -0.5936,-0.6208 0,-0.2862 -0.3181,-0.2756 -0.6131,0.019 -0.2311,0.2311 -0.2368,0.2285 -0.3104,-0.1397 -0.041,-0.2063 -0.074,-1.1135 -0.074,-2.0139 0,-1.2472 0.043,-1.6944 0.1824,-1.8781 0.2444,-0.323 0.2348,-0.4268 -0.039,-0.4268 -0.2107,0 -0.2343,-0.1716 -0.3066,-2.1419 -0.061,-1.6725 -0.036,-2.3869 0.1165,-3.2595 0.1278,-0.7317 0.1343,-0.8719 0.073,-1.1268 0.039,-0.3219 -0.3601,-0.9377 -0.035,-0.1125 z"
           style="fill:#000000" />
        <g
           id="g4661"
           transform="translate(97.362002,82.577402)">
          <path
             inkscape:connector-curvature="0"
             id="path4663"
             d="m 1595.9865,-1618.8537 c 0.056,0.01 0.074,0.2211 0.1126,0.7955 0.034,0.5101 0.041,1.0531 0.016,1.2068 -0.044,0.2698 -0.092,0.2794 -1.3969,0.2794 -1.3401,0 -1.3504,0 -1.3504,-0.2949 0,-0.3479 0.1736,-0.5083 0.683,-0.6287 0.5171,-0.1221 1.5275,-0.7887 1.7771,-1.1718 0.077,-0.1184 0.1253,-0.1895 0.1591,-0.1863 z"
             style="fill:#999999;fill-opacity:1" />
          <path
             inkscape:connector-curvature="0"
             id="path4665"
             d="m 1595.9438,-1615.4157 c 0.1388,-0.01 0.1553,0.1867 0.1553,1.1292 0,0.6501 -0.066,1.3194 -0.1436,1.49 -0.1487,0.3263 -0.2343,0.3587 -1.6569,0.5743 -0.4781,0.072 -1.0213,0.1529 -1.2068,0.1824 l -0.3376,0.054 -0.035,-1.2689 c -0.019,-0.6978 0.012,-1.4365 0.07,-1.6413 l 0.1048,-0.3726 1.3814,-0.031 c 0.7598,-0.017 1.481,-0.062 1.6026,-0.1009 0.025,-0.01 0.046,-0.014 0.066,-0.015 z"
             style="fill:#999999;fill-opacity:1" />
          <path
             inkscape:connector-curvature="0"
             id="path4667"
             d="m 1578.2458,-1613.4678 c 0.049,10e-5 0.2724,0.1613 0.4966,0.357 0.8978,0.7831 1.9872,1.1379 2.5804,0.842 l 0.3726,-0.1862 0,0.4734 c 0,0.4449 -0.034,0.4847 -0.5937,0.7256 -0.3266,0.1405 -0.9831,0.3531 -1.459,0.4695 -0.4759,0.1163 -0.9207,0.2593 -0.9856,0.3182 -0.1939,0.1759 -0.3063,0.121 -0.3725,-0.1746 -0.1026,-0.4578 -0.135,-2.8249 -0.039,-2.8249 z"
             style="fill:#999999;fill-opacity:1" />
          <path
             inkscape:connector-curvature="0"
             id="path4669"
             d="m 1595.8468,-1611.5858 c 0.1144,-2e-4 0.1259,0.1015 0.1242,0.4307 0,0.7213 -0.2321,2.1831 -0.3686,2.3476 -0.066,0.08 -0.5005,0.2067 -0.9623,0.2832 -0.4619,0.077 -1.0757,0.1743 -1.3659,0.2173 l -0.5277,0.078 0,-1.4784 0,-1.4784 1.3348,-0.1435 c 0.7341,-0.08 1.4605,-0.1818 1.6142,-0.2251 0.064,-0.018 0.1132,-0.031 0.1513,-0.031 z"
             style="fill:#999999;fill-opacity:1" />
          <path
             inkscape:connector-curvature="0"
             id="path4671"
             d="m 1581.6604,-1610.8641 0.089,1.3154 c 0.049,0.7252 0.049,1.356 0,1.4008 -0.045,0.045 -0.4309,0.082 -0.8614,0.082 -0.685,0 -0.8155,-0.039 -1.036,-0.3104 l -0.2522,-0.3105 -0.3532,0.2639 c -0.4775,0.3554 -0.4662,0.7926 0.023,1.036 0.4302,0.214 1.8054,0.225 2.3282,0.019 l 0.3415,-0.1319 0,0.5859 c 0,0.9502 -0.071,1.0611 -0.7916,1.2999 -0.7079,0.2346 -1.1693,0.2595 -1.7383,0.089 -0.1991,-0.06 -0.4006,-0.086 -0.4463,-0.058 -0.046,0.028 -0.1532,-0.769 -0.2367,-1.7733 -0.083,-1.0043 -0.1807,-1.9711 -0.2173,-2.1497 -0.065,-0.3192 -0.05,-0.3282 0.9003,-0.4695 0.9566,-0.1423 1.2953,-0.261 1.9246,-0.6752 z"
             style="fill:#999999;fill-opacity:1" />
          <path
             inkscape:connector-curvature="0"
             id="path4673"
             d="m 1595.614,-1607.95 -0.085,0.9972 c -0.1282,1.4991 -0.1336,1.5047 -1.1292,1.5987 -1.4547,0.1374 -1.4881,0.13 -1.5754,-0.3065 -0.1161,-0.5806 -0.094,-1.2016 0.046,-1.2883 0.068,-0.042 0.1242,-0.1716 0.1242,-0.2871 0,-0.1679 0.265,-0.26 1.3116,-0.4618 z"
             style="fill:#999999;fill-opacity:1" />
          <path
             inkscape:connector-curvature="0"
             id="path4675"
             d="m 1596.8014,-1607.2399 c 0.2163,-0.038 1.0793,0.5505 1.4435,1.0011 0.6165,0.7629 0.7101,0.9933 0.7101,1.7462 0,0.5432 -0.069,0.7669 -0.357,1.164 -0.8646,1.1936 -2.2217,1.9903 -4.0821,2.3981 -1.1876,0.2603 -2.0839,0.2916 -3.5621,0.1203 -0.9135,-0.1059 -2.401,-0.5338 -2.7589,-0.7955 -0.1947,-0.1424 -0.1777,-0.1786 0.1823,-0.3647 0.5267,-0.2724 0.5362,-0.5931 0.016,-0.489 -0.2907,0.058 -0.4345,0.014 -0.6248,-0.1901 -0.3009,-0.3229 -0.9817,-1.7327 -0.9817,-2.0333 0,-0.2858 0.8625,-0.8995 1.5909,-1.133 0.3195,-0.1025 1.0291,-0.2471 1.5754,-0.3221 0.5464,-0.075 1.1471,-0.1689 1.3349,-0.2057 0.3314,-0.065 0.3414,-0.048 0.3414,0.489 0,0.7128 0.2902,1.5338 0.648,1.8276 0.2793,0.2292 0.2865,0.2246 0.6558,-0.1863 0.3643,-0.4051 0.3974,-0.4137 1.5832,-0.4734 0.667,-0.034 1.2833,-0.1183 1.3697,-0.1901 0.086,-0.072 0.3133,-0.1888 0.5006,-0.26 0.3918,-0.1489 0.5695,-0.4867 0.3337,-0.6325 -0.1157,-0.072 -0.1407,-0.2817 -0.085,-0.7489 0.042,-0.3574 0.1023,-0.6727 0.132,-0.7023 0.01,-0.01 0.021,-0.017 0.035,-0.019 z"
             style="fill:#999999;fill-opacity:1" />
          <path
             inkscape:connector-curvature="0"
             id="path4677"
             d="m 1581.8389,-1605.1872 c 0.017,-4e-4 0.026,0 0.031,0.01 0.04,0.04 0.074,0.4866 0.074,0.9895 0,1.0415 0.1159,1.1753 0.7528,0.8576 0.3704,-0.1848 0.4166,-0.1828 0.7838,0.074 0.2138,0.1493 0.7082,0.58 1.102,0.9545 1.2772,1.2148 1.2098,2.0741 -0.2057,2.6037 -0.5264,0.197 -1.0726,0.2633 -2.6347,0.3105 -2.2137,0.067 -2.0279,0.086 -4.571,-0.489 -1.5537,-0.3513 -2.1331,-0.5515 -3.4224,-1.1796 -1.7507,-0.8529 -2.277,-1.2114 -2.5455,-1.7306 -0.268,-0.5182 -0.2317,-0.7824 0.1552,-1.1253 0.5047,-0.4473 0.817,-0.5967 1.6763,-0.7993 0.9942,-0.2344 1.9148,-0.2323 3.2129,0 1.6487,0.3 1.5987,0.28 1.5987,0.6248 0,0.378 0.2161,0.479 0.6596,0.3104 0.2572,-0.098 0.3338,-0.2063 0.3338,-0.4928 0,-0.3685 0,-0.3728 0.5936,-0.3027 0.4855,0.058 0.7556,0 1.4784,-0.3065 0.426,-0.1813 0.8115,-0.3082 0.9274,-0.3104 z"
             style="fill:#999999;fill-opacity:1" />
          <path
             sodipodi:nodetypes="cssssssc"
             inkscape:connector-curvature="0"
             id="path4697"
             d="m 1595.9865,-1618.8537 c 0.056,0.01 0.074,0.2211 0.1126,0.7955 0.034,0.5101 0.041,1.8004 0.016,1.9541 -0.044,0.2698 -0.092,0.2794 -1.3969,0.2794 -1.3401,0 -1.3504,-0.7495 -1.3504,-1.0422 0,-0.3479 0.1736,-0.5083 0.683,-0.6287 0.5171,-0.1221 1.5275,-0.7887 1.7771,-1.1718 0.077,-0.1184 0.1253,-0.1895 0.1591,-0.1863 z"
             style="fill:#000000;fill-opacity:1;stroke:#000000;stroke-opacity:1" />
          <path
             style="fill:#999999;fill-opacity:1"
             d="m 1595.9865,-1618.8537 c 0.056,0.01 0.074,0.2211 0.1126,0.7955 0.034,0.5101 0.041,1.8004 0.016,1.9541 -0.044,0.2698 -0.092,0.2794 -1.3969,0.2794 -1.3401,0 -1.3504,-0.7495 -1.3504,-1.0422 0,-0.3479 0.1736,-0.5083 0.683,-0.6287 0.5171,-0.1221 1.5275,-0.7887 1.7771,-1.1718 0.077,-0.1184 0.1253,-0.1895 0.1591,-0.1863 z"
             id="path4679"
             inkscape:connector-curvature="0"
             sodipodi:nodetypes="cssssssc" />
          <path
             style="fill:#999999;fill-opacity:1"
             d="m 1595.9438,-1615.4157 c 0.1388,-0.01 0.1553,0.1867 0.1553,1.1292 0,0.6501 -0.066,1.3194 -0.1436,1.49 -0.1487,0.3263 -0.2343,0.3587 -1.6569,0.5743 -0.4781,0.072 -1.0213,0.1529 -1.2068,0.1824 l -0.3376,0.054 -0.035,-1.2689 c -0.019,-0.6978 0.012,-1.4365 0.07,-1.6413 l 0.1048,-0.775 1.3814,0.8313 c 0.7598,-0.017 1.481,-0.5222 1.6026,-0.5608 0.025,-0.01 0.046,-0.014 0.066,-0.015 z"
             id="path4681"
             inkscape:connector-curvature="0"
             sodipodi:nodetypes="cscccccccccc" />
          <path
             inkscape:connector-curvature="0"
             style="fill:#999999;fill-opacity:1"
             d="m 1578.2458,-1613.4678 c 0.049,10e-5 0.2724,0.1613 0.4966,0.357 0.8978,0.7831 1.9872,1.1379 2.5804,0.842 l 0.3726,-0.1862 0,0.4734 c 0,0.4449 -0.034,0.4847 -0.5937,0.7256 -0.3266,0.1405 -0.9831,0.3531 -1.459,0.4695 -0.4759,0.1163 -0.9207,0.2593 -0.9856,0.3182 -0.1939,0.1759 -0.3063,0.121 -0.3725,-0.1746 -0.1026,-0.4578 -0.135,-2.8249 -0.039,-2.8249 z"
             id="path4683" />
          <path
             inkscape:connector-curvature="0"
             style="fill:#999999;fill-opacity:1"
             d="m 1595.8468,-1611.5858 c 0.1144,-2e-4 0.1259,0.1015 0.1242,0.4307 0,0.7213 -0.2321,2.1831 -0.3686,2.3476 -0.066,0.08 -0.5005,0.2067 -0.9623,0.2832 -0.4619,0.077 -1.0757,0.1743 -1.3659,0.2173 l -0.5277,0.078 0,-1.4784 0,-1.4784 1.3348,-0.1435 c 0.7341,-0.08 1.4605,-0.1818 1.6142,-0.2251 0.064,-0.018 0.1132,-0.031 0.1513,-0.031 z"
             id="path4685" />
          <path
             inkscape:connector-curvature="0"
             style="fill:#999999;fill-opacity:1"
             d="m 1581.6604,-1610.8641 0.089,1.3154 c 0.049,0.7252 0.049,1.356 0,1.4008 -0.045,0.045 -0.4309,0.082 -0.8614,0.082 -0.685,0 -0.8155,-0.039 -1.036,-0.3104 l -0.2522,-0.3105 -0.3532,0.2639 c -0.4775,0.3554 -0.4662,0.7926 0.023,1.036 0.4302,0.214 1.8054,0.225 2.3282,0.019 l 0.3415,-0.1319 0,0.5859 c 0,0.9502 -0.071,1.0611 -0.7916,1.2999 -0.7079,0.2346 -1.1693,0.2595 -1.7383,0.089 -0.1991,-0.06 -0.4006,-0.086 -0.4463,-0.058 -0.046,0.028 -0.1532,-0.769 -0.2367,-1.7733 -0.083,-1.0043 -0.1807,-1.9711 -0.2173,-2.1497 -0.065,-0.3192 -0.05,-0.3282 0.9003,-0.4695 0.9566,-0.1423 1.2953,-0.261 1.9246,-0.6752 z"
             id="path4687" />
          <path
             inkscape:connector-curvature="0"
             style="fill:#999999;fill-opacity:1"
             d="m 1595.614,-1607.95 -0.085,0.9972 c -0.1282,1.4991 -0.1336,1.5047 -1.1292,1.5987 -1.4547,0.1374 -1.4881,0.13 -1.5754,-0.3065 -0.1161,-0.5806 -0.094,-1.2016 0.046,-1.2883 0.068,-0.042 0.1242,-0.1716 0.1242,-0.2871 0,-0.1679 0.265,-0.26 1.3116,-0.4618 z"
             id="path4689" />
          <path
             inkscape:connector-curvature="0"
             style="fill:#999999;fill-opacity:1"
             d="m 1596.8014,-1607.2399 c 0.2163,-0.038 1.0793,0.5505 1.4435,1.0011 0.6165,0.7629 0.7101,0.9933 0.7101,1.7462 0,0.5432 -0.069,0.7669 -0.357,1.164 -0.8646,1.1936 -2.2217,1.9903 -4.0821,2.3981 -1.1876,0.2603 -2.0839,0.2916 -3.5621,0.1203 -0.9135,-0.1059 -2.401,-0.5338 -2.7589,-0.7955 -0.1947,-0.1424 -0.1777,-0.1786 0.1823,-0.3647 0.5267,-0.2724 0.5362,-0.5931 0.016,-0.489 -0.2907,0.058 -0.4345,0.014 -0.6248,-0.1901 -0.3009,-0.3229 -0.9817,-1.7327 -0.9817,-2.0333 0,-0.2858 0.8625,-0.8995 1.5909,-1.133 0.3195,-0.1025 1.0291,-0.2471 1.5754,-0.3221 0.5464,-0.075 1.1471,-0.1689 1.3349,-0.2057 0.3314,-0.065 0.3414,-0.048 0.3414,0.489 0,0.7128 0.2902,1.5338 0.648,1.8276 0.2793,0.2292 0.2865,0.2246 0.6558,-0.1863 0.3643,-0.4051 0.3974,-0.4137 1.5832,-0.4734 0.667,-0.034 1.2833,-0.1183 1.3697,-0.1901 0.086,-0.072 0.3133,-0.1888 0.5006,-0.26 0.3918,-0.1489 0.5695,-0.4867 0.3337,-0.6325 -0.1157,-0.072 -0.1407,-0.2817 -0.085,-0.7489 0.042,-0.3574 0.1023,-0.6727 0.132,-0.7023 0.01,-0.01 0.021,-0.017 0.035,-0.019 z"
             id="path4691" />
          <path
             inkscape:connector-curvature="0"
             style="fill:#999999;fill-opacity:1"
             d="m 1581.8389,-1605.1872 c 0.017,-4e-4 0.026,0 0.031,0.01 0.04,0.04 0.074,0.4866 0.074,0.9895 0,1.0415 0.1159,1.1753 0.7528,0.8576 0.3704,-0.1848 0.4166,-0.1828 0.7838,0.074 0.2138,0.1493 0.7082,0.58 1.102,0.9545 1.2772,1.2148 1.2098,2.0741 -0.2057,2.6037 -0.5264,0.197 -1.0726,0.2633 -2.6347,0.3105 -2.2137,0.067 -2.0279,0.086 -4.571,-0.489 -1.5537,-0.3513 -2.1331,-0.5515 -3.4224,-1.1796 -1.7507,-0.8529 -2.277,-1.2114 -2.5455,-1.7306 -0.268,-0.5182 -0.2317,-0.7824 0.1552,-1.1253 0.5047,-0.4473 0.817,-0.5967 1.6763,-0.7993 0.9942,-0.2344 1.9148,-0.2323 3.2129,0 1.6487,0.3 1.5987,0.28 1.5987,0.6248 0,0.378 0.2161,0.479 0.6596,0.3104 0.2572,-0.098 0.3338,-0.2063 0.3338,-0.4928 0,-0.3685 0,-0.3728 0.5936,-0.3027 0.4855,0.058 0.7556,0 1.4784,-0.3065 0.426,-0.1813 0.8115,-0.3082 0.9274,-0.3104 z"
             id="path4693" />
          <path
             id="path4695"
             d="m 1578.2458,-1616.8974 c 0.1461,0.373 0.8492,0.6638 1.9273,0.8541 l 1.5223,0.1587 0,0.4734 c 0,0.445 0.1289,1.3587 -0.4311,1.5996 -0.3266,0.1405 -1.0848,0.2109 -1.7842,-0.2825 -0.2057,-0.089 -1.1767,-0.9966 -1.1955,-1.0759 -0.1026,-0.4578 -0.135,-1.7274 -0.039,-1.7274 z"
             style="fill:#999999;fill-opacity:1"
             inkscape:connector-curvature="0"
             sodipodi:nodetypes="cccscccc" />
        </g>
      </g>
      <g
         style="stroke:#000000;stroke-opacity:1"
         transform="matrix(1.0263812,-0.35757692,0.33597522,1.0923729,56.936395,159.48159)"
         id="g4054">
        <path
           inkscape:connector-curvature="0"
           style="color:#000000;fill:#ffff00;fill-opacity:1;fill-rule:nonzero;stroke:#000000;stroke-width:2;stroke-opacity:1;marker:none;visibility:visible;display:inline;overflow:visible;enable-background:accumulate"
           d="m -61.65625,-175.15625 c -28.601796,0 -51.78125,46.79829 -51.78125,65.59375 40.026951,0 61.763247,-2.49246 95.15625,-2.875 1.438087,0.89682 3.142134,1.40625 4.96875,1.40625 l 48.34375,0 c 5.191637,0 9.34375,-4.18336 9.34375,-9.375 0,-5.19164 -4.152113,-9.375 -9.34375,-9.375 l -48.34375,0 c -0.146603,0 -0.292582,0.0247 -0.4375,0.0312 -7.755922,-20.3482 -26.285938,-45.40625 -47.90625,-45.40625 z"
           transform="translate(0,802.36218)"
           id="path3981" />
        <path
           style="color:#000000;fill:#333333;fill-opacity:1;fill-rule:nonzero;stroke:#000000;stroke-width:2;stroke-opacity:1;marker:none;visibility:visible;display:inline;overflow:visible;enable-background:accumulate"
           d="m 5.4920926,621.97839 c -4.441083,0.52567 -7.7208693,3.59657 -7.4288359,6.92011 l -7.5313704,3.96341 -5.5853323,0.66111 c -2.966302,0.3511 -5.128095,2.43357 -4.864799,4.658 l 2.770033,23.40236 0.255103,2.15522 c 0.263295,2.22442 2.849115,3.72432 5.815417,3.37321 l 5.5582192,-0.6579 8.2756612,2.09239 0.110705,0.93528 c 0.3998198,3.37784 4.3515743,5.67004 8.8559686,5.13688 l 13.692197,-1.62069 c 4.504394,-0.53316 7.81181,-3.6846 7.41199,-7.06244 l -4.78679,-40.44075 c -0.39982,-3.37784 -4.351575,-5.67004 -8.855969,-5.13687 l -13.6921974,1.62068 z"
           id="rect3986"
           inkscape:connector-curvature="0" />
      </g>
    </g>
    <path
       style="color:#000000;fill:#ffffff;fill-opacity:1;fill-rule:nonzero;stroke:#000000;stroke-width:0.87308675000000002;stroke-linecap:round;stroke-linejoin:bevel;stroke-miterlimit:4;stroke-opacity:1;stroke-dasharray:none;stroke-dashoffset:0;marker:none;visibility:visible;display:inline;overflow:visible;enable-background:accumulate"
       d="M 328.21875 -77.5 C 125.05689 -76.12299 106.88257 -77.79662 84.59375 -76.78125 C 65.21272 -73.35509 55.1875 -66.77591 55.1875 -48.90625 L 55.1875 -39.78125 C 55.1875 -28.37057 55.25 -36.04748 55.25 -26.25 C 56.07624 -6.82499 72.17198 3.875 92.0625 3.875 L 173.125 3.875 L 153.4375 108.625 L 194.78125 3.875 L 328.21875 3.875 C 348.64121 3.875 365.0625 -7.3901 365.0625 -27.8125 L 365.0625 -48.90625 C 365.0625 -69.32872 348.64121 -77.5 328.21875 -77.5 z "
       transform="translate(0,802.36218)"
       id="rect6562" />
    <text
       xml:space="preserve"
       style="font-size:54.65728378px;font-style:normal;font-variant:normal;font-weight:normal;font-stretch:normal;text-align:start;line-height:125%;letter-spacing:0px;word-spacing:0px;writing-mode:lr-tb;text-anchor:start;fill:#000000;fill-opacity:1;stroke:none;font-family:Mistral;-inkscape-font-specification:Mistral"
       x="71.077431"
       y="787.2583"
       id="text6564"
       sodipodi:linespacing="125%"><tspan
         sodipodi:role="line"
         id="tspan6566"
         x="71.077431"
         y="787.2583"
         style="font-family:IMPACT;-inkscape-font-specification:IMPACT">WE GOT THIS</tspan></text>
  </g>
</svg>
