<?xml version="1.0" encoding="UTF-8" standalone="no"?>
<!-- Created with Inkscape (http://www.inkscape.org/) -->

<svg
   xmlns:dc="http://purl.org/dc/elements/1.1/"
   xmlns:cc="http://creativecommons.org/ns#"
   xmlns:rdf="http://www.w3.org/1999/02/22-rdf-syntax-ns#"
   xmlns:svg="http://www.w3.org/2000/svg"
   xmlns="http://www.w3.org/2000/svg"
   xmlns:sodipodi="http://sodipodi.sourceforge.net/DTD/sodipodi-0.dtd"
   xmlns:inkscape="http://www.inkscape.org/namespaces/inkscape"
   width="428.50082"
   height="306.47797"
   id="svg6071"
   version="1.1"
   inkscape:version="0.48.2 r9819"
   sodipodi:docname="wugboat.svg"
   inkscape:export-filename="/Users/pat/Sites/Wugbot/wugbot.org/img/wugrowboat.png"
   inkscape:export-xdpi="84.010002"
   inkscape:export-ydpi="84.010002">
  <defs
     id="defs6073" />
  <sodipodi:namedview
     id="base"
     pagecolor="#ffffff"
     bordercolor="#666666"
     borderopacity="1.0"
     inkscape:pageopacity="0.0"
     inkscape:pageshadow="2"
     inkscape:zoom="2.280588"
     inkscape:cx="193.77296"
     inkscape:cy="139.10902"
     inkscape:document-units="px"
     inkscape:current-layer="layer1"
     showgrid="false"
     inkscape:window-width="1384"
     inkscape:window-height="856"
     inkscape:window-x="0"
     inkscape:window-y="0"
     inkscape:window-maximized="1"
     fit-margin-top="20"
     fit-margin-left="20"
     fit-margin-right="20"
     fit-margin-bottom="20" />
  <metadata
     id="metadata6076">
    <rdf:RDF>
      <cc:Work
         rdf:about="">
        <dc:format>image/svg+xml</dc:format>
        <dc:type
           rdf:resource="http://purl.org/dc/dcmitype/StillImage" />
        <dc:title></dc:title>
      </cc:Work>
    </rdf:RDF>
  </metadata>
  <g
     inkscape:label="Layer 1"
     inkscape:groupmode="layer"
     id="layer1"
     transform="translate(-160.74207,-495.77516)">
    <g
       transform="matrix(0.47824586,0.02323244,-0.02323244,0.47824586,188.1305,385.68637)"
       inkscape:label="Ebene 1"
       id="layer1-5"
       inkscape:transform-center-x="-13.100898"
       inkscape:transform-center-y="90.996376">
      <path
         d="m 227.25,286.98 c -1.1469,-10.872 14.592,-16.585 22.019,-6.3706 35.348,112.8 71.605,225.48 103.24,338.73 -13.1134,-84.87662 30.8869,-65.81737 -21.3754,5.551 -26.85,-112.86 -69.23,-225.28 -103.89,-337.92 z"
         inkscape:connector-curvature="0"
         style="fill:#194a70"
         sodipodi:nodetypes="cccccc"
         id="path3524" />
    </g>
    <path
       inkscape:connector-curvature="0"
       id="rect3308"
       style="color:#000000;fill:#4b3c21;fill-rule:evenodd;stroke:#000000;stroke-width:0.92330003;stroke-linecap:round;stroke-linejoin:round"
       d="m 525.46357,609.77254 22.93992,3.48101 -8.88551,43.78559 -14.05441,-47.2666 z"
       sodipodi:nodetypes="cccc"
       inkscape:export-filename="/Users/pat/Sites/Wugbot/wugbot.org/img/wugboat.png"
       inkscape:export-xdpi="185.32001"
       inkscape:export-ydpi="185.32001" />
    <path
       inkscape:connector-curvature="0"
       id="path2181"
       style="color:#000000;fill:#b28f53;fill-rule:evenodd;stroke:#000000;stroke-width:0.92330003;stroke-linecap:round;stroke-linejoin:round"
       d="m 581.17558,639.45339 c -36.38721,-18.31557 -64.58138,-34.43535 -116.97644,-46.28025 -144.77178,-9.02489 -207.79999,3.90784 -270.40563,16.14826 66.13996,58.28943 212.63821,54.30601 387.38207,30.13199 z"
       sodipodi:nodetypes="cccc"
       inkscape:export-filename="/Users/pat/Sites/Wugbot/wugbot.org/img/wugboat.png"
       inkscape:export-xdpi="185.32001"
       inkscape:export-ydpi="185.32001" />
    <path
       inkscape:connector-curvature="0"
       id="path2183"
       style="color:#000000;fill:#4b3c21;fill-rule:evenodd;stroke:#000000;stroke-width:0.92330003;stroke-linecap:round;stroke-linejoin:round"
       d="m 565.89745,636.19181 c -33.80267,-17.00819 -54.00167,-28.15125 -102.67734,-39.15159 -123.61755,-7.86937 -200.74155,2.93374 -258.12506,13.193 86.16978,31.31427 265.02043,30.84869 360.8024,25.95859 z"
       sodipodi:nodetypes="cccc"
       inkscape:export-filename="/Users/pat/Sites/Wugbot/wugbot.org/img/wugboat.png"
       inkscape:export-xdpi="185.32001"
       inkscape:export-ydpi="185.32001" />
    <path
       inkscape:connector-curvature="0"
       id="path2204"
       style="color:#000000;fill:#67522e;fill-rule:evenodd;stroke:#000000;stroke-width:0.92330003;stroke-linecap:round;stroke-linejoin:round"
       d="m 351.18847,612.33324 0.73514,5.55602 45.76388,19.54232 12.09088,0.38722"
       sodipodi:nodetypes="cccc"
       inkscape:export-filename="/Users/pat/Sites/Wugbot/wugbot.org/img/wugboat.png"
       inkscape:export-xdpi="185.32001"
       inkscape:export-ydpi="185.32001" />
    <path
       inkscape:connector-curvature="0"
       id="path1580"
       style="color:#000000;fill:#7d6438;fill-rule:evenodd;stroke:#000000;stroke-width:0.92330003;stroke-linecap:round;stroke-linejoin:round"
       d="m 455.22168,638.67244 -51.27346,-23.54419 -52.91053,-2.7245 58.80181,25.44301 c 14.65909,0.57148 30.01012,0.70632 45.38218,0.82568 z"
       sodipodi:nodetypes="ccccc"
       inkscape:export-filename="/Users/pat/Sites/Wugbot/wugbot.org/img/wugboat.png"
       inkscape:export-xdpi="185.32001"
       inkscape:export-ydpi="185.32001" />
    <g
       id="g4258"
       transform="matrix(1.713757,0.35929787,-0.35929787,1.713757,-2838.7317,2910.8457)">
      <path
         sodipodi:nodetypes="csccccccssccccccsssccsccccssccsscscsssssccsccc"
         inkscape:connector-curvature="0"
         id="path4256"
         d="m 1507.2358,-1675.9502 c -4.6936,0.2872 -8.7384,-0.2962 -11.4168,-1.6586 -1.8539,-0.9431 -4.3929,-2.6556 -5.4984,-3.7057 -0.8837,-0.8395 -1.9654,-2.1075 -2.2351,-2.6231 -0.1711,-0.3271 0.088,-1.8742 0.5316,-3.1625 0.3649,-1.0599 0.8054,-3.0827 0.8071,-3.7173 0,-0.2344 -0.2161,-1.0726 -0.4811,-1.8626 -0.2651,-0.7899 -0.5152,-1.5754 -0.5549,-1.7461 -0.04,-0.1707 -0.2346,-0.4846 -0.4307,-0.6984 -0.4328,-0.4719 -0.9467,-0.5976 -3.2556,-0.7955 -1.2149,-0.1041 -1.7852,-0.2086 -2.0837,-0.3803 -0.6637,-0.3817 -0.5762,-0.5054 -1.3232,1.882 l -0.4501,1.4357 0.9817,0.9933 c 1.3049,1.3244 1.8796,2.4469 1.9712,3.8493 0.058,0.8816 0.025,1.0858 -0.3337,2.0682 -0.5245,1.4364 -1.3997,2.7584 -2.3515,3.5505 -0.8678,0.7222 -1.1398,0.8236 -2.1807,0.8187 -1.3506,-0.01 -1.9957,-0.6032 -3.0111,-2.7899 -0.2696,-0.5805 -0.5905,-1.3628 -0.714,-1.7384 -0.1236,-0.3756 -0.3325,-0.7753 -0.4618,-0.8886 -0.222,-0.1945 -0.2807,-0.1761 -1.0671,0.3454 -0.4577,0.3035 -1.3834,0.8343 -2.0604,1.1757 -1.4394,0.7259 -1.7084,1.0422 -1.3193,1.5793 0.1852,0.2556 0.2722,0.6931 0.3725,1.8858 0.1456,1.7308 0.2315,2.0924 0.7528,3.1663 0.8021,1.6527 2.0321,2.5603 4.3847,3.2285 0.8688,0.2467 1.3855,0.3104 2.4446,0.3104 0.9569,0 1.3598,0.044 1.4047,0.1552 0.047,0.1167 0.093,0.109 0.1901,-0.031 0.092,-0.1334 0.3617,-0.1863 0.9429,-0.1863 0.4465,0 0.811,-0.035 0.811,-0.078 0,-0.043 0.3709,-0.1727 0.8265,-0.2871 0.4557,-0.1145 0.9894,-0.3197 1.1835,-0.4579 0.1942,-0.1383 0.4025,-0.232 0.4657,-0.2096 0.063,0.023 0.4972,0.4075 0.9623,0.8576 1.1389,1.102 4.6628,3.7508 6.1619,4.6331 2.5219,1.4842 3.9513,2.03 7.2251,2.7589 1.0851,0.2415 1.8701,0.3214 3.8183,0.3802 1.3488,0.041 2.4523,0.095 2.4523,0.1203 0,0.026 -0.064,0.1489 -0.1436,0.2755 -0.079,0.1266 -0.1084,0.3294 -0.062,0.4501 0.08,0.208 0.1007,0.2099 0.3454,-0.012 0.1422,-0.1286 0.3374,-0.3902 0.4346,-0.5782 0.1206,-0.2332 0.2754,-0.3414 0.485,-0.3414 0.6467,-1.4718 3.2358,-3.6116 1.4793,-7.9715 z"
         style="fill:#000000" />
      <g
         transform="translate(-57.876301,0)"
         id="g4234">
        <path
           id="path4236"
           d="m 1540.5059,-1695.0396 c 0.071,0 0.2386,0.018 0.4307,0.054 0.2561,0.049 1.2369,0.1594 2.1808,0.2445 1.9918,0.1796 1.9827,0.1716 2.4795,1.4939 0.711,1.8928 0.7657,2.2567 0.5316,3.5544 -0.1156,0.6406 -0.4018,1.766 -0.6364,2.4989 -0.2346,0.7329 -0.4268,1.4217 -0.4268,1.5327 0,0.1284 -0.068,0.1774 -0.1863,0.1319 -0.1269,-0.049 -0.1862,0.01 -0.1862,0.1747 0,0.1353 -0.068,0.3549 -0.1514,0.4889 -0.12,0.1922 -0.12,0.2757 0,0.3958 0.2763,0.2762 0.1585,0.8366 -0.4113,1.9712 -0.3094,0.6161 -0.6787,1.4137 -0.8187,1.7694 -0.2674,0.6791 -0.9277,1.8067 -1.3504,2.3049 -0.1967,0.2318 -0.286,0.265 -0.4229,0.1513 -0.1398,-0.116 -0.2438,-0.041 -0.5316,0.3881 -0.3257,0.4856 -0.4466,0.5573 -1.3349,0.8109 -0.7257,0.2073 -1.4075,0.2919 -2.6657,0.3299 -1.9616,0.059 -2.4117,0.019 -3.4263,-0.2949 -2.7961,-0.8664 -3.6253,-1.9039 -3.9774,-4.9862 -0.1042,-0.9125 -0.2141,-1.7307 -0.2444,-1.816 -0.032,-0.091 0.2156,-0.2878 0.5937,-0.4773 0.3564,-0.1787 0.9731,-0.5476 1.3736,-0.8187 0.4005,-0.2712 0.7748,-0.449 0.8304,-0.392 0.056,0.057 0.2203,0.4075 0.3647,0.7761 0.4759,1.2143 1.3776,2.7962 1.8936,3.3254 0.938,0.9619 2.4391,1.3606 3.729,0.9856 1.1884,-0.3454 2.1567,-1.2725 3.1314,-2.9956 0.5937,-1.0495 1.3973,-3.1728 1.4939,-3.9462 0.09,-0.7191 -0.083,-1.9564 -0.3958,-2.821 -0.2486,-0.6871 -1.0784,-1.8651 -1.8198,-2.5882 l -0.5549,-0.5432 0.2367,-0.8227 c 0.1297,-0.4533 0.2367,-0.8442 0.2367,-0.8691 0,-0.01 0.011,-0.011 0.035,-0.012 z"
           style="fill:#999999;fill-opacity:1"
           inkscape:connector-curvature="0" />
        <path
           id="path4238"
           d="m 1545.5076,-1683.0068 0.4579,0.6015 c 0.2522,0.3306 0.7817,0.916 1.1757,1.3038 0.7074,0.6961 0.7136,0.7166 0.7761,1.5443 0.1002,1.3256 0.062,1.4355 -0.8304,2.3554 -0.2537,0.2615 -0.4571,0.4944 -0.6208,0.7023 l -0.039,-0.035 -1.2068,1.5793 c -0.9603,-0.7468 -1.8672,-1.4931 -2.1264,-1.7578 l -0.5394,-0.5549 0.3919,-0.5743 c 0.2173,-0.3157 0.7445,-1.3406 1.1719,-2.2777 0.4273,-0.9371 0.915,-1.9674 1.0826,-2.2933 z"
           style="fill:#999999;fill-opacity:1"
           inkscape:connector-curvature="0" />
        <path
           id="path4240"
           d="m 1548.9495,-1679.4369 c 0.01,0 0.018,0 0.027,0 0.068,0.038 0.4594,0.3041 0.8692,0.5898 0.2734,0.1906 0.6727,0.4459 1.1175,0.7179 l 0,0.7023 c -0.1024,0.1982 -0.1922,0.5078 -0.2173,0.7683 -0.1286,1.3389 -1.2565,2.8684 -2.2389,3.0344 -0.2875,0.049 -0.5959,0.19 -0.6829,0.3143 -0.1355,0.1935 -0.3514,0.07 -1.8665,-1.0826 l 0.9895,-1.3077 0.01,0 c 0.161,-0.144 0.3573,-0.3327 0.5976,-0.5743 1.0351,-1.0407 1.2586,-1.5016 1.2844,-2.6503 0.01,-0.3021 0.052,-0.4961 0.1125,-0.5122 z"
           style="fill:#999999;fill-opacity:1"
           inkscape:connector-curvature="0" />
        <path
           id="path4242"
           d="m 1551.6657,-1677.7024 c 0.8347,0.4919 1.7136,0.9782 2.2583,1.2417 l 0.7295,0.3493 -0.066,0.6402 c -0.087,0.8519 -0.7229,2.6647 -1.1485,3.2789 -0.2469,0.3562 -0.9398,0.9701 -1.1003,0.9192 -0.4442,-0.141 -0.6477,0.7416 -0.2755,1.0283 l 0.5376,-0.2324 c -0.9924,-0.3543 -1.6215,-0.6855 -2.8714,-1.3892 l -1.1098,-0.6247 0.4851,-0.1669 c 0.2676,-0.093 0.6726,-0.3503 0.9002,-0.5704 0.6351,-0.6141 1.3267,-2.1189 1.7229,-3.7561 0.023,-0.095 0,-0.2223 -0.062,-0.3492 z"
           style="fill:#999999;fill-opacity:1"
           inkscape:connector-curvature="0" />
        <path
           id="path4244"
           d="m 1555.5925,-1675.7894 c 0.2209,-0.023 1.4687,0.4197 1.5522,0.5627 0.055,0.094 0.1816,0.1707 0.2794,0.1707 0.259,0 0.3483,0.5287 0.2522,1.4706 -0.1362,1.3338 -0.6322,3.2478 -0.8421,3.2478 -0.1834,0 -0.4608,0.389 -0.4656,0.6519 0,0.2462 -0.3077,0.2666 -0.9972,0.066 -1.0752,-0.3127 -1.8156,-0.534 -2.4213,-0.7373 l -0.5377,0.2247 c 0.2845,-0.01 1.1231,-0.7445 1.4689,-1.2219 0.5224,-0.7211 0.7933,-1.3667 1.2534,-2.9956 0.2155,-0.7632 0.4091,-1.4068 0.4268,-1.4279 0,-0.01 0.016,-0.01 0.031,-0.012 z"
           style="fill:#999999;fill-opacity:1"
           inkscape:connector-curvature="0" />
        <path
           id="path4246"
           d="m 1538.9033,-1675.3858 c -0.015,0 -0.029,0.01 -0.046,0.019 -0.068,0.042 -0.1242,0.1335 -0.1242,0.2017 0,0.068 0.056,0.089 0.1242,0.047 0.068,-0.042 0.1242,-0.1335 0.1242,-0.2018 0,-0.051 -0.033,-0.074 -0.078,-0.066 z"
           style="fill:#999999;fill-opacity:1"
           inkscape:connector-curvature="0" />
        <path
           id="path4248"
           d="m 1538.2049,-1675.2772 c -0.022,-10e-4 -0.044,0 -0.066,0 -0.1478,0.016 -0.2841,0.1038 -0.2211,0.2056 0.039,0.062 0.1849,0.083 0.3259,0.047 0.1707,-0.045 0.2145,-0.1075 0.1319,-0.1901 -0.042,-0.042 -0.1047,-0.063 -0.1707,-0.066 z"
           style="fill:#999999;fill-opacity:1"
           inkscape:connector-curvature="0" />
        <path
           id="path4250"
           d="m 1564.1214,-1675.1802 0.4851,0 0.485,0 -0.074,0.7955 c -0.1393,1.4917 -0.7449,4.9801 -0.8808,5.0715 -0.205,0.138 -0.4463,0.1127 -0.4463,-0.046 0,-0.078 0.1177,-0.8182 0.26,-1.6453 0.1859,-1.0799 0.2447,-1.8818 0.2134,-2.8404 z"
           style="fill:#999999;fill-opacity:1"
           inkscape:connector-curvature="0" />
        <path
           id="path4252"
           d="m 1558.9568,-1675.1453 c 0.1913,0 0.4376,0.016 0.6945,0.039 0.8597,0.078 0.9352,0.1088 0.9352,0.3647 0,0.153 0.091,0.4922 0.2018,0.7567 0.2827,0.6749 0.168,2.2112 -0.2678,3.6319 -0.3158,1.0295 -0.3645,1.1144 -0.7101,1.1835 -0.5086,0.1018 -1.9961,0.032 -2.4174,-0.1125 -0.1073,-0.037 -0.062,-0.2466 0.1591,-0.7295 0.495,-1.0813 0.9235,-2.9612 0.9235,-4.0588 0,-0.5336 0.054,-1.0026 0.1203,-1.0438 0.033,-0.021 0.1696,-0.033 0.3609,-0.031 z"
           style="fill:#999999;fill-opacity:1"
           inkscape:connector-curvature="0" />
        <path
           id="path4254"
           d="m 1561.7661,-1675.056 0.6247,0 0.6286,0 0.1669,0.7567 c 0.185,0.834 0.1125,2.721 -0.163,4.2722 l -0.1513,0.8692 -1.0322,0.039 c -0.8038,0.028 -1.0145,10e-4 -0.9623,-0.1242 0.037,-0.088 0.2517,-0.7217 0.4773,-1.4047 0.3776,-1.1429 0.4113,-1.3676 0.4113,-2.8248 z"
           style="fill:#999999;fill-opacity:1"
           inkscape:connector-curvature="0" />
      </g>
    </g>
    <g
       id="g4603"
       transform="matrix(1.5692587,0.32900307,-0.35929787,1.713757,-2999.3978,2861.7278)">
      <path
         sodipodi:nodetypes="csssccccccsssscccccsscssccccsccccccccsccssscccsssscsssscsc"
         inkscape:connector-curvature="0"
         id="path4340"
         d="m 1773.2293,-1708.5663 c -2.8179,0.022 -5.1915,0.3308 -10.3164,1.2378 -2.5859,0.4577 -4.8188,1.0327 -8.182,2.1109 -3.5635,1.1423 -7.9246,3.6782 -11.1862,6.5034 -1.9185,1.6619 -2.4885,2.2518 -2.9951,3.0965 -0.344,0.5736 -0.4462,0.8603 -0.2899,0.9856 l 0,0.7062 c -0.011,0 -0.012,0 -0.017,0 -1.6579,0 -1.868,0.023 -2.095,0.2444 -0.2062,0.2014 -0.2196,0.2803 -0.075,0.4346 0.097,0.1037 0.2661,0.1863 0.3733,0.1863 0.1075,0 0.4473,0.1636 0.7554,0.3608 0.7277,0.4658 1.1815,0.5278 2.8722,0.3997 1.6675,-0.1263 2.0873,-0.042 3.2237,0.6403 2.0857,1.2514 3.4094,2.9555 4.0186,5.1802 0.482,1.7606 0.6578,6.5785 0.3469,9.5106 l -0.079,0.7605 c -0.1719,4.8834 -0.2874,4.8316 -1.3878,8.3307 0,0.055 -0.3101,1.1862 -0.6895,2.5144 -0.6891,2.412 -1.9037,5.9074 -3.597,10.3604 -2.3524,6.1865 -3.2697,9.0542 -3.6671,11.4857 -0.2989,1.8284 -0.2098,6.1309 0.1537,7.5744 0.4605,1.8288 2.2155,5.2854 3.6716,7.2251 1.36,1.8118 5.791,5.5238 7.9229,6.6392 2.1909,1.1464 8.0615,3.5219 10.3779,4.1985 0.6683,0.1952 1.1083,0.3834 1.0146,0.4346 9.7617,1.9661 11.1202,1.4765 22.5038,2.1535 l 3.0435,-0.074 c 1.6735,-0.041 3.929,-0.1391 5.0111,-0.2173 4.7679,-0.3441 7.826,-0.6357 9.1043,-0.8691 1.6405,-0.2997 4.531,-1.0965 5.9993,-1.6531 0.5806,-0.22 1.4208,-0.5084 1.8666,-0.6402 0.7592,-0.2245 0.8098,-0.2637 0.7905,-0.617 -0.011,-0.2074 0.027,-0.4747 0.084,-0.5937 0.1859,-0.3895 -0.3297,-0.4023 -1.1067,-0.031 l -0.7246,0.3453 -0.6061,-0.2755 c -1.1856,-0.5343 -2.5829,-1.9318 -3.4433,-3.4457 -0.5775,-1.0163 -1.0342,-2.5978 -1.4185,-4.9047 -0.4489,-2.6936 -0.4508,-4.0428 -0.011,-8.5444 0.4473,-4.5535 0.4061,-4.2913 1.1989,-7.6985 0.3736,-1.6049 0.7766,-3.365 0.896,-3.9114 0.1193,-0.5463 0.4737,-1.9991 0.7905,-3.2284 0.3169,-1.2293 0.7259,-2.8482 0.9091,-3.6009 0.1832,-0.7528 0.5583,-2.1497 0.8301,-3.1043 0.2718,-0.9546 0.6521,-2.4368 0.8476,-3.2905 0.3629,-1.5839 0.8658,-3.5965 1.2825,-5.153 1.229,-4.5925 1.4819,-10.1449 0.6895,-15.1254 -0.3569,-2.2433 -0.8158,-3.9142 -1.4845,-5.4014 -0.4177,-0.9291 -2.7847,-4.6637 -3.4784,-5.4868 -0.5215,-0.6188 -2.4395,-2.7687 -2.613,-2.9296 -0.08,-0.074 -0.5244,-0.5144 -0.9882,-0.9817 -2.2256,-2.2426 -4.4502,-3.8837 -8.0767,-5.9563 -3.4149,-1.9516 -5.5102,-2.82 -10.4043,-4.3033 -3.7592,-1.1392 -5.676,-1.4443 -9.6972,-1.556 -0.4824,-0.013 -0.9385,-0.025 -1.3791,-0.027 -0.1928,-10e-4 -0.383,0 -0.5709,0 z"
         style="fill:#000000" />
      <path
         sodipodi:nodetypes="cccscccccccscscscccsccccccccccccccccsccccccccc"
         inkscape:connector-curvature="0"
         style="fill:#999999"
         d="m 1774.5557,-1706.9521 c 2.2389,-0.01 4.3859,0.1306 6.0344,0.4229 2.0853,0.3699 7.5209,2.0019 10.1232,3.0383 2.1128,0.8415 6.4774,3.4112 8.6433,5.091 1.0217,0.7924 4.1727,3.9293 5.4897,5.4634 0.9704,1.1303 2.62,3.5018 3.4169,4.9125 1.7416,3.0833 2.4698,6.42 2.4682,11.2917 0,1.9133 -0.2962,5.5401 -0.5709,7.0001 -0.3498,1.8583 -2.1238,8.9287 -3.2149,12.805 -0.4517,1.6049 -0.9608,3.5047 -1.1287,4.2218 -0.1678,0.717 -0.392,1.648 -0.5007,2.0682 -0.6517,2.5223 -1.7729,7.2845 -2.0246,8.6104 -0.3716,1.9572 -0.9859,8.1871 -0.9882,10.015 0,1.4263 0.5514,5.5049 0.9048,6.6664 0.7884,2.5917 2.2167,4.5175 4.3127,5.8166 0.4531,0.2808 0.8257,0.5295 0.8257,0.551 0,0.1513 -4.6101,1.3114 -6.0432,1.5211 -19.3486,1.5878 -22.4224,1.3469 -39.5527,-1.4788 -2.5217,-0.7864 -7.6593,-2.9101 -9.056,-3.7445 -1.1021,-0.6586 -2.9735,-2.0888 -4.5192,-3.4535 -2.465,-2.1763 -4.0024,-4.3555 -5.6436,-8.0012 -0.3412,-0.7579 -0.9421,-3.1654 -1.1024,-4.4158 -0.1412,-1.1029 -0.057,-3.7992 0.1494,-4.7378 0.3129,-1.4263 0.5417,-2.6879 0.6324,-3.5195 0.14,-1.2836 0.9584,-4.1756 1.8842,-6.6431 0.4483,-1.1951 1.2032,-3.4302 1.6777,-4.9668 0.4743,-1.5366 1.0822,-3.4922 1.3482,-4.3459 0.6137,-1.9693 1.1408,-3.9386 1.322,-4.9357 0.078,-0.4274 0.1895,-0.8428 0.2459,-0.9236 0.057,-0.081 0.1144,-0.3187 0.1274,-0.5277 0.02,-0.326 0.3284,-2.2656 0.9135,-5.7196 0.2301,-1.3582 0.3348,-7.7072 0.1581,-9.6231 -0.2775,-3.009 -1.075,-4.8149 -2.8986,-6.5655 -1.3159,-1.2631 -3.4193,-2.3969 -4.9936,-2.6929 -0.3342,-0.063 -0.9848,-0.1169 -1.6777,-0.1475 l 0,-0.873 c 0.1679,-0.136 0.2723,-0.321 0.2723,-0.5239 0,-0.2137 0.9193,-1.0389 1.6645,-1.49 0.2601,-0.1574 1.2577,-0.8832 2.2135,-1.6142 3.2524,-2.4876 6.6322,-4.3594 9.5435,-5.285 0.773,-0.2458 2.196,-0.6974 3.1622,-1.005 1.335,-0.425 2.1448,-0.6006 3.3729,-0.7295 1.547,-0.1623 3.5625,-0.4902 3.7946,-0.617 0.06,-0.033 1.2373,-0.2328 2.6176,-0.4423 2.0243,-0.3073 4.3577,-0.4644 6.5966,-0.4734 z"
         id="path4292" />
      <path
         inkscape:connector-curvature="0"
         style="fill:#000000"
         d="m 1766.64,-1694.3475 c -0.8043,-0.021 -1.4639,0.3006 -2.1012,1.0004 -0.7427,0.8154 -0.8138,1.545 -0.2369,2.4863 0.2713,0.443 0.5574,0.6654 0.9689,0.746 1.4415,0.2825 1.7904,0.2033 2.338,-0.5262 0.6113,-0.8144 0.7737,-1.5512 0.5741,-2.6599 -0.1423,-0.7904 -0.1715,-0.8183 -0.9637,-0.9771 -0.2021,-0.04 -0.3937,-0.064 -0.5792,-0.07 z"
         id="path4294" />
      <path
         inkscape:connector-curvature="0"
         style="fill:#000000"
         d="m 1798.32,-1688.4353 c -0.026,0.01 -0.072,0.098 -0.1668,0.2794 -0.1064,0.2049 -0.1963,0.4842 -0.1977,0.6208 0,0.219 0.025,0.2117 0.202,-0.062 0.1109,-0.1707 0.1968,-0.4501 0.1933,-0.6208 0,-0.1513 0,-0.2253 -0.03,-0.2173 z"
         id="path4296" />
      <path
         inkscape:connector-curvature="0"
         style="fill:#000000"
         d="m 1798.1663,-1686.728 c -0.034,0 -0.1018,0.056 -0.1493,0.1242 -0.048,0.068 -0.02,0.1242 0.061,0.1242 0.081,0 0.1492,-0.056 0.1492,-0.1242 0,-0.068 -0.027,-0.1242 -0.061,-0.1242 z"
         id="path4298" />
    </g>
    <path
       id="path4635"
       d="m 249.39649,671.07698 c -0.043,0.009 -0.14489,0.14496 -0.353,0.42587 -0.23471,0.31737 -0.47114,0.7675 -0.52244,1.00113 -0.0787,0.37531 -0.0384,0.37071 0.32818,-0.0421 0.22928,-0.25733 0.45974,-0.70888 0.51576,-1.00253 0.0544,-0.25929 0.081,-0.38611 0.0318,-0.3821 z"
       style="fill:#000000"
       inkscape:connector-curvature="0" />
    <path
       id="path4637"
       d="m 248.55033,673.95409 c -0.0514,-0.0108 -0.17436,0.0636 -0.27067,0.16546 -0.0964,0.10144 -0.0755,0.20638 0.0479,0.23225 0.12339,0.0259 0.24617,-0.0486 0.27067,-0.16546 0.0244,-0.11654 0.004,-0.22147 -0.0479,-0.23225 z"
       style="fill:#000000"
       inkscape:connector-curvature="0" />
    <path
       style="fill:#7d6438;fill-rule:evenodd;stroke:#000000;stroke-width:0.92330003;stroke-linecap:round;stroke-linejoin:round"
       inkscape:connector-curvature="0"
       id="path2200"
       d="m 239.8798,667.35072 c 3.88748,0.79536 301.52067,16.3559 309.50046,15.89516 -8.50752,8.73879 -20.1407,19.98233 -29.03084,21.51895 -28.63321,4.9284 -120.63057,10.97179 -221.59419,-3.47105 -25.19527,-10.95801 -44.25015,-22.65588 -58.87634,-33.9432 z"
       sodipodi:nodetypes="ccscc"
       inkscape:export-filename="/Users/pat/Sites/Wugbot/wugbot.org/img/wugboat.png"
       inkscape:export-xdpi="185.32001"
       inkscape:export-ydpi="185.32001" />
    <path
       style="fill:#745c33;fill-rule:evenodd;stroke:#000000;stroke-width:0.92330003;stroke-linecap:round;stroke-linejoin:round"
       inkscape:connector-curvature="0"
       id="path1584"
       d="m 210.66878,633.6413 c 5.67145,3.58751 354.43042,26.22438 356.2341,26.03115 -5.42427,7.80585 -10.88418,16.70826 -17.90807,23.91651 -21.81315,6.14073 -259.49365,13.65771 -309.11227,-16.23782 -13.49409,-10.41513 -22.40195,-24.99044 -29.21194,-33.70957 z"
       sodipodi:nodetypes="ccccc"
       inkscape:export-filename="/Users/pat/Sites/Wugbot/wugbot.org/img/wugboat.png"
       inkscape:export-xdpi="185.32001"
       inkscape:export-ydpi="185.32001" />
    <path
       inkscape:connector-curvature="0"
       id="path2193"
       style="color:#000000;fill:#43341d;fill-rule:evenodd;stroke:#000000;stroke-width:0.92330003;stroke-linecap:round;stroke-linejoin:round"
       d="m 463.50888,597.16809 c 0,0 4.80822,21.73235 -7.92672,41.34426 51.31169,1.13712 109.92415,-2.38923 109.92415,-2.38923 -30.25313,-16.15205 -66.08128,-31.93605 -101.99743,-38.95503 z"
       sodipodi:nodetypes="cccc"
       inkscape:export-filename="/Users/pat/Sites/Wugbot/wugbot.org/img/wugboat.png"
       inkscape:export-xdpi="185.32001"
       inkscape:export-ydpi="185.32001" />
    <path
       style="fill:#6e5831;fill-rule:evenodd;stroke:#000000;stroke-width:0.92330003;stroke-linecap:round;stroke-linejoin:round"
       inkscape:connector-curvature="0"
       id="path1306"
       d="m 193.60773,609.30255 c 72.21788,28.87029 217.18784,40.01712 387.53555,30.35139 0,0 -5.03104,7.1838 -14.19489,20.37094 -56.61039,17.90357 -334.30975,1.12811 -355.79952,-26.00256 -13.60859,-17.42718 -17.37968,-25.43303 -17.54297,-24.72005 z"
       sodipodi:nodetypes="ccccc"
       inkscape:export-filename="/Users/pat/Sites/Wugbot/wugbot.org/img/wugboat.png"
       inkscape:export-xdpi="185.32001"
       inkscape:export-ydpi="185.32001" />
    <path
       style="color:#000000;fill:#b28f53;fill-rule:evenodd;stroke:#000000;stroke-width:0.92330003;stroke-linecap:round;stroke-linejoin:round"
       d="m 252.99593,598.65625 c -21.25569,3.2022 -40.25611,6.95485 -59.1875,10.65625 0.0499,0.0439 0.1063,0.0811 0.15625,0.125 72.0106,28.64341 215.83058,39.76892 384.9375,30.34375 0.76287,-0.10491 1.51729,-0.20681 2.28125,-0.3125 -30.12154,-15.16174 -54.63937,-28.83931 -91.90625,-39.8125 l 0,4.03125 c 31.19461,9.03252 49.57457,18.88928 76.625,32.5 -95.78197,4.8901 -274.64272,5.34552 -360.8125,-25.96875 14.54451,-2.60033 30.38864,-5.23935 47.90625,-7.59375 l 0,-3.96875 z"
       id="path6518"
       inkscape:export-filename="/Users/pat/Sites/Wugbot/wugbot.org/img/wugboat.png"
       inkscape:export-xdpi="185.32001"
       inkscape:export-ydpi="185.32001"
       inkscape:connector-curvature="0" />
    <g
       style="fill:#4b3c21;fill-rule:evenodd;stroke:#000000;stroke-width:0.75858003;stroke-linecap:round;stroke-linejoin:round"
       id="g3303"
       transform="matrix(0.98937216,0.37028225,-0.23112062,1.5230902,138.14701,319.18678)"
       inkscape:export-filename="/Users/pat/Sites/Wugbot/wugbot.org/img/wugboat.png"
       inkscape:export-xdpi="185.32001"
       inkscape:export-ydpi="185.32001">
      <rect
         id="rect3294"
         style="color:#000000"
         transform="matrix(0.96961,-0.24464,-0.12817,0.99175,0,0)"
         height="4.9017"
         width="45.528"
         y="200.53999"
         x="430.42999" />
      <path
         inkscape:connector-curvature="0"
         id="rect3298"
         d="m 430.43,200.54 h 45.53 l -4.16,-1.37 -47,-0.81 5.63,2.18 z"
         sodipodi:nodetypes="ccccc"
         style="color:#000000"
         transform="matrix(0.96961,-0.24464,-0.12817,0.99175,0,0)" />
      <path
         inkscape:connector-curvature="0"
         id="path3301"
         d="m 430.43,200.54 -0.02,4.9 -4.67,-2 -0.94,-5.08 5.63,2.18 z"
         sodipodi:nodetypes="ccccc"
         style="color:#000000"
         transform="matrix(0.96961,-0.24464,-0.12817,0.99175,0,0)" />
    </g>
    <g
       inkscape:transform-center-y="76.788903"
       inkscape:transform-center-x="-53.690922"
       id="g19898"
       inkscape:label="Ebene 1"
       transform="matrix(0.43303623,-0.20429995,0.20429995,0.43303623,162.41955,507.20757)">
      <path
         id="path19900"
         sodipodi:nodetypes="ccccccccccccc"
         style="fill:#194a70"
         inkscape:connector-curvature="0"
         d="m 227.25,286.98 c -1.1469,-10.872 14.592,-16.585 22.019,-6.3706 35.348,112.8 71.605,225.48 103.24,338.73 4.1007,10.153 18.837,15.681 30.116,22.712 5.4345,6.4475 6.1983,14.441 9.0301,21.749 9.2848,47.743 20.211,92.73 21.007,122.54 -0.23433,7.2692 1.3031,6.8078 -2.2357,16.316 -1.9111,2.1352 0.58935,6.1138 -32.845,9.648 -6.4999,-0.75834 -11.886,-4.6652 -15.096,-15.161 -16.205,-39.9 -32.393,-79.802 -45.493,-119.93 -2.0729,-6.7421 -5.4857,-11.583 1.7882,-21.359 5.8623,-11.189 15.543,-24.277 12.353,-30.964 -26.85,-112.86 -69.23,-225.28 -103.89,-337.92 z" />
    </g>
    <g
       id="g4590"
       transform="matrix(-1.1230995,1.3433933,-1.3433933,-1.1230995,-384.83144,-3065.5645)"
       inkscape:transform-center-y="-11.353155"
       inkscape:transform-center-x="20.90991">
      <path
         id="path3231"
         d="m 1335.241,-1682.6006 c -0.2039,0.012 -0.3105,0.156 -0.3105,0.4385 0,0.3055 0.1211,0.462 0.6985,0.8964 1.1174,0.8405 1.6608,1.3516 1.6608,1.5598 0,0.1065 -0.2025,0.6008 -0.4501,1.102 -0.546,1.105 -1.4065,1.9382 -2.5805,2.499 -1.402,0.6697 -1.3137,0.6965 -1.9013,-0.5898 -0.5362,-1.1737 -0.6926,-1.3291 -1.2262,-1.1952 -0.277,0.07 -0.3108,0.1302 -0.2406,0.4191 0.045,0.1848 0.2076,0.5293 0.3609,0.7683 0.1533,0.239 0.4045,0.7419 0.5627,1.1175 0.1581,0.3756 0.8087,1.7725 1.4434,3.1043 0.6347,1.3317 1.376,3.0918 1.6492,3.9113 0.5283,1.5851 1.315,4.9605 1.4512,6.2279 l 0.082,0.7644 -0.6286,0.132 c -0.3454,0.074 -1.1788,0.415 -1.8548,0.7566 -2.958,1.4947 -3.9052,2.6809 -3.9191,4.9086 -0.01,1.5455 0.2096,2.436 0.7411,2.9995 0.4214,0.4468 0.4343,0.4485 1.2029,0.3764 0.8213,-0.077 2.3237,0.094 2.7899,0.3182 0.2224,0.1066 0.3283,0.091 0.5278,-0.089 0.3185,-0.2883 0.3164,-0.4784 -0.027,-1.1757 -0.4247,-0.8619 -0.3913,-2.1062 0.078,-2.8947 0.3971,-0.6676 0.7468,-0.9624 1.1525,-0.9624 0.5815,0 4.8994,1.4875 5.2384,1.8044 0.093,0.087 0.1987,0.407 0.2328,0.7101 0.074,0.6588 -0.1118,1.059 -0.8265,1.7966 -0.2787,0.2876 -0.5044,0.6 -0.5044,0.6945 0,0.2304 0.363,0.5336 0.7489,0.6248 0.532,0.1258 1.3045,0.8929 1.6064,1.5948 0.155,0.3604 0.3743,0.7266 0.485,0.811 0.2451,0.1865 0.4702,0.201 0.5704,0.039 0.041,-0.066 0.2722,-0.2121 0.5122,-0.326 0.4831,-0.2292 1.6664,-1.5929 2.1885,-2.5222 1.006,-1.7904 1.0928,-4.3831 0.2057,-6.1309 -0.4723,-0.9305 -1.7978,-2.3941 -2.658,-2.9374 -0.4422,-0.2793 -0.8032,-0.5218 -0.8032,-0.5393 0,-0.018 0.1476,-0.6992 0.3298,-1.5172 0.3083,-1.3841 0.3341,-1.7101 0.3492,-4.6797 0.015,-2.8689 0.038,-3.2149 0.2367,-3.434 0.1322,-0.1461 0.2027,-0.3863 0.1785,-0.5976 -0.034,-0.2962 -0.091,-0.3455 -0.3609,-0.3182 -0.2949,0.03 -0.3372,-0.03 -0.5355,-0.745 -0.5569,-2.0092 -1.8026,-3.8954 -4.2101,-6.3792 -2.1448,-2.2128 -3.6335,-3.3753 -4.245,-3.341 z"
         style="fill:#000000"
         inkscape:connector-curvature="0" />
      <path
         id="path3229"
         d="m 1338.0464,-1679.0617 c 0.142,0 2.4813,2.4957 2.6154,2.7899 0.3744,0.8218 -1.4779,2.3967 -3.9308,3.341 -0.6146,0.2365 -1.3794,0.4686 -1.6996,0.516 l -0.582,0.085 -0.5627,-1.1214 -0.5626,-1.1175 1.1524,-0.5627 c 1.4482,-0.7045 2.5669,-1.8133 3.1276,-3.1003 0.1987,-0.4563 0.3976,-0.8304 0.4423,-0.8304 z"
         style="fill:#999999;fill-opacity:1"
         inkscape:connector-curvature="0" />
      <path
         id="path3227"
         d="m 1341.3719,-1675.1931 c 0.04,7e-4 0.099,0.055 0.1901,0.1669 0.3881,0.4762 1.1806,2.2416 1.3659,3.0383 0.1721,0.7404 0.1727,0.8215 -0.023,1.0438 -0.5052,0.5729 -3.552,1.7201 -5.6148,2.1147 -0.5122,0.098 -1.0195,0.2144 -1.1253,0.2561 -0.1445,0.057 -0.2416,-0.074 -0.3919,-0.5199 -0.1101,-0.3265 -0.3432,-0.9764 -0.52,-1.4474 -0.1767,-0.471 -0.3221,-0.8761 -0.3221,-0.9002 0,-0.024 0.1615,-0.047 0.3609,-0.047 0.5485,0 2.4471,-0.7062 3.4263,-1.2766 0.838,-0.4881 2.447,-1.9409 2.5765,-2.3243 0.019,-0.058 0.038,-0.091 0.062,-0.1009 0.01,0 0.01,0 0.016,0 z"
         style="fill:#999999;fill-opacity:1"
         inkscape:connector-curvature="0" />
      <path
         id="path3225"
         d="m 1343.1839,-1669.8732 c 0.036,0 0.066,0.4678 0.066,1.04 0,0.7731 -0.048,1.0802 -0.1862,1.1951 -0.1025,0.085 -0.1863,0.2822 -0.1863,0.4385 0,0.3762 -0.5696,0.8414 -1.459,1.1912 -0.5691,0.2238 -0.9558,0.2818 -1.8936,0.2794 -0.6306,0 -1.4193,-0.049 -1.7927,-0.1009 l -1.1214,-0.4385 c -0.087,-0.3725 -0.1732,-0.7228 -0.2483,-0.9972 -0.1029,-0.3756 -0.1889,-0.6984 -0.1902,-0.7179 0,-0.019 0.1085,0.023 0.2406,0.093 0.1321,0.071 0.3975,0.1285 0.5898,0.128 0.9834,0 4.6423,-1.1775 5.6536,-1.816 0.2558,-0.1614 0.4923,-0.2949 0.5277,-0.2949 z"
         style="fill:#999999;fill-opacity:1"
         inkscape:connector-curvature="0" />
      <path
         id="path3223"
         d="m 1343.2499,-1666.0511 0,0.4152 c 0,0.4438 -0.1688,1.6004 -0.388,2.6968 -0.1222,0.6114 -0.1716,0.6801 -0.648,0.8964 -0.4363,0.1981 -0.7961,0.2331 -2.3166,0.2212 -2.5729,-0.02 -2.6041,-0.031 -2.6075,-0.877 0,-0.2641 -0.1912,-1.3065 -0.4191,-2.3903 l 1.1912,0.3105 c 1.2211,0.5333 3.3863,0.098 4.7845,-0.9662 z"
         style="fill:#999999;fill-opacity:1"
         inkscape:connector-curvature="0" />
      <path
         id="path3221"
         d="m 1342.3419,-1660.898 c 0.1226,0 0.1752,0.085 0.2639,0.2794 0.1019,0.2235 0.216,0.3057 0.3453,0.2561 0.578,-0.2218 2.4341,1.6125 3.1935,3.1546 0.3829,0.7774 0.3962,0.8582 0.3919,2.3593 0,1.4046 -0.037,1.6178 -0.3259,2.235 -0.387,0.8276 -1.2415,1.9828 -1.6259,2.1963 -0.3876,0.2153 -0.4369,0.2027 -0.5316,-0.1164 -0.1906,-0.6426 -0.9479,-1.4488 -2.0255,-2.1575 -0.024,-0.016 0.074,-0.1561 0.2173,-0.3104 0.1437,-0.1543 0.3795,-0.5243 0.5239,-0.8226 0.323,-0.6673 0.2785,-1.7219 -0.093,-2.239 -0.3405,-0.4737 -1.7834,-1.1574 -3.4263,-1.6219 -0.77,-0.2178 -1.5713,-0.4492 -1.781,-0.5161 -0.8057,-0.2571 -1.2603,-0.1627 -1.8703,0.3997 -1.1234,1.0354 -1.6608,2.1696 -1.6608,3.5039 l 0,0.7528 -1.2107,0 -1.2106,0 -0.229,-0.4657 c -0.1468,-0.3006 -0.25,-0.8742 -0.2949,-1.6258 -0.063,-1.0585 -0.042,-1.2232 0.2406,-1.8393 0.3578,-0.7816 0.9223,-1.2094 2.9413,-2.2273 1.4296,-0.7208 2.1363,-0.8992 2.1031,-0.5316 -0.091,1.0044 0.5375,0.8406 0.8808,-0.2289 0.1394,-0.4343 0.1707,-0.4557 0.5433,-0.3764 0.5668,0.1206 3.9231,0.1115 4.3731,-0.012 0.084,-0.023 0.1545,-0.037 0.2095,-0.043 0.021,0 0.041,0 0.058,0 z"
         style="fill:#999999;fill-opacity:1"
         inkscape:connector-curvature="0" />
    </g>
    <text
       xml:space="preserve"
       style="font-size:70px;font-style:normal;font-variant:normal;font-weight:normal;font-stretch:normal;text-align:start;line-height:125%;letter-spacing:0px;word-spacing:0px;writing-mode:lr-tb;text-anchor:start;fill:#000000;fill-opacity:1;stroke:none;font-family:Times New Roman;-inkscape-font-specification:Times New Roman"
       x="169.4236"
       y="786.13031"
       id="text19902"
       sodipodi:linespacing="125%"><tspan
         sodipodi:role="line"
         id="tspan19904"
         x="169.4236"
         y="786.13031"
         style="font-style:normal;font-variant:normal;font-weight:bold;font-stretch:normal;font-family:Impact;-inkscape-font-specification:Impact Bold">wugboat</tspan></text>
    <g
       inkscape:transform-center-y="90.996376"
       inkscape:transform-center-x="-13.100898"
       id="g19906"
       inkscape:label="Ebene 1"
       transform="matrix(0.47824586,0.02323244,-0.02323244,0.47824586,188.1305,755.27144)">
      <path
         id="path19908"
         sodipodi:nodetypes="cccccc"
         style="fill:#194a70"
         inkscape:connector-curvature="0"
         d="m 227.25,286.98 c -1.1469,-10.872 14.592,-16.585 22.019,-6.3706 35.348,112.8 71.605,225.48 103.24,338.73 -13.1134,-84.87662 30.8869,-65.81737 -21.3754,5.551 -26.85,-112.86 -69.23,-225.28 -103.89,-337.92 z" />
    </g>
    <path
       inkscape:export-ydpi="185.32001"
       inkscape:export-xdpi="185.32001"
       inkscape:export-filename="/Users/pat/Sites/Wugbot/wugbot.org/img/wugboat.png"
       sodipodi:nodetypes="cccc"
       d="m 525.46357,979.35761 22.93992,3.48101 -8.88551,43.78558 -14.05441,-47.26659 z"
       style="color:#000000;fill:#4b3c21;fill-rule:evenodd;stroke:#000000;stroke-width:0.92330003;stroke-linecap:round;stroke-linejoin:round"
       id="path19910"
       inkscape:connector-curvature="0" />
    <path
       inkscape:export-ydpi="185.32001"
       inkscape:export-xdpi="185.32001"
       inkscape:export-filename="/Users/pat/Sites/Wugbot/wugbot.org/img/wugboat.png"
       sodipodi:nodetypes="cccc"
       d="m 581.17558,1009.0385 c -36.38721,-18.31561 -64.58138,-34.43539 -116.97644,-46.28029 -144.77178,-9.02489 -207.79999,3.90784 -270.40563,16.14826 66.13996,58.28943 212.63821,54.30603 387.38207,30.13203 z"
       style="color:#000000;fill:#b28f53;fill-rule:evenodd;stroke:#000000;stroke-width:0.92330003;stroke-linecap:round;stroke-linejoin:round"
       id="path19912"
       inkscape:connector-curvature="0" />
    <path
       inkscape:export-ydpi="185.32001"
       inkscape:export-xdpi="185.32001"
       inkscape:export-filename="/Users/pat/Sites/Wugbot/wugbot.org/img/wugboat.png"
       sodipodi:nodetypes="cccc"
       d="m 565.89745,1005.7769 c -33.80267,-17.00821 -54.00167,-28.15127 -102.67734,-39.15161 -123.61755,-7.86937 -200.74155,2.93374 -258.12506,13.193 86.16978,31.31431 265.02043,30.84871 360.8024,25.95861 z"
       style="color:#000000;fill:#4b3c21;fill-rule:evenodd;stroke:#000000;stroke-width:0.92330003;stroke-linecap:round;stroke-linejoin:round"
       id="path19914"
       inkscape:connector-curvature="0" />
    <path
       inkscape:export-ydpi="185.32001"
       inkscape:export-xdpi="185.32001"
       inkscape:export-filename="/Users/pat/Sites/Wugbot/wugbot.org/img/wugboat.png"
       sodipodi:nodetypes="cccc"
       d="m 351.18847,981.91831 0.73514,5.55602 45.76388,19.54237 12.09088,0.3872"
       style="color:#000000;fill:#67522e;fill-rule:evenodd;stroke:#000000;stroke-width:0.92330003;stroke-linecap:round;stroke-linejoin:round"
       id="path19916"
       inkscape:connector-curvature="0" />
    <path
       inkscape:export-ydpi="185.32001"
       inkscape:export-xdpi="185.32001"
       inkscape:export-filename="/Users/pat/Sites/Wugbot/wugbot.org/img/wugboat.png"
       sodipodi:nodetypes="ccccc"
       d="m 455.22168,1008.2575 -51.27346,-23.54418 -52.91053,-2.7245 58.80181,25.44298 c 14.65909,0.5715 30.01012,0.7064 45.38218,0.8257 z"
       style="color:#000000;fill:#7d6438;fill-rule:evenodd;stroke:#000000;stroke-width:0.92330003;stroke-linecap:round;stroke-linejoin:round"
       id="path19918"
       inkscape:connector-curvature="0" />
    <g
       transform="matrix(1.713757,0.35929787,-0.35929787,1.713757,-2838.7317,3280.4308)"
       id="g19920">
      <path
         style="fill:#000000"
         d="m 1507.2358,-1675.9502 c -4.6936,0.2872 -8.7384,-0.2962 -11.4168,-1.6586 -1.8539,-0.9431 -4.3929,-2.6556 -5.4984,-3.7057 -0.8837,-0.8395 -1.9654,-2.1075 -2.2351,-2.6231 -0.1711,-0.3271 0.088,-1.8742 0.5316,-3.1625 0.3649,-1.0599 0.8054,-3.0827 0.8071,-3.7173 0,-0.2344 -0.2161,-1.0726 -0.4811,-1.8626 -0.2651,-0.7899 -0.5152,-1.5754 -0.5549,-1.7461 -0.04,-0.1707 -0.2346,-0.4846 -0.4307,-0.6984 -0.4328,-0.4719 -0.9467,-0.5976 -3.2556,-0.7955 -1.2149,-0.1041 -1.7852,-0.2086 -2.0837,-0.3803 -0.6637,-0.3817 -0.5762,-0.5054 -1.3232,1.882 l -0.4501,1.4357 0.9817,0.9933 c 1.3049,1.3244 1.8796,2.4469 1.9712,3.8493 0.058,0.8816 0.025,1.0858 -0.3337,2.0682 -0.5245,1.4364 -1.3997,2.7584 -2.3515,3.5505 -0.8678,0.7222 -1.1398,0.8236 -2.1807,0.8187 -1.3506,-0.01 -1.9957,-0.6032 -3.0111,-2.7899 -0.2696,-0.5805 -0.5905,-1.3628 -0.714,-1.7384 -0.1236,-0.3756 -0.3325,-0.7753 -0.4618,-0.8886 -0.222,-0.1945 -0.2807,-0.1761 -1.0671,0.3454 -0.4577,0.3035 -1.3834,0.8343 -2.0604,1.1757 -1.4394,0.7259 -1.7084,1.0422 -1.3193,1.5793 0.1852,0.2556 0.2722,0.6931 0.3725,1.8858 0.1456,1.7308 0.2315,2.0924 0.7528,3.1663 0.8021,1.6527 2.0321,2.5603 4.3847,3.2285 0.8688,0.2467 1.3855,0.3104 2.4446,0.3104 0.9569,0 1.3598,0.044 1.4047,0.1552 0.047,0.1167 0.093,0.109 0.1901,-0.031 0.092,-0.1334 0.3617,-0.1863 0.9429,-0.1863 0.4465,0 0.811,-0.035 0.811,-0.078 0,-0.043 0.3709,-0.1727 0.8265,-0.2871 0.4557,-0.1145 0.9894,-0.3197 1.1835,-0.4579 0.1942,-0.1383 0.4025,-0.232 0.4657,-0.2096 0.063,0.023 0.4972,0.4075 0.9623,0.8576 1.1389,1.102 4.6628,3.7508 6.1619,4.6331 2.5219,1.4842 3.9513,2.03 7.2251,2.7589 1.0851,0.2415 1.8701,0.3214 3.8183,0.3802 1.3488,0.041 2.4523,0.095 2.4523,0.1203 0,0.026 -0.064,0.1489 -0.1436,0.2755 -0.079,0.1266 -0.1084,0.3294 -0.062,0.4501 0.08,0.208 0.1007,0.2099 0.3454,-0.012 0.1422,-0.1286 0.3374,-0.3902 0.4346,-0.5782 0.1206,-0.2332 0.2754,-0.3414 0.485,-0.3414 0.6467,-1.4718 3.2358,-3.6116 1.4793,-7.9715 z"
         id="path19922"
         inkscape:connector-curvature="0"
         sodipodi:nodetypes="csccccccssccccccsssccsccccssccsscscsssssccsccc" />
      <g
         id="g19924"
         transform="translate(-57.876301,0)">
        <path
           inkscape:connector-curvature="0"
           style="fill:#999999;fill-opacity:1"
           d="m 1540.5059,-1695.0396 c 0.071,0 0.2386,0.018 0.4307,0.054 0.2561,0.049 1.2369,0.1594 2.1808,0.2445 1.9918,0.1796 1.9827,0.1716 2.4795,1.4939 0.711,1.8928 0.7657,2.2567 0.5316,3.5544 -0.1156,0.6406 -0.4018,1.766 -0.6364,2.4989 -0.2346,0.7329 -0.4268,1.4217 -0.4268,1.5327 0,0.1284 -0.068,0.1774 -0.1863,0.1319 -0.1269,-0.049 -0.1862,0.01 -0.1862,0.1747 0,0.1353 -0.068,0.3549 -0.1514,0.4889 -0.12,0.1922 -0.12,0.2757 0,0.3958 0.2763,0.2762 0.1585,0.8366 -0.4113,1.9712 -0.3094,0.6161 -0.6787,1.4137 -0.8187,1.7694 -0.2674,0.6791 -0.9277,1.8067 -1.3504,2.3049 -0.1967,0.2318 -0.286,0.265 -0.4229,0.1513 -0.1398,-0.116 -0.2438,-0.041 -0.5316,0.3881 -0.3257,0.4856 -0.4466,0.5573 -1.3349,0.8109 -0.7257,0.2073 -1.4075,0.2919 -2.6657,0.3299 -1.9616,0.059 -2.4117,0.019 -3.4263,-0.2949 -2.7961,-0.8664 -3.6253,-1.9039 -3.9774,-4.9862 -0.1042,-0.9125 -0.2141,-1.7307 -0.2444,-1.816 -0.032,-0.091 0.2156,-0.2878 0.5937,-0.4773 0.3564,-0.1787 0.9731,-0.5476 1.3736,-0.8187 0.4005,-0.2712 0.7748,-0.449 0.8304,-0.392 0.056,0.057 0.2203,0.4075 0.3647,0.7761 0.4759,1.2143 1.3776,2.7962 1.8936,3.3254 0.938,0.9619 2.4391,1.3606 3.729,0.9856 1.1884,-0.3454 2.1567,-1.2725 3.1314,-2.9956 0.5937,-1.0495 1.3973,-3.1728 1.4939,-3.9462 0.09,-0.7191 -0.083,-1.9564 -0.3958,-2.821 -0.2486,-0.6871 -1.0784,-1.8651 -1.8198,-2.5882 l -0.5549,-0.5432 0.2367,-0.8227 c 0.1297,-0.4533 0.2367,-0.8442 0.2367,-0.8691 0,-0.01 0.011,-0.011 0.035,-0.012 z"
           id="path19926" />
        <path
           inkscape:connector-curvature="0"
           style="fill:#999999;fill-opacity:1"
           d="m 1545.5076,-1683.0068 0.4579,0.6015 c 0.2522,0.3306 0.7817,0.916 1.1757,1.3038 0.7074,0.6961 0.7136,0.7166 0.7761,1.5443 0.1002,1.3256 0.062,1.4355 -0.8304,2.3554 -0.2537,0.2615 -0.4571,0.4944 -0.6208,0.7023 l -0.039,-0.035 -1.2068,1.5793 c -0.9603,-0.7468 -1.8672,-1.4931 -2.1264,-1.7578 l -0.5394,-0.5549 0.3919,-0.5743 c 0.2173,-0.3157 0.7445,-1.3406 1.1719,-2.2777 0.4273,-0.9371 0.915,-1.9674 1.0826,-2.2933 z"
           id="path19928" />
        <path
           inkscape:connector-curvature="0"
           style="fill:#999999;fill-opacity:1"
           d="m 1548.9495,-1679.4369 c 0.01,0 0.018,0 0.027,0 0.068,0.038 0.4594,0.3041 0.8692,0.5898 0.2734,0.1906 0.6727,0.4459 1.1175,0.7179 l 0,0.7023 c -0.1024,0.1982 -0.1922,0.5078 -0.2173,0.7683 -0.1286,1.3389 -1.2565,2.8684 -2.2389,3.0344 -0.2875,0.049 -0.5959,0.19 -0.6829,0.3143 -0.1355,0.1935 -0.3514,0.07 -1.8665,-1.0826 l 0.9895,-1.3077 0.01,0 c 0.161,-0.144 0.3573,-0.3327 0.5976,-0.5743 1.0351,-1.0407 1.2586,-1.5016 1.2844,-2.6503 0.01,-0.3021 0.052,-0.4961 0.1125,-0.5122 z"
           id="path19930" />
        <path
           inkscape:connector-curvature="0"
           style="fill:#999999;fill-opacity:1"
           d="m 1551.6657,-1677.7024 c 0.8347,0.4919 1.7136,0.9782 2.2583,1.2417 l 0.7295,0.3493 -0.066,0.6402 c -0.087,0.8519 -0.7229,2.6647 -1.1485,3.2789 -0.2469,0.3562 -0.9398,0.9701 -1.1003,0.9192 -0.4442,-0.141 -0.6477,0.7416 -0.2755,1.0283 l 0.5376,-0.2324 c -0.9924,-0.3543 -1.6215,-0.6855 -2.8714,-1.3892 l -1.1098,-0.6247 0.4851,-0.1669 c 0.2676,-0.093 0.6726,-0.3503 0.9002,-0.5704 0.6351,-0.6141 1.3267,-2.1189 1.7229,-3.7561 0.023,-0.095 0,-0.2223 -0.062,-0.3492 z"
           id="path19932" />
        <path
           inkscape:connector-curvature="0"
           style="fill:#999999;fill-opacity:1"
           d="m 1555.5925,-1675.7894 c 0.2209,-0.023 1.4687,0.4197 1.5522,0.5627 0.055,0.094 0.1816,0.1707 0.2794,0.1707 0.259,0 0.3483,0.5287 0.2522,1.4706 -0.1362,1.3338 -0.6322,3.2478 -0.8421,3.2478 -0.1834,0 -0.4608,0.389 -0.4656,0.6519 0,0.2462 -0.3077,0.2666 -0.9972,0.066 -1.0752,-0.3127 -1.8156,-0.534 -2.4213,-0.7373 l -0.5377,0.2247 c 0.2845,-0.01 1.1231,-0.7445 1.4689,-1.2219 0.5224,-0.7211 0.7933,-1.3667 1.2534,-2.9956 0.2155,-0.7632 0.4091,-1.4068 0.4268,-1.4279 0,-0.01 0.016,-0.01 0.031,-0.012 z"
           id="path19934" />
        <path
           inkscape:connector-curvature="0"
           style="fill:#999999;fill-opacity:1"
           d="m 1538.9033,-1675.3858 c -0.015,0 -0.029,0.01 -0.046,0.019 -0.068,0.042 -0.1242,0.1335 -0.1242,0.2017 0,0.068 0.056,0.089 0.1242,0.047 0.068,-0.042 0.1242,-0.1335 0.1242,-0.2018 0,-0.051 -0.033,-0.074 -0.078,-0.066 z"
           id="path19936" />
        <path
           inkscape:connector-curvature="0"
           style="fill:#999999;fill-opacity:1"
           d="m 1538.2049,-1675.2772 c -0.022,-10e-4 -0.044,0 -0.066,0 -0.1478,0.016 -0.2841,0.1038 -0.2211,0.2056 0.039,0.062 0.1849,0.083 0.3259,0.047 0.1707,-0.045 0.2145,-0.1075 0.1319,-0.1901 -0.042,-0.042 -0.1047,-0.063 -0.1707,-0.066 z"
           id="path19938" />
        <path
           inkscape:connector-curvature="0"
           style="fill:#999999;fill-opacity:1"
           d="m 1564.1214,-1675.1802 0.4851,0 0.485,0 -0.074,0.7955 c -0.1393,1.4917 -0.7449,4.9801 -0.8808,5.0715 -0.205,0.138 -0.4463,0.1127 -0.4463,-0.046 0,-0.078 0.1177,-0.8182 0.26,-1.6453 0.1859,-1.0799 0.2447,-1.8818 0.2134,-2.8404 z"
           id="path19940" />
        <path
           inkscape:connector-curvature="0"
           style="fill:#999999;fill-opacity:1"
           d="m 1558.9568,-1675.1453 c 0.1913,0 0.4376,0.016 0.6945,0.039 0.8597,0.078 0.9352,0.1088 0.9352,0.3647 0,0.153 0.091,0.4922 0.2018,0.7567 0.2827,0.6749 0.168,2.2112 -0.2678,3.6319 -0.3158,1.0295 -0.3645,1.1144 -0.7101,1.1835 -0.5086,0.1018 -1.9961,0.032 -2.4174,-0.1125 -0.1073,-0.037 -0.062,-0.2466 0.1591,-0.7295 0.495,-1.0813 0.9235,-2.9612 0.9235,-4.0588 0,-0.5336 0.054,-1.0026 0.1203,-1.0438 0.033,-0.021 0.1696,-0.033 0.3609,-0.031 z"
           id="path19942" />
        <path
           inkscape:connector-curvature="0"
           style="fill:#999999;fill-opacity:1"
           d="m 1561.7661,-1675.056 0.6247,0 0.6286,0 0.1669,0.7567 c 0.185,0.834 0.1125,2.721 -0.163,4.2722 l -0.1513,0.8692 -1.0322,0.039 c -0.8038,0.028 -1.0145,10e-4 -0.9623,-0.1242 0.037,-0.088 0.2517,-0.7217 0.4773,-1.4047 0.3776,-1.1429 0.4113,-1.3676 0.4113,-2.8248 z"
           id="path19944" />
      </g>
    </g>
    <g
       transform="matrix(1.5692587,0.32900307,-0.35929787,1.713757,-2999.3978,3231.3129)"
       id="g19946">
      <path
         style="fill:#000000"
         d="m 1773.2293,-1708.5663 c -2.8179,0.022 -5.1915,0.3308 -10.3164,1.2378 -2.5859,0.4577 -4.8188,1.0327 -8.182,2.1109 -3.5635,1.1423 -7.9246,3.6782 -11.1862,6.5034 -1.9185,1.6619 -2.4885,2.2518 -2.9951,3.0965 -0.344,0.5736 -0.4462,0.8603 -0.2899,0.9856 l 0,0.7062 c -0.011,0 -0.012,0 -0.017,0 -1.6579,0 -1.868,0.023 -2.095,0.2444 -0.2062,0.2014 -0.2196,0.2803 -0.075,0.4346 0.097,0.1037 0.2661,0.1863 0.3733,0.1863 0.1075,0 0.4473,0.1636 0.7554,0.3608 0.7277,0.4658 1.1815,0.5278 2.8722,0.3997 1.6675,-0.1263 2.0873,-0.042 3.2237,0.6403 2.0857,1.2514 3.4094,2.9555 4.0186,5.1802 0.482,1.7606 0.6578,6.5785 0.3469,9.5106 l -0.079,0.7605 c -0.1719,4.8834 -0.2874,4.8316 -1.3878,8.3307 0,0.055 -0.3101,1.1862 -0.6895,2.5144 -0.6891,2.412 -1.9037,5.9074 -3.597,10.3604 -2.3524,6.1865 -3.2697,9.0542 -3.6671,11.4857 -0.2989,1.8284 -0.2098,6.1309 0.1537,7.5744 0.4605,1.8288 2.2155,5.2854 3.6716,7.2251 1.36,1.8118 5.791,5.5238 7.9229,6.6392 2.1909,1.1464 8.0615,3.5219 10.3779,4.1985 0.6683,0.1952 1.1083,0.3834 1.0146,0.4346 9.7617,1.9661 11.1202,1.4765 22.5038,2.1535 l 3.0435,-0.074 c 1.6735,-0.041 3.929,-0.1391 5.0111,-0.2173 4.7679,-0.3441 7.826,-0.6357 9.1043,-0.8691 1.6405,-0.2997 4.531,-1.0965 5.9993,-1.6531 0.5806,-0.22 1.4208,-0.5084 1.8666,-0.6402 0.7592,-0.2245 0.8098,-0.2637 0.7905,-0.617 -0.011,-0.2074 0.027,-0.4747 0.084,-0.5937 0.1859,-0.3895 -0.3297,-0.4023 -1.1067,-0.031 l -0.7246,0.3453 -0.6061,-0.2755 c -1.1856,-0.5343 -2.5829,-1.9318 -3.4433,-3.4457 -0.5775,-1.0163 -1.0342,-2.5978 -1.4185,-4.9047 -0.4489,-2.6936 -0.4508,-4.0428 -0.011,-8.5444 0.4473,-4.5535 0.4061,-4.2913 1.1989,-7.6985 0.3736,-1.6049 0.7766,-3.365 0.896,-3.9114 0.1193,-0.5463 0.4737,-1.9991 0.7905,-3.2284 0.3169,-1.2293 0.7259,-2.8482 0.9091,-3.6009 0.1832,-0.7528 0.5583,-2.1497 0.8301,-3.1043 0.2718,-0.9546 0.6521,-2.4368 0.8476,-3.2905 0.3629,-1.5839 0.8658,-3.5965 1.2825,-5.153 1.229,-4.5925 1.4819,-10.1449 0.6895,-15.1254 -0.3569,-2.2433 -0.8158,-3.9142 -1.4845,-5.4014 -0.4177,-0.9291 -2.7847,-4.6637 -3.4784,-5.4868 -0.5215,-0.6188 -2.4395,-2.7687 -2.613,-2.9296 -0.08,-0.074 -0.5244,-0.5144 -0.9882,-0.9817 -2.2256,-2.2426 -4.4502,-3.8837 -8.0767,-5.9563 -3.4149,-1.9516 -5.5102,-2.82 -10.4043,-4.3033 -3.7592,-1.1392 -5.676,-1.4443 -9.6972,-1.556 -0.4824,-0.013 -0.9385,-0.025 -1.3791,-0.027 -0.1928,-10e-4 -0.383,0 -0.5709,0 z"
         id="path19948"
         inkscape:connector-curvature="0"
         sodipodi:nodetypes="csssccccccsssscccccsscssccccsccccccccsccssscccsssscsssscsc" />
      <path
         id="path19950"
         d="m 1774.5557,-1706.9521 c 2.2389,-0.01 4.3859,0.1306 6.0344,0.4229 2.0853,0.3699 7.5209,2.0019 10.1232,3.0383 2.1128,0.8415 6.4774,3.4112 8.6433,5.091 1.0217,0.7924 4.1727,3.9293 5.4897,5.4634 0.9704,1.1303 2.62,3.5018 3.4169,4.9125 1.7416,3.0833 2.4698,6.42 2.4682,11.2917 0,1.9133 -0.2962,5.5401 -0.5709,7.0001 -0.3498,1.8583 -2.1238,8.9287 -3.2149,12.805 -0.4517,1.6049 -0.9608,3.5047 -1.1287,4.2218 -0.1678,0.717 -0.392,1.648 -0.5007,2.0682 -0.6517,2.5223 -1.7729,7.2845 -2.0246,8.6104 -0.3716,1.9572 -0.9859,8.1871 -0.9882,10.015 0,1.4263 0.5514,5.5049 0.9048,6.6664 0.7884,2.5917 2.2167,4.5175 4.3127,5.8166 0.4531,0.2808 0.8257,0.5295 0.8257,0.551 0,0.1513 -4.6101,1.3114 -6.0432,1.5211 -19.3486,1.5878 -22.4224,1.3469 -39.5527,-1.4788 -2.5217,-0.7864 -7.6593,-2.9101 -9.056,-3.7445 -1.1021,-0.6586 -2.9735,-2.0888 -4.5192,-3.4535 -2.465,-2.1763 -4.0024,-4.3555 -5.6436,-8.0012 -0.3412,-0.7579 -0.9421,-3.1654 -1.1024,-4.4158 -0.1412,-1.1029 -0.057,-3.7992 0.1494,-4.7378 0.3129,-1.4263 0.5417,-2.6879 0.6324,-3.5195 0.14,-1.2836 0.9584,-4.1756 1.8842,-6.6431 0.4483,-1.1951 1.2032,-3.4302 1.6777,-4.9668 0.4743,-1.5366 1.0822,-3.4922 1.3482,-4.3459 0.6137,-1.9693 1.1408,-3.9386 1.322,-4.9357 0.078,-0.4274 0.1895,-0.8428 0.2459,-0.9236 0.057,-0.081 0.1144,-0.3187 0.1274,-0.5277 0.02,-0.326 0.3284,-2.2656 0.9135,-5.7196 0.2301,-1.3582 0.3348,-7.7072 0.1581,-9.6231 -0.2775,-3.009 -1.075,-4.8149 -2.8986,-6.5655 -1.3159,-1.2631 -3.4193,-2.3969 -4.9936,-2.6929 -0.3342,-0.063 -0.9848,-0.1169 -1.6777,-0.1475 l 0,-0.873 c 0.1679,-0.136 0.2723,-0.321 0.2723,-0.5239 0,-0.2137 0.9193,-1.0389 1.6645,-1.49 0.2601,-0.1574 1.2577,-0.8832 2.2135,-1.6142 3.2524,-2.4876 6.6322,-4.3594 9.5435,-5.285 0.773,-0.2458 2.196,-0.6974 3.1622,-1.005 1.335,-0.425 2.1448,-0.6006 3.3729,-0.7295 1.547,-0.1623 3.5625,-0.4902 3.7946,-0.617 0.06,-0.033 1.2373,-0.2328 2.6176,-0.4423 2.0243,-0.3073 4.3577,-0.4644 6.5966,-0.4734 z"
         style="fill:#999999"
         inkscape:connector-curvature="0"
         sodipodi:nodetypes="cccscccccccscscscccsccccccccccccccccsccccccccc" />
      <path
         id="path19952"
         d="m 1766.64,-1694.3475 c -0.8043,-0.021 -1.4639,0.3006 -2.1012,1.0004 -0.7427,0.8154 -0.8138,1.545 -0.2369,2.4863 0.2713,0.443 0.5574,0.6654 0.9689,0.746 1.4415,0.2825 1.7904,0.2033 2.338,-0.5262 0.6113,-0.8144 0.7737,-1.5512 0.5741,-2.6599 -0.1423,-0.7904 -0.1715,-0.8183 -0.9637,-0.9771 -0.2021,-0.04 -0.3937,-0.064 -0.5792,-0.07 z"
         style="fill:#000000"
         inkscape:connector-curvature="0" />
      <path
         id="path19954"
         d="m 1798.32,-1688.4353 c -0.026,0.01 -0.072,0.098 -0.1668,0.2794 -0.1064,0.2049 -0.1963,0.4842 -0.1977,0.6208 0,0.219 0.025,0.2117 0.202,-0.062 0.1109,-0.1707 0.1968,-0.4501 0.1933,-0.6208 0,-0.1513 0,-0.2253 -0.03,-0.2173 z"
         style="fill:#000000"
         inkscape:connector-curvature="0" />
      <path
         id="path19956"
         d="m 1798.1663,-1686.728 c -0.034,0 -0.1018,0.056 -0.1493,0.1242 -0.048,0.068 -0.02,0.1242 0.061,0.1242 0.081,0 0.1492,-0.056 0.1492,-0.1242 0,-0.068 -0.027,-0.1242 -0.061,-0.1242 z"
         style="fill:#000000"
         inkscape:connector-curvature="0" />
    </g>
    <path
       inkscape:connector-curvature="0"
       style="fill:#000000"
       d="m 249.39649,1040.6621 c -0.043,0.01 -0.14489,0.1449 -0.353,0.4258 -0.23471,0.3174 -0.47114,0.7675 -0.52244,1.0012 -0.0787,0.3753 -0.0384,0.3707 0.32818,-0.042 0.22928,-0.2574 0.45974,-0.7089 0.51576,-1.0026 0.0544,-0.2593 0.081,-0.3861 0.0318,-0.3821 z"
       id="path19958" />
    <path
       inkscape:connector-curvature="0"
       style="fill:#000000"
       d="m 248.55033,1043.5392 c -0.0514,-0.011 -0.17436,0.064 -0.27067,0.1654 -0.0964,0.1015 -0.0755,0.2064 0.0479,0.2323 0.12339,0.026 0.24617,-0.049 0.27067,-0.1655 0.0244,-0.1165 0.004,-0.2215 -0.0479,-0.2322 z"
       id="path19960" />
    <path
       inkscape:export-ydpi="185.32001"
       inkscape:export-xdpi="185.32001"
       inkscape:export-filename="/Users/pat/Sites/Wugbot/wugbot.org/img/wugboat.png"
       sodipodi:nodetypes="ccscc"
       d="m 239.8798,1036.9358 c 3.88748,0.7954 301.52067,16.3559 309.50046,15.8952 -8.50752,8.7387 -20.1407,19.9823 -29.03084,21.5189 -28.63321,4.9284 -120.63057,10.9718 -221.59419,-3.471 -25.19527,-10.9581 -44.25015,-22.6559 -58.87634,-33.9432 z"
       id="path19962"
       inkscape:connector-curvature="0"
       style="fill:#7d6438;fill-rule:evenodd;stroke:#000000;stroke-width:0.92330003;stroke-linecap:round;stroke-linejoin:round" />
    <path
       inkscape:export-ydpi="185.32001"
       inkscape:export-xdpi="185.32001"
       inkscape:export-filename="/Users/pat/Sites/Wugbot/wugbot.org/img/wugboat.png"
       sodipodi:nodetypes="ccccc"
       d="m 210.66878,1003.2264 c 5.67145,3.5875 354.43042,26.2244 356.2341,26.0311 -5.42427,7.8059 -10.88418,16.7083 -17.90807,23.9165 -21.81315,6.1408 -259.49365,13.6577 -309.11227,-16.2378 -13.49409,-10.4151 -22.40195,-24.9904 -29.21194,-33.7096 z"
       id="path19964"
       inkscape:connector-curvature="0"
       style="fill:#745c33;fill-rule:evenodd;stroke:#000000;stroke-width:0.92330003;stroke-linecap:round;stroke-linejoin:round" />
    <path
       inkscape:export-ydpi="185.32001"
       inkscape:export-xdpi="185.32001"
       inkscape:export-filename="/Users/pat/Sites/Wugbot/wugbot.org/img/wugboat.png"
       sodipodi:nodetypes="cccc"
       d="m 463.50888,966.75316 c 0,0 4.80822,21.73235 -7.92672,41.34424 51.31169,1.1371 109.92415,-2.3892 109.92415,-2.3892 -30.25313,-16.15206 -66.08128,-31.93606 -101.99743,-38.95504 z"
       style="color:#000000;fill:#43341d;fill-rule:evenodd;stroke:#000000;stroke-width:0.92330003;stroke-linecap:round;stroke-linejoin:round"
       id="path19966"
       inkscape:connector-curvature="0" />
    <path
       inkscape:export-ydpi="185.32001"
       inkscape:export-xdpi="185.32001"
       inkscape:export-filename="/Users/pat/Sites/Wugbot/wugbot.org/img/wugboat.png"
       sodipodi:nodetypes="ccccc"
       d="m 193.60773,978.88762 c 72.21788,28.87028 217.18784,40.01708 387.53555,30.35138 0,0 -5.03104,7.1838 -14.19489,20.371 -56.61039,17.9035 -334.30975,1.1281 -355.79952,-26.0026 -13.60859,-17.42719 -17.37968,-25.43304 -17.54297,-24.72006 z"
       id="path19968"
       inkscape:connector-curvature="0"
       style="fill:#6e5831;fill-rule:evenodd;stroke:#000000;stroke-width:0.92330003;stroke-linecap:round;stroke-linejoin:round" />
    <path
       inkscape:connector-curvature="0"
       inkscape:export-ydpi="185.32001"
       inkscape:export-xdpi="185.32001"
       inkscape:export-filename="/Users/pat/Sites/Wugbot/wugbot.org/img/wugboat.png"
       id="path19970"
       d="m 252.99593,968.24132 c -21.25569,3.2022 -40.25611,6.95485 -59.1875,10.65625 0.0499,0.0439 0.1063,0.0811 0.15625,0.125 72.0106,28.64343 215.83058,39.76893 384.9375,30.34373 0.76287,-0.1049 1.51729,-0.2068 2.28125,-0.3125 -30.12154,-15.16172 -54.63937,-28.83929 -91.90625,-39.81248 l 0,4.03125 c 31.19461,9.03252 49.57457,18.88928 76.625,32.50003 -95.78197,4.8901 -274.64272,5.3455 -360.8125,-25.96878 14.54451,-2.60033 30.38864,-5.23935 47.90625,-7.59375 l 0,-3.96875 z"
       style="color:#000000;fill:#b28f53;fill-rule:evenodd;stroke:#000000;stroke-width:0.92330003;stroke-linecap:round;stroke-linejoin:round" />
    <g
       inkscape:export-ydpi="185.32001"
       inkscape:export-xdpi="185.32001"
       inkscape:export-filename="/Users/pat/Sites/Wugbot/wugbot.org/img/wugboat.png"
       transform="matrix(0.98937216,0.37028225,-0.23112062,1.5230902,138.14701,688.77185)"
       id="g19972"
       style="fill:#4b3c21;fill-rule:evenodd;stroke:#000000;stroke-width:0.75858003;stroke-linecap:round;stroke-linejoin:round">
      <rect
         x="430.42999"
         y="200.53999"
         width="45.528"
         height="4.9017"
         transform="matrix(0.96961,-0.24464,-0.12817,0.99175,0,0)"
         style="color:#000000"
         id="rect19974" />
      <path
         transform="matrix(0.96961,-0.24464,-0.12817,0.99175,0,0)"
         style="color:#000000"
         sodipodi:nodetypes="ccccc"
         d="m 430.43,200.54 h 45.53 l -4.16,-1.37 -47,-0.81 5.63,2.18 z"
         id="path19976"
         inkscape:connector-curvature="0" />
      <path
         transform="matrix(0.96961,-0.24464,-0.12817,0.99175,0,0)"
         style="color:#000000"
         sodipodi:nodetypes="ccccc"
         d="m 430.43,200.54 -0.02,4.9 -4.67,-2 -0.94,-5.08 5.63,2.18 z"
         id="path19978"
         inkscape:connector-curvature="0" />
    </g>
    <g
       transform="matrix(0.43303623,-0.20429995,0.20429995,0.43303623,162.41955,876.79264)"
       inkscape:label="Ebene 1"
       id="g19980"
       inkscape:transform-center-x="-53.690922"
       inkscape:transform-center-y="76.788903">
      <path
         d="m 227.25,286.98 c -1.1469,-10.872 14.592,-16.585 22.019,-6.3706 35.348,112.8 71.605,225.48 103.24,338.73 4.1007,10.153 18.837,15.681 30.116,22.712 5.4345,6.4475 6.1983,14.441 9.0301,21.749 9.2848,47.743 20.211,92.73 21.007,122.54 -0.23433,7.2692 1.3031,6.8078 -2.2357,16.316 -1.9111,2.1352 0.58935,6.1138 -32.845,9.648 -6.4999,-0.75834 -11.886,-4.6652 -15.096,-15.161 -16.205,-39.9 -32.393,-79.802 -45.493,-119.93 -2.0729,-6.7421 -5.4857,-11.583 1.7882,-21.359 5.8623,-11.189 15.543,-24.277 12.353,-30.964 -26.85,-112.86 -69.23,-225.28 -103.89,-337.92 z"
         inkscape:connector-curvature="0"
         style="fill:#194a70"
         sodipodi:nodetypes="ccccccccccccc"
         id="path19982" />
    </g>
    <g
       inkscape:transform-center-x="20.90991"
       inkscape:transform-center-y="-11.353155"
       transform="matrix(-1.1230995,1.3433933,-1.3433933,-1.1230995,-384.83144,-2695.9794)"
       id="g19984">
      <path
         inkscape:connector-curvature="0"
         style="fill:#000000"
         d="m 1335.241,-1682.6006 c -0.2039,0.012 -0.3105,0.156 -0.3105,0.4385 0,0.3055 0.1211,0.462 0.6985,0.8964 1.1174,0.8405 1.6608,1.3516 1.6608,1.5598 0,0.1065 -0.2025,0.6008 -0.4501,1.102 -0.546,1.105 -1.4065,1.9382 -2.5805,2.499 -1.402,0.6697 -1.3137,0.6965 -1.9013,-0.5898 -0.5362,-1.1737 -0.6926,-1.3291 -1.2262,-1.1952 -0.277,0.07 -0.3108,0.1302 -0.2406,0.4191 0.045,0.1848 0.2076,0.5293 0.3609,0.7683 0.1533,0.239 0.4045,0.7419 0.5627,1.1175 0.1581,0.3756 0.8087,1.7725 1.4434,3.1043 0.6347,1.3317 1.376,3.0918 1.6492,3.9113 0.5283,1.5851 1.315,4.9605 1.4512,6.2279 l 0.082,0.7644 -0.6286,0.132 c -0.3454,0.074 -1.1788,0.415 -1.8548,0.7566 -2.958,1.4947 -3.9052,2.6809 -3.9191,4.9086 -0.01,1.5455 0.2096,2.436 0.7411,2.9995 0.4214,0.4468 0.4343,0.4485 1.2029,0.3764 0.8213,-0.077 2.3237,0.094 2.7899,0.3182 0.2224,0.1066 0.3283,0.091 0.5278,-0.089 0.3185,-0.2883 0.3164,-0.4784 -0.027,-1.1757 -0.4247,-0.8619 -0.3913,-2.1062 0.078,-2.8947 0.3971,-0.6676 0.7468,-0.9624 1.1525,-0.9624 0.5815,0 4.8994,1.4875 5.2384,1.8044 0.093,0.087 0.1987,0.407 0.2328,0.7101 0.074,0.6588 -0.1118,1.059 -0.8265,1.7966 -0.2787,0.2876 -0.5044,0.6 -0.5044,0.6945 0,0.2304 0.363,0.5336 0.7489,0.6248 0.532,0.1258 1.3045,0.8929 1.6064,1.5948 0.155,0.3604 0.3743,0.7266 0.485,0.811 0.2451,0.1865 0.4702,0.201 0.5704,0.039 0.041,-0.066 0.2722,-0.2121 0.5122,-0.326 0.4831,-0.2292 1.6664,-1.5929 2.1885,-2.5222 1.006,-1.7904 1.0928,-4.3831 0.2057,-6.1309 -0.4723,-0.9305 -1.7978,-2.3941 -2.658,-2.9374 -0.4422,-0.2793 -0.8032,-0.5218 -0.8032,-0.5393 0,-0.018 0.1476,-0.6992 0.3298,-1.5172 0.3083,-1.3841 0.3341,-1.7101 0.3492,-4.6797 0.015,-2.8689 0.038,-3.2149 0.2367,-3.434 0.1322,-0.1461 0.2027,-0.3863 0.1785,-0.5976 -0.034,-0.2962 -0.091,-0.3455 -0.3609,-0.3182 -0.2949,0.03 -0.3372,-0.03 -0.5355,-0.745 -0.5569,-2.0092 -1.8026,-3.8954 -4.2101,-6.3792 -2.1448,-2.2128 -3.6335,-3.3753 -4.245,-3.341 z"
         id="path19986" />
      <path
         inkscape:connector-curvature="0"
         style="fill:#999999;fill-opacity:1"
         d="m 1338.0464,-1679.0617 c 0.142,0 2.4813,2.4957 2.6154,2.7899 0.3744,0.8218 -1.4779,2.3967 -3.9308,3.341 -0.6146,0.2365 -1.3794,0.4686 -1.6996,0.516 l -0.582,0.085 -0.5627,-1.1214 -0.5626,-1.1175 1.1524,-0.5627 c 1.4482,-0.7045 2.5669,-1.8133 3.1276,-3.1003 0.1987,-0.4563 0.3976,-0.8304 0.4423,-0.8304 z"
         id="path19988" />
      <path
         inkscape:connector-curvature="0"
         style="fill:#999999;fill-opacity:1"
         d="m 1341.3719,-1675.1931 c 0.04,7e-4 0.099,0.055 0.1901,0.1669 0.3881,0.4762 1.1806,2.2416 1.3659,3.0383 0.1721,0.7404 0.1727,0.8215 -0.023,1.0438 -0.5052,0.5729 -3.552,1.7201 -5.6148,2.1147 -0.5122,0.098 -1.0195,0.2144 -1.1253,0.2561 -0.1445,0.057 -0.2416,-0.074 -0.3919,-0.5199 -0.1101,-0.3265 -0.3432,-0.9764 -0.52,-1.4474 -0.1767,-0.471 -0.3221,-0.8761 -0.3221,-0.9002 0,-0.024 0.1615,-0.047 0.3609,-0.047 0.5485,0 2.4471,-0.7062 3.4263,-1.2766 0.838,-0.4881 2.447,-1.9409 2.5765,-2.3243 0.019,-0.058 0.038,-0.091 0.062,-0.1009 0.01,0 0.01,0 0.016,0 z"
         id="path19990" />
      <path
         inkscape:connector-curvature="0"
         style="fill:#999999;fill-opacity:1"
         d="m 1343.1839,-1669.8732 c 0.036,0 0.066,0.4678 0.066,1.04 0,0.7731 -0.048,1.0802 -0.1862,1.1951 -0.1025,0.085 -0.1863,0.2822 -0.1863,0.4385 0,0.3762 -0.5696,0.8414 -1.459,1.1912 -0.5691,0.2238 -0.9558,0.2818 -1.8936,0.2794 -0.6306,0 -1.4193,-0.049 -1.7927,-0.1009 l -1.1214,-0.4385 c -0.087,-0.3725 -0.1732,-0.7228 -0.2483,-0.9972 -0.1029,-0.3756 -0.1889,-0.6984 -0.1902,-0.7179 0,-0.019 0.1085,0.023 0.2406,0.093 0.1321,0.071 0.3975,0.1285 0.5898,0.128 0.9834,0 4.6423,-1.1775 5.6536,-1.816 0.2558,-0.1614 0.4923,-0.2949 0.5277,-0.2949 z"
         id="path19992" />
      <path
         inkscape:connector-curvature="0"
         style="fill:#999999;fill-opacity:1"
         d="m 1343.2499,-1666.0511 0,0.4152 c 0,0.4438 -0.1688,1.6004 -0.388,2.6968 -0.1222,0.6114 -0.1716,0.6801 -0.648,0.8964 -0.4363,0.1981 -0.7961,0.2331 -2.3166,0.2212 -2.5729,-0.02 -2.6041,-0.031 -2.6075,-0.877 0,-0.2641 -0.1912,-1.3065 -0.4191,-2.3903 l 1.1912,0.3105 c 1.2211,0.5333 3.3863,0.098 4.7845,-0.9662 z"
         id="path19994" />
      <path
         inkscape:connector-curvature="0"
         style="fill:#999999;fill-opacity:1"
         d="m 1342.3419,-1660.898 c 0.1226,0 0.1752,0.085 0.2639,0.2794 0.1019,0.2235 0.216,0.3057 0.3453,0.2561 0.578,-0.2218 2.4341,1.6125 3.1935,3.1546 0.3829,0.7774 0.3962,0.8582 0.3919,2.3593 0,1.4046 -0.037,1.6178 -0.3259,2.235 -0.387,0.8276 -1.2415,1.9828 -1.6259,2.1963 -0.3876,0.2153 -0.4369,0.2027 -0.5316,-0.1164 -0.1906,-0.6426 -0.9479,-1.4488 -2.0255,-2.1575 -0.024,-0.016 0.074,-0.1561 0.2173,-0.3104 0.1437,-0.1543 0.3795,-0.5243 0.5239,-0.8226 0.323,-0.6673 0.2785,-1.7219 -0.093,-2.239 -0.3405,-0.4737 -1.7834,-1.1574 -3.4263,-1.6219 -0.77,-0.2178 -1.5713,-0.4492 -1.781,-0.5161 -0.8057,-0.2571 -1.2603,-0.1627 -1.8703,0.3997 -1.1234,1.0354 -1.6608,2.1696 -1.6608,3.5039 l 0,0.7528 -1.2107,0 -1.2106,0 -0.229,-0.4657 c -0.1468,-0.3006 -0.25,-0.8742 -0.2949,-1.6258 -0.063,-1.0585 -0.042,-1.2232 0.2406,-1.8393 0.3578,-0.7816 0.9223,-1.2094 2.9413,-2.2273 1.4296,-0.7208 2.1363,-0.8992 2.1031,-0.5316 -0.091,1.0044 0.5375,0.8406 0.8808,-0.2289 0.1394,-0.4343 0.1707,-0.4557 0.5433,-0.3764 0.5668,0.1206 3.9231,0.1115 4.3731,-0.012 0.084,-0.023 0.1545,-0.037 0.2095,-0.043 0.021,0 0.041,0 0.058,0 z"
         id="path19996" />
    </g>
    <text
       sodipodi:linespacing="125%"
       id="text19998"
       y="1155.7153"
       x="169.4236"
       style="font-size:70px;font-style:normal;font-variant:normal;font-weight:normal;font-stretch:normal;text-align:start;line-height:125%;letter-spacing:0px;word-spacing:0px;writing-mode:lr-tb;text-anchor:start;fill:#000000;fill-opacity:1;stroke:none;font-family:Times New Roman;-inkscape-font-specification:Times New Roman"
       xml:space="preserve"><tspan
         style="font-style:normal;font-variant:normal;font-weight:bold;font-stretch:normal;font-family:Impact;-inkscape-font-specification:Impact Bold"
         y="1155.7153"
         x="169.4236"
         id="tspan20000"
         sodipodi:role="line">wugboat</tspan></text>
  </g>
</svg>
