<?xml version="1.0" encoding="UTF-8" standalone="no"?>
<!-- Created with Inkscape (http://www.inkscape.org/) -->

<svg
   xmlns:dc="http://purl.org/dc/elements/1.1/"
   xmlns:cc="http://creativecommons.org/ns#"
   xmlns:rdf="http://www.w3.org/1999/02/22-rdf-syntax-ns#"
   xmlns:svg="http://www.w3.org/2000/svg"
   xmlns="http://www.w3.org/2000/svg"
   xmlns:sodipodi="http://sodipodi.sourceforge.net/DTD/sodipodi-0.dtd"
   xmlns:inkscape="http://www.inkscape.org/namespaces/inkscape"
   width="298.66666"
   height="209.95145"
   id="svg2"
   version="1.1"
   inkscape:version="0.48.2 r9819"
   sodipodi:docname="wug_wugbot.svg"
   inkscape:export-filename="/Users/pat/Sites/Wugbot/wugbot.org/img/banner.png"
   inkscape:export-xdpi="90"
   inkscape:export-ydpi="90">
  <defs
     id="defs4" />
  <sodipodi:namedview
     id="base"
     pagecolor="#ffffff"
     bordercolor="#666666"
     borderopacity="1.0"
     inkscape:pageopacity="0.0"
     inkscape:pageshadow="2"
     inkscape:zoom="0.5625"
     inkscape:cx="197.24156"
     inkscape:cy="3.6423765"
     inkscape:document-units="px"
     inkscape:current-layer="layer1"
     showgrid="false"
     showguides="true"
     inkscape:guide-bbox="true"
     fit-margin-top="20"
     fit-margin-left="20"
     fit-margin-right="20"
     fit-margin-bottom="20"
     inkscape:window-width="1162"
     inkscape:window-height="828"
     inkscape:window-x="0"
     inkscape:window-y="0"
     inkscape:window-maximized="0">
    <sodipodi:guide
       orientation="0,1"
       position="-192.50355,-1057.9792"
       id="guide4194" />
  </sodipodi:namedview>
  <metadata
     id="metadata7">
    <rdf:RDF>
      <cc:Work
         rdf:about="">
        <dc:format>image/svg+xml</dc:format>
        <dc:type
           rdf:resource="http://purl.org/dc/dcmitype/StillImage" />
        <dc:title />
      </cc:Work>
    </rdf:RDF>
  </metadata>
  <g
     inkscape:label="Layer 1"
     inkscape:groupmode="layer"
     id="layer1"
     transform="translate(-1280.109,1758.1927)">
    <g
       id="g4234"
       transform="matrix(0.29167475,0,0,0.29167475,1105.9855,-1425.5744)"
       inkscape:export-xdpi="90"
       inkscape:export-ydpi="90"
       inkscape:export-filename="/Users/pat/Sites/Wugbot/wugbot.org/img/banner.png">
      <g
         transform="matrix(0.42571317,0,0,0.42571317,665.21091,-500.18224)"
         id="g4142">
        <g
           id="g4126"
           transform="translate(1590.0979,-1201.1137)">
          <path
             id="path3173"
             d="m -1178.25,137.15625 c -32.1972,0.22457 -42.2308,3.08817 -73.3125,13.5 -14.7436,4.93884 -35.1521,15.41231 -46.625,23.9375 -4.7281,3.51336 -11.1936,7.95 -14.375,9.875 -20.0071,12.10611 -53.4602,37.77117 -63.6875,48.84375 -2.9347,3.17716 -8.3822,10.69649 -12.125,16.71875 -3.7427,6.02226 -9.2478,14.3125 -12.2188,18.4375 -6.7141,9.32208 -12.1368,18.27039 -16.9687,28 -2.0486,4.125 -6.6415,12.79548 -10.2187,19.25 -9.263,16.71415 -13.7406,27.69775 -17.7188,43.46875 -1.9131,7.58446 -4.1733,16.25625 -5.0312,19.28125 -3.8515,13.57892 -6.6242,27.38795 -7.5938,38 -0.5779,6.325 -1.8142,15.55 -2.75,20.5 -2.0682,10.93897 -2.1727,44.21517 -0.25,75 0.687,11 1.4738,39.575 1.75,63.5 0.4116,35.65907 0.197,46.64362 -1.1562,60.90625 -1.9511,20.56559 -7.4867,54.96418 -10.875,67.625 -2.9607,11.06276 -9.4462,26.81049 -14.625,35.46875 -5.9884,10.01159 -12.2048,15.7996 -28.875,26.84375 -12.6983,8.41272 -16.009,10.15625 -19.1563,10.15625 -4.3621,0 -5.5656,1.72099 -3.8437,5.5 1.9899,4.36752 7.7516,4.45475 16.4062,0.25 l 4.375,-2.125 2.2812,2.09375 c 1.2472,1.14058 3.6705,2.76438 5.375,3.625 3.4553,1.74439 21.8832,9.00635 33.4063,13.15625 4.125,1.4855 9.1571,3.32185 11.2187,4.09375 16.354,6.1233 88.5983,25.63775 103.2813,27.90625 2.2,0.3399 6.925,1.2389 10.5,2 3.575,0.761 10.2216,1.94055 14.7813,2.59375 4.5597,0.6532 8.1344,1.4707 7.9687,1.8125 -3.8661,7.9724 -13.9163,27.0271 -18.0313,34.1875 -2.9765,5.1795 -5.9218,10.942 -6.5624,12.8125 -0.6407,1.8706 -2.9878,6.52845 -5.1876,10.34375 -2.4556,4.2595 -3.9687,8.2243 -3.9687,10.25 0,3.2859 0.027,3.2878 6.75,4.5 3.7125,0.6694 10.4766,2.331 15.0313,3.6875 8.0341,2.3926 11.691,3.8091 23.2187,9.0625 3.5228,1.6054 7.4771,2.57805 11,2.65625 5.4912,0.1219 5.471,0.11685 5.7813,-3.09375 0.2708,-2.802 -0.051,-3.3294 -2.5,-3.9375 -1.5461,-0.3839 -6.6343,-2.53375 -11.3438,-4.78125 -4.7094,-2.2474 -9.8844,-4.61195 -11.5,-5.28125 -2.7212,-1.1272 -22.2147,-7.3125 -23.0625,-7.3125 -1.3677,0 0.6415,-4.8014 8.25,-19.625 9.2256,-17.9739 12.008,-23.57915 17.4375,-35.21875 l 3.4375,-7.34375 6,0.59375 c 3.3,0.324 10.05,1.04655 15,1.59375 4.95,0.5472 22.3875,0.9903 38.75,1 23.1252,0.014 29.7207,0.2784 29.7187,1.25 -0.01,3.2689 -5.3377,20.59275 -9.5,30.84375 -2.5524,6.2862 -5.106,12.75625 -5.6874,14.40625 -0.5815,1.65 -1.672,4.45215 -2.4063,6.21875 -1.5539,3.7384 -1.4492,3.815 5.125,4.75 7.406,1.0534 33.1833,12.0246 41.5625,17.6875 6.0071,4.0599 35.1689,17.83875 43.8438,20.71875 9.0399,3.0012 19.3858,3.9944 25.3437,2.4375 1.1419,-0.2984 1.75,-1.4202 1.75,-3.25 0,-3.2201 -1.2688,-4.47405 -5.5,-5.46875 -9.9833,-2.3468 -24.4938,-8.5884 -56.3437,-24.25 -24.5993,-12.0963 -34.6105,-16.34375 -38.6876,-16.34375 -1.9182,0 -2.4687,-0.50025 -2.4687,-2.28125 0,-1.265 0.3985,-2.7275 0.9063,-3.25 1.3413,-1.3804 8.2475,-19.1059 12.6874,-32.5625 l 3.8438,-11.625 9.0312,-0.65625 c 27.8968,-1.9772 76.2362,-12.83235 97.5313,-21.90625 1.9242,-0.8199 5.75,-2.4243 8.5,-3.5625 51.3205,-21.2419 72.2605,-34.4781 102,-64.5625 12.0423,-12.18197 16.24345,-17.23773 21.40625,-25.625 16.2941,-26.47063 21.6939,-42.24912 22.75,-66.46875 1.3121,-30.08988 -3.60985,-54.93883 -22.15625,-112 -9.6007,-29.53822 -17.48105,-64.35208 -19.59375,-86.5 -2.5602,-26.83995 1.72415,-68.53819 9.09375,-88.5 1.2183,-3.3 3.2079,-8.925 4.4375,-12.5 5.8815,-17.09997 17.7028,-34.15591 35.6875,-51.5625 11.7006,-11.32445 14.9953,-13.7643 22.0625,-16.46875 3.1008,-1.1866 7.00769,-3.59601 8.96875,-4.96875 12.95283,-9.06698 16.80055,-14.10683 17.9375,-16.375 0.59422,-0.62349 0.63646,-1.22756 0.375,-2.0625 -0.3529,-1.12698 -0.98995,-3.6375 -1.40625,-5.5625 -0.4163,-1.925 -1.6792,-5.3 -2.8125,-7.5 -5.3277,-10.34212 -36.0196,-45.19244 -47.75,-54.21875 -8.2995,-6.38626 -36.6962,-25.26693 -45.6875,-30.375 -3.4834,-1.97896 -7.6716,-3.91127 -9.3125,-4.3125 -1.6408,-0.40123 -7.0408,-2.46484 -12,-4.5625 -12.4815,-5.27951 -25.7871,-9.6731 -33.5,-11.0625 -6.6966,-1.20631 -21.8826,-4.34787 -42,-8.6875 -10.4639,-2.25721 -14.5183,-2.54399 -45,-3.125 -17.2571,-0.32894 -30.4551,-0.54361 -41.1875,-0.46875 z"
             style="fill:#1a1a1a"
             inkscape:connector-curvature="0" />
          <path
             id="path3171"
             d="m -1198.25,153.71875 c 3.0985,0.0247 6.3277,0.14036 9.6875,0.3125 8.8,0.45086 25.45,0.88442 37,0.96875 11.55,0.0843 23.925,0.47094 27.5,0.875 5.3982,0.61014 36.7821,6.31503 59,10.71875 6.6121,1.31056 21.6411,6.14027 25.7813,8.28125 1.6375,0.84678 7.3657,3.20176 12.75,5.21875 10.4402,3.911 17.7248,7.74972 28.9687,15.375 3.85,2.61096 10.15,6.68962 14,9.03125 3.85,2.34163 7.225,4.5205 7.5,4.875 0.275,0.3545 3.4113,2.95808 7,5.78125 11.3312,8.91418 39.4725,41.26417 44.6875,51.375 2.4824,4.81276 3.2823,5.52596 6.8125,6.28125 1.58613,0.33935 2.98147,0.5815 4.28125,0.71875 l 0,0.96875 c -11.07477,5.71068 -29.88613,16.08024 -32.03125,17.8125 -7.5558,6.10143 -32.5831,32.28938 -38.375,40.15625 -17.1831,23.33905 -27.8932,47.43956 -31.7813,71.5 -4.3841,27.1314 -4.643,55.08525 -0.7187,79.5 2.2591,14.05444 8.8077,41.67233 13.2813,56 3.87189,12.40086 9.66685,30.70222 10.93745,34.5 16.779,50.15174 20.9643,91.60842 11.875,117.84375 -3.6811,10.62499 -12.17645,27.18138 -19.71875,38.40625 -7.2034,10.72041 -22.9694,26.58048 -42.3125,42.625 -5.924,4.91383 -21.0882,14.6826 -29.1562,18.75 -36.1477,18.2232 -70.313,29.11885 -112.4063,35.84375 -12.8303,2.0497 -29.375,3.64535 -29.375,2.84375 0,-0.263 0.912,-4.9249 2.0625,-10.375 1.1506,-5.4501 3.1826,-15.5625 4.5,-22.4375 1.3173,-6.875 3.7452,-18.72615 5.375,-26.34375 2.8948,-13.53023 3.9939,-27.30281 2.5,-31 -1.1176,-2.7661 -6.1501,-1.33984 -10.5625,2.96875 -3.6259,3.54061 -3.652,3.59544 -4.1563,13.71875 -0.2787,5.59441 -1.0057,12.18125 -1.625,14.65625 -1.6757,6.696 -5.5228,25.5431 -8.6874,42.5 -1.5398,8.25 -3.2061,15.5625 -3.7188,16.25 -1.1926,1.5993 -46.231,1.75985 -64.0312,0.21875 -53.4466,-4.6272 -130.5357,-22.69053 -187.6563,-43.96875 -8.525,-3.17568 -16.625,-6.10233 -18,-6.5 -1.375,-0.39768 -2.95,-1.05774 -3.5,-1.46875 -0.55,-0.411 -2.7113,-1.302 -4.7813,-1.96875 l -3.75,-1.21875 10.1876,-7.34375 c 18.2005,-13.14292 27.3651,-23.73591 35.2187,-40.65625 8.4606,-18.22811 12.6077,-34.37046 17.6563,-68.84375 2.8965,-19.7781 3.1988,-24.70354 4.0624,-61.5 0.6477,-27.59249 0.6224,-45.58338 -0.125,-58 -0.5959,-9.9 -1.4931,-27.675 -2,-39.5 -0.5068,-11.825 -1.3977,-24.2 -1.9687,-27.5 -1.3563,-7.83841 -1.4406,-31.2053 -0.125,-36.125 0.566,-2.11683 1.7746,-12.18576 2.6563,-22.34375 1.2293,-14.16381 2.409,-21.62323 5.125,-32 1.9478,-7.44201 4.3893,-17.58125 5.4374,-22.53125 3.0962,-14.62112 7.6249,-27.21591 12.0313,-33.59375 0.9897,-1.43259 5.8224,-10.65759 10.75,-20.5 7.1956,-14.37234 16.2427,-29.19694 23.7813,-38.9375 0.9583,-1.23833 2.7753,-4.28074 6.2187,-10.46875 3.2663,-5.86968 9.7755,-14.84295 13.0625,-18 5.8189,-5.58875 33.4214,-28.22986 38.3125,-31.4375 12.8601,-8.43373 33.8338,-22.54559 40.125,-27 5.0717,-3.59095 11.3775,-6.57058 24,-11.28125 28.2716,-10.5508 44.7483,-14.20412 66.4375,-14.03125 z"
             style="fill:#6fd1f6;fill-opacity:1"
             inkscape:connector-curvature="0" />
          <path
             id="path3169"
             d="m -1114.1562,263.78125 c -1.6782,0.032 -3.3142,0.54909 -4.7813,1.59375 -1.7448,1.24238 -4.5086,2.1109 -6.7813,2.125 -10.2971,0.0639 -15.3734,3.39075 -19.2187,12.65625 -3.2238,7.76791 -2.8815,9.96206 2.3437,14.96875 2.4734,2.36981 5.7358,4.60278 7.25,4.9375 1.5143,0.33473 5.0313,1.29995 7.7813,2.15625 7.0852,2.20622 6.85,2.15118 8.5,1.53125 0.825,-0.30997 3.3418,-2.1723 5.625,-4.15625 2.2831,-1.98396 6.2867,-5.37908 8.875,-7.53125 l 4.6875,-3.90625 -0.6562,-5.09375 c -1.0158,-7.84164 -2.5638,-12.15443 -5.5626,-15.4375 -2.3566,-2.58022 -5.2656,-3.89709 -8.0624,-3.84375 z"
             style="fill:#000000"
             inkscape:connector-curvature="0" />
          <path
             id="path3157"
             d="m -904.34375,267.1875 c 0.0239,0.096 -0.0168,0.52253 -0.21875,1.28125 -0.0662,-0.64844 0.13989,-1.26487 0.21875,-1.28125 z"
             style="fill:#000000"
             inkscape:connector-curvature="0" />
        </g>
        <path
           sodipodi:nodetypes="ssssssccsssssscssccssssssscsscsscscccsscscsscsssccccssscscccccsssscc"
           inkscape:connector-curvature="0"
           id="path4138"
           d="m 86.974431,-171.8986 c -2.923203,0 -1.810092,11.86969 1.764685,18.87675 1.889227,3.70322 6.855232,15.5446 11.015889,26.30981 7.882025,20.39381 29.148555,62.880616 38.769545,77.378644 8.11658,12.231059 22.17782,28.188031 26.25634,29.839176 12.05258,4.879507 14.60179,-0.248776 15.88213,-31.336483 0.83911,-20.373808 2.29098,-26.102839 4.65235,-18.662847 0.54476,1.716501 2.32089,4.585858 3.95716,6.417019 1.63628,1.831329 7.5923,8.656742 13.20839,15.133491 13.35786,15.404835 21.86298,21.49704 29.94612,21.49704 12.24352,0 18.89486,-12.803423 23.10129,-44.491382 1.5617,-11.764551 3.51303,-24.855283 4.3315,-29.090538 5.04948,-26.1291 3.56933,-45.9091 -4.01064,-54.33082 -4.5405,-5.04463 -7.67588,-4.82107 -9.73249,0.58823 -2.31983,6.10166 -2.10511,7.19872 1.49731,8.34214 5.80451,1.84245 7.84816,8.43239 5.77532,18.44896 -1.02504,4.95342 -2.71764,15.52919 -3.79674,23.52908 -6.53048,48.413651 -9.62954,58.828743 -18.12809,60.961762 -3.56054,0.893764 -5.71157,-0.124741 -11.28328,-5.507947 -12.34534,-11.927279 -31.24631,-38.636066 -35.34712,-49.892384 -2.85125,-7.826381 -4.7573,-10.695051 -7.05874,-10.695051 -4.34344,0 -4.80166,3.07454 -6.14965,39.357775 -0.64687,17.411529 -1.73019,32.698 -2.40639,33.956763 -1.3271,2.470471 -16.04602,-13.452056 -24.27775,-26.256331 -16.71191,-25.995127 -33.51723,-57.730147 -42.40584,-80.105887 -7.028267,-17.69269 -13.492226,-30.26697 -15.561299,-30.26697 z m 451.437839,34.54499 c -8.2634,0.15778 -20.69257,6.10879 -30.64134,14.86611 -21.56019,18.97814 -35.36613,72.163196 -25.45419,98.127034 6.04586,15.8368801 20.39257,27.9074111 37.37911,31.4434334 9.71644,2.0228178 14.20293,1.789819 26.68412,-1.3368818 8.9903,-2.2521199 29.14134,-22.3118316 37.05824,-36.9513796 5.71318,-10.564514 5.95717,-10.821846 11.81813,-9.946392 8.07972,1.206572 37.98832,-2.950892 49.57151,-6.898304 9.19777,-3.134418 16.36214,-10.536074 13.20839,-13.689666 -0.71938,-0.719383 -14.22026,-0.09192 -29.94604,1.443832 -30.62768,2.990512 -37.47533,2.6641 -45.61428,-2.299435 -7.46745,-4.553679 -18.78931,-4.216744 -22.19226,0.641706 -1.46516,2.091784 -2.67375,5.947391 -2.67375,8.609515 0,3.90566 1.14736,5.325363 5.93553,7.326106 3.26377,1.363833 7.90463,2.459861 10.32089,2.459861 4.00602,0 4.22515,0.339161 2.40643,3.850215 -4.52991,8.74362 -14.14998,19.664766 -22.0853,25.079881 -11.59838,7.9146756 -27.47976,9.3136733 -40.80156,3.582841 -13.26057,-5.704652 -21.72131,-16.119452 -24.06407,-29.5718 -3.0425,-17.471938 2.2803,-40.743413 13.1016,-57.271965 8.26478,-12.623571 29.26778,-26.095911 40.69476,-26.095911 4.07968,0 4.39195,-0.51541 3.90351,-6.41702 -0.50286,-6.07632 -0.89171,-6.39332 -7.00524,-6.8983 -0.51177,-0.0422 -1.0533,-0.064 -1.60419,-0.0534 z m -196.20059,13.79592 c -3.20633,0.10143 -7.20158,6.54271 -8.76993,14.81263 -2.61079,13.766674 -2.15108,43.476311 0.8556,55.079486 4.17063,16.094932 15.69606,32.843714 29.57184,42.994082 14.13781,10.34219434 31.55379,3.8909422 41.17575,-15.293916 7.10938,-14.174647 19.35034,-54.237479 20.37417,-66.683605 0.62962,-7.653547 0.0844,-12.240947 -1.87165,-16.363427 -3.51068,-7.39821 -8.86279,-12.18652 -12.19227,-10.90894 -3.81943,1.46565 -3.22802,6.60492 1.9251,17.11208 l 4.5453,9.251206 -5.6148,16.898173 c -10.44436,31.537892 -15.37982,42.095783 -22.72705,48.929831 -9.99808,9.299728 -17.40641,8.325538 -28.34183,-3.743265 -14.05929,-15.516577 -19.20571,-28.534546 -20.42754,-51.764019 -0.6931,-13.177663 -0.34251,-17.847126 1.87164,-22.513066 3.20465,-6.75327 3.67317,-15.72463 0.90908,-17.43292 -0.41777,-0.25821 -0.82537,-0.38885 -1.28341,-0.37433 z"
           style="fill:#000000" />
        <path
           style="fill:#000000"
           d="m 122.63206,-1335.0192 c -0.041,0 -0.0597,0.015 -0.094,0.047 -0.42223,0.422 -0.25955,4.0312 0.37591,8.0353 0.6356,4.0041 1.45556,6.0406 1.78561,4.511 0.67214,-3.1148 -0.83153,-12.3511 -1.92658,-12.5933 -0.0365,-0.015 -0.10005,0 -0.14089,0 z m 40.88106,4.417 c -0.0208,0 -0.0442,0.031 -0.094,0.046 -0.23921,0.075 -0.83699,0.3967 -1.73862,0.8928 -1.39117,0.7655 -3.29472,1.5786 -4.22907,1.8326 -1.226,0.3343 -1.16023,0.5823 0.23494,0.8459 1.06317,0.2008 2.96684,-0.6114 4.22908,-1.8325 1.19302,-1.1542 1.74293,-1.7474 1.59765,-1.7858 z m -15.69457,1.1747 c -0.64961,0.1052 -1.70638,0.6285 -2.81939,1.4566 -1.78082,1.3251 -2.92707,2.5918 -2.58442,2.8194 1.09911,0.7309 6.36667,-2.7128 6.10865,-3.994 -0.0512,-0.255 -0.31507,-0.3451 -0.70484,-0.282 z m -7.70631,5.122 c -0.48868,-0.015 -2.73526,1.2884 -6.20265,3.7122 -2.86353,2.0014 -5.52928,3.7492 -5.9207,3.9 -0.39148,0.1507 -3.41932,2.2823 -6.71952,4.746 -10.13305,7.5639 -21.440185,15.5738 -22.273141,15.7415 -0.435161,0.088 -4.181554,2.6358 -8.36416,5.6859 -4.182633,3.0499 -9.943557,6.9393 -12.781201,8.646 -2.837656,1.7067 -7.110444,4.5014 -9.491932,6.2027 -5.045349,3.6045 -16.208465,9.8103 -37.544775,20.8633 -8.397411,4.3506 -18.787832,10.3913 -23.0719462,13.4391 -6.8053663,4.8417 -7.6157623,5.9955 -6.5785625,9.1631 1.1268967,3.4415 1.5943515,3.5456 9.2099797,1.5976 4.412645,-1.1288 10.811652,-3.5661 14.237891,-5.4038 3.426227,-1.8378 10.654846,-5.6884 16.070482,-8.5522 7.718714,-4.0812 18.476511,-10.703 30.590301,-18.7958 0.346569,1.1561 1.060083,3.02 2.161521,5.5448 1.397065,3.2024 2.56076,6.165 2.631431,6.5785 0.07039,0.4136 1.572453,3.7967 3.33626,7.5184 5.415177,11.4267 11.042582,24.1017 11.042582,24.9514 0,0.4441 1.735625,4.6488 3.900153,9.351 2.164381,4.7025 4.854683,11.1192 5.967687,14.2381 1.11302,3.1186 3.0314,7.855 4.22908,10.5257 2.53759,5.6575 6.39188,17.8295 13.01616,40.9279 2.60721,9.0908 6.50382,20.4791 8.6461,25.2804 3.40312,7.6273 4.34945,8.6618 7.65933,8.2703 3.59618,-0.4255 3.78985,-0.8897 3.38325,-8.7402 -0.23547,-4.5486 -1.3651,-11.3151 -2.49045,-15.0367 -1.12535,-3.7215 -3.47747,-11.559 -5.21586,-17.4331 -4.62213,-15.62 -15.79154,-43.1661 -28.94567,-71.2834 -2.901784,-6.2027 -7.115888,-15.2957 -9.350952,-20.2056 -3.056963,-6.7156 -4.369294,-8.3918 -5.403811,-6.7666 -1.017082,1.5976 -1.339178,1.1708 -1.12776,-1.6446 0.178342,-2.3739 -2.559978,-10.7337 -5.309839,-17.6211 8.186115,-5.6226 16.765872,-11.7435 25.421442,-18.1381 5.50784,-4.0688 13.62496,-9.9501 17.99707,-13.1102 5.98001,-4.3223 7.34228,-5.9791 5.54479,-6.6724 -1.76682,-0.6819 -1.39224,-1.0614 1.40968,-1.4097 4.41359,-0.549 27.50742,-15.3262 24.52863,-15.6945 -1.10251,-0.1369 -2.59145,0.6421 -3.28928,1.6916 -0.90681,1.3642 -1.92851,1.2957 -3.6652,-0.235 -2.21536,-1.9527 -2.3807,-1.8607 -1.78561,1.3157 0.48733,2.6011 0.003,3.3811 -1.92657,3.0545 -1.42081,-0.2409 -3.44889,0.5964 -4.51101,1.8795 -1.29769,1.5669 -1.73475,1.6866 -1.26872,0.376 0.38146,-1.0732 -0.12514,-2.2426 -1.17476,-2.6315 -1.2534,-0.4645 -0.87659,-1.6384 1.17476,-3.3833 1.93181,-1.6431 2.63558,-2.4345 2.2555,-2.4434 z m -5.96769,7.3304 c 0.86931,0.058 1.56919,0.4726 1.69163,1.0807 0.16324,0.8105 -0.31786,1.5852 -1.08077,1.7387 -0.76291,0.1537 -1.96712,-0.2771 -2.63142,-0.987 -0.66432,-0.7098 -0.13624,-1.5311 1.12775,-1.7855 0.316,-0.063 0.60304,-0.066 0.89281,-0.047 z m -5.73276,2.6314 c 0.7872,0.027 1.76138,0.5687 2.44348,1.6445 0.83517,1.3166 0.50419,1.858 -1.03378,1.5977 -1.26563,-0.2144 -2.43858,-0.9676 -2.58443,-1.6915 -0.21335,-1.0598 0.38756,-1.5778 1.17473,-1.5507 z m -3.05433,3.0074 c 1.17551,-0.1025 1.15249,0.817 -0.79881,2.4903 -1.26808,1.0875 -1.79823,2.529 -1.17475,3.1954 0.62349,0.6662 0.48991,1.3483 -0.28194,1.5036 -3.17726,0.6398 -3.95079,-3.9668 -0.98679,-5.8268 1.41866,-0.8901 2.537,-1.3012 3.24229,-1.3625 z m -11.55946,7.6592 c 0.92855,0.026 1.89772,0.3159 2.34948,0.799 0.60237,0.6434 -0.31249,1.0843 -2.02056,0.9866 -3.62322,-0.207 -4.27272,-1.1243 -1.22173,-1.7385 0.29208,-0.058 0.58329,-0.055 0.89281,-0.047 z m -7.18943,4.9809 c 0.2909,0.065 0.52442,0.3226 0.61087,0.7519 0.17285,0.8585 -0.31701,1.6692 -1.12776,1.8326 -0.81075,0.1632 -1.57262,0.028 -1.64464,-0.329 -0.072,-0.3574 0.46487,-1.2153 1.17474,-1.8795 0.35493,-0.3323 0.69589,-0.44 0.98679,-0.376 z m -37.074882,9.9149 c -0.112593,0.015 0.05852,0.6645 0.469895,1.9734 0.475909,1.5148 0.922127,3.545 0.986783,4.511 0.08576,1.2679 0.31201,1.2685 0.84582,-0.046 0.406735,-1.0027 -0.03883,-3.0328 -0.986797,-4.5112 -0.819188,-1.2776 -1.203095,-1.9351 -1.315701,-1.9264 z m 297.303922,17.997 c -8.80174,0 -16.56105,3.197 -23.40088,9.5859 -3.8826,3.6267 -4.88693,5.7688 -4.88693,10.3848 0,6.2443 2.39627,9.2814 26.12628,33.4097 13.75512,13.9859 15.01634,15.9866 12.87519,20.4874 -0.93355,1.9625 -3.81148,5.2628 -6.39061,7.3304 -4.02661,3.2279 -6.25251,3.7592 -15.55359,3.7592 -5.95753,0 -11.19788,0.4374 -11.70044,0.9399 -1.59486,1.5942 3.29587,4.558 12.26432,7.4243 10.24498,3.2744 12.8314,3.4157 20.39354,1.3157 12.53894,-3.482 20.49469,-15.6767 15.88251,-24.3877 -1.10851,-2.0936 -10.98619,-13.0604 -21.94419,-24.3405 -11.54771,-11.8876 -19.92364,-21.7249 -19.92364,-23.4011 0,-1.9575 2.41637,-4.1109 7.47136,-6.6723 8.75892,-4.4387 12.25536,-4.6922 17.48018,-1.2689 3.26792,2.1413 4.06338,2.1968 5.21586,0.3759 2.14234,-3.3847 1.67107,-5.3451 -2.49046,-10.2908 -3.39307,-4.0325 -4.85232,-4.6519 -11.4185,-4.6519 z m 172.45225,2.4905 c -9.92253,0.1308 -26.31423,9.8815 -26.31423,15.6476 0,3.2723 10.58193,13.0614 28.56974,26.4552 7.85671,5.85 15.87999,12.412 17.85612,14.5666 3.44145,3.7526 3.48295,4.04 1.08068,7.7064 -3.71857,5.6754 -14.7495,10.4227 -22.03813,9.4449 -3.27857,-0.4395 -5.9207,-0.3221 -5.9207,0.282 0,1.3995 5.84832,6.7098 9.77389,8.8811 6.40489,3.5424 19.5617,1.4201 28.14676,-4.558 4.13871,-2.8818 7.15793,-10.3771 6.0147,-14.8956 -1.2425,-4.9107 -12.17418,-14.7211 -36.41699,-32.5641 -5.36666,-3.9498 -9.94926,-8.2067 -10.19678,-9.4919 -0.29678,-1.5411 2.32327,-3.7317 7.75332,-6.3905 4.52832,-2.2174 8.6535,-4.0412 9.16294,-4.0412 0.50945,0 3.4419,1.6917 6.48458,3.7592 3.04268,2.0675 6.37587,3.7591 7.42437,3.7591 2.84104,0 2.29551,-6.0994 -1.03378,-11.5594 -3.15017,-5.1666 -8.93586,-7.1516 -20.34649,-7.0014 z m -461.251036,0.3289 c 0.004,0.3166 -0.05974,0.6711 -0.234948,1.1277 -0.516362,1.3453 -0.108277,3.5454 0.939791,4.8399 1.279928,1.5814 1.334202,1.9844 0.140896,1.2688 -0.97663,-0.5857 -2.277836,-0.2945 -2.866378,0.6579 -0.702807,1.137 -1.748691,0.5228 -3.054334,-1.8326 -0.47506,-0.8571 -0.826052,-1.4305 -1.127746,-1.8796 2.036874,-1.3636 4.095255,-2.7409 6.202638,-4.1821 z m 650.619626,1.3157 c -3.09906,0.035 -5.94165,2.1434 -12.21731,7.4243 -6.85749,5.7704 -8.58886,6.5192 -14.14406,6.1558 -5.8327,-0.3816 -6.44892,-0.075 -7.84709,4.088 -0.83359,2.4811 -1.92823,4.8493 -2.44346,5.2629 -2.32885,1.8685 -5.95487,9.1641 -9.72706,19.5477 -2.2532,6.2027 -8.75674,20.7507 -14.42587,32.3289 -13.56937,27.7143 -16.54033,34.6401 -16.54033,38.0147 0,3.6946 8.56135,11.9497 10.43187,10.0557 0.77049,-0.7802 5.76919,-10.2531 11.0895,-21.0043 5.32017,-10.7513 10.94198,-21.0711 12.49912,-22.978 l 2.8194,-3.4772 14.75489,6.8604 c 8.11799,3.7677 15.42586,6.8136 16.21145,6.8136 0.78545,0 7.10735,2.6846 14.04993,5.9676 l 12.59325,5.9678 3.994,12.4522 c 2.18012,6.8482 5.34512,13.6365 7.04857,15.0838 5.15161,4.3774 8.75539,3.4376 8.69309,-2.2555 -0.0553,-5.1388 -0.84775,-8.6415 -9.58588,-42.1968 -5.84888,-22.4604 -11.37171,-54.0199 -11.37171,-64.799 0,-10.1264 -2.16974,-14.166 -9.25687,-17.3391 -2.81373,-1.2597 -4.76597,-1.994 -6.62543,-1.9735 z m -252.61674,4.8869 0.4699,6.3907 c 2.31747,32.7929 8.51688,60.8937 14.98971,67.6652 2.17399,2.2742 5.30062,4.135 6.90749,4.135 2.56837,0 2.81664,-0.7726 2.06754,-6.3905 -0.46865,-3.515 -2.24422,-12.8189 -3.94713,-20.6755 -1.70289,-7.8567 -3.75164,-21.607 -4.558,-30.5903 -0.80636,-8.9835 -2.24282,-17.2725 -3.1953,-18.42 -0.95247,-1.1479 -4.21451,-2.1146 -7.23641,-2.1146 z m -397.626975,3.0074 c 0.827023,0 1.50367,0.6782 1.50367,1.4565 0,0.7782 -0.676647,1.7915 -1.50367,2.3027 -0.82701,0.5111 -1.503671,-0.12 -1.503671,-1.4098 0,-1.2892 0.676661,-2.3494 1.503671,-2.3494 z m 167.565325,3.1953 c -1.76768,0.042 -3.40081,0.4404 -3.99412,1.0337 -1.52743,1.5275 1.16474,11.7064 10.24375,39.0486 2.81894,8.4892 5.12188,16.0383 5.12188,16.7752 0,1.5096 -12.65271,6.1087 -16.77532,6.1087 -4.1781,0 -18.50282,5.7787 -24.52864,9.8679 -2.99335,2.0312 -5.63628,3.6651 -5.87371,3.6651 -2.42076,0 -21.45679,-36.0013 -22.93098,-43.3714 -1.32428,-6.6215 -8.35732,-9.9194 -13.76798,-6.4847 -3.71166,2.3563 3.18688,18.3463 19.54771,45.486 5.18903,8.6079 8.69311,16.1885 8.69311,18.749 0,2.5089 1.50231,5.8716 3.66519,8.1291 2.03417,2.1235 4.6407,7.4846 5.77974,11.9356 1.13888,4.4506 3.35364,9.0284 4.88692,10.1498 3.5195,2.5733 6.17227,2.6229 7.14244,0.093 1.36549,-3.5584 -0.08,-13.7085 -3.24229,-22.6959 l -3.10132,-8.834 4.74596,-4.4641 c 5.88101,-5.4938 17.95121,-11.4476 25.70337,-12.6874 3.18358,-0.5091 7.7458,-2.5276 10.1028,-4.5109 l 4.27606,-3.6181 1.87958,3.4301 c 1.02311,1.8946 4.98904,9.5202 8.83407,16.9634 9.85266,19.0728 12.51536,23.2963 14.6608,23.3068 2.62525,0.015 2.35218,-8.2717 -0.56388,-18.0911 -1.3291,-4.4755 -5.9519,-15.2646 -10.29075,-23.9646 -4.33885,-8.7002 -10.0985,-22.6021 -12.7812,-30.8723 -11.86065,-36.5658 -10.93297,-34.5155 -15.64758,-35.0543 -0.59375,-0.067 -1.19638,-0.1079 -1.78561,-0.093 z m -164.510992,2.1146 c 0.713298,-0.042 0.888969,0.4583 0.469896,1.5505 -0.459971,1.1985 -1.469907,2.1615 -2.208514,2.1615 -2.16167,0 -1.532689,-2.6114 0.84582,-3.524 0.363883,-0.1399 0.655046,-0.174 0.892798,-0.188 z m 219.019062,1.2215 c -1.0267,-0.038 -2.15084,0.1133 -3.38325,0.423 -3.54175,0.889 -3.56446,0.9873 -1.22174,6.3907 3.06689,7.0739 8.95842,27.8964 11.93539,42.2907 2.75939,13.3419 6.79292,21.9792 13.67401,29.2745 2.76407,2.9304 6.04107,5.3099 7.2834,5.3099 2.45015,0 3.07193,-4.5019 0.93979,-6.8135 -2.0849,-2.2605 -7.46832,-19.944 -9.82085,-32.2819 -2.21505,-11.617 -8.71001,-32.3056 -12.3113,-39.2835 -1.80982,-3.5067 -4.01534,-5.197 -7.09545,-5.3099 z m -219.160025,3.9472 c 0.415366,0.024 1.032387,0.6276 1.785611,1.9737 0.815736,1.4576 2.137169,2.2652 2.913357,1.7854 0.776201,-0.4796 1.409686,-0.2233 1.409686,0.5639 0,3.2412 -4.682423,3.1324 -5.920698,-0.1413 -0.987916,-2.6108 -0.880245,-4.2229 -0.187956,-4.1822 z m 647.001335,3.1487 c 0.093,-0.015 0.19417,4e-4 0.23489,0.047 0.3282,0.3532 2.04945,9.069 3.85323,19.4068 1.80391,10.3377 4.95043,25.4827 7.0015,33.6447 2.05094,8.1617 3.53541,15.0471 3.28919,15.2717 -0.24609,0.2247 -1.8445,-0.5768 -3.57114,-1.7388 -1.72664,-1.162 -12.21475,-6.33 -23.30694,-11.5125 -11.09219,-5.1823 -20.98267,-9.9445 -21.99115,-10.5726 -1.9556,-1.218 0.41005,-8.6347 7.89429,-24.7166 2.86484,-6.1562 4.40972,-7.8943 7.09536,-7.8943 3.7312,0 8.51267,-2.7734 14.98978,-8.74 1.98244,-1.8264 3.8539,-3.1319 4.51099,-3.1953 z m -640.798697,8.1763 c 0.546121,-0.1012 0.707715,0.8071 0.328932,2.2554 -0.918148,3.511 -1.926587,3.9582 -1.926587,0.8459 0,-1.1917 0.612827,-2.5439 1.362708,-3.0074 0.09371,-0.057 0.156941,-0.08 0.234947,-0.093 z m 2.819386,9.7738 c 0.875741,0 1.597642,0.6766 1.597642,1.5036 0,0.8271 -0.293065,1.5038 -0.657851,1.5038 -0.364638,0 -1.086552,-0.6767 -1.597655,-1.5038 -0.51109,-0.827 -0.218025,-1.5036 0.657864,-1.5036 z m 427.136511,125.0397 c -37.09055,1084.491164 -18.54528,542.24554 0,0 z"
           id="path3127"
           inkscape:connector-curvature="0"
           sodipodi:nodetypes="cccccccccccccccscccsccccccsccssssccsccscccssscscscccccsccccscccccsccccccccccccccccccccccccccccccccccccccssssccscssccsccccscsccccsccsccssssccccccccccccssccccscccccscccccssccccssssscscsscssccssscsccsscscccccccccscscccccccscccccscscssccccsccccccsccsccscccccscccssscscc" />
      </g>
      <g
         transform="matrix(0.42571317,0,0,0.42571317,608.51605,-490.73309)"
         id="g4151">
        <g
           id="g4086"
           transform="translate(4024.1842,-1060.3715)">
          <path
             style="fill:#999999;fill-opacity:1"
             d="m -2136.5938,656.53125 c 0.4539,0.0432 0.5967,1.78062 0.9063,6.40625 0.275,4.1084 0.3266,8.48125 0.125,9.71875 -0.354,2.173 -0.7387,2.25 -11.25,2.25 -10.7924,0 -10.875,-0.0172 -10.875,-2.375 0,-2.8012 1.3981,-4.0935 5.5,-5.0625 4.1645,-0.9838 12.3018,-6.3522 14.3125,-9.4375 0.6212,-0.95317 1.0091,-1.5259 1.2812,-1.5 z"
             id="path3263"
             inkscape:connector-curvature="0" />
          <path
             style="fill:#999999;fill-opacity:1"
             d="m -2136.9375,684.21875 c 1.1172,-0.0741 1.25,1.50347 1.25,9.09375 0,5.2361 -0.5303,10.6262 -1.1563,12 -1.1972,2.6277 -1.8868,2.889 -13.3437,4.625 -3.85,0.5833 -8.2252,1.23115 -9.7187,1.46875 l -2.7188,0.4375 -0.2812,-10.21875 c -0.1569,-5.62 0.098,-11.56875 0.5624,-13.21875 l 0.8438,-3 11.125,-0.25 c 6.1188,-0.1387 11.9268,-0.5016 12.9062,-0.8125 0.203,-0.0644 0.3717,-0.11441 0.5313,-0.125 z"
             id="path3267"
             inkscape:connector-curvature="0" />
          <path
             style="fill:#999999;fill-opacity:1"
             d="m -2279.4688,699.90625 c 0.3934,10e-4 2.1937,1.299 4,2.875 7.2301,6.3066 16.0039,9.16445 20.7813,6.78125 l 3,-1.5 0,3.8125 c 0,3.5837 -0.2713,3.90365 -4.7813,5.84375 -2.6302,1.1315 -7.9174,2.84425 -11.75,3.78125 -3.8321,0.937 -7.4149,2.0883 -7.9374,2.5625 -1.5616,1.417 -2.4666,0.97445 -3,-1.40625 -0.8262,-3.6867 -1.087,-22.75 -0.3126,-22.75 z"
             id="path3269"
             inkscape:connector-curvature="0" />
          <path
             style="fill:#999999;fill-opacity:1"
             d="m -2137.7188,715.0625 c 0.9212,-9.5e-4 1.0137,0.81772 1,3.46875 -0.03,5.8089 -1.8691,17.58145 -2.9687,18.90625 -0.5321,0.6411 -4.0307,1.66515 -7.75,2.28125 -3.7193,0.6161 -8.6625,1.4034 -11,1.75 l -4.25,0.625 0,-11.90625 0,-11.90625 10.75,-1.15625 c 5.9125,-0.6422 11.7625,-1.4635 13,-1.8125 0.5142,-0.145 0.9119,-0.24968 1.2187,-0.25 z"
             id="path3271"
             inkscape:connector-curvature="0" />
          <path
             style="fill:#999999;fill-opacity:1"
             d="m -2251.9688,720.875 0.7188,10.59375 c 0.3914,5.8399 0.3924,10.92025 0.031,11.28125 -0.3611,0.3611 -3.4702,0.65625 -6.9374,0.65625 -5.5164,0 -6.5675,-0.3124 -8.3438,-2.5 l -2.0312,-2.5 -2.8438,2.125 c -3.846,2.8619 -3.755,6.38305 0.1875,8.34375 3.4646,1.723 14.5392,1.81155 18.75,0.15625 l 2.75,-1.0625 -0.031,4.71875 c -0.022,7.6519 -0.5676,8.54495 -6.375,10.46875 -5.701,1.8887 -9.4171,2.08925 -14,0.71875 -1.6028,-0.4796 -3.2263,-0.69585 -3.5937,-0.46875 -0.3674,0.227 -1.2339,-6.19325 -1.9063,-14.28125 -0.672,-8.088 -1.4552,-15.8743 -1.75,-17.3125 -0.5262,-2.5706 -0.4004,-2.64335 7.25,-3.78125 7.7039,-1.1458 10.4321,-2.1019 15.5,-5.4375 z"
             id="path3273"
             inkscape:connector-curvature="0" />
          <path
             style="fill:#999999;fill-opacity:1"
             d="m -2139.5938,744.34375 -0.6874,8.03125 c -1.0317,12.0727 -1.0754,12.1178 -9.0938,12.875 -11.7155,1.1063 -11.9843,1.04705 -12.6875,-2.46875 -0.9352,-4.676 -0.7544,-9.677 0.375,-10.375 0.55,-0.3399 1,-1.3825 1,-2.3125 0,-1.3516 2.1343,-2.09335 10.5625,-3.71875 z"
             id="path3275"
             inkscape:connector-curvature="0" />
          <path
             style="fill:#999999;fill-opacity:1"
             d="m -2130.0312,750.0625 c 1.7417,-0.3057 8.6921,4.43381 11.625,8.0625 4.9654,6.1439 5.7187,7.9992 5.7187,14.0625 0,4.3751 -0.5582,6.1767 -2.875,9.375 -6.963,9.612 -17.8924,16.0289 -32.875,19.3125 -9.5642,2.0962 -16.7828,2.34845 -28.6875,0.96875 -7.3568,-0.8526 -19.3362,-4.29855 -22.2188,-6.40625 -1.5679,-1.1466 -1.4306,-1.4382 1.4688,-2.9375 4.2413,-2.1933 4.318,-4.7761 0.125,-3.9375 -2.3411,0.4682 -3.4991,0.11345 -5.0312,-1.53125 -2.4233,-2.6008 -7.9063,-13.9544 -7.9063,-16.375 0,-2.3018 6.9463,-7.2442 12.8125,-9.125 2.5728,-0.8249 8.2875,-1.98965 12.6875,-2.59375 4.4,-0.604 9.2375,-1.36055 10.75,-1.65625 2.669,-0.5219 2.75,-0.3848 2.75,3.9375 0,5.7405 2.3369,12.35305 5.2187,14.71875 2.2486,1.8459 2.3067,1.8088 5.2813,-1.5 2.9334,-3.2631 3.2001,-3.3322 12.75,-3.8125 5.3716,-0.2701 10.3348,-0.95325 11.0313,-1.53125 0.6963,-0.5779 2.5226,-1.52015 4.0312,-2.09375 3.1554,-1.1996 4.5867,-3.91995 2.6875,-5.09375 -0.9322,-0.5761 -1.1331,-2.26885 -0.6875,-6.03125 0.3409,-2.8783 0.8238,-5.41745 1.0625,-5.65625 0.067,-0.067 0.165,-0.13587 0.2813,-0.15625 z"
             id="path3277"
             inkscape:connector-curvature="0" />
          <path
             style="fill:#999999;fill-opacity:1"
             d="m -2250.5312,766.59375 c 0.1331,-0.003 0.2096,0.0222 0.25,0.0625 0.3222,0.3221 0.5937,3.91815 0.5937,7.96875 0,8.3876 0.9336,9.46495 6.0625,6.90625 2.9832,-1.4882 3.3551,-1.47195 6.3125,0.59375 1.7218,1.2026 5.7036,4.6711 8.875,7.6875 10.2859,9.7832 9.7434,16.70355 -1.6563,20.96875 -4.2399,1.5865 -8.6389,2.1199 -21.2187,2.5 -17.8281,0.5386 -16.3322,0.6937 -36.8125,-3.9375 -12.5132,-2.8296 -17.1789,-4.4415 -27.5625,-9.5 -14.0991,-6.8686 -18.3376,-9.7561 -20.5,-13.9375 -2.1582,-4.1736 -1.8657,-6.3013 1.25,-9.0625 4.0646,-3.6021 6.5792,-4.8057 13.5,-6.4375 8.0069,-1.8876 15.4208,-1.87065 25.875,0.0312 13.2778,2.4156 12.875,2.25425 12.875,5.03125 0,3.0445 1.7404,3.8581 5.3125,2.5 2.0707,-0.7873 2.6875,-1.66155 2.6875,-3.96875 0,-2.9678 0.01,-3.0026 4.7813,-2.4375 3.9094,0.463 6.0846,0.009 11.9062,-2.46875 3.4301,-1.45968 6.5349,-2.48218 7.4688,-2.5 z"
             id="path3279"
             inkscape:connector-curvature="0" />
          <path
             sodipodi:nodetypes="csssccccccssssccccsccccccssccccccsssccsccccssccsscscsssssccscsscsscsscsscccscsscccsccsssssccccccsccccccccsccssscccsssscsssscsccccccsccsscccscccscsssccc"
             inkscape:connector-curvature="0"
             id="path3261"
             d="m -2216.5625,-65.96875 c -20.051,0.176765 -36.94,2.664023 -73.4063,9.96875 -18.3993,3.685776 -34.2873,8.31725 -58.2187,17 -25.3552,9.1993 -56.3864,29.6223601 -79.5937,52.375 -13.6522,13.38451 -17.7079,18.1349 -21.3126,24.9375 -2.4474,4.619486 -3.1743,6.929073 -2.0624,7.9375 l 0,5.6875 c -0.041,-9.5e-5 -0.084,5.6e-5 -0.125,0 -11.7963,-0.01564 -13.2911,0.184 -14.9063,1.96875 -1.4673,1.62137 -1.5628,2.25711 -0.5313,3.5 0.6939,0.83532 1.8939,1.5 2.6563,1.5 0.7624,0 3.1824,1.31796 5.375,2.90625 5.178,3.75092 8.4069,4.25008 20.4375,3.21875 11.8647,-1.01712 14.8516,-0.33477 22.9375,5.15625 14.8408,10.07815 24.2599,23.802679 28.5937,41.71875 3.4303,14.1791 4.6807,52.98037 2.4688,76.59375 l -0.5625,6.125 -10.5937,0.625 c -37.8001,2.31282 -60.2106,-0.93394 -81.7813,-11.90625 -14.9302,-7.59449 -35.3783,-21.38687 -44.2813,-29.84375 -7.1167,-6.76054 -15.8278,-16.9721 -18,-21.125 -1.3777,-2.63431 0.7099,-15.09373 4.2813,-25.46875 2.9383,-8.536161 6.486,-24.82647 6.5,-29.9375 0.01,-1.88807 -1.7402,-8.63807 -3.875,-15 -2.1347,-6.361934 -4.1487,-12.6875 -4.4687,-14.0625 -0.3201,-1.375 -1.8889,-3.90244 -3.4688,-5.625 -3.4856,-3.80036 -7.6241,-4.81275 -26.2188,-6.40625 -9.7844,-0.8385 -14.3773,-1.67981 -16.7812,-3.0625 -5.3449,-3.0744 -4.6403,-4.07042 -10.6562,15.15625 l -3.625,11.5625 7.9062,8 c 10.5093,10.66577 15.1374,19.70569 15.875,31 0.4636,7.09996 0.2014,8.74405 -2.6875,16.65625 -4.2235,11.56793 -11.2724,22.21475 -18.9375,28.59375 -6.9893,5.81652 -9.1791,6.63335 -17.5625,6.59375 -10.877,-0.0514 -16.0724,-4.85805 -24.25,-22.46875 -2.1709,-4.675 -4.755,-10.975 -5.75,-14 -0.9951,-3.025 -2.6778,-6.24432 -3.7187,-7.15625 -1.7882,-1.56642 -2.2613,-1.41814 -8.5938,2.78125 -3.6867,2.4448 -11.1419,6.71935 -16.5938,9.46875 -11.5922,5.84625 -13.7582,8.39345 -10.625,12.71875 1.4914,2.05864 2.1924,5.5823 3,15.1875 1.1722,13.93876 1.8643,16.85131 6.0626,25.5 6.46,13.30935 16.3652,20.61915 35.3124,26 6.9964,1.98686 11.1575,2.5 19.6876,2.5 7.7064,0 10.9508,0.35842 11.3124,1.25 0.3815,0.93991 0.7495,0.8779 1.5313,-0.25 0.7446,-1.07431 2.9124,-1.5 7.5937,-1.5 3.5953,0 6.5313,-0.27936 6.5313,-0.625 0,-0.34563 2.9865,-1.39073 6.6563,-2.3125 3.6693,-0.92178 7.9678,-2.57425 9.5312,-3.6875 1.5634,-1.11326 3.2414,-1.86817 3.75,-1.6875 0.5086,0.18066 4.0042,3.28178 7.75,6.90625 9.1723,8.87499 37.5521,30.2072 49.625,37.3125 20.3097,11.95292 31.8214,16.34921 58.1875,22.21875 8.7384,1.94532 15.0605,2.58887 30.75,3.0625 10.8625,0.32791 19.75,0.7616 19.75,0.96875 0,0.20714 -0.5194,1.19907 -1.1563,2.21875 -0.6367,1.01968 -0.8729,2.65228 -0.5,3.625 0.6427,1.67458 0.8104,1.68983 2.7813,-0.0937 1.1449,-1.03607 2.7171,-3.14245 3.5,-4.65625 0.9712,-1.87808 2.2178,-2.75 3.9063,-2.75 1.3604,0 2.4687,0.3719 2.4687,0.8125 0,0.4406 -2.2061,9.5531 -4.9063,20.25 -4.9029,19.42464 -13.5453,47.57531 -25.5937,83.4375 -16.7386,49.8225 -23.2661,72.91752 -26.0937,92.5 -2.1263,14.72488 -1.493,49.37496 1.0937,61 3.2775,14.72877 15.7646,42.56621 26.125,58.1875 9.6772,14.59122 41.2054,44.48555 56.375,53.46875 15.5898,9.2322 57.3612,28.3637 73.8437,33.8125 4.7556,1.572 7.8859,3.0877 7.2188,3.5 -1.8989,1.1736 -1.6902,55.43285 0.25,65.03125 0.8338,4.125 1.8122,13.1891 2.1875,20.125 l 0.6875,12.59375 -6.8438,-1.3125 c -9.5913,-1.8557 -18.4044,-1.67295 -28.6562,0.59375 -9.4216,2.0832 -16.5382,5.409 -22.5,10.5625 -3.5165,3.0399 -3.6875,3.5206 -3.6875,9.3125 0,5.799 0.1972,6.2885 4,10 4.6794,4.5671 22.4093,14.12995 31.5937,17.03125 5.3968,1.7047 25.249,6.06138 33.9063,7.4375 5.3185,0.8453 24.9507,0.6225 32.9063,-0.375 16.9292,-2.12282 30.0937,-11.12985 30.0937,-20.59375 l 0,-2.75 3.25,3.125 c 6.4138,6.1779 27.9976,11.0588 44.25,10 8.1834,-0.5331 24.9906,-4.3838 32,-7.3125 9.8138,-4.1005 24.1196,-15.8138 27.5625,-22.5625 1.046,-2.0503 2.183,-6.13085 2.5312,-9.09375 0.7994,-6.8023 -1.2896,-11.1784 -8.7812,-18.4375 -5.8097,-5.6293 -11.2834,-7.88 -15.4062,-6.3125 -2.1895,0.8322 -2.4243,0.6579 -2.4063,-1.8125 0.011,-1.4988 0.7123,-8.34375 1.5313,-15.21875 0.8188,-6.875 1.5125,-19.29025 1.5624,-27.59375 l 0.094,-15.09375 21.6562,-0.59375 c 11.9078,-0.3271 27.9563,-1.1209 35.6563,-1.75 33.9253,-2.7718 55.6852,-5.1196 64.7813,-7 11.6721,-2.4132 32.2402,-8.8301 42.6874,-13.3125 4.1312,-1.7722 10.1094,-4.09475 13.2813,-5.15625 5.4025,-1.8079 5.7628,-2.12355 5.625,-4.96875 -0.081,-1.6704 0.1902,-3.82335 0.5937,-4.78125 1.3224,-3.1368 -2.3463,-3.2405 -7.875,-0.25 l -5.1562,2.78125 -4.3125,-2.21875 c -8.4358,-4.3036 -18.3784,-15.5583 -24.5,-27.75 -4.1099,-8.1853 -7.3596,-20.92154 -10.0937,-39.5 -3.1937,-21.69336 -3.2079,-32.55883 -0.063,-68.8125 3.1829,-36.67172 2.8897,-34.56024 8.5313,-62 2.6574,-12.925 5.5259,-27.1 6.375,-31.5 0.8491,-4.4 3.3703,-16.1 5.625,-26 2.2547,-9.9 5.1655,-22.93776 6.4687,-29 1.3038,-6.06224 3.9721,-17.31224 5.9063,-25 1.9343,-7.68776 4.6398,-19.625 6.0313,-26.5 2.5815,-12.75632 6.1609,-28.96438 9.125,-41.5 8.7452,-36.98526 10.5442,-81.70137 4.9062,-121.8125 -2.5394,-18.06628 -5.8045,-31.52249 -10.5625,-43.5 -2.9722,-7.482271 -19.8142,-37.5589 -24.75,-44.1875 -3.7111,-4.983924 -17.3587,-22.2981 -18.5937,-23.59375 -0.5703,-0.59758 -3.7313,-4.14249 -7.0313,-7.90625 -15.8354,-18.06078 -31.6648,-31.2773999 -57.4687,-47.96875 -24.2981,-15.71712 -39.2074,-22.71103 -74.0313,-34.65625 -26.7484,-9.175166 -40.3875,-11.63203 -69,-12.53125 -3.4323,-0.107869 -6.6775,-0.200556 -9.8125,-0.21875 -1.3715,-0.008 -2.7258,-0.01178 -4.0625,0 z m -27.2574,745.26927 c 0.1091,0.28051 0.2051,0.59106 0.2812,0.90625 17.0215,-0.004 38.4126,4.57225 64.4692,4.82454 l 3.8438,0 0.07,-6e-5 c -1.8225,17.8421 -1.8695,23.54955 -0.2188,25.90625 1.3329,1.9031 1.625,5.212 1.625,18.875 l 0,16.59375 -9.1875,1.3125 c -13.82,1.956 -26.1209,7.06695 -34.2813,14.25 -3.8843,3.4191 -4.5312,4.5343 -4.5312,7.75 0,2.0711 0.4674,5.1678 1.0625,6.875 0.5952,1.7072 0.9327,3.82835 0.75,4.71875 -0.2614,1.2745 -0.9583,0.96235 -3.2813,-1.46875 -1.6231,-1.6982 -5.0932,-4.5328 -7.7187,-6.3125 -2.6255,-1.7797 -4.7673,-4.0375 -4.7813,-5 -0.035,-2.3043 -2.5618,-2.21935 -4.9374,0.15625 -1.8612,1.8611 -1.9066,1.8405 -2.5,-1.125 -0.3322,-1.6614 -0.5938,-8.9675 -0.5938,-16.21875 0,-10.044 0.3502,-13.6461 1.4688,-15.125 1.9682,-2.6018 1.8911,-3.4375 -0.3126,-3.4375 -1.6966,0 -1.8868,-1.3821 -2.4687,-17.25 -0.4939,-13.4691 -0.2898,-19.2227 0.9375,-26.25 1.0292,-5.89278 1.0821,-7.02174 0.5863,-9.07448 0.3117,-2.59234 -2.8997,-7.55232 -0.2812,-0.90625 z"
             style="fill:#000000" />
          <path
             id="path3259"
             d="m -2207.125,-52.96875 c 15.9307,-0.07299 31.2077,1.05155 42.9375,3.40625 14.8376,2.97857 53.5143,16.12187 72.0313,24.46875 15.0331,6.77655 46.0892,27.4717801 61.5,41 7.2699,6.38205 29.6911,31.644436 39.0624,44 6.9045,9.10251 18.6421,28.20094 24.3126,39.5625 12.3925,24.83101 17.5734,51.70339 17.5624,90.9375 0,15.40889 -2.1077,44.61687 -4.0624,56.375 -2.4885,14.96597 -15.1119,71.90743 -22.875,103.125 -3.2147,12.925 -6.8371,28.225 -8.0313,34 -1.1943,5.775 -2.79,13.27271 -3.5625,16.65625 -4.6376,20.31371 -12.6153,58.66566 -14.4062,69.34375 -2.6443,15.76301 -7.0153,65.93518 -7.0313,80.65625 -0.012,11.48615 3.9235,44.3335 6.4375,53.6875 5.6099,20.8725 15.773,36.38185 30.6875,46.84375 3.2238,2.2614 5.875,4.2646 5.875,4.4375 0,1.2184 -32.8028,10.5612 -43,12.25 -20.8597,3.4547 -66.5222,7.3461 -92.3437,7.875 l -23.8438,0.5 0.3438,-21.03125 c 0.1891,-11.568 0.044,-21.3304 -0.3126,-21.6875 -0.3568,-0.3571 -2.488,-0.1632 -4.7187,0.4375 l -4.0313,1.09375 -0.3124,6.71875 c -0.2682,6.1058 -0.4882,6.74115 -2.5313,7.03125 -1.3142,0.1867 -3.5091,2.12595 -5.25,4.65625 -2.6772,3.8913 -9.563,8.53125 -12.6875,8.53125 -0.6325,0 -1.3605,-3.9613 -1.7812,-9.75 -0.6369,-8.7592 -3.0019,-23.0331 -3.9688,-24 -0.2066,-0.2066 -1.4276,0.17015 -2.7188,0.84375 -1.2907,0.6736 -3.0187,1.56565 -3.8437,1.96875 -0.825,0.4031 -1.4181,1.56985 -1.3125,2.59375 2.3726,23.0024 2.6095,28.42035 1.3125,30.84375 -1.0428,1.9485 -1.0939,2.81235 -0.1875,3.71875 0.6489,0.6489 1.1875,2.235 1.1875,3.5 0,2.285 -0.1008,2.28125 -13.3125,2.28125 -35.1733,0 -81.201,-7.46945 -111.125,-18.03125 -17.9429,-6.3331 -54.4999,-23.43575 -64.4375,-30.15625 -7.8422,-5.3034 -21.1573,-16.8218 -32.1563,-27.8125 -17.5394,-17.52638 -28.4783,-35.07708 -40.1562,-64.4375 -2.4277,-6.10374 -6.7038,-25.49226 -7.8438,-35.5625 -1.0052,-8.88246 -0.4029,-30.59709 1.0626,-38.15625 2.2264,-11.48638 3.8546,-21.64661 4.5,-28.34375 0.996,-10.33778 6.8197,-33.62851 13.4062,-53.5 3.1902,-9.625 8.5621,-27.625 11.9375,-40 3.3753,-12.375 7.701,-28.125 9.5937,-35 4.3669,-15.85992 8.1168,-31.71961 9.4063,-39.75 0.5526,-3.44166 1.3482,-6.78732 1.75,-7.4375 0.4018,-0.65018 0.8132,-2.56683 0.9063,-4.25 0.1455,-2.62528 2.3366,-18.24636 6.5,-46.0625 1.6367,-10.93849 2.3818,-62.06998 1.125,-77.5 -1.9746,-24.23263 -7.6495,-38.77653 -20.625,-52.875 -9.3628,-10.17275 -24.3296,-19.30315 -35.5313,-21.6875 -2.3782,-0.506222 -7.007,-0.941355 -11.9375,-1.1875 l 0,-7.03125 c 1.1939,-1.095119 1.9375,-2.584925 1.9375,-4.21875 0,-1.72147 6.5413,-8.3673 11.8437,-12 1.8507,-1.26762 8.9491,-7.11248 15.75,-13 23.1416,-20.0333099 47.1906,-35.10812 67.9063,-42.5625 5.5,-1.97914 15.625,-5.61643 22.5,-8.09375 9.4989,-3.42281 15.261,-4.83717 24,-5.875 11.0076,-1.30725 25.3484,-3.94804 27,-4.96875 0.4303,-0.26596 8.8038,-1.87535 18.625,-3.5625 14.404,-2.474445 31.0068,-3.739509 46.9375,-3.8125 z"
             style="fill:#999999"
             inkscape:connector-curvature="0" />
          <path
             id="path3257"
             d="m -2583.4062,42.96875 c 0.5711,-0.022 1.9218,0.143178 3.4687,0.4375 2.0625,0.39243 9.961,1.28319 17.5625,1.96875 16.0411,1.44669 15.968,1.38169 19.9688,12.03125 5.7264,15.243454 6.1666,18.17453 4.2812,28.625 -0.9307,5.15903 -3.2354,14.22267 -5.125,20.125 -1.8895,5.90233 -3.4375,11.44974 -3.4375,12.34375 0,1.03407 -0.5458,1.42867 -1.5,1.0625 -1.0224,-0.39234 -1.5,0.0551 -1.5,1.40625 0,1.0902 -0.5449,2.85869 -1.2187,3.9375 -0.9667,1.54779 -0.9667,2.22089 0,3.1875 2.2246,2.22452 1.2764,6.73774 -3.3126,15.875 -2.4918,4.9622 -5.4658,11.38569 -6.5937,14.25 -2.1537,5.46956 -7.4707,14.55056 -10.875,18.5625 -1.584,1.86672 -2.3032,2.1342 -3.4063,1.21875 -1.1259,-0.93468 -1.9633,-0.331 -4.2812,3.125 -2.6232,3.91126 -3.5966,4.48861 -10.75,6.53125 -5.845,1.66902 -11.3355,2.35063 -21.4688,2.65625 -15.7977,0.47646 -19.422,0.15712 -27.5937,-2.375 -22.5183,-6.97759 -29.1961,-15.33274 -32.0313,-40.15625 -0.8393,-7.34848 -1.7244,-13.93794 -1.9687,-14.625 -0.2591,-0.72884 1.7365,-2.3173 4.7813,-3.84375 2.8701,-1.43896 7.8371,-4.41013 11.0624,-6.59375 3.2257,-2.18363 6.2396,-3.6159 6.6876,-3.15625 0.4474,0.45964 1.7743,3.28152 2.9374,6.25 3.8325,9.77937 11.0942,22.519 15.25,26.78125 7.5537,7.74678 19.6429,10.9575 30.0313,7.9375 9.5703,-2.78214 17.369,-10.24811 25.2187,-24.125 4.7812,-8.45209 11.2531,-25.55253 12.0313,-31.78125 0.7236,-5.791271 -0.6674,-15.75558 -3.1875,-22.71875 -2.0027,-5.53355 -8.6856,-15.02011 -14.6562,-20.84375 l -4.4688,-4.375 1.9062,-6.625 c 1.0445,-3.65109 1.9063,-6.79954 1.9063,-7 0,-0.05011 0.091,-0.08642 0.2813,-0.09375 z"
             style="fill:#999999;fill-opacity:1"
             inkscape:connector-curvature="0" />
          <path
             id="path3255"
             d="m -2261.5312,60.15625 c -4.7731,-0.112555 -8.6873,1.624786 -12.4688,5.40625 -4.407,4.40707 -4.8288,8.35018 -1.4062,13.4375 1.6104,2.39447 3.3086,3.59549 5.75,4.03125 8.5542,1.52699 10.625,1.09898 13.875,-2.84375 3.6273,-4.40069 4.5912,-8.38314 3.4062,-14.375 -0.8448,-4.27208 -1.0168,-4.42223 -5.7188,-5.28125 -1.1992,-0.21912 -2.336,-0.349026 -3.4374,-0.375 z"
             style="fill:#000000"
             inkscape:connector-curvature="0" />
          <path
             id="path3253"
             d="m -2038.0312,96.15625 c -0.1821,0.06406 -0.5179,0.78743 -1.1876,2.25 -0.7554,1.65 -1.3962,3.9 -1.4062,5 -0.01,1.76363 0.1773,1.70454 1.4375,-0.5 0.786,-1.375 1.4,-3.625 1.375,-5 -0.022,-1.218805 -0.037,-1.814059 -0.2187,-1.75 z"
             style="fill:#000000"
             inkscape:connector-curvature="0" />
          <path
             id="path3251"
             d="m -2039.125,109.90625 c -0.2425,0 -0.7226,0.45 -1.0625,1 -0.3399,0.55 -0.145,1 0.4375,1 0.5824,0 1.0625,-0.45 1.0625,-1 0,-0.55 -0.1949,-1 -0.4375,-1 z"
             style="fill:#000000"
             inkscape:connector-curvature="0" />
          <path
             id="path3249"
             d="m -2543.125,139.875 3.6875,4.84375 c 2.0307,2.6628 6.2957,7.37707 9.4687,10.5 5.6967,5.60646 5.7464,5.77111 6.25,12.4375 0.8071,10.67513 0.4986,11.56054 -6.6874,18.96875 -2.0431,2.1061 -3.6816,3.98203 -5,5.65625 l -0.3126,-0.28125 -9.7187,12.71875 c -7.7338,-6.01421 -15.0375,-12.02422 -17.125,-14.15625 l -4.3437,-4.46875 3.1562,-4.625 c 1.7497,-2.54314 5.9958,-10.79662 9.4375,-18.34375 3.4417,-7.54713 7.3693,-15.84469 8.7187,-18.46875 z"
             style="fill:#999999;fill-opacity:1"
             inkscape:connector-curvature="0" />
          <path
             id="path3247"
             d="m -2515.4062,168.625 c 0.07,-0.0185 0.144,-0.0105 0.2187,0.0312 0.55,0.30711 3.7,2.44897 7,4.75 2.2015,1.53503 5.4175,3.5912 9,5.78125 l 0,5.65625 c -0.8247,1.59655 -1.5484,4.08956 -1.75,6.1875 -1.036,10.78244 -10.1193,23.10079 -18.0313,24.4375 -2.3157,0.39123 -4.7988,1.53049 -5.5,2.53125 -1.091,1.55804 -2.8294,0.56508 -15.0312,-8.71875 l 7.9688,-10.53125 0.062,-0.0312 c 1.2968,-1.15939 2.8774,-2.67944 4.8126,-4.625 8.3359,-8.38106 10.1357,-12.09288 10.3437,-21.34375 0.055,-2.43357 0.4161,-3.99543 0.9063,-4.125 z"
             style="fill:#999999;fill-opacity:1"
             inkscape:connector-curvature="0" />
          <path
             id="path3245"
             d="m -2493.5312,182.59375 c 6.7226,3.96115 13.8003,7.87796 18.1874,10 l 5.875,2.8125 -0.5312,5.15625 c -0.7017,6.86047 -5.8221,21.4598 -9.25,26.40625 -1.9881,2.86878 -7.5683,7.81315 -8.8609,7.40292 -3.5771,-1.13522 -5.2164,5.97258 -2.2188,8.28125 l 4.3297,-1.87167 c -7.9929,-2.85294 -13.0587,-5.5201 -23.125,-11.1875 l -8.9375,-5.03125 3.9063,-1.34375 c 2.1556,-0.74644 5.4169,-2.82141 7.25,-4.59375 5.1149,-4.9454 10.6844,-17.0647 13.875,-30.25 0.1855,-0.76782 -0.02,-1.79043 -0.5,-2.8125 z"
             style="fill:#999999;fill-opacity:1"
             inkscape:connector-curvature="0" />
          <path
             id="path3243"
             d="m -2461.9062,198 c 1.7789,-0.18459 11.828,3.37952 12.5,4.53125 0.4398,0.7542 1.4627,1.375 2.25,1.375 2.0866,0 2.8056,4.2583 2.0312,11.84375 -1.0966,10.74122 -5.0909,26.15625 -6.7812,26.15625 -1.4774,0 -3.7112,3.1327 -3.75,5.25 -0.036,1.98254 -2.478,2.14648 -8.0313,0.53125 -8.6587,-2.51845 -14.6215,-4.30066 -19.5,-5.9375 l -4.3297,1.80917 c 2.2907,-0.0813 9.0446,-5.9957 11.8297,-9.84042 4.2066,-5.80706 6.3888,-11.00688 10.0937,-24.125 1.736,-6.14623 3.2949,-11.32995 3.4376,-11.5 0.04,-0.0474 0.1313,-0.0814 0.25,-0.0937 z"
             style="fill:#999999;fill-opacity:1"
             inkscape:connector-curvature="0" />
          <path
             id="path3241"
             d="m -2596.3125,201.25 c -0.1195,0.0231 -0.2375,0.0713 -0.375,0.15625 -0.55,0.33992 -1,1.075 -1,1.625 0,0.55 0.45,0.71492 1,0.375 0.55,-0.33992 1,-1.075 1,-1.625 0,-0.4125 -0.2664,-0.60053 -0.625,-0.53125 z"
             style="fill:#999999;fill-opacity:1"
             inkscape:connector-curvature="0" />
          <path
             id="path3239"
             d="m -2601.9375,202.125 c -0.1773,-0.008 -0.3525,0.0117 -0.5313,0.0312 -1.1907,0.13059 -2.2881,0.83596 -1.7812,1.65625 0.3104,0.50225 1.4892,0.67201 2.625,0.375 1.3751,-0.35962 1.7277,-0.86609 1.0625,-1.53125 -0.3353,-0.33532 -0.8432,-0.50643 -1.375,-0.53125 z"
             style="fill:#999999;fill-opacity:1"
             inkscape:connector-curvature="0" />
          <path
             id="path3237"
             d="m -2393.2188,202.90625 3.9063,0 3.9063,0 -0.5938,6.40625 c -1.1219,12.0134 -5.9989,40.1074 -7.0938,40.84375 -1.6511,1.1107 -3.5937,0.90744 -3.5937,-0.375 0,-0.6264 0.9474,-6.5889 2.0937,-13.25 1.4968,-8.69684 1.9703,-15.15555 1.7188,-22.875 z"
             style="fill:#999999;fill-opacity:1"
             inkscape:connector-curvature="0" />
          <path
             id="path3235"
             d="m -2434.8125,203.1875 c 1.5406,0.0143 3.5245,0.12499 5.5937,0.3125 6.9235,0.62739 7.5313,0.87644 7.5313,2.9375 0,1.23197 0.733,3.96408 1.625,6.09375 2.2768,5.43552 1.3535,17.80822 -2.1563,29.25 -2.5432,8.29086 -2.9356,8.97465 -5.7187,9.53125 -4.0966,0.81932 -16.0762,0.25714 -19.4687,-0.90625 -0.8644,-0.29642 -0.4994,-1.98568 1.2812,-5.875 3.9868,-8.70835 7.4375,-23.84756 7.4375,-32.6875 0,-4.29701 0.4322,-8.07464 0.9687,-8.40625 0.2684,-0.16581 1.3657,-0.2643 2.9063,-0.25 z"
             style="fill:#999999;fill-opacity:1"
             inkscape:connector-curvature="0" />
          <path
             id="path3233"
             d="m -2412.1875,203.90625 5.0313,0 5.0624,0 1.3438,6.09375 c 1.4901,6.71701 0.9058,21.91396 -1.3125,34.40625 l -1.2187,7 -8.3126,0.3125 c -6.4737,0.22793 -8.1707,0.008 -7.75,-1 0.2965,-0.71061 2.0267,-5.8125 3.8438,-11.3125 3.041,-9.20467 3.3125,-11.01404 3.3125,-22.75 z"
             style="fill:#999999;fill-opacity:1"
             inkscape:connector-curvature="0" />
          <path
             id="path3231"
             d="m -2232.1875,252.40625 c -1.6416,0.0923 -2.5,1.25649 -2.5,3.53125 0,2.46065 0.9751,3.72102 5.625,7.21875 8.9988,6.76899 13.375,10.8855 13.375,12.5625 0,0.85747 -1.6302,4.8379 -3.625,8.875 -4.397,8.89897 -11.3266,15.60873 -20.7813,20.125 -11.2916,5.39375 -10.5806,5.60929 -15.3124,-4.75 -4.318,-9.45235 -5.5782,-10.70345 -9.875,-9.625 -2.2313,0.55999 -2.5035,1.04821 -1.9376,3.375 0.3624,1.48856 1.6719,4.2625 2.9063,6.1875 1.2343,1.925 3.2575,5.975 4.5313,9 1.2734,3.025 6.5135,14.275 11.625,25 5.1113,10.725 11.0811,24.9 13.2812,31.5 4.2552,12.76536 10.5909,39.94944 11.6875,50.15625 l 0.6563,6.15625 -5.0626,1.0625 c -2.7817,0.59664 -9.4935,3.34283 -14.9374,6.09375 -23.8219,12.03778 -31.4505,21.59083 -31.5626,39.53125 -0.078,12.44686 1.6886,19.61793 5.9688,24.15625 3.3937,3.59839 3.4977,3.61231 9.6875,3.03125 6.614,-0.62088 18.7137,0.76073 22.4687,2.5625 1.7909,0.85929 2.6436,0.73513 4.25,-0.71875 2.5656,-2.32169 2.5487,-3.85309 -0.2187,-9.46875 -3.4207,-6.94126 -3.1515,-16.96242 0.625,-23.3125 3.1976,-5.37655 6.0143,-7.75 9.2813,-7.75 4.6837,0 39.4573,11.9793 42.1874,14.53125 0.7491,0.6998 1.6001,3.27821 1.875,5.71875 0.598,5.30581 -0.9,8.52863 -6.6562,14.46875 -2.2446,2.31625 -4.0625,4.83274 -4.0625,5.59375 0,1.85482 2.924,4.29668 6.0313,5.03125 4.2849,1.01299 10.5057,7.19082 12.9374,12.84375 1.2486,2.90238 3.0143,5.85219 3.9063,6.53125 1.9736,1.50259 3.7863,1.61882 4.5937,0.3125 0.3309,-0.53528 2.1922,-1.70784 4.125,-2.625 3.8905,-1.84597 13.4203,-12.82818 17.625,-20.3125 8.1016,-14.4193 8.8009,-35.29905 1.6563,-49.375 -3.8037,-7.49394 -14.4787,-19.28105 -21.4063,-23.65625 -3.5614,-2.24936 -6.4687,-4.20252 -6.4687,-4.34375 0,-0.14123 1.1889,-5.63099 2.6563,-12.21875 2.4827,-11.14649 2.691,-13.77225 2.8124,-37.6875 0.1178,-23.10516 0.3092,-25.8915 1.9063,-27.65625 1.0648,-1.17659 1.6322,-3.11104 1.4375,-4.8125 -0.2731,-2.38515 -0.7359,-2.78236 -2.9062,-2.5625 -2.3752,0.2406 -2.7162,-0.24183 -4.3126,-6 -4.4855,-16.18064 -14.5175,-31.37168 -33.9062,-51.375 -17.2732,-17.82077 -29.2626,-27.1831 -34.1875,-26.90625 z"
             style="fill:#000000"
             inkscape:connector-curvature="0" />
          <path
             id="path3229"
             d="m -2209.5938,280.90625 c 1.1432,0 19.9829,20.0991 21.0626,22.46875 3.0153,6.61863 -11.9019,19.30203 -31.6563,26.90625 -4.95,1.90545 -11.1093,3.77396 -13.6875,4.15625 l -4.6875,0.6875 -4.5313,-9.03125 -4.5312,-9 9.2812,-4.53125 c 11.6625,-5.67346 20.6719,-14.60326 25.1876,-24.96875 1.6005,-3.67412 3.2022,-6.6875 3.5624,-6.6875 z"
             style="fill:#999999;fill-opacity:1"
             inkscape:connector-curvature="0" />
          <path
             id="path3227"
             d="m -2182.8125,312.0625 c 0.3254,0.005 0.7957,0.44131 1.5313,1.34375 3.1259,3.83557 9.5082,18.05244 11,24.46875 1.3863,5.96332 1.3911,6.61595 -0.1876,8.40625 -4.0684,4.61382 -28.6056,13.85291 -45.2187,17.03125 -4.125,0.78917 -8.2103,1.72637 -9.0625,2.0625 -1.1637,0.45894 -1.9453,-0.59783 -3.1562,-4.1875 -0.8869,-2.62904 -2.7641,-7.86301 -4.1876,-11.65625 -1.4229,-3.79324 -2.5937,-7.05574 -2.5937,-7.25 0,-0.19426 1.3,-0.375 2.9063,-0.375 4.4173,0 19.7079,-5.68761 27.5937,-10.28125 6.7485,-3.93115 19.7066,-15.63138 20.75,-18.71875 0.1568,-0.46411 0.3021,-0.7336 0.5,-0.8125 0.041,-0.0164 0.079,-0.032 0.125,-0.0312 z"
             style="fill:#999999;fill-opacity:1"
             inkscape:connector-curvature="0" />
          <path
             id="path3225"
             d="m -2168.2188,354.90625 c 0.2864,0 0.5313,3.76734 0.5313,8.375 0,6.22676 -0.3851,8.69971 -1.5,9.625 -0.825,0.68469 -1.5,2.27249 -1.5,3.53125 0,3.02992 -4.5872,6.77683 -11.75,9.59375 -4.5834,1.8025 -7.6979,2.2693 -15.25,2.25 -5.0784,-0.013 -11.4305,-0.39129 -14.4375,-0.8125 l -9.0312,-3.53125 c -0.6994,-3.00003 -1.3951,-5.82174 -2,-8.03125 -0.8289,-3.025 -1.5213,-5.6244 -1.5313,-5.78125 -0.01,-0.15685 0.8736,0.18065 1.9375,0.75 1.0638,0.56935 3.2013,1.03525 4.75,1.03125 7.9192,-0.0197 37.3861,-9.48323 45.5312,-14.625 2.0598,-1.29996 3.9643,-2.375 4.25,-2.375 z"
             style="fill:#999999;fill-opacity:1"
             inkscape:connector-curvature="0" />
          <path
             id="path3223"
             d="m -2167.6875,385.6875 0,3.34375 c -0.01,3.57407 -1.3596,12.88876 -3.125,21.71875 -0.9844,4.92337 -1.3819,5.47664 -5.2187,7.21875 -3.5137,1.59532 -6.4116,1.87775 -18.6563,1.78125 -20.721,-0.16323 -20.972,-0.24806 -21,-7.0625 -0.01,-2.12708 -1.5399,-10.52219 -3.375,-19.25 l 9.5937,2.5 c 9.8334,4.29483 27.2714,0.79158 38.5313,-7.78125 z"
             style="fill:#999999;fill-opacity:1"
             inkscape:connector-curvature="0" />
          <path
             id="path3221"
             d="m -2175,427.1875 c 0.9872,0.0372 1.4109,0.6827 2.125,2.25 0.8204,1.8004 1.7395,2.46227 2.7812,2.0625 4.6549,-1.78607 19.6029,12.98669 25.7188,25.40625 3.0831,6.26039 3.1904,6.91088 3.1562,19 -0.032,11.31254 -0.3001,13.02952 -2.625,18 -3.1167,6.66467 -9.9979,15.96823 -13.0937,17.6875 -3.1221,1.73387 -3.519,1.63225 -4.2813,-0.9375 -1.5349,-5.17465 -7.6345,-11.66757 -16.3124,-17.375 -0.1931,-0.12681 0.5922,-1.25738 1.75,-2.5 1.1574,-1.24262 3.0557,-4.22267 4.2187,-6.625 2.6013,-5.37367 2.2434,-13.86681 -0.75,-18.03125 -2.7422,-3.81498 -14.363,-9.32112 -27.5937,-13.0625 -6.2012,-1.75354 -12.6547,-3.61723 -14.3438,-4.15625 -6.4881,-2.07053 -10.1493,-1.31008 -15.0625,3.21875 -9.0468,8.33907 -13.375,17.47336 -13.375,28.21875 l 0,6.0625 -9.75,0 -9.75,0 -1.8437,-3.75 c -1.183,-2.42091 -2.0139,-7.04065 -2.375,-13.09375 -0.5091,-8.52462 -0.3342,-9.85068 1.9374,-14.8125 2.8817,-6.29435 7.4276,-9.73955 23.6876,-17.9375 11.5135,-5.80514 17.2051,-7.24209 16.9374,-4.28125 -0.7309,8.08848 4.3291,6.76975 7.0938,-1.84375 1.1225,-3.49732 1.3742,-3.66975 4.375,-3.03125 4.5651,0.97138 31.595,0.89824 35.2188,-0.0937 0.6784,-0.18583 1.2446,-0.29558 1.6874,-0.34375 0.1661,-0.0181 0.3278,-0.0366 0.4688,-0.0312 z"
             style="fill:#999999;fill-opacity:1"
             inkscape:connector-curvature="0" />
          <path
             sodipodi:nodetypes="cssssssc"
             inkscape:connector-curvature="0"
             id="path3219"
             d="m -2136.5938,656.53125 c 0.4539,0.0432 0.5967,1.78062 0.9063,6.40625 0.275,4.1084 0.3266,14.49983 0.125,15.73733 -0.354,2.173 -0.7387,2.25 -11.25,2.25 -10.7924,0 -10.875,-6.03578 -10.875,-8.39358 0,-2.8012 1.3981,-4.0935 5.5,-5.0625 4.1645,-0.9838 12.3018,-6.3522 14.3125,-9.4375 0.6212,-0.95317 1.0091,-1.5259 1.2812,-1.5 z"
             style="fill:#999999;fill-opacity:1" />
          <path
             sodipodi:nodetypes="cscccccccccc"
             inkscape:connector-curvature="0"
             id="path3215"
             d="m -2136.9375,684.21875 c 1.1172,-0.0741 1.25,1.50347 1.25,9.09375 0,5.2361 -0.5303,10.6262 -1.1563,12 -1.1972,2.6277 -1.8868,2.889 -13.3437,4.625 -3.85,0.5833 -8.2252,1.23115 -9.7187,1.46875 l -2.7188,0.4375 -0.2812,-10.21875 c -0.1569,-5.62 0.098,-11.56875 0.5624,-13.21875 l 0.8438,-6.24077 11.125,6.69451 c 6.1188,-0.1387 11.9268,-4.20534 12.9062,-4.51624 0.203,-0.0644 0.3717,-0.11441 0.5313,-0.125 z"
             style="fill:#999999;fill-opacity:1" />
          <path
             id="path3213"
             d="m -2279.4688,699.90625 c 0.3934,10e-4 2.1937,1.299 4,2.875 7.2301,6.3066 16.0039,9.16445 20.7813,6.78125 l 3,-1.5 0,3.8125 c 0,3.5837 -0.2713,3.90365 -4.7813,5.84375 -2.6302,1.1315 -7.9174,2.84425 -11.75,3.78125 -3.8321,0.937 -7.4149,2.0883 -7.9374,2.5625 -1.5616,1.417 -2.4666,0.97445 -3,-1.40625 -0.8262,-3.6867 -1.087,-22.75 -0.3126,-22.75 z"
             style="fill:#999999;fill-opacity:1"
             inkscape:connector-curvature="0" />
          <path
             id="path3211"
             d="m -2137.7188,715.0625 c 0.9212,-9.5e-4 1.0137,0.81772 1,3.46875 -0.03,5.8089 -1.8691,17.58145 -2.9687,18.90625 -0.5321,0.6411 -4.0307,1.66515 -7.75,2.28125 -3.7193,0.6161 -8.6625,1.4034 -11,1.75 l -4.25,0.625 0,-11.90625 0,-11.90625 10.75,-1.15625 c 5.9125,-0.6422 11.7625,-1.4635 13,-1.8125 0.5142,-0.145 0.9119,-0.24968 1.2187,-0.25 z"
             style="fill:#999999;fill-opacity:1"
             inkscape:connector-curvature="0" />
          <path
             id="path3209"
             d="m -2251.9688,720.875 0.7188,10.59375 c 0.3914,5.8399 0.3924,10.92025 0.031,11.28125 -0.3611,0.3611 -3.4702,0.65625 -6.9374,0.65625 -5.5164,0 -6.5675,-0.3124 -8.3438,-2.5 l -2.0312,-2.5 -2.8438,2.125 c -3.846,2.8619 -3.755,6.38305 0.1875,8.34375 3.4646,1.723 14.5392,1.81155 18.75,0.15625 l 2.75,-1.0625 -0.031,4.71875 c -0.022,7.6519 -0.5676,8.54495 -6.375,10.46875 -5.701,1.8887 -9.4171,2.08925 -14,0.71875 -1.6028,-0.4796 -3.2263,-0.69585 -3.5937,-0.46875 -0.3674,0.227 -1.2339,-6.19325 -1.9063,-14.28125 -0.672,-8.088 -1.4552,-15.8743 -1.75,-17.3125 -0.5262,-2.5706 -0.4004,-2.64335 7.25,-3.78125 7.7039,-1.1458 10.4321,-2.1019 15.5,-5.4375 z"
             style="fill:#999999;fill-opacity:1"
             inkscape:connector-curvature="0" />
          <path
             id="path3207"
             d="m -2139.5938,744.34375 -0.6874,8.03125 c -1.0317,12.0727 -1.0754,12.1178 -9.0938,12.875 -11.7155,1.1063 -11.9843,1.04705 -12.6875,-2.46875 -0.9352,-4.676 -0.7544,-9.677 0.375,-10.375 0.55,-0.3399 1,-1.3825 1,-2.3125 0,-1.3516 2.1343,-2.09335 10.5625,-3.71875 z"
             style="fill:#999999;fill-opacity:1"
             inkscape:connector-curvature="0" />
          <path
             id="path3205"
             d="m -2130.0312,750.0625 c 1.7417,-0.3057 8.6921,4.43381 11.625,8.0625 4.9654,6.1439 5.7187,7.9992 5.7187,14.0625 0,4.3751 -0.5582,6.1767 -2.875,9.375 -6.963,9.612 -17.8924,16.0289 -32.875,19.3125 -9.5642,2.0962 -16.7828,2.34845 -28.6875,0.96875 -7.3568,-0.8526 -19.3362,-4.29855 -22.2188,-6.40625 -1.5679,-1.1466 -1.4306,-1.4382 1.4688,-2.9375 4.2413,-2.1933 4.318,-4.7761 0.125,-3.9375 -2.3411,0.4682 -3.4991,0.11345 -5.0312,-1.53125 -2.4233,-2.6008 -7.9063,-13.9544 -7.9063,-16.375 0,-2.3018 6.9463,-7.2442 12.8125,-9.125 2.5728,-0.8249 8.2875,-1.98965 12.6875,-2.59375 4.4,-0.604 9.2375,-1.36055 10.75,-1.65625 2.669,-0.5219 2.75,-0.3848 2.75,3.9375 0,5.7405 2.3369,12.35305 5.2187,14.71875 2.2486,1.8459 2.3067,1.8088 5.2813,-1.5 2.9334,-3.2631 3.2001,-3.3322 12.75,-3.8125 5.3716,-0.2701 10.3348,-0.95325 11.0313,-1.53125 0.6963,-0.5779 2.5226,-1.52015 4.0312,-2.09375 3.1554,-1.1996 4.5867,-3.91995 2.6875,-5.09375 -0.9322,-0.5761 -1.1331,-2.26885 -0.6875,-6.03125 0.3409,-2.8783 0.8238,-5.41745 1.0625,-5.65625 0.067,-0.067 0.165,-0.13587 0.2813,-0.15625 z"
             style="fill:#999999;fill-opacity:1"
             inkscape:connector-curvature="0" />
          <path
             id="path3175"
             d="m -2250.5312,766.59375 c 0.1331,-0.003 0.2096,0.0222 0.25,0.0625 0.3222,0.3221 0.5937,3.91815 0.5937,7.96875 0,8.3876 0.9336,9.46495 6.0625,6.90625 2.9832,-1.4882 3.3551,-1.47195 6.3125,0.59375 1.7218,1.2026 5.7036,4.6711 8.875,7.6875 10.2859,9.7832 9.7434,16.70355 -1.6563,20.96875 -4.2399,1.5865 -8.6389,2.1199 -21.2187,2.5 -17.8281,0.5386 -16.3322,0.6937 -36.8125,-3.9375 -12.5132,-2.8296 -17.1789,-4.4415 -27.5625,-9.5 -14.0991,-6.8686 -18.3376,-9.7561 -20.5,-13.9375 -2.1582,-4.1736 -1.8657,-6.3013 1.25,-9.0625 4.0646,-3.6021 6.5792,-4.8057 13.5,-6.4375 8.0069,-1.8876 15.4208,-1.87065 25.875,0.0312 13.2778,2.4156 12.875,2.25425 12.875,5.03125 0,3.0445 1.7404,3.8581 5.3125,2.5 2.0707,-0.7873 2.6875,-1.66155 2.6875,-3.96875 0,-2.9678 0.01,-3.0026 4.7813,-2.4375 3.9094,0.463 6.0846,0.009 11.9062,-2.46875 3.4301,-1.45968 6.5349,-2.48218 7.4688,-2.5 z"
             style="fill:#999999;fill-opacity:1"
             inkscape:connector-curvature="0" />
          <path
             sodipodi:nodetypes="cccscccc"
             inkscape:connector-curvature="0"
             style="fill:#999999;fill-opacity:1"
             d="m -2279.4688,672.28622 c 1.1769,3.00379 6.8393,5.34534 15.5219,6.87844 l 12.2594,1.27781 0,3.8125 c 0,3.5837 1.0382,10.94205 -3.4718,12.88215 -2.6302,1.1315 -8.7358,1.69847 -14.369,-2.27505 -1.6564,-0.71953 -9.4761,-8.02559 -9.6279,-8.66478 -0.8262,-3.6867 -1.087,-13.91107 -0.3126,-13.91107 z"
             id="path3316" />
        </g>
        <path
           inkscape:connector-curvature="0"
           id="path4136"
           d="m 1417.0427,-1364.9334 c -0.838,-0.048 -1.5938,0.571 -2.8528,1.8301 -1.5125,1.5125 -2.9652,5.7954 -3.1759,9.5275 -0.4975,8.821 -1.3987,10.0987 -9.0966,12.5954 -11.8128,3.8309 -32.7299,15.1879 -36.2799,19.7012 -5.2987,6.7364 -6.4274,14.1786 -2.7451,18.2474 4.1141,4.5463 8.3977,3.5511 16.1483,-3.6604 7.1668,-6.6681 32.0774,-20.2427 33.8574,-18.4626 1.1726,1.1723 2.0339,3.6902 19.3779,56.5187 10.6485,32.4355 13.9639,49.9571 13.9951,73.367 0,5.8593 0.8274,12.7372 1.7764,15.2332 1.2751,3.3535 2.7357,4.3898 5.598,3.9831 3.534,-0.502 3.8794,-1.6472 4.3601,-12.6494 0.7557,-17.2923 -2.3724,-37.7261 -9.3123,-60.825 -22.085,-73.5104 -22.3836,-74.7756 -19.2163,-77.4041 1.2482,-1.036 8.0424,-3.4595 15.1255,-5.3827 25.0732,-6.8077 28.3519,-8.053 28.9054,-10.9269 0.3434,-1.7822 -1.9677,-4.4395 -6.1901,-7.1052 l -6.7285,-4.3063 -14.4797,3.2835 c -18.7464,4.2391 -18.166,4.295 -20.4006,-2.4761 -1.0565,-3.2012 -3.4941,-7.2262 -5.3827,-8.9354 -1.5722,-1.4227 -2.4453,-2.1045 -3.2836,-2.153 z m 290.6149,11.7344 c -4.0862,0.2777 -9.4657,2.2962 -16.2559,6.0285 -6.0322,3.3159 -12.2052,6.0287 -13.7259,6.0287 -7.5622,0 -9.8149,14.7944 -4.0372,26.5909 4.089,8.3489 10.304,12.6076 27.6136,18.8936 17.1428,6.2252 23.3625,9.3853 28.744,14.6947 7.0599,6.966 14.318,17.5762 14.318,20.9389 0,1.6892 -3.4751,5.9062 -7.6974,9.3661 -7.6484,6.2672 -7.7296,6.2805 -21.9616,5.7056 l -14.2643,-0.592 -0.5382,8.1278 -0.5384,8.0744 6.5671,1.0765 c 3.6024,0.5888 7.7297,1.3141 9.1506,1.6147 1.4212,0.3008 6.4592,0.6474 11.1961,0.7537 10.5515,0.2369 17.5785,-3.7228 25.0837,-13.9952 5.0388,-6.8968 5.3122,-8.0897 4.5754,-18.7858 -0.9581,-13.9006 -5.7399,-24.5079 -15.5562,-34.342 -9.6122,-9.6293 -16.8383,-14.0546 -32.2428,-19.5933 -13.5099,-4.8572 -20.616,-8.6629 -20.616,-11.0884 0,-2.3836 19.8224,-10.5502 25.6219,-10.5502 4.7476,0 5.3829,-0.5361 5.3829,-4.7907 0,-2.6533 -0.9688,-6.9239 -2.1532,-9.4737 -1.3525,-2.9124 -3.6906,-4.491 -6.9974,-4.6828 -0.5315,-0.031 -1.0849,-0.04 -1.6688,0 z m 465.6622,5.8134 c -1.0677,0.02 -2.3752,0.8134 -3.9835,2.2607 -2.1438,1.9295 -7.3634,5.8075 -11.6267,8.6661 -6.0485,4.0556 -8.4183,4.815 -10.6577,3.3913 -4.2763,-2.7187 -7.8032,1.0733 -14.8564,15.9329 -3.3602,7.0787 -12.3396,21.0627 -19.9701,31.0583 -28.6855,37.5771 -32.112,42.4331 -37.1949,53.0742 -5.8362,12.2179 -6.3759,16.2213 -2.6374,19.324 3.7769,3.1348 6.9372,1.1575 13.9951,-8.6664 5.3155,-7.3987 7.0239,-8.6091 10.4425,-7.7511 2.2599,0.5671 6.284,-0.1601 9.0969,-1.6147 7.4527,-3.854 19.8536,-3.2101 34.9878,1.8301 18.419,6.1342 18.4034,6.1031 15.7176,22.5 -2.8275,17.2622 -2.9163,25.2354 -0.3227,27.8287 1.1367,1.1368 2.6666,2.0455 3.3909,2.0455 2.3194,0 4.8812,-6.436 4.8983,-12.3266 0,-3.1411 0.7058,-8.4724 1.561,-11.7881 0.8556,-3.3159 2.0445,-8.8812 2.6377,-12.3804 0.7147,-4.2164 2.2242,-6.7161 4.4677,-7.4282 4.1044,-1.3027 4.2672,-3.5918 0.5919,-7.2667 -2.3619,-2.362 -2.5705,-5.7491 -1.5609,-23.5766 0.6478,-11.4425 2.6626,-32.4578 4.4677,-46.6683 2.5196,-19.8351 2.8914,-28.1744 1.6148,-36.0108 -1.4296,-8.7773 -2.7113,-12.4777 -5.0596,-12.4339 z m -226.6142,6.4052 c -3.3704,0 -8.5,1.4932 -16.5249,4.4679 -22.3923,8.3001 -31.3071,21.5638 -21.8002,32.3501 2.1314,2.4185 13.5345,8.6674 25.3528,13.9416 21.3512,9.5283 25.891,12.0914 25.891,14.5334 0,2.0394 -9.7048,13.6651 -14.6411,17.5478 -2.9038,2.2841 -6.9401,3.5052 -11.3036,3.4448 -4.946,-0.07 -7.2424,0.8165 -8.5049,3.176 -2.22,4.1479 0.7006,11.0072 5.7596,13.4568 8.8282,4.2748 17.4506,1.1603 27.398,-9.8504 9.3146,-10.31 11.6268,-15.875 11.6268,-28.3133 0,-13.3039 -3.0111,-17.9982 -15.0717,-23.5765 -29.27,-13.5377 -29.4673,-13.6863 -22.5537,-17.3862 2.0644,-1.1049 7.6843,-2.4819 12.4881,-3.0683 8.2066,-1.0015 8.7749,-1.3517 9.2583,-6.2979 0.2832,-2.8954 -0.268,-7.3521 -1.238,-9.9042 -1.1388,-2.9952 -2.7658,-4.5138 -6.1365,-4.5216 z m -71.2676,7.6976 c -0.1267,0 -0.2353,0.026 -0.3768,0.053 -0.6785,0.1374 -1.4901,0.6821 -2.7451,1.5611 -4.9819,3.4895 -9.1508,16.6093 -9.1508,28.7977 0,12.5631 3.0698,41.379 5.3289,50.0057 1.2796,4.8868 2.5817,6.4594 5.3292,6.4594 3.478,0 3.558,-0.5627 2.4759,-13.3492 -0.6211,-7.3421 -1.6035,-21.9613 -2.2068,-32.5119 -1.0532,-18.4146 -0.9647,-19.2552 2.5837,-21.1543 4.248,-2.2734 4.9224,-10.5599 1.3994,-16.9017 -1.0775,-1.94 -1.7382,-2.9076 -2.6376,-2.9606 z m 286.1472,11.1426 c 0.8349,-0.069 1.2706,0.7317 1.7763,2.0993 1.238,3.3462 -0.1926,32.6908 -3.2836,68.038 -0.5939,6.7899 -1.6887,10.6735 -2.9604,10.4962 -1.1087,-0.1549 -8.5801,-3.599 -16.6327,-7.6972 -8.0525,-4.0984 -18.2988,-7.9569 -22.769,-8.5585 -7.3801,-0.9938 -7.9745,-1.4357 -6.3517,-4.4678 4.0153,-7.5028 30.2546,-40.869 40.0477,-50.9208 6.2051,-6.3692 8.7823,-8.8741 10.1734,-8.9892 z m -560.6677,6.1362 c -2.2496,-0.088 -4.5597,1.5252 -6.2438,5.2213 -2.8365,6.226 -2.446,10.6861 2.0993,24.0609 2.2293,6.5607 5.7775,19.8753 7.8587,29.6054 4.2422,19.8283 14.47,49.6114 18.6244,54.2042 3.1821,3.5179 8.8003,4.0187 10.0119,0.8613 0.4624,-1.2053 -1.0105,-6.0497 -3.2836,-10.7656 -2.2728,-4.7158 -6.0648,-14.8134 -8.4508,-22.3923 -4.948,-15.7155 -13.2955,-58.4701 -13.2955,-68.0918 0,-7.7147 -3.5708,-12.5563 -7.3206,-12.7034 z m 59.8564,14.695 c -2.2327,0.1789 -4.4809,2.488 -5.3829,6.0826 -0.6495,2.5884 -0.2966,7.834 0.8075,11.6805 1.1036,3.8466 3.9339,15.5239 6.2978,25.9449 5.1268,22.5995 10.3445,36.2683 15.1256,39.617 7.5948,5.3196 8.2355,-0.7403 1.9917,-18.5167 -2.4064,-6.8506 -6.5687,-23.5658 -9.2584,-37.141 -2.6898,-13.575 -5.6764,-25.485 -6.6745,-26.483 -0.8723,-0.8722 -1.892,-1.2655 -2.9068,-1.1843 z m -146.357,12.1651 c -1.435,-0.1159 -2.5032,0.5114 -3.9833,1.9915 -3.9385,3.9385 -3.489,15.0651 0.8613,21.262 8.0069,11.406 17.709,31.3441 17.709,36.4411 0,3.6646 1.1367,6.1288 3.5529,7.5897 1.9715,1.1923 5.799,6.9977 8.5045,12.9187 4.682,10.2448 7.1943,12.7185 9.3662,9.2045 0.5368,-0.8689 -0.122,-6.2455 -1.4533,-11.9496 -2.9534,-12.6598 -2.2461,-13.506 15.3406,-19.2165 14.5818,-4.7347 23.7798,-10.9539 27.3984,-18.5167 2.6243,-5.4842 2.6203,-5.7335 -1.4533,-7.5897 -3.4362,-1.5658 -6.2671,-1.0811 -15.5562,2.6376 -6.2276,2.493 -12.8942,4.5214 -14.8025,4.5214 -1.9085,0 -7.6586,1.5263 -12.8112,3.3374 l -9.3658,3.2834 -6.1365,-12.9724 c -3.3822,-7.1259 -7.0136,-16.7828 -8.0202,-21.4772 -1.3704,-6.3892 -2.8828,-9.0091 -6.0287,-10.4425 -1.2781,-0.5823 -2.2609,-0.9535 -3.1219,-1.0227 z"
           style="fill:#000000"
           sodipodi:nodetypes="csccscscscsccsccccccsccccscccsccccccccccscssscccccsscsscsccsscsccssccscccscsscccscsscccccccsscscscccccccccccscccccscccsccsccscccccscsccccsccssccccsc" />
        <path
           sodipodi:nodetypes="ccssccccscsscscccscccccccccccccscsscccscccsccsccccsccccscccccsscccccccccccccscccsccscsccsccssccccccsscssscccscccssccscssscccc"
           style="fill:#000000"
           d="m 1394.1515,-151.29177 c -5.0973,0.29185 -10.6567,4.13222 -11.8211,8.77026 -3.8172,15.21033 10.7792,85.416925 22.4979,108.293625 5.8282,11.37744 19.892,25.4640525 29.3611,29.4248541 7.3227,3.0629293 18.9661,1.6871432 26.7557,-3.177631 4.7593,-2.9720251 9.9523,-13.2599201 11.5032,-22.8153831 l 1.0803,-6.863681 6.546,9.469337 c 7.51,10.939996 16.9884,18.055651 26.4379,19.8284111 7.7675,1.4571342 22.6808,-2.1204181 24.0863,-5.7832851 1.5177,-3.955311 -1.9389,-69.048332 -4.8937,-92.469037 -2.4288,-19.25145 -2.9639,-20.84524 -7.0543,-20.84524 -8.5666,0 -9.9855,4.68142 -7.3083,24.08643 6.9965,50.71924 7.5752,83.698769 1.4616,83.698769 -1.4003,0 -6.0919,-2.600165 -10.4863,-5.783285 -7.9375,-5.749833 -9.4926,-8.377047 -20.5911,-35.907223 -4.3471,-10.784006 -6.7798,-14.392583 -10.1048,-14.871305 -6.1854,-0.890349 -8.0314,3.868072 -9.6599,25.039723 -2.5683,33.389012 -6.1308,40.296518 -18.6209,35.780115 -8.2164,-2.971212 -22.7139,-17.649014 -27.3911,-27.772488 -1.7699,-3.831052 -3.9897,-6.305434 -4.8937,-5.465523 -0.9041,0.839709 -1.0155,-1.024773 -0.2543,-4.194471 0.9082,-3.780007 0.6885,-5.306082 -0.699,-4.448682 -1.1631,0.71911 -2.2335,-0.391485 -2.3515,-2.414999 -0.1185,-2.023311 -0.3811,-7.346679 -0.6353,-11.820785 -0.2545,-4.474106 -1.6166,-15.827545 -2.9871,-25.293926 -1.3703,-9.4662 -2.6453,-25.30563 -2.8597,-35.14459 -0.3159,-14.46621 -1.0257,-18.09023 -3.6863,-18.93867 -1.065,-0.3397 -2.2554,-0.44869 -3.4316,-0.38132 z m 739.9428,1.71592 c -1.4663,-0.0317 -2.7374,0.44832 -4.2578,1.39816 -2.1391,1.33592 -9.8865,2.415 -17.2229,2.415 -11.4512,0 -14.0815,0.73568 -18.3667,5.02065 -2.7454,2.74548 -4.9573,6.47606 -4.9573,8.26183 0,4.00352 11.6908,9.08804 20.8452,9.08804 12.1654,0 13.9255,2.93816 17.9856,30.695884 2.0299,13.881326 3.7008,34.270416 3.7497,45.249459 0.049,10.979246 1.0663,21.732345 2.2242,23.895777 2.47,4.614834 2.3228,4.590025 8.7703,1.652369 3.3828,-1.541329 5.4558,-4.610563 6.3553,-9.405785 1.8333,-9.772865 1.1888,-37.992356 -1.4619,-63.99747 -1.6747,-16.437644 -1.6714,-22.426534 0.1276,-24.594864 1.6406,-1.97672 9.5395,-3.32831 25.2937,-4.32157 27.7201,-1.74754 42.0296,-4.62164 43.5972,-8.7067 1.8648,-4.86009 -3.3335,-6.66337 -19.7014,-6.73657 -18.1422,-0.0806 -49.5805,-4.62288 -57.6421,-8.3254 -2.2459,-1.03148 -3.8719,-1.557 -5.3384,-1.58881 z m -204.4489,10.23197 c -1.6351,0.0213 -3.3419,0.0961 -5.0841,0.25421 -14.8834,1.34956 -22.6803,5.50152 -36.7332,19.57419 -11.6478,11.66399 -14.9491,17.95956 -11.948,22.815384 1.3757,2.226066 2.9256,2.332132 8.2618,0.317762 3.6118,-1.363181 7.0772,-2.011105 7.69,-1.398159 0.6131,0.612964 1.7551,17.662954 2.542,37.877355 1.4636,37.576773 3.6033,48.363531 9.66,48.363531 7.6468,0 10.2935,-4.475325 8.3252,-14.235783 -1.0147,-5.033366 -2.1852,-28.097674 -2.5421,-51.286956 l -0.6352,-42.135374 5.9738,-2.09722 c 12.6528,-4.41066 25.2774,-1.5698 30.8867,6.99078 3.2831,5.01098 3.2307,5.55877 -2.0338,13.15538 -3.6775,5.306499 -9.4256,9.746228 -17.5405,13.600258 -6.6388,3.153034 -12.0749,6.713083 -12.0751,7.944082 0,1.23078 5.7198,4.930962 12.7105,8.198288 6.9909,3.267308 17.2863,8.610718 22.8788,11.88433 25.2302,14.767795 25.4961,21.041098 1.3985,31.394986 -6.6959,2.876847 -13.1212,4.228739 -16.9687,3.622497 -11.8812,-1.872411 -15.5437,3.267824 -7.8171,10.994601 2.9858,2.986261 5.609,3.7204197 9.66,2.796315 44.0283,-10.042938 60.7037,-27.952366 45.5037,-48.935503 -5.3144,-7.336099 -23.3935,-20.960666 -27.8995,-21.035912 -1.0204,-0.01641 -3.1888,-0.868793 -4.8299,-1.906571 -2.4188,-1.529739 -1.3747,-3.531799 5.7197,-10.486195 14.7369,-14.445656 15.756,-25.221326 3.3682,-36.097856 -8.1015,-7.11328 -17.0247,-10.31738 -28.4717,-10.16842 z m -282.1099,11.88352 c -8.0378,0 -9.8328,4.95843 -5.2112,14.29933 5.5632,11.24444 8.1023,33.609149 7.3086,64.124574 -0.5505,21.152746 -1.3832,27.646705 -4.2581,32.030512 -4.086,6.230798 -10.7427,7.1015191 -19.3834,2.605656 -19.0384,-9.905665 -27.6805,-36.199054 -26.5015,-80.521151 0.3126,-11.744511 -0.084,-22.412091 -0.8898,-23.705121 -1.8607,-2.98442 -9.8226,-1.11811 -13.1554,3.05053 -6.6073,8.26429 -0.8269,66.610957 8.5796,86.495091 6.0594,12.80834 18.5895,25.4001961 30.0602,30.1874866 14.7191,6.1431455 29.36,1.4072067 36.0346,-11.7572316 4.4202,-8.719214 5.3029,-66.090836 1.3344,-86.304438 -4.8699,-24.807268 -7.4863,-30.505238 -13.918,-30.505238 z m 138.8627,1.77948 c -19.239,-0.149 -34.7346,13.97801 -47.7916,43.533525 -14.4282,32.658303 -11.6713,72.9635659 5.5926,81.6650862 7.5567,3.8088854 16.1651,2.8303799 28.6622,-3.2411816 12.2467,-5.9497437 18.1327,-15.5551346 19.1294,-31.2043276 l 0.8261,-12.774073 11.3759,-1.46171 c 16.0653,-2.007245 19.1419,-2.681615 21.2901,-4.829998 5.6378,-5.637574 -27.022,-14.102884 -44.3598,-11.503015 -6.0966,0.914331 -9.7677,2.803833 -12.0112,6.22815 -3.5677,5.444779 -4.2527,11.121704 -1.3348,11.121704 4.6375,0 8.3254,6.897848 8.3254,15.633941 0,7.677765 -1.0886,10.205633 -6.3554,15.125519 -8.0207,7.4926995 -14.5566,7.5683521 -19.7648,0.254209 -9.5879,-13.465219 -7.1252,-40.569032 6.0374,-65.904052 8.1631,-15.711831 22.4235,-32.221167 27.8363,-32.221167 1.6134,0 4.0715,1.48541 5.4019,3.30473 3.0243,4.1359 10.1406,1.03404 11.7571,-5.14774 1.5399,-5.88793 -2.8917,-8.48809 -14.6168,-8.5796 z m 266.2851,10.42261 c -4.3455,0 -8.4826,0.88842 -9.1515,1.97013 -0.6686,1.08193 -3.8205,1.46029 -6.9906,0.82619 -4.821,-0.96417 -6.5668,-0.0416 -10.8677,5.65617 -5.9135,7.833753 -10.4111,17.934764 -15.6975,35.271695 -9.5823,31.426109 -9.0959,43.223303 2.2244,52.748668 4.7243,3.975241 8.453,5.211314 15.6977,5.211314 24.4691,-0.02909 38.1484,-10.455369 43.9784,-33.555775 10.1082,-40.055217 2.1913,-68.128392 -19.1932,-68.128392 z m -5.5926,12.77408 c 2.1726,-0.16595 4.3631,1.34043 6.9274,4.321576 4.0466,4.704313 4.7662,7.712746 4.7662,20.209718 0,20.618707 -4.6712,37.58949 -12.2655,44.55038 -6.4524,5.914358 -13.8083,6.9675 -21.7987,3.114078 -4.9977,-2.410525 -5.195,-2.891796 -4.6391,-14.807757 0.4353,-9.340097 10.5815,-36.975915 17.7313,-48.363529 3.6802,-5.862162 6.4851,-8.811146 9.2784,-9.024466 z"
           id="path4140"
           inkscape:connector-curvature="0" />
      </g>
    </g>
    <rect
       style="color:#000000;fill:none;stroke:none;stroke-width:2;marker:none;visibility:visible;display:inline;overflow:visible;enable-background:accumulate"
       id="rect3042"
       width="984"
       height="242"
       x="937.44232"
       y="-1770.3433"
       inkscape:export-filename="/Users/pat/Sites/Wugbot/wugbot.org/img/banner.png"
       inkscape:export-xdpi="90"
       inkscape:export-ydpi="90" />
  </g>
</svg>
