<?xml version="1.0" encoding="iso-8859-1"?>
<!-- Generator: Adobe Illustrator 19.0.0, SVG Export Plug-In . SVG Version: 6.00 Build 0)  -->
<svg version="1.1" id="Layer_1" xmlns="http://www.w3.org/2000/svg" xmlns:xlink="http://www.w3.org/1999/xlink" x="0px" y="0px"
	 viewBox="0 0 496 496" style="enable-background:new 0 0 496 496;" xml:space="preserve">
<path style="fill:#EAEAEA;" d="M417.6,0H123.2C98.4,0,78.4,19.2,78.4,44l0,0c0,24.8,20,44,44.8,44h294.4"/>
<path style="fill:#513C25;" d="M417.6,0v88H123.2c-24.8,0-40-17.6-41.6-26.4l0,0v373.6V448c0,24,16.8,48,41.6,48h294.4v-88l0,0
	v-24.8V228.8v-56V0L417.6,0z"/>
<polyline style="fill:#C4C4C4;" points="121.6,0 417.6,0 417.6,88 "/>
<polyline style="fill:#A0A0A0;" points="113.6,40 417.6,40 417.6,48 "/>
<rect x="137.6" y="136" style="fill:#FFC114;" width="224" height="304"/>
<rect x="145.6" y="152" style="fill:#604A34;" width="208" height="280"/>
<polygon style="fill:#C4C4C4;" points="266.4,88 219.2,42.4 187.2,74.4 216,88 "/>
<polygon style="fill:#F15249;" points="217.6,40 187.2,40 185.6,40 153.6,40 153.6,168.8 185.6,143.2 217.6,168.8 "/>
<polyline style="fill:#C93131;" points="185.6,143.2 217.6,168.8 217.6,40 187.2,40 185.6,40 "/>
<path style="fill:#FFC114;" d="M185.6,212c8-1.6,26.4-3.2,43.2-3.2c30.4,0,51.2,7.2,65.6,20c14.4,13.6,22.4,32,22.4,58.4
	c0,26.4-8,48-23.2,63.2s-39.2,23.2-70.4,23.2c-15.2,0-28.8-0.8-36.8-1.6V212H185.6z M201.6,224v132c8,0.8,14.4,1.6,22.4,1.6
	c44.8,0,68.8-26.4,68.8-70.4"/>
<g>
</g>
<g>
</g>
<g>
</g>
<g>
</g>
<g>
</g>
<g>
</g>
<g>
</g>
<g>
</g>
<g>
</g>
<g>
</g>
<g>
</g>
<g>
</g>
<g>
</g>
<g>
</g>
<g>
</g>
</svg>
