<?xml version="1.0" encoding="UTF-8" standalone="no"?>
<!-- Created with Inkscape (http://www.inkscape.org/) -->

<svg
   xmlns:dc="http://purl.org/dc/elements/1.1/"
   xmlns:cc="http://creativecommons.org/ns#"
   xmlns:rdf="http://www.w3.org/1999/02/22-rdf-syntax-ns#"
   xmlns:svg="http://www.w3.org/2000/svg"
   xmlns="http://www.w3.org/2000/svg"
   xmlns:sodipodi="http://sodipodi.sourceforge.net/DTD/sodipodi-0.dtd"
   xmlns:inkscape="http://www.inkscape.org/namespaces/inkscape"
   width="114.95359"
   height="186.81175"
   id="svg2"
   version="1.1"
   inkscape:version="0.48.2 r9819"
   sodipodi:docname="thisIsAWug.svg">
  <defs
     id="defs4" />
  <sodipodi:namedview
     id="base"
     pagecolor="#ffffff"
     bordercolor="#666666"
     borderopacity="1.0"
     inkscape:pageopacity="0.0"
     inkscape:pageshadow="2"
     inkscape:zoom="0.5625"
     inkscape:cx="141.11108"
     inkscape:cy="-8.5394773"
     inkscape:document-units="px"
     inkscape:current-layer="layer1"
     showgrid="false"
     showguides="true"
     inkscape:guide-bbox="true"
     fit-margin-top="10"
     fit-margin-left="10"
     fit-margin-right="10"
     fit-margin-bottom="10"
     inkscape:window-width="1162"
     inkscape:window-height="828"
     inkscape:window-x="0"
     inkscape:window-y="0"
     inkscape:window-maximized="0">
    <sodipodi:guide
       orientation="0,1"
       position="-280.63402,-1070.161"
       id="guide4194" />
  </sodipodi:namedview>
  <metadata
     id="metadata7">
    <rdf:RDF>
      <cc:Work
         rdf:about="">
        <dc:format>image/svg+xml</dc:format>
        <dc:type
           rdf:resource="http://purl.org/dc/dcmitype/StillImage" />
        <dc:title></dc:title>
      </cc:Work>
    </rdf:RDF>
  </metadata>
  <g
     inkscape:label="Layer 1"
     inkscape:groupmode="layer"
     id="layer1"
     transform="translate(-1368.2395,1747.2348)">
    <g
       id="g4126"
       transform="matrix(0.12416978,0,0,0.12416978,1575.5833,-1720.6069)">
      <path
         id="path3173"
         d="m -1178.25,137.15625 c -32.1972,0.22457 -42.2308,3.08817 -73.3125,13.5 -14.7436,4.93884 -35.1521,15.41231 -46.625,23.9375 -4.7281,3.51336 -11.1936,7.95 -14.375,9.875 -20.0071,12.10611 -53.4602,37.77117 -63.6875,48.84375 -2.9347,3.17716 -8.3822,10.69649 -12.125,16.71875 -3.7427,6.02226 -9.2478,14.3125 -12.2188,18.4375 -6.7141,9.32208 -12.1368,18.27039 -16.9687,28 -2.0486,4.125 -6.6415,12.79548 -10.2187,19.25 -9.263,16.71415 -13.7406,27.69775 -17.7188,43.46875 -1.9131,7.58446 -4.1733,16.25625 -5.0312,19.28125 -3.8515,13.57892 -6.6242,27.38795 -7.5938,38 -0.5779,6.325 -1.8142,15.55 -2.75,20.5 -2.0682,10.93897 -2.1727,44.21517 -0.25,75 0.687,11 1.4738,39.575 1.75,63.5 0.4116,35.65907 0.197,46.64362 -1.1562,60.90625 -1.9511,20.56559 -7.4867,54.96418 -10.875,67.625 -2.9607,11.06276 -9.4462,26.81049 -14.625,35.46875 -5.9884,10.01159 -12.2048,15.7996 -28.875,26.84375 -12.6983,8.41272 -16.009,10.15625 -19.1563,10.15625 -4.3621,0 -5.5656,1.72099 -3.8437,5.5 1.9899,4.36752 7.7516,4.45475 16.4062,0.25 l 4.375,-2.125 2.2812,2.09375 c 1.2472,1.14058 3.6705,2.76438 5.375,3.625 3.4553,1.74439 21.8832,9.00635 33.4063,13.15625 4.125,1.4855 9.1571,3.32185 11.2187,4.09375 16.354,6.1233 88.5983,25.63775 103.2813,27.90625 2.2,0.3399 6.925,1.2389 10.5,2 3.575,0.761 10.2216,1.94055 14.7813,2.59375 4.5597,0.6532 8.1344,1.4707 7.9687,1.8125 -3.8661,7.9724 -13.9163,27.0271 -18.0313,34.1875 -2.9765,5.1795 -5.9218,10.942 -6.5624,12.8125 -0.6407,1.8706 -2.9878,6.52845 -5.1876,10.34375 -2.4556,4.2595 -3.9687,8.2243 -3.9687,10.25 0,3.2859 0.027,3.2878 6.75,4.5 3.7125,0.6694 10.4766,2.331 15.0313,3.6875 8.0341,2.3926 11.691,3.8091 23.2187,9.0625 3.5228,1.6054 7.4771,2.57805 11,2.65625 5.4912,0.1219 5.471,0.11685 5.7813,-3.09375 0.2708,-2.802 -0.051,-3.3294 -2.5,-3.9375 -1.5461,-0.3839 -6.6343,-2.53375 -11.3438,-4.78125 -4.7094,-2.2474 -9.8844,-4.61195 -11.5,-5.28125 -2.7212,-1.1272 -22.2147,-7.3125 -23.0625,-7.3125 -1.3677,0 0.6415,-4.8014 8.25,-19.625 9.2256,-17.9739 12.008,-23.57915 17.4375,-35.21875 l 3.4375,-7.34375 6,0.59375 c 3.3,0.324 10.05,1.04655 15,1.59375 4.95,0.5472 22.3875,0.9903 38.75,1 23.1252,0.014 29.7207,0.2784 29.7187,1.25 -0.01,3.2689 -5.3377,20.59275 -9.5,30.84375 -2.5524,6.2862 -5.106,12.75625 -5.6874,14.40625 -0.5815,1.65 -1.672,4.45215 -2.4063,6.21875 -1.5539,3.7384 -1.4492,3.815 5.125,4.75 7.406,1.0534 33.1833,12.0246 41.5625,17.6875 6.0071,4.0599 35.1689,17.83875 43.8438,20.71875 9.0399,3.0012 19.3858,3.9944 25.3437,2.4375 1.1419,-0.2984 1.75,-1.4202 1.75,-3.25 0,-3.2201 -1.2688,-4.47405 -5.5,-5.46875 -9.9833,-2.3468 -24.4938,-8.5884 -56.3437,-24.25 -24.5993,-12.0963 -34.6105,-16.34375 -38.6876,-16.34375 -1.9182,0 -2.4687,-0.50025 -2.4687,-2.28125 0,-1.265 0.3985,-2.7275 0.9063,-3.25 1.3413,-1.3804 8.2475,-19.1059 12.6874,-32.5625 l 3.8438,-11.625 9.0312,-0.65625 c 27.8968,-1.9772 76.2362,-12.83235 97.5313,-21.90625 1.9242,-0.8199 5.75,-2.4243 8.5,-3.5625 51.3205,-21.2419 72.2605,-34.4781 102,-64.5625 12.0423,-12.18197 16.24345,-17.23773 21.40625,-25.625 16.2941,-26.47063 21.6939,-42.24912 22.75,-66.46875 1.3121,-30.08988 -3.60985,-54.93883 -22.15625,-112 -9.6007,-29.53822 -17.48105,-64.35208 -19.59375,-86.5 -2.5602,-26.83995 1.72415,-68.53819 9.09375,-88.5 1.2183,-3.3 3.2079,-8.925 4.4375,-12.5 5.8815,-17.09997 17.7028,-34.15591 35.6875,-51.5625 11.7006,-11.32445 14.9953,-13.7643 22.0625,-16.46875 3.1008,-1.1866 7.00769,-3.59601 8.96875,-4.96875 12.95283,-9.06698 16.80055,-14.10683 17.9375,-16.375 0.59422,-0.62349 0.63646,-1.22756 0.375,-2.0625 -0.3529,-1.12698 -0.98995,-3.6375 -1.40625,-5.5625 -0.4163,-1.925 -1.6792,-5.3 -2.8125,-7.5 -5.3277,-10.34212 -36.0196,-45.19244 -47.75,-54.21875 -8.2995,-6.38626 -36.6962,-25.26693 -45.6875,-30.375 -3.4834,-1.97896 -7.6716,-3.91127 -9.3125,-4.3125 -1.6408,-0.40123 -7.0408,-2.46484 -12,-4.5625 -12.4815,-5.27951 -25.7871,-9.6731 -33.5,-11.0625 -6.6966,-1.20631 -21.8826,-4.34787 -42,-8.6875 -10.4639,-2.25721 -14.5183,-2.54399 -45,-3.125 -17.2571,-0.32894 -30.4551,-0.54361 -41.1875,-0.46875 z"
         style="fill:#1a1a1a"
         inkscape:connector-curvature="0" />
      <path
         id="path3171"
         d="m -1198.25,153.71875 c 3.0985,0.0247 6.3277,0.14036 9.6875,0.3125 8.8,0.45086 25.45,0.88442 37,0.96875 11.55,0.0843 23.925,0.47094 27.5,0.875 5.3982,0.61014 36.7821,6.31503 59,10.71875 6.6121,1.31056 21.6411,6.14027 25.7813,8.28125 1.6375,0.84678 7.3657,3.20176 12.75,5.21875 10.4402,3.911 17.7248,7.74972 28.9687,15.375 3.85,2.61096 10.15,6.68962 14,9.03125 3.85,2.34163 7.225,4.5205 7.5,4.875 0.275,0.3545 3.4113,2.95808 7,5.78125 11.3312,8.91418 39.4725,41.26417 44.6875,51.375 2.4824,4.81276 3.2823,5.52596 6.8125,6.28125 1.58613,0.33935 2.98147,0.5815 4.28125,0.71875 l 0,0.96875 c -11.07477,5.71068 -29.88613,16.08024 -32.03125,17.8125 -7.5558,6.10143 -32.5831,32.28938 -38.375,40.15625 -17.1831,23.33905 -27.8932,47.43956 -31.7813,71.5 -4.3841,27.1314 -4.643,55.08525 -0.7187,79.5 2.2591,14.05444 8.8077,41.67233 13.2813,56 3.87189,12.40086 9.66685,30.70222 10.93745,34.5 16.779,50.15174 20.9643,91.60842 11.875,117.84375 -3.6811,10.62499 -12.17645,27.18138 -19.71875,38.40625 -7.2034,10.72041 -22.9694,26.58048 -42.3125,42.625 -5.924,4.91383 -21.0882,14.6826 -29.1562,18.75 -36.1477,18.2232 -70.313,29.11885 -112.4063,35.84375 -12.8303,2.0497 -29.375,3.64535 -29.375,2.84375 0,-0.263 0.912,-4.9249 2.0625,-10.375 1.1506,-5.4501 3.1826,-15.5625 4.5,-22.4375 1.3173,-6.875 3.7452,-18.72615 5.375,-26.34375 2.8948,-13.53023 3.9939,-27.30281 2.5,-31 -1.1176,-2.7661 -6.1501,-1.33984 -10.5625,2.96875 -3.6259,3.54061 -3.652,3.59544 -4.1563,13.71875 -0.2787,5.59441 -1.0057,12.18125 -1.625,14.65625 -1.6757,6.696 -5.5228,25.5431 -8.6874,42.5 -1.5398,8.25 -3.2061,15.5625 -3.7188,16.25 -1.1926,1.5993 -46.231,1.75985 -64.0312,0.21875 -53.4466,-4.6272 -130.5357,-22.69053 -187.6563,-43.96875 -8.525,-3.17568 -16.625,-6.10233 -18,-6.5 -1.375,-0.39768 -2.95,-1.05774 -3.5,-1.46875 -0.55,-0.411 -2.7113,-1.302 -4.7813,-1.96875 l -3.75,-1.21875 10.1876,-7.34375 c 18.2005,-13.14292 27.3651,-23.73591 35.2187,-40.65625 8.4606,-18.22811 12.6077,-34.37046 17.6563,-68.84375 2.8965,-19.7781 3.1988,-24.70354 4.0624,-61.5 0.6477,-27.59249 0.6224,-45.58338 -0.125,-58 -0.5959,-9.9 -1.4931,-27.675 -2,-39.5 -0.5068,-11.825 -1.3977,-24.2 -1.9687,-27.5 -1.3563,-7.83841 -1.4406,-31.2053 -0.125,-36.125 0.566,-2.11683 1.7746,-12.18576 2.6563,-22.34375 1.2293,-14.16381 2.409,-21.62323 5.125,-32 1.9478,-7.44201 4.3893,-17.58125 5.4374,-22.53125 3.0962,-14.62112 7.6249,-27.21591 12.0313,-33.59375 0.9897,-1.43259 5.8224,-10.65759 10.75,-20.5 7.1956,-14.37234 16.2427,-29.19694 23.7813,-38.9375 0.9583,-1.23833 2.7753,-4.28074 6.2187,-10.46875 3.2663,-5.86968 9.7755,-14.84295 13.0625,-18 5.8189,-5.58875 33.4214,-28.22986 38.3125,-31.4375 12.8601,-8.43373 33.8338,-22.54559 40.125,-27 5.0717,-3.59095 11.3775,-6.57058 24,-11.28125 28.2716,-10.5508 44.7483,-14.20412 66.4375,-14.03125 z"
         style="fill:#6fd1f6;fill-opacity:1"
         inkscape:connector-curvature="0" />
      <path
         id="path3169"
         d="m -1114.1562,263.78125 c -1.6782,0.032 -3.3142,0.54909 -4.7813,1.59375 -1.7448,1.24238 -4.5086,2.1109 -6.7813,2.125 -10.2971,0.0639 -15.3734,3.39075 -19.2187,12.65625 -3.2238,7.76791 -2.8815,9.96206 2.3437,14.96875 2.4734,2.36981 5.7358,4.60278 7.25,4.9375 1.5143,0.33473 5.0313,1.29995 7.7813,2.15625 7.0852,2.20622 6.85,2.15118 8.5,1.53125 0.825,-0.30997 3.3418,-2.1723 5.625,-4.15625 2.2831,-1.98396 6.2867,-5.37908 8.875,-7.53125 l 4.6875,-3.90625 -0.6562,-5.09375 c -1.0158,-7.84164 -2.5638,-12.15443 -5.5626,-15.4375 -2.3566,-2.58022 -5.2656,-3.89709 -8.0624,-3.84375 z"
         style="fill:#000000"
         inkscape:connector-curvature="0" />
      <path
         id="path3157"
         d="m -904.34375,267.1875 c 0.0239,0.096 -0.0168,0.52253 -0.21875,1.28125 -0.0662,-0.64844 0.13989,-1.26487 0.21875,-1.28125 z"
         style="fill:#000000"
         inkscape:connector-curvature="0" />
    </g>
  </g>
</svg>
